<svg xmlns="http://www.w3.org/2000/svg" viewBox="0 0 485.8 507.2">
  <path fill="currentColor" d="M373.7,295.5a9.7,9.7,0,0,1-4-.9l-70.4-32.2a9.8,9.8,0,0,1-5.6-7.8,9.5,9.5,0,0,1,3.8-8.7l70.4-52.2a9.7,9.7,0,0,1,11.5,15.5l-57.3,42.5,55.5,25.4a9.6,9.6,0,0,1-3.9,18.4Zm0,5.4a15.2,15.2,0,0,1-6.3-1.4l-70.3-32.1a15.1,15.1,0,0,1-8.7-12.1,14.9,14.9,0,0,1,6-13.6l70.4-52.2c6.4-4.8,16.2-3.3,21,3.1a14.7,14.7,0,0,1,2.8,11.1,15.1,15.1,0,0,1-5.9,9.9l-50,37L380,272.2a15,15,0,0,1,7.4,19.9A15.2,15.2,0,0,1,373.7,300.9Zm0-103.6a4,4,0,0,0-2.5.8l-70.4,52.2a4.4,4.4,0,0,0-1.7,3.8,4.2,4.2,0,0,0,2.5,3.5L372,289.7a4.4,4.4,0,0,0,5.7-2.1,4.2,4.2,0,0,0-2.1-5.6l-55.5-25.4a5.4,5.4,0,0,1-3.1-4.3,5.5,5.5,0,0,1,2.1-4.9l57.3-42.5a4.6,4.6,0,0,0,1.7-2.8,3.9,3.9,0,0,0-.8-3.1A5.3,5.3,0,0,0,373.7,197.3ZM138.3,295.5a9.8,9.8,0,0,1-8.8-5.6,9.6,9.6,0,0,1,4.8-12.8l55.5-25.4-57.2-42.5a9.7,9.7,0,1,1,11.5-15.5l70.4,52.2a9.6,9.6,0,0,1,3.8,8.7,9.9,9.9,0,0,1-5.6,7.8l-70.4,32.2A8.1,8.1,0,0,1,138.3,295.5Zm0,5.4a15.2,15.2,0,0,1-13.7-8.7,15.1,15.1,0,0,1,7.4-19.9l47.2-21.6-49.9-37.1a15.1,15.1,0,0,1-5.9-9.9,14.7,14.7,0,0,1,2.8-11.1,15.4,15.4,0,0,1,21-3.1l70.4,52.2a15,15,0,0,1-2.6,25.7l-70.4,32.2A15.1,15.1,0,0,1,138.3,300.9Zm0-103.6a4.1,4.1,0,0,0-3.4,1.7,3.9,3.9,0,0,0-.8,3.1,4.6,4.6,0,0,0,1.7,2.8L193,247.4a5.4,5.4,0,0,1-1,9.2L136.5,282a4.3,4.3,0,0,0-2.1,5.7,4.4,4.4,0,0,0,5.7,2.1l70.3-32.2a4.4,4.4,0,0,0,2.5-3.4,4.2,4.2,0,0,0-1.7-3.9l-70.4-52.2A4.5,4.5,0,0,0,138.3,197.3ZM361.1,385.2H150.9a5.3,5.3,0,0,1-4.1-1.9,5.7,5.7,0,0,1-1.2-4.4c7.6-43.4,55.1-76.1,110.4-76.1s102.8,32.7,110.4,76a5.4,5.4,0,0,1-1.2,4.4A5.1,5.1,0,0,1,361.1,385.2ZM304.2,125.5l4.6,2.8,11.5,7.1,7.5,4.5,8.2,4.8,4.3,2.5,4.5,2.5c1.4.9,3,1.7,4.5,2.5l4.6,2.5c3.1,1.6,6.2,3.2,9.2,4.9l4.6,2.3,4.5,2.4c3,1.4,5.9,2.9,8.6,4.3a38.6,38.6,0,0,0,4.1,2l3.8,1.9,6.7,3.6,5.3,2.9c1.5.8,2.6,1.6,3.4,2.1l1.2.8-1.4.3-4,.6-6.2.6a54.1,54.1,0,0,1-8-.1,82.5,82.5,0,0,1-9.4-.9c-3.3-.6-6.8-1.3-10.3-2.2l-5.3-1.7-5.4-1.9c-3.5-1.5-7.1-3.2-10.6-5l-5.1-3a51.4,51.4,0,0,1-4.9-3.2,89.4,89.4,0,0,1-8.9-7.1,88.4,88.4,0,0,1-7.5-7.5c-2.2-2.6-4.2-5.1-5.9-7.5s-1.6-2.4-2.3-3.6a37.9,37.9,0,0,1-1.8-3.4,38.5,38.5,0,0,1-2.6-5.7l-1.3-3.9C304.3,126,304.2,125.5,304.2,125.5Zm86.7,63.4-4.6-.2-2.6-.2c-2.7-.2-5.5-.4-8.4-.9s-7-1.3-10.6-2.2l-4.2-1.3-1.5-.5-5.6-1.9c-3.9-1.7-7.7-3.4-11.2-5.3l-5.4-3.1a44.1,44.1,0,0,1-5.3-3.5,97,97,0,0,1-9.3-7.4,95.7,95.7,0,0,1-7.8-7.8c-2.4-2.8-4.5-5.5-6.3-8l-2.5-3.8-2.1-3.7a54.5,54.5,0,0,1-2.6-5.7,36.5,36.5,0,0,1-1.6-4.9,8.7,8.7,0,0,1-.4-2.1,5.5,5.5,0,0,1,2.5-5.2,5.6,5.6,0,0,1,5.7-.1l26.7,16.3,4.8,2.8,2.4,1.4a11.8,11.8,0,0,0,1.9,1.1l4.6,2.5,3.4,1.9,5.5,3,2.1,1.1c2.4,1.3,4.9,2.5,7.2,3.9l4.4,2.2,4.6,2.5c2.7,1.3,5.7,2.7,8.5,4.2l2.7,1.4,8,4.1a31.3,31.3,0,0,0,3.6,1.9l5.8,3.1,2.6,1.6,2.6,1.7a5.4,5.4,0,0,1-1.8,9.4l-2.1.4-4.2.7-6.4.6Zm-74.7-49.6.8,1.3a83.6,83.6,0,0,0,5.4,6.8,90.1,90.1,0,0,0,6.9,7,97.3,97.3,0,0,0,8.5,6.8c1.5,1.1,3,2,4.5,2.9l5,2.9c3.2,1.7,6.7,3.2,10.1,4.7l4.9,1.7,1.5.5,3.5,1.1,9.8,2.1a43.8,43.8,0,0,0,7.1.7h3l-6-3.1-3.4-1.7-8.2-4.1-4.2-2.2-4.9-2.4c-2.6-1.5-4.9-2.7-7.3-3.9l-2.1-1.1c-1.7-1-3.1-1.8-4.6-2.5l-4.9-2.7-4.1-2.3-2.4-1.4a11.8,11.8,0,0,0-1.9-1.1l-5.2-3ZM207.8,125.5l-.3,1.4-1.2,3.9c-.7,1.6-1.5,3.6-2.6,5.7s-1.2,2.2-1.8,3.4-1.5,2.3-2.3,3.6a91.6,91.6,0,0,1-5.9,7.5,88.4,88.4,0,0,1-7.5,7.5,92.4,92.4,0,0,1-8.9,7.1,51.4,51.4,0,0,1-4.9,3.2l-5.1,3c-3.5,1.8-7.1,3.4-10.6,5l-5.4,1.9-5.3,1.7c-3.6.9-7,1.6-10.3,2.2a82.5,82.5,0,0,1-9.4.9,72.5,72.5,0,0,1-8,.1l-6.1-.6-4-.6-1.4-.3,1.2-.8,3.4-2.1c1.4-.9,3.2-1.8,5.3-2.9s4.3-2.3,6.7-3.6l3.8-1.9a37.3,37.3,0,0,0,4-2c2.7-1.5,5.6-2.9,8.6-4.3l4.4-2.4,4.6-2.3c3-1.7,6.1-3.3,9.2-4.9l4.6-2.5c1.5-.8,3.1-1.6,4.5-2.5l4.5-2.5c1.5-.8,2.8-1.8,4.3-2.5l8.2-4.8,7.5-4.5,11.5-7.1Zm-86.7,63.4a18.3,18.3,0,0,1-3.3-.2l-6.3-.6-3.4-.5-2.7-.5a5.6,5.6,0,0,1-3.8-4.2,5.4,5.4,0,0,1,2-5.3l1.6-1.1,3.7-2.2,5.4-3,3.8-2,7.9-4.1,2.6-1.3,9-4.5,3-1.6,1.2-.7,4.8-2.4,6.2-3.3,2.8-1.5,4.6-2.5,1.1-.6,3.1-1.7,4.8-2.7,1.8-1,2.5-1.5,5-2.9L205,121a5.3,5.3,0,0,1,5.7.1,5.6,5.6,0,0,1,2.5,5.2,16.3,16.3,0,0,1-.5,2.2l-1.3,4.2c0,.1-.4.9-.4,1-.7,1.6-1.5,3.5-2.5,5.5a16.6,16.6,0,0,1-1.4,2.5c0,.1-.6,1-.6,1.1l-2.3,3.6c-1.9,2.7-4,5.4-6.3,8.2a77.4,77.4,0,0,1-8.1,8.1c-2.9,2.7-6.3,5.2-9.2,7.4a54.1,54.1,0,0,1-5.3,3.5l-4.4,2.6c-4.4,2.4-8.1,4-11.8,5.6l-5.9,2-1.3.4-4.2,1.3c-3.9.9-7.4,1.7-10.8,2.3s-5.7.7-8.4.9h-7.4Zm74.7-49.6L184,146.4l-5.3,3.1-2,1.1-2.4,1.4-4.3,2.4-3.5,2-1.1.6-4.5,2.5-3,1.6-6.2,3.3-4.8,2.4-1.3.7-3,1.6-8.7,4.4-3.3,1.7-6,3.1h.6l2.5-.2a63,63,0,0,0,7.1-.7l10-2.1,3.5-1.1,1.3-.4,5.2-1.8c3.1-1.4,6.6-2.9,10-4.7l4.7-2.8a49.7,49.7,0,0,0,4.5-2.9,89.2,89.2,0,0,0,8.5-6.7,81.4,81.4,0,0,0,7.2-7.2,82.3,82.3,0,0,0,5.4-7ZM498.9,245.2C498.9,111.3,389.9,2.3,256,2.3S13.1,111.3,13.1,245.2c0,107,69.5,198,165.7,230.3V452.7C94.7,421.3,34.6,340.2,34.6,245.2,34.6,123.1,133.9,23.8,256,23.8s221.4,99.3,221.4,221.4c0,95-60.1,176.1-144.3,207.5v22.8C429.4,443.2,498.9,352.2,498.9,245.2ZM322.4,487.3a21.7,21.7,0,0,1-6.7,6.8c-3.2,1.9-8.4.5-13.4-1l-3.3-1c-6.3-1.7-13.4-.2-19.5,1.7-8.1,2.7-14.5,4.6-22.9,4.8-5.1,0-10.1-1.3-15.5-2.7-7.2-1.8-14.9-3.8-23.2-2.6a76,76,0,0,0-11.2,2.7c-6.2,1.8-12.9,3.6-17.2,2.3V478.7c-3.6-1-7.2-2.1-10.7-3.3v26.3a5.3,5.3,0,0,0,2.5,4.5,22.2,22.2,0,0,0,12.1,3.3c5.6,0,11.1-1.6,16.5-3.2a70.8,70.8,0,0,1,9.6-2.4c6.4-.9,12.5.7,19.1,2.4s11.7,3,18.1,3h1.4c8.8-.3,16.1-2.5,24.8-5.4,5.4-1.7,9.6-2.6,13.3-1.6l3,.9c6.7,2,15.6,3.7,21.9,0a31.1,31.1,0,0,0,11.3-11.7,5.4,5.4,0,0,0,.8-2.8V475.4c-3.5,1.2-7.1,2.3-10.7,3.3v8.6ZM189.6,379.7c3.9-2.9,19.5-7.8,27.2-7.8a6.4,6.4,0,0,0,3.4-1.2c.1-.1,7.2-5,33.4-5.5h2.9c25.2,0,35.7,5.9,35.8,5.9a5.4,5.4,0,0,0,2.8.8c7.8,0,23.4,4.8,27.3,7.8v76.7c3.6-1.1,7.2-2.4,10.7-3.7V378.3c0-10.7-28-16.4-36.7-17.1-3.9-1.9-16.3-6.8-40-6.8h-3.1c-24.2.4-34.5,4.5-38.4,6.8-9,.8-36.2,6.5-36.2,17.1v74.4c3.5,1.3,7.1,2.6,10.7,3.7V379.7Zm27.2,90.4a2.9,2.9,0,0,1-2.9-2.9V376.6a2.9,2.9,0,1,1,5.8,0v90.6A2.9,2.9,0,0,1,216.8,470.1Zm74.2,0a2.9,2.9,0,0,1-2.9-2.9V376.6a2.9,2.9,0,1,1,5.8,0v90.6A2.9,2.9,0,0,1,291,470.1Zm-44.2,18.2a2.9,2.9,0,0,1-2.9-2.9V431.2a2.9,2.9,0,1,1,5.8,0v54.2A2.9,2.9,0,0,1,246.8,488.3Zm0-78.5a2.9,2.9,0,0,1-2.9-2.9V379.8a2.9,2.9,0,1,1,5.8,0v27.1A2.9,2.9,0,0,1,246.8,409.8Zm-57.2,46.6v22.5l-10.8-3.4V452.7m143.6,3.8h0v22.6l10.8-3.4V452.7Z" transform="translate(-13.1 -2.3)"></path>
</svg>
