<?xml version="1.0" encoding="utf-8"?>
<!-- Generator: Adobe Illustrator 24.0.1, SVG Export Plug-In . SVG Version: 6.00 Build 0)  -->
<svg version="1.1" id="Camada_1" focusable="false" xmlns="http://www.w3.org/2000/svg" xmlns:xlink="http://www.w3.org/1999/xlink"
	 x="0px" y="0px" viewBox="0 0 512 512" style="enable-background:new 0 0 512 512;" xml:space="preserve">
<g>
	<g>
		<g>
			<g>
				<path fill="currentColor" d="M256,512.4C114.6,512.4-0.4,397.4-0.4,256S114.6-0.4,256-0.4s256.4,115,256.4,256.4S397.4,512.4,256,512.4z M256,21.1
					C126.5,21.1,21.1,126.5,21.1,256S126.5,490.9,256,490.9S490.9,385.5,490.9,256S385.5,21.1,256,21.1z"/>
			</g>
		</g>
	</g>
	<path fill="currentColor" d="M372.4,394c-7.9-53.6-58-94.1-116.4-94.1S147.6,340.4,139.6,394c-0.2,1.5,0.2,3.1,1.2,4.3c1,1.2,2.5,1.9,4.1,1.9h222.2
		c1.6,0,3-0.7,4.1-1.9C372.2,397.2,372.6,395.6,372.4,394z M170.2,342.3c20.6-22.6,51.4-37,85.8-37s65.2,14.4,85.8,37H170.2z"/>
	<path fill="currentColor" d="M341.8,347.7H170.2c-2.1,0-4.1-1.3-4.9-3.2c-0.9-2-0.5-4.2,0.9-5.8c22.4-24.6,55.2-38.7,89.8-38.7
		c34.7,0,67.4,14.1,89.8,38.7c1.4,1.6,1.8,3.9,0.9,5.8C345.9,346.4,343.9,347.7,341.8,347.7z M183.4,336.9h145.1
		c-19.6-16.8-45.4-26.2-72.6-26.2C228.9,310.7,203.1,320.1,183.4,336.9z"/>
	<g>
		<g>
			<g>
				<g>
					<path fill="currentColor" d="M307,115.9c0,0,1.7,1.1,4.7,3.1c1.5,0.9,3.2,2.1,5.3,3.4c2,1.3,4.3,2.7,6.7,4.2c1.2,0.8,2.5,1.5,3.8,2.4
						c1.3,0.8,2.6,1.7,4,2.5c2.8,1.6,5.7,3.5,8.7,5.2c1.6,0.8,3,1.9,4.6,2.7c1.6,0.9,3.2,1.7,4.7,2.7c1.6,1,3.2,1.8,4.8,2.6
						c1.6,0.9,3.2,1.8,4.8,2.7c3.3,1.7,6.6,3.4,9.8,5.2c1.7,0.8,3.3,1.6,4.9,2.4c1.6,0.8,3.2,1.6,4.7,2.5c3.2,1.5,6.3,3,9.2,4.5
						c1.4,0.8,2.9,1.5,4.3,2.1c1.4,0.7,2.7,1.4,4.1,2c2.6,1.3,5,2.7,7.2,3.7c2.2,1.1,4.1,2.1,5.6,2.9c1.6,0.9,2.8,1.6,3.6,2.1
						c0.9,0.5,1.3,0.8,1.3,0.8s-0.5,0.1-1.5,0.3c-1,0.1-2.4,0.4-4.2,0.6c-1.8,0.2-4,0.4-6.5,0.5c-2.6,0.2-5.3,0-8.4-0.2
						c-3.1-0.3-6.4-0.4-9.9-1.1c-3.4-0.7-7.1-1.4-10.9-2.4c-1.8-0.6-3.7-1.2-5.6-1.8s-3.8-1.3-5.7-2c-3.7-1.6-7.5-3.3-11.2-5.2
						c-1.8-1-3.6-2.1-5.4-3.1s-3.5-2.2-5.2-3.4c-3.3-2.4-6.6-4.8-9.4-7.4c-3-2.5-5.5-5.3-8-7.9c-2.4-2.6-4.4-5.3-6.3-7.9
						c-0.9-1.3-1.7-2.5-2.5-3.7c-0.7-1.2-1.4-2.4-2-3.5c-1.2-2.2-2.1-4.3-2.8-5.9c-0.7-1.7-1.1-3.1-1.4-4
						C307.1,116.4,307,115.9,307,115.9z"/>
					<path fill="currentColor" d="M399.4,182.4c-1.6,0-3.4-0.1-5.2-0.2l-3.7-0.3c-2.6-0.2-5.3-0.4-8.1-1c-3.6-0.7-7.3-1.5-11.1-2.4c-2.2-0.7-4.1-1.3-6-2
						c-1.9-0.6-3.9-1.3-5.8-2.1c-4.1-1.8-8-3.5-11.8-5.5l-1.4-0.8c-1.5-0.8-2.9-1.7-4.3-2.6c-1.8-1-3.7-2.3-5.5-3.6
						c-3-2.2-6.7-4.8-9.9-7.8c-2.9-2.4-5.6-5.3-8.2-8.2s-4.8-5.7-6.7-8.4l-2.6-4c-0.8-1.4-1.5-2.6-2.2-3.9c-1.3-2.3-2.3-4.6-3-6.4
						c-0.6-1.5-1-2.8-1.3-3.7c-0.7-2.2-0.8-3-0.8-3c-0.3-2.1,0.7-4.2,2.4-5.3c1.8-1.1,4-1.2,5.8,0l4.8,3.1c0.7,0.4,1.5,1,2.5,1.6
						l9.5,6c0.9,0.6,1.8,1.1,2.7,1.7l1,0.6c0.6,0.3,1.2,0.7,1.8,1.1c0.6,0.4,1.3,0.8,2,1.2l3.6,2.2c1.7,1,3.4,2.1,5.2,3.1
						c0.8,0.4,1.6,0.9,2.4,1.4c0.7,0.4,1.4,0.8,2.1,1.2c1.7,0.9,3.4,1.8,5,2.8c0.9,0.6,1.9,1.1,2.8,1.6l8.6,4.6
						c2.7,1.4,5.3,2.8,7.9,4.2c1.4,0.6,3,1.4,4.7,2.3l1.2,0.6c1.3,0.7,2.5,1.3,3.8,2c2.8,1.3,6,2.8,9,4.4c1.2,0.7,2.2,1.1,3.1,1.6
						l1,0.5l3.2,1.6l1,0.5l3.1,1.6c1.4,0.7,2.6,1.4,3.8,2c2.4,1.2,4.4,2.2,6,3.1c1.3,0.7,2.4,1.4,3.2,1.9c1.7,1,2.3,1.5,2.3,1.5
						c1.7,1.3,2.5,3.4,2,5.5c-0.5,2-2.1,3.7-4.1,4.1l-1.8,0.3c-2,0.3-3.1,0.5-4.5,0.6c-1.7,0.2-4.1,0.4-6.7,0.5
						C401.2,182.4,400.3,182.4,399.4,182.4z M319.7,130.4l0.8,1.2c1.6,2.2,3.5,4.8,5.8,7.2c2.5,2.7,4.8,5.2,7.4,7.4
						c3,2.8,6.2,5.1,9,7.1c1.6,1.2,3.1,2.2,4.7,3.1c1.5,0.9,2.9,1.7,4.2,2.5l1.1,0.7c3.3,1.7,7,3.4,10.6,5c1.6,0.6,3.4,1.2,5.2,1.8
						c1.9,0.6,3.7,1.2,5.5,1.8c3.4,0.8,7,1.6,10.3,2.2c2.3,0.4,4.6,0.6,6.9,0.8l3.5,0.3c0.1,0,0.2,0,0.3,0l-5.4-2.7
						c-2-0.9-3.3-1.5-4.6-2.3c-2.6-1.4-5.6-2.8-8.7-4.3c-1.5-0.8-2.6-1.4-3.8-2l-1.2-0.6c-1.6-0.8-3.1-1.6-4.7-2.3
						c-2.8-1.6-5.4-2.9-7.9-4.2l-8.6-4.7c-1.2-0.6-2.3-1.2-3.5-1.9c-1.4-0.9-2.9-1.7-4.4-2.5c-0.9-0.5-1.8-1-2.7-1.6
						c-0.6-0.4-1.2-0.8-1.9-1.1c-2-1.1-3.8-2.2-5.6-3.3l-3.3-2c-0.8-0.4-1.7-1-2.6-1.6l-2.4-1.5c-1.1-0.6-2.1-1.3-3.1-1.9
						L319.7,130.4z"/>
				</g>
			</g>
		</g>
		<g>
			<g>
				<g>
					<path fill="currentColor" d="M205,115.9c0,0-0.1,0.5-0.4,1.5c-0.3,0.9-0.7,2.3-1.4,4s-1.6,3.7-2.8,5.9c-0.6,1.1-1.3,2.3-2,3.5s-1.6,2.4-2.5,3.7
						c-1.8,2.5-3.9,5.2-6.2,7.9c-2.4,2.6-5,5.4-7.9,7.9c-2.9,2.7-6.1,5.1-9.4,7.4c-1.6,1.2-3.4,2.4-5.1,3.4
						c-1.8,1.1-3.6,2.1-5.4,3.1c-3.7,1.9-7.4,3.6-11.2,5.2c-1.9,0.7-3.8,1.4-5.7,2s-3.7,1.3-5.6,1.8c-3.8,0.9-7.4,1.7-10.9,2.4
						c-3.4,0.7-6.8,0.8-9.9,1.1c-3.1,0.2-5.9,0.4-8.4,0.2c-2.5-0.1-4.7-0.3-6.5-0.5s-3.2-0.5-4.2-0.6s-1.5-0.3-1.5-0.3
						s0.4-0.3,1.3-0.8c0.8-0.5,2.1-1.3,3.6-2.1c1.6-0.8,3.4-1.9,5.6-2.9s4.6-2.4,7.2-3.7c1.3-0.6,2.7-1.3,4.1-2s2.9-1.3,4.3-2.1
						c2.9-1.5,6-3,9.2-4.5c1.6-0.9,3.1-1.7,4.7-2.5c1.6-0.8,3.2-1.6,4.9-2.4c3.2-1.8,6.5-3.5,9.8-5.2c1.6-0.9,3.2-1.8,4.8-2.7
						s3.3-1.7,4.8-2.6c1.6-0.9,3.1-1.8,4.7-2.7c1.6-0.8,3-1.9,4.6-2.7c3-1.7,5.9-3.5,8.7-5.2c1.5-0.8,2.7-1.7,4-2.5s2.6-1.6,3.8-2.4
						c2.4-1.5,4.7-2.9,6.7-4.2c2.1-1.3,3.8-2.5,5.3-3.4C203.3,117,205,115.9,205,115.9z"/>
					<path fill="currentColor" d="M112.6,182.4c-1,0-1.9,0-2.8-0.1c-2.5-0.1-4.8-0.3-6.7-0.6c-1.2-0.1-2.4-0.3-3.3-0.5l-2.7-0.5c-2-0.4-3.6-2-4.1-4
						s0.3-4.2,1.9-5.5c0,0,0.6-0.5,1.8-1.2c1.6-1,2.6-1.6,3.8-2.2c1.6-0.9,3.6-1.9,5.8-3c1.4-0.6,2.6-1.3,3.9-2l3.2-1.7l1-0.5l3-1.5
						c0.1,0,1-0.5,1.1-0.5c1-0.4,2-0.9,2.9-1.5c3.2-1.7,6.4-3.2,9.6-4.7c1-0.6,2.5-1.4,4-2.1c2.1-1.1,3.8-1.9,5.6-2.8
						c2.3-1.3,5-2.7,7.7-4.1l3-1.6c1.2-0.7,2.4-1.4,3.7-2l1.7-0.9c0.9-0.5,1.9-1,2.8-1.5c1.7-1,3.3-1.9,5-2.8
						c0.9-0.5,1.6-0.9,2.3-1.3c0.8-0.5,1.6-1,2.4-1.4c1.8-1,3.6-2.1,5.3-3.2l3.2-1.9c0.9-0.5,1.6-0.9,2.2-1.3
						c0.6-0.4,1.2-0.8,1.9-1.2l1.3-0.8c0.8-0.5,1.5-0.9,2.2-1.4l2.7-1.7c1.4-0.9,2.8-1.7,4-2.5l3-1.9c0.9-0.6,1.7-1.1,2.5-1.6l4.5-3
						c1.8-1.2,4.1-1.1,5.8,0c1.8,1.1,2.7,3.2,2.4,5.3c0,0-0.1,0.8-0.5,2.1c-0.3,1.1-0.8,2.6-1.5,4.5c-1,2.3-1.9,4.4-3.1,6.6
						c-0.5,1.1-1.3,2.4-2.1,3.7c-0.7,1.1-1.4,2.2-2.2,3.4c-2.3,3.3-4.5,6.2-7.1,9s-5.3,5.7-8.4,8.4c-3.2,3-7,5.7-9.8,7.7
						c-1.7,1.2-3.6,2.5-5.5,3.6l-5.3,3.1c-4.1,2.1-7.9,3.9-11.8,5.5c-2.3,0.8-4.2,1.6-6.2,2.2l-1,0.3c-1.6,0.5-3.1,1-4.7,1.5
						c-4.1,1-7.9,1.8-11.4,2.5c-2.8,0.5-5.5,0.8-8.1,1l-3.6,0.3C116,182.3,114.3,182.4,112.6,182.4z M192.3,130.4l-1.2,0.7
						c-0.7,0.5-1.6,1-2.5,1.6l-2.9,1.8c-0.9,0.6-1.8,1.2-2.8,1.7l-2.8,1.7c-1.8,1.1-3.7,2.3-5.7,3.4c-0.7,0.4-1.3,0.8-1.9,1.1
						c-0.9,0.6-1.9,1.2-2.9,1.7c-1.4,0.7-2.9,1.6-4.4,2.5c-1.1,0.7-2.2,1.3-3.4,1.9l-1.6,0.9c-1.2,0.7-2.4,1.3-3.5,1.9l-3.3,1.8
						c-2.6,1.4-5.2,2.7-7.7,4.1c-2,0.9-3.5,1.7-5,2.5c-1.9,1-3.3,1.7-4.6,2.4c-3.5,1.6-6.5,3.1-9.3,4.6c-1.1,0.6-2.4,1.2-3.6,1.8
						l-6.1,3.1c0.1,0,0.2,0,0.3,0l3.4-0.3c2.2-0.2,4.5-0.3,6.9-0.8c3.3-0.7,6.9-1.4,10.6-2.3c1.2-0.4,2.7-0.9,4.2-1.4l1-0.3
						c1.9-0.6,3.7-1.3,5.6-1.9c3.3-1.5,7-3.1,10.6-5l5-3c1.6-1,3.2-2,4.7-3.1c2.7-1.9,6.1-4.3,9-7c2.9-2.5,5.3-5.1,7.6-7.6
						c2.2-2.4,4.1-4.9,5.8-7.3C191.9,131.1,192.1,130.7,192.3,130.4z"/>
				</g>
			</g>
		</g>
	</g>
	<g>
		<g>
			<g>
				<path fill="currentColor" d="M215.9,243.1c0,0-0.4-0.5-1-1.4s-1.5-2.4-2.6-4.1c-0.6-0.8-1.2-1.8-1.9-2.8c-0.6-1-1.5-2-2.3-3.1s-1.7-2.3-2.6-3.4
					c-0.5-0.6-0.9-1.2-1.4-1.8s-1.1-1.2-1.6-1.8c-2.1-2.5-4.6-4.8-7.2-7.2c-2.7-2.2-5.6-4.5-8.8-6.3c-3.1-1.8-6.4-3.4-9.9-4.3
					c-3.4-0.9-6.9-1.6-10.5-1.6l-2.9,0.1c-1.3,0-1.8,0.2-2.5,0.3l-1.1,0.1l-1.3,0.3c-0.8,0.2-1.7,0.3-2.6,0.7
					c-3.4,1-6.7,2.6-9.8,4.4c-0.8,0.5-1.6,0.9-2.3,1.4s-1.5,1.1-2.2,1.6c-1.5,1-2.8,2.2-4.2,3.3c-2.6,2.4-5.1,4.8-7.3,7.2
					c-1.1,1.2-2.1,2.4-3,3.6c-1,1.2-1.9,2.3-2.7,3.4c-0.8,1.1-1.6,2.1-2.3,3.1c-0.7,1-1.3,1.9-1.9,2.8c-1.2,1.7-2,3.1-2.7,4
					s-1,1.4-1,1.4s0-0.6-0.1-1.7c0-1.1-0.1-2.8,0.1-5c0.1-1.1,0.2-2.2,0.4-3.5c0.1-1.3,0.5-2.7,0.8-4.2c0.2-1.5,0.7-3,1.2-4.7
					s1.1-3.3,1.8-5.1c1.4-3.5,3.4-7.2,5.8-10.9c2.6-3.6,5.6-7.4,9.6-10.6c0.9-0.9,2-1.6,3-2.4c1.1-0.7,2.1-1.6,3.3-2.2
					c1.2-0.7,2.3-1.3,3.5-2c1.3-0.5,2.6-1.1,3.8-1.6c1.3-0.6,2.6-0.9,4-1.3c0.7-0.2,1.4-0.4,2.1-0.6l2.3-0.4
					c1.5-0.2,3.3-0.6,4.3-0.6l1.7-0.1h0.9h0.4h0.7h0.3c5.7,0.1,11.4,1.2,16.5,3.2c1.3,0.5,2.6,1,3.8,1.6c1.2,0.7,2.3,1.3,3.5,2
					c1.2,0.6,2.2,1.5,3.3,2.2s2.1,1.5,3,2.4c4,3.2,7,7,9.6,10.6c2.5,3.7,4.5,7.4,5.9,10.9c0.4,0.9,0.7,1.7,1,2.6
					c0.3,0.8,0.6,1.7,0.8,2.5c0.5,1.7,0.9,3.2,1.2,4.7c0.7,2.9,0.9,5.6,1,7.7c0.2,2.1,0,3.8,0,4.9
					C216,242.4,215.9,243.1,215.9,243.1z"/>
				<path fill="currentColor" d="M215.9,248.4c-1.7,0-3.3-0.8-4.4-2.2l-1.8-2.7c-0.5-0.8-1.1-1.8-1.9-3l-1.9-2.7c-0.5-0.8-1.1-1.6-1.8-2.4
					c-1.2-1.7-2-2.7-2.9-3.7l-3-3.6c-1.9-2.3-4.3-4.5-6.7-6.7c-2.3-1.9-5-4-7.8-5.6c-2.4-1.3-5.5-2.9-8.7-3.8
					c-3.4-0.9-6.3-1.4-8.9-1.4l-2.8,0.1c-0.1,0-2,0.3-2.1,0.3l-1.8,0.3c-0.1,0-1.1,0.3-1.2,0.3c-0.2,0.1-0.9,0.3-1.1,0.3
					c-2.5,0.7-5.3,2-8.6,3.9l-4.1,2.8c-0.9,0.6-1.6,1.2-2.2,1.7c-0.6,0.5-1.2,1-1.8,1.4c-2.1,1.9-4.5,4.2-6.5,6.5
					c-1,1.2-2,2.2-2.8,3.3c-1.4,1.7-2,2.5-2.6,3.3l-3.8,5.2c-1.2,1.6-1.7,2.5-2.2,3.2l-1.9,2.8c-1.3,1.9-3.7,2.7-5.8,2.2
					c-2.2-0.6-3.8-2.5-4-4.8l-0.1-2l2.3-0.5l-0.9-0.6h-1.4c0-1.2-0.1-2.7,0.1-4.5c0-0.7,0.2-1.8,0.3-3c0.2-1.7,0.4-2.8,0.7-4.1
					c0.4-2.2,0.8-3.6,1.2-5l0.3-1.1c0.5-1.8,1.2-3.7,2-5.6c1.4-3.7,3.6-7.7,6.3-11.8c2.8-3.9,6.2-8.2,10.7-11.8
					c0.7-0.8,2-1.7,3.4-2.6c1.7-1.2,2.7-1.9,3.8-2.5l7.8-3.9c0.9-0.4,2.1-0.8,3.2-1.2l6.3-1.6c2.4-0.4,4.2-0.7,5.3-0.7l1.3-0.1
					c0.1,0,1.5-0.1,1.6-0.1c0.2,0,1.1,0,1.3,0c6.3,0.1,12.7,1.3,18.4,3.6c1.4,0.6,2.7,1.1,4.1,1.7l3.9,2.2c0.9,0.4,1.7,1,2.6,1.7
					l1,0.7c1.4,1,2.6,1.9,3.7,2.9c4.4,3.5,7.9,8,10.4,11.4c3,4.5,5.1,8.4,6.5,12.2c0.3,0.8,0.7,1.7,1,2.7c0.4,1,0.7,1.9,0.9,2.9
					c0.7,2.5,1.1,3.9,1.3,5.4c0.7,2.9,0.9,5.8,1.1,8.2c0.1,1.6,0.1,3,0,4.2c0,0.1,0,1.2,0,1.3l-0.1,1.9c-0.2,2.2-1.7,4.2-3.9,4.8
					C216.9,248.4,216.4,248.4,215.9,248.4z M166.2,191.5c-0.1,0-1,0-1,0l-2.5,0.2c-1.1,0-2.1,0.2-3.1,0.4l-3,0.5l-1.5,0.5l-1.2,0.4
					c-0.7,0.2-1.4,0.4-2,0.7l-6.9,3.4c-0.8,0.4-1.4,0.9-2,1.3l-0.9,0.6c-0.8,0.6-1.6,1.1-2.3,1.8c-3.9,3.2-6.6,6.6-9,9.9
					c-2.2,3.3-4,6.7-5.2,9.7c-0.2,0.5-0.4,1-0.6,1.5c0.4-0.4,0.7-0.8,1.1-1.2c2.2-2.5,4.9-5.1,7.7-7.6l1.7-1.4
					c1-0.9,2.1-1.7,3.2-2.4l4.6-3.1c4.2-2.4,7.7-4,11.1-5c0.3-0.1,1.1-0.4,2-0.5l3.7-0.7c1-0.2,1.8-0.4,3.2-0.4l2.8-0.1l0,0
					c4,0,7.7,0.6,12.1,1.8c4.3,1.2,8.2,3.2,11.1,4.8c3.6,2,6.7,4.5,9.5,6.8c3,2.7,5.6,5.2,7.9,7.8l0.9,1c0,0,0,0,0.1,0.1l-0.5-1.2
					c-1.2-3.1-3-6.4-5.4-10c-2.1-2.9-4.9-6.5-8.5-9.4c-1-0.9-1.8-1.5-2.7-2.1l-1.2-0.8c-0.5-0.4-1-0.7-1.6-1l-3.7-2.1
					c-0.7-0.3-1.9-0.8-3.1-1.3C176.3,192.5,171.2,191.5,166.2,191.5z"/>
			</g>
		</g>
		<g>
			<g>
				<path fill="currentColor" d="M395.6,243.1c0,0-0.4-0.5-1-1.4s-1.5-2.4-2.6-4.1c-0.6-0.8-1.2-1.8-1.9-2.8c-0.6-1-1.5-2-2.3-3.1s-1.7-2.3-2.6-3.4
					c-0.4-0.6-0.9-1.2-1.4-1.8s-1.1-1.2-1.6-1.8c-2.1-2.5-4.6-4.8-7.2-7.2c-2.7-2.2-5.6-4.5-8.8-6.3c-3.1-1.8-6.4-3.4-9.8-4.3
					c-3.4-0.9-6.9-1.6-10.5-1.6l-2.9,0.1c-1.3,0-1.7,0.2-2.5,0.3l-1.1,0.1l-1.3,0.3c-0.8,0.2-1.7,0.3-2.5,0.7
					c-3.4,1-6.7,2.6-9.8,4.4c-0.8,0.5-1.6,0.9-2.3,1.4c-0.7,0.5-1.5,1.1-2.2,1.6c-1.6,1-2.8,2.2-4.2,3.3c-2.6,2.4-5.1,4.8-7.2,7.2
					c-1.1,1.2-2.2,2.4-3.1,3.6c-1,1.2-1.9,2.3-2.7,3.4c-0.8,1.1-1.6,2.1-2.3,3.1c-0.7,1-1.3,1.9-1.9,2.8c-1.2,1.7-2,3.1-2.7,4
					c-0.6,0.9-1,1.4-1,1.4s-0.1-0.6-0.1-1.7c0-1.1-0.1-2.8,0.1-5c0.1-1.1,0.2-2.2,0.4-3.5c0.1-1.3,0.5-2.7,0.7-4.2
					c0.3-1.5,0.8-3,1.2-4.7c0.4-1.7,1.1-3.3,1.8-5.1c1.4-3.5,3.4-7.2,5.9-10.9c2.6-3.6,5.6-7.4,9.6-10.6c0.9-0.9,2-1.6,3-2.4
					c1.1-0.7,2.1-1.6,3.3-2.2c1.2-0.7,2.3-1.3,3.5-2c1.3-0.5,2.5-1.1,3.8-1.6c1.3-0.6,2.6-0.9,4-1.3c0.7-0.2,1.3-0.4,2-0.6l2.3-0.4
					c1.5-0.2,3.3-0.6,4.3-0.6l1.7-0.1h0.9h0.4h0.8h0.3c5.7,0.1,11.4,1.2,16.6,3.2c1.3,0.5,2.5,1,3.8,1.6c1.2,0.7,2.4,1.3,3.5,2
					c1.2,0.6,2.2,1.5,3.3,2.2c1.1,0.7,2.1,1.5,3,2.4c4,3.2,7,7,9.7,10.6c2.5,3.7,4.5,7.4,5.9,10.9c0.4,0.9,0.7,1.7,1,2.6
					c0.3,0.8,0.5,1.7,0.8,2.5c0.5,1.7,1,3.2,1.2,4.7c0.6,2.9,0.9,5.6,1,7.7c0.2,2.1,0,3.8,0,4.9
					C395.6,242.4,395.6,243.1,395.6,243.1z"/>
				<path fill="currentColor" d="M395.6,248.4c-1.7,0-3.3-0.8-4.3-2.2c0,0-0.4-0.6-1.1-1.7l-0.8-1.3c-0.5-0.8-1-1.7-1.7-2.7l-1.9-2.7
					c-0.5-0.8-1.1-1.6-1.8-2.4c-1.2-1.7-2-2.7-2.8-3.7l-3-3.5c-2-2.4-4.4-4.5-6.8-6.7c-2.5-2-5-4-7.7-5.5c-2.4-1.3-5.5-3-8.7-3.8
					c-3.4-0.9-6.3-1.4-8.9-1.4l-2.9,0.1c-0.2,0-2,0.3-2.1,0.3l-1.8,0.3c-0.1,0-1.1,0.3-1.1,0.3c-0.2,0.1-0.9,0.3-1.1,0.3
					c-2.5,0.7-5.3,2-8.6,3.9l-4.1,2.8c-0.9,0.6-1.6,1.1-2.2,1.7c-0.6,0.5-1.2,1-1.8,1.5c-2.1,1.9-4.4,4.1-6.4,6.4
					c-1.1,1.2-2.1,2.3-2.9,3.3c-1.1,1.4-1.9,2.3-2.6,3.2l-7.9,11.4c-1.3,1.8-3.6,2.6-5.7,2s-3.7-2.4-4-4.6c0,0-0.1-0.8-0.1-2.3
					c-0.1-2.3-0.1-3.8,0.1-5.5l0.4-3.6c0.1-1,0.3-2.1,0.5-3.2l0.3-1.3c0.3-1.4,0.7-2.9,1.2-4.4c0.5-2.1,1.1-3.6,1.7-5.2l0.4-1
					c1.5-3.8,3.6-7.7,6.4-11.9c2.9-3.9,6.1-8.1,10.7-11.8c0.7-0.7,2-1.7,3.3-2.6c1.8-1.3,2.7-1.9,3.8-2.5l7.8-3.9
					c1-0.5,2.2-0.8,3.4-1.2l6.1-1.5c2.5-0.4,4.3-0.7,5.3-0.7l1.3-0.1c0.1,0,1.5-0.1,1.6-0.1c0.2,0,1.1,0,1.3,0
					c6.2,0.1,12.5,1.3,18.3,3.6c1.7,0.7,2.9,1.2,4.1,1.7l3.9,2.2c0.9,0.5,1.7,1,2.6,1.6l1,0.7c1.4,0.9,2.6,1.9,3.7,2.9
					c4.5,3.6,7.9,8,10.4,11.4c2.9,4.3,5.1,8.4,6.5,12.2l1,2.5c0.4,1.2,0.7,2.1,0.9,3c0.6,2,1.1,3.8,1.4,5.6c0.6,2.8,0.9,5.7,1.1,8.1
					c0.1,1.6,0.1,3,0,4.2c0,0.1,0,1.1,0,1.2c0,1.4-0.1,2.2-0.1,2.2c-0.2,2.2-1.8,4.1-4,4.6C396.5,248.4,396,248.4,395.6,248.4z
					 M345.9,191.5c-0.1,0-1,0-1.1,0l-2.4,0.2c-1.1,0-2.1,0.2-3.1,0.4l-2.9,0.5c0,0-1.4,0.5-1.5,0.5l-1.2,0.4
					c-0.7,0.2-1.4,0.4-2.1,0.7l-6.9,3.4c-0.7,0.4-1.3,0.8-1.9,1.2l-1,0.7c-0.8,0.5-1.6,1.1-2.3,1.8c-4,3.2-6.7,6.8-9,9.9
					c-2.2,3.4-4,6.7-5.2,9.7l-0.4,1c-0.1,0.2-0.1,0.3-0.2,0.5c0.4-0.4,0.8-0.9,1.2-1.3c2.1-2.5,4.8-5,7.6-7.5l1.8-1.4
					c1-0.9,2-1.7,3.2-2.4l4.7-3.1c4.2-2.4,7.7-3.9,11.1-4.9c0.4-0.2,1.3-0.4,2-0.5l3.7-0.7c1.1-0.2,1.8-0.4,3.2-0.4l2.8-0.1l0,0
					c4,0,7.8,0.6,12.1,1.8c4.3,1.2,8.1,3.2,11,4.8c3.5,1.9,6.5,4.4,9.4,6.7c3.1,2.8,5.8,5.3,8,7.9l1,1l-0.5-1.2
					c-1.2-3.2-3-6.5-5.3-10c-2-2.7-4.8-6.4-8.6-9.4c-1-0.9-1.8-1.5-2.7-2.1l-1.2-0.8c-0.5-0.4-1-0.7-1.6-1l-3.6-2
					c-0.7-0.3-1.8-0.7-2.8-1.2C356,192.5,350.9,191.5,345.9,191.5z"/>
			</g>
		</g>
	</g>
</g>
</svg>
