<svg id="Camada_1" data-name="Camada 1" xmlns="http://www.w3.org/2000/svg" viewBox="0 0 512.8 512.8">
  <path d="M256,512.4C114.6,512.4-.4,397.4-.4,256S114.6-.4,256-.4,512.4,114.6,512.4,256,397.4,512.4,256,512.4Zm0-491.3C126.5,21.1,21.1,126.5,21.1,256S126.5,490.9,256,490.9,490.9,385.5,490.9,256,385.5,21.1,256,21.1ZM372.4,394c-7.9-53.6-58-94.1-116.4-94.1S147.6,340.4,139.6,394a5.6,5.6,0,0,0,1.2,4.3,5.3,5.3,0,0,0,4.1,1.9H367.1a5.5,5.5,0,0,0,4.1-1.9A5.4,5.4,0,0,0,372.4,394ZM170.2,342.3c20.6-22.6,51.4-37,85.8-37s65.2,14.4,85.8,37Zm171.6,5.4H170.2a5.4,5.4,0,0,1-4-9C188.6,314.1,221.4,300,256,300s67.4,14.1,89.8,38.7a5.4,5.4,0,0,1-4,9ZM183.4,336.9H328.5c-19.6-16.8-45.4-26.2-72.6-26.2S203.1,320.1,183.4,336.9ZM307,115.9l4.7,3.1,5.3,3.4,6.7,4.2,3.8,2.4,4,2.5,8.7,5.2c1.6.8,3,1.9,4.6,2.7s3.2,1.7,4.7,2.7,3.2,1.8,4.8,2.6l4.8,2.7c3.3,1.7,6.6,3.4,9.8,5.2l4.9,2.4c1.6.8,3.2,1.6,4.7,2.5l9.2,4.5a42.5,42.5,0,0,0,4.3,2.1l4.1,2c2.6,1.3,5,2.7,7.2,3.7l5.6,2.9,3.6,2.1,1.3.8-1.5.3-4.2.6-6.5.5a60.6,60.6,0,0,1-8.4-.2,93.6,93.6,0,0,1-9.9-1.1c-3.4-.7-7.1-1.4-10.9-2.4l-5.6-1.8-5.7-2c-3.7-1.6-7.5-3.3-11.2-5.2l-5.4-3.1a58,58,0,0,1-5.2-3.4,102.3,102.3,0,0,1-9.4-7.4,99.8,99.8,0,0,1-8-7.9,87.1,87.1,0,0,1-6.3-7.9l-2.5-3.7-2-3.5c-1.2-2.2-2.1-4.3-2.8-5.9s-1.1-3.1-1.4-4A4.8,4.8,0,0,0,307,115.9Zm92.4,66.5-5.2-.2-3.7-.3a59.6,59.6,0,0,1-8.1-1l-11.1-2.4-6-2c-1.9-.6-3.9-1.3-5.8-2.1-4.1-1.8-8-3.5-11.8-5.5l-1.4-.8c-1.5-.8-2.9-1.7-4.3-2.6a57.4,57.4,0,0,1-5.5-3.6,104.9,104.9,0,0,1-9.9-7.8,79.3,79.3,0,0,1-8.2-8.2,91,91,0,0,1-6.7-8.4l-2.6-4-2.2-3.9a50.1,50.1,0,0,1-3-6.4c-.6-1.5-1-2.8-1.3-3.7a20.3,20.3,0,0,1-.8-3,5.5,5.5,0,0,1,2.4-5.3,5.3,5.3,0,0,1,5.8,0l4.8,3.1,2.5,1.6,9.5,6,2.7,1.7,1,.6,1.8,1.1,2,1.2,3.6,2.2,5.2,3.1,2.4,1.4,2.1,1.2c1.7.9,3.4,1.8,5,2.8l2.8,1.6,8.6,4.6,7.9,4.2,4.7,2.3,1.2.6,3.8,2c2.8,1.3,6,2.8,9,4.4l3.1,1.6,1,.5,3.2,1.6,1,.5,3.1,1.6,3.8,2,6,3.1,3.2,1.9a19.6,19.6,0,0,1,2.3,1.5,5.3,5.3,0,0,1,2,5.5,5.5,5.5,0,0,1-4.1,4.1l-1.8.3-4.5.6-6.7.5A13.7,13.7,0,0,1,399.4,182.4Zm-79.7-52,.8,1.2a67.8,67.8,0,0,0,5.8,7.2,93.4,93.4,0,0,0,16.4,14.5,42.2,42.2,0,0,0,4.7,3.1l4.2,2.5,1.1.7c3.3,1.7,7,3.4,10.6,5l5.2,1.8,5.5,1.8c3.4.8,7,1.6,10.3,2.2s4.6.6,6.9.8l3.5.3h.3l-5.4-2.7a39.1,39.1,0,0,1-4.6-2.3c-2.6-1.4-5.6-2.8-8.7-4.3l-3.8-2-1.2-.6-4.7-2.3c-2.8-1.6-5.4-2.9-7.9-4.2l-8.6-4.7-3.5-1.9c-1.4-.9-2.9-1.7-4.4-2.5l-2.7-1.6a11.8,11.8,0,0,0-1.9-1.1L332,138l-3.3-2-2.6-1.6-2.4-1.5-3.1-1.9ZM205,115.9s-.1.5-.4,1.5-.7,2.3-1.4,4a59.6,59.6,0,0,1-2.8,5.9l-2,3.5c-.7,1.2-1.6,2.4-2.5,3.7s-3.9,5.2-6.2,7.9a98.1,98.1,0,0,1-7.9,7.9,85,85,0,0,1-9.4,7.4,56.5,56.5,0,0,1-5.1,3.4l-5.4,3.1c-3.7,1.9-7.4,3.6-11.2,5.2l-5.7,2c-1.9.6-3.7,1.3-5.6,1.8l-10.9,2.4a90.8,90.8,0,0,1-9.9,1.1,60.9,60.9,0,0,1-8.4.2l-6.5-.5-4.2-.6-1.5-.3,1.3-.8,3.6-2.1c1.6-.8,3.4-1.9,5.6-2.9s4.6-2.4,7.2-3.7l4.1-2c1.4-.7,2.9-1.3,4.3-2.1l9.2-4.5,4.7-2.5,4.9-2.4c3.2-1.8,6.5-3.5,9.8-5.2l4.8-2.7,4.8-2.6,4.7-2.7c1.6-.8,3-1.9,4.6-2.7l8.7-5.2c1.5-.8,2.7-1.7,4-2.5l3.8-2.4,6.7-4.2,5.3-3.4Zm-92.4,66.5h-2.8a59.5,59.5,0,0,1-6.7-.6l-3.3-.5-2.7-.5a5.4,5.4,0,0,1-4.1-4,5.5,5.5,0,0,1,1.9-5.5l1.8-1.2,3.8-2.2,5.8-3c1.4-.6,2.6-1.3,3.9-2l3.2-1.7,1-.5,3-1.5,1.1-.5a15.9,15.9,0,0,0,2.9-1.5c3.2-1.7,6.4-3.2,9.6-4.7l4-2.1,5.6-2.8,7.7-4.1,3-1.6c1.2-.7,2.4-1.4,3.7-2l1.7-.9,2.8-1.5,5-2.8,2.3-1.3,2.4-1.4,5.3-3.2,3.2-1.9,2.2-1.3,1.9-1.2,1.3-.8,2.2-1.4,2.7-1.7,4-2.5,3-1.9,2.5-1.6,4.5-3a5.4,5.4,0,0,1,8.2,5.3,13.7,13.7,0,0,1-.5,2.1q-.4,1.7-1.5,4.5c-1,2.3-1.9,4.4-3.1,6.6a37.1,37.1,0,0,1-2.1,3.7l-2.2,3.4a80.4,80.4,0,0,1-7.1,9,110.9,110.9,0,0,1-8.4,8.4,95.8,95.8,0,0,1-9.8,7.7c-1.7,1.2-3.6,2.5-5.5,3.6l-5.3,3.1c-4.1,2.1-7.9,3.9-11.8,5.5-2.3.8-4.2,1.6-6.2,2.2l-1,.3-4.7,1.5c-4.1,1-7.9,1.8-11.4,2.5a81.3,81.3,0,0,1-8.1,1l-3.6.3Zm79.7-52-1.2.7-2.5,1.6-2.9,1.8a26.1,26.1,0,0,1-2.8,1.7l-2.8,1.7-5.7,3.4-1.9,1.1-2.9,1.7-4.4,2.5-3.4,1.9-1.6.9-3.5,1.9-3.3,1.8-7.7,4.1-5,2.5-4.6,2.4c-3.5,1.6-6.5,3.1-9.3,4.6l-3.6,1.8-6.1,3.1h.3l3.4-.3a58.5,58.5,0,0,0,6.9-.8l10.6-2.3,4.2-1.4,1-.3,5.6-1.9c3.3-1.5,7-3.1,10.6-5l5-3c1.6-1,3.2-2,4.7-3.1a85.1,85.1,0,0,0,9-7,90.8,90.8,0,0,0,7.6-7.6,74,74,0,0,0,5.8-7.3A3.3,3.3,0,0,1,192.3,130.4Zm23.6,112.7-1-1.4-2.6-4.1-1.9-2.8c-.6-1-1.5-2-2.3-3.1l-2.6-3.4-1.4-1.8-1.6-1.8a81.5,81.5,0,0,0-7.2-7.2,63.5,63.5,0,0,0-8.8-6.3,39.6,39.6,0,0,0-9.9-4.3,41.1,41.1,0,0,0-10.5-1.6h-2.9a12,12,0,0,0-2.5.3h-1.1l-1.3.3a14.5,14.5,0,0,0-2.6.7,45.3,45.3,0,0,0-9.8,4.4l-2.3,1.4-2.2,1.6c-1.5,1-2.8,2.2-4.2,3.3s-5.1,4.8-7.3,7.2-2.1,2.4-3,3.6l-2.7,3.4-2.3,3.1-1.9,2.8c-1.2,1.7-2,3.1-2.7,4l-1,1.4s0-.6-.1-1.7a45.6,45.6,0,0,1,.1-5c.1-1.1.2-2.2.4-3.5a38.3,38.3,0,0,1,.8-4.2,32.5,32.5,0,0,1,1.2-4.7c.5-1.7,1.1-3.3,1.8-5.1a64.5,64.5,0,0,1,5.8-10.9,52.4,52.4,0,0,1,9.6-10.6,35,35,0,0,1,3-2.4,37.8,37.8,0,0,1,3.3-2.2l3.5-2,3.8-1.6a26.7,26.7,0,0,1,4-1.3l2.1-.6,2.3-.4c1.5-.2,3.3-.6,4.3-.6h4a47.9,47.9,0,0,1,16.5,3.2l3.8,1.6,3.5,2a37.8,37.8,0,0,1,3.3,2.2,17.6,17.6,0,0,1,3,2.4,52.4,52.4,0,0,1,9.6,10.6,58.8,58.8,0,0,1,5.9,10.9,27.7,27.7,0,0,1,1,2.6,24.1,24.1,0,0,1,.8,2.5c.5,1.7.9,3.2,1.2,4.7a40.7,40.7,0,0,1,1,7.7,39.1,39.1,0,0,1,0,4.9A5.5,5.5,0,0,1,215.9,243.1Zm0,5.3a5.6,5.6,0,0,1-4.4-2.2l-1.8-2.7-1.9-3-1.9-2.7a18.8,18.8,0,0,0-1.8-2.4,37.2,37.2,0,0,0-2.9-3.7l-3-3.6a70.6,70.6,0,0,0-6.7-6.7,57.5,57.5,0,0,0-7.8-5.6A43.8,43.8,0,0,0,175,212a35.3,35.3,0,0,0-8.9-1.4h-2.8l-2.1.3-1.8.3-1.2.3-1.1.3a38.8,38.8,0,0,0-8.6,3.9l-4.1,2.8-2.2,1.7-1.8,1.4a79.7,79.7,0,0,0-6.5,6.5c-1,1.2-2,2.2-2.8,3.3l-2.6,3.3-3.8,5.2c-1.2,1.6-1.7,2.5-2.2,3.2l-1.9,2.8a5.5,5.5,0,0,1-5.8,2.2,5.5,5.5,0,0,1-4-4.8v-2l2.3-.5-.9-.6h-1.4a35.9,35.9,0,0,1,.1-4.5c0-.7.2-1.8.3-3a34.6,34.6,0,0,1,.7-4.1,46.6,46.6,0,0,1,1.2-5l.3-1.1a47.4,47.4,0,0,1,2-5.6,62.2,62.2,0,0,1,6.3-11.8,58.1,58.1,0,0,1,10.7-11.8,17.5,17.5,0,0,1,3.4-2.6,39.5,39.5,0,0,1,3.8-2.5l7.8-3.9,3.2-1.2,6.3-1.6a40.6,40.6,0,0,1,5.3-.7h4.2a51.9,51.9,0,0,1,18.4,3.6l4.1,1.7,3.9,2.2a12.8,12.8,0,0,1,2.6,1.7l1,.7a39.8,39.8,0,0,1,3.7,2.9,59.4,59.4,0,0,1,10.4,11.4,58.7,58.7,0,0,1,6.5,12.2c.3.8.7,1.7,1,2.7a16.1,16.1,0,0,1,.9,2.9,40,40,0,0,1,1.3,5.4,53.1,53.1,0,0,1,1.1,8.2,29.3,29.3,0,0,1,0,4.2v3.2a5.5,5.5,0,0,1-3.9,4.8Zm-49.7-56.9h-1l-2.5.2a15.5,15.5,0,0,0-3.1.4l-3,.5-1.5.5-1.2.4-2,.7-6.9,3.4a17.4,17.4,0,0,0-2,1.3l-.9.6a20.3,20.3,0,0,0-2.3,1.8,50.8,50.8,0,0,0-9,9.9,54.6,54.6,0,0,0-5.2,9.7l-.6,1.5,1.1-1.2a92.6,92.6,0,0,1,7.7-7.6l1.7-1.4a24.3,24.3,0,0,1,3.2-2.4l4.6-3.1a52,52,0,0,1,11.1-5,9.3,9.3,0,0,1,2-.5l3.7-.7a13.9,13.9,0,0,1,3.2-.4h2.8a44.4,44.4,0,0,1,12.1,1.8,52.7,52.7,0,0,1,11.1,4.8,64.2,64.2,0,0,1,9.5,6.8,97.6,97.6,0,0,1,7.9,7.8l.9,1h.1l-.5-1.2a52.5,52.5,0,0,0-5.4-10,48.2,48.2,0,0,0-8.5-9.4,22.2,22.2,0,0,0-2.7-2.1l-1.2-.8-1.6-1-3.7-2.1-3.1-1.3A39.8,39.8,0,0,0,166.2,191.5Zm229.4,51.6-1-1.4-2.6-4.1-1.9-2.8c-.6-1-1.5-2-2.3-3.1l-2.6-3.4-1.4-1.8-1.6-1.8a81.5,81.5,0,0,0-7.2-7.2,63.5,63.5,0,0,0-8.8-6.3,40.6,40.6,0,0,0-9.8-4.3,41.1,41.1,0,0,0-10.5-1.6H343a13.1,13.1,0,0,0-2.5.3h-1.1l-1.3.3a11.7,11.7,0,0,0-2.5.7,45.3,45.3,0,0,0-9.8,4.4l-2.3,1.4-2.2,1.6a47.1,47.1,0,0,0-4.2,3.3,97.8,97.8,0,0,0-7.2,7.2c-1.1,1.2-2.2,2.4-3.1,3.6l-2.7,3.4-2.3,3.1-1.9,2.8c-1.2,1.7-2,3.1-2.7,4l-1,1.4a11.5,11.5,0,0,1-.1-1.7,45.6,45.6,0,0,1,.1-5c.1-1.1.2-2.2.4-3.5s.5-2.7.7-4.2.8-3,1.2-4.7a39.1,39.1,0,0,1,1.8-5.1,58.8,58.8,0,0,1,5.9-10.9,52.4,52.4,0,0,1,9.6-10.6,35,35,0,0,1,3-2.4,37.8,37.8,0,0,1,3.3-2.2l3.5-2,3.8-1.6a26.7,26.7,0,0,1,4-1.3l2-.6,2.3-.4c1.5-.2,3.3-.6,4.3-.6h4.1a49,49,0,0,1,16.6,3.2l3.8,1.6,3.5,2a37.8,37.8,0,0,1,3.3,2.2,17.6,17.6,0,0,1,3,2.4,56.2,56.2,0,0,1,9.7,10.6,58.8,58.8,0,0,1,5.9,10.9,27.7,27.7,0,0,1,1,2.6c.3.8.5,1.7.8,2.5a32.5,32.5,0,0,1,1.2,4.7,50.9,50.9,0,0,1,1,7.7,39.1,39.1,0,0,1,0,4.9A6.5,6.5,0,0,0,395.6,243.1Zm0,5.3a5.3,5.3,0,0,1-4.3-2.2l-1.1-1.7-.8-1.3c-.5-.8-1-1.7-1.7-2.7l-1.9-2.7a18.8,18.8,0,0,0-1.8-2.4c-1.2-1.7-2-2.7-2.8-3.7l-3-3.5a71.8,71.8,0,0,0-6.8-6.7,57.1,57.1,0,0,0-7.7-5.5,38.7,38.7,0,0,0-8.7-3.8,35.3,35.3,0,0,0-8.9-1.4h-2.9l-2.1.3-1.8.3-1.1.3-1.1.3a38.8,38.8,0,0,0-8.6,3.9l-4.1,2.8a14,14,0,0,0-2.2,1.7l-1.8,1.5a77.3,77.3,0,0,0-6.4,6.4l-2.9,3.3-2.6,3.2-7.9,11.4a5.3,5.3,0,0,1-5.7,2,5.6,5.6,0,0,1-4-4.6,20.7,20.7,0,0,1-.1-2.3,32.3,32.3,0,0,1,.1-5.5l.4-3.6c.1-1,.3-2.1.5-3.2l.3-1.3a41.6,41.6,0,0,1,1.2-4.4,39.7,39.7,0,0,1,1.7-5.2l.4-1a63.7,63.7,0,0,1,6.4-11.9,60.8,60.8,0,0,1,10.7-11.8,27.2,27.2,0,0,1,3.3-2.6,33.6,33.6,0,0,1,3.8-2.5l7.8-3.9a26.9,26.9,0,0,1,3.4-1.2l6.1-1.5a45.4,45.4,0,0,1,5.3-.7h4.2a52.3,52.3,0,0,1,18.3,3.6l4.1,1.7,3.9,2.2,2.6,1.6,1,.7a28,28,0,0,1,3.7,2.9,58.7,58.7,0,0,1,16.9,23.6l1,2.5a30.8,30.8,0,0,1,.9,3,45.8,45.8,0,0,1,1.4,5.6,65,65,0,0,1,1.1,8.1,29.3,29.3,0,0,1,0,4.2v1.2a19.7,19.7,0,0,1-.1,2.2,5.2,5.2,0,0,1-4,4.6A5.3,5.3,0,0,0,395.6,248.4Zm-49.7-56.9h-1.1l-2.4.2a15.5,15.5,0,0,0-3.1.4l-2.9.5-1.5.5-1.2.4-2.1.7-6.9,3.4-1.9,1.2-1,.7a13,13,0,0,0-2.3,1.8,50.1,50.1,0,0,0-9,9.9,58.3,58.3,0,0,0-5.2,9.7l-.4,1-.2.5,1.2-1.3a77.3,77.3,0,0,1,7.6-7.5l1.8-1.4a19.1,19.1,0,0,1,3.2-2.4l4.7-3.1a51.1,51.1,0,0,1,11.1-4.9,8.3,8.3,0,0,1,2-.5l3.7-.7a14.7,14.7,0,0,1,3.2-.4H346a43.8,43.8,0,0,1,12.1,1.8,51.7,51.7,0,0,1,11,4.8,66,66,0,0,1,9.4,6.7,85.8,85.8,0,0,1,8,7.9l1,1-.5-1.2a51.4,51.4,0,0,0-5.3-10,47.9,47.9,0,0,0-8.6-9.4,22.2,22.2,0,0,0-2.7-2.1l-1.2-.8-1.6-1-3.6-2-2.8-1.2A40.6,40.6,0,0,0,345.9,191.5Z" transform="translate(0.4 0.4)" fill="currentColor"/>
</svg>
