<?xml version="1.0" encoding="utf-8"?>
<!-- Generator: Adobe Illustrator 24.0.1, SVG Export Plug-In . SVG Version: 6.00 Build 0)  -->
<svg version="1.1" id="Camada_1" focusable="false" xmlns="http://www.w3.org/2000/svg" xmlns:xlink="http://www.w3.org/1999/xlink"
	 x="0px" y="0px" viewBox="0 0 512 512" style="enable-background:new 0 0 512 512;" xml:space="preserve">
<g>
	<g>
		<g>
			<g>
				<path fill="currentColor" d="M256.4,512.4C115,512.4,0,397.4,0,256S115-0.4,256.4-0.4s256.4,115,256.4,256.4S397.8,512.4,256.4,512.4z M256.4,21.1
					C126.9,21.1,21.5,126.5,21.5,256s105.4,234.9,234.9,234.9S491.3,385.5,491.3,256S385.9,21.1,256.4,21.1z"/>
			</g>
		</g>
	</g>
	<g>
		<g>
			<g>
				<g>
					<path fill="currentColor" d="M139.5,188.2c-2.1,7.9-3.3,16.8-3.3,26.2c0,32,13.7,58,30.6,58s30.6-26,30.6-58c0-9.4-1.2-18.4-3.3-26.2H139.5z"/>
					<path fill="currentColor" d="M166.7,277.8c-20.2,0-36-27.8-36-63.4c0-9.7,1.2-19,3.5-27.6c0.6-2.4,2.8-4,5.2-4H194c2.4,0,4.6,1.6,5.2,4
						c2.3,8.6,3.5,17.9,3.5,27.6C202.7,249.9,186.9,277.8,166.7,277.8z M143.7,193.5c-1.4,6.6-2.2,13.7-2.2,20.8
						c0,31,13.3,52.6,25.2,52.6s25.2-21.6,25.2-52.6c0-7.1-0.7-14.3-2.2-20.8L143.7,193.5L143.7,193.5z"/>
				</g>
			</g>
			<g>
				<g>
					<path fill="currentColor" d="M214.6,197.8H112.4c-5.3,0-9.6-4.3-9.6-9.6s4.3-9.6,9.6-9.6h102.1c5.3,0,9.6,4.3,9.6,9.6
						C224.2,193.5,219.9,197.8,214.6,197.8z"/>
					<path fill="currentColor" d="M214.6,203.2H112.4c-8.3,0-15-6.7-15-15s6.7-15,15-15h102.1c8.3,0,15,6.7,15,15C229.6,196.4,222.8,203.2,214.6,203.2z
						 M112.4,183.9c-2.3,0-4.2,1.9-4.2,4.3c0,2.3,1.9,4.2,4.2,4.2h102.1c2.4,0,4.3-1.9,4.3-4.2c0-2.4-1.9-4.3-4.3-4.3H112.4z"/>
				</g>
			</g>
		</g>
		<g>
			<g>
				<g>
					<path fill="currentColor" d="M317.1,188.2c-2.1,7.9-3.3,16.8-3.3,26.2c0,32,13.7,58,30.6,58s30.6-26,30.6-58c0-9.4-1.2-18.4-3.3-26.2H317.1z"/>
					<path fill="currentColor" d="M344.3,277.8c-20.2,0-35.9-27.8-35.9-63.4c0-9.7,1.2-19,3.5-27.6c0.6-2.4,2.8-4,5.2-4h54.5c2.4,0,4.6,1.6,5.2,4
						c2.3,8.6,3.5,17.9,3.5,27.6C380.3,249.9,364.5,277.8,344.3,277.8z M321.3,193.5c-1.4,6.6-2.2,13.7-2.2,20.8
						c0,31,13.3,52.6,25.2,52.6c11.9,0,25.2-21.6,25.2-52.6c0-7.2-0.7-14.3-2.2-20.8L321.3,193.5L321.3,193.5z"/>
				</g>
			</g>
			<g>
				<g>
					<path fill="currentColor" d="M400.4,197.8H298.2c-5.3,0-9.6-4.3-9.6-9.6s4.3-9.6,9.6-9.6h102.1c5.3,0,9.6,4.3,9.6,9.6
						C410,193.5,405.7,197.8,400.4,197.8z"/>
					<path fill="currentColor" d="M400.4,203.2H298.2c-8.3,0-15-6.7-15-15s6.7-15,15-15h102.1c8.3,0,15,6.7,15,15C415.3,196.4,408.6,203.2,400.4,203.2z
						 M298.2,183.9c-2.4,0-4.3,1.9-4.3,4.3c0,2.3,1.9,4.2,4.3,4.2h102.1c2.3,0,4.2-1.9,4.2-4.2c0-2.4-1.9-4.3-4.2-4.3H298.2z"/>
				</g>
			</g>
		</g>
	</g>
	<g>
		<g>
			<path fill="currentColor" d="M304.2,385.5c-3.2-12.8-23.4-22.6-47.8-22.6s-44.6,9.8-47.8,22.6H304.2z"/>
			<path fill="currentColor" d="M304.2,390.9h-95.6c-1.7,0-3.2-0.8-4.2-2.1c-1-1.3-1.4-3-1-4.6c3.9-15.5,26.2-26.7,53-26.7c26.8,0,49.1,11.2,53,26.7
				c0.4,1.6,0.1,3.3-1,4.6C307.4,390.1,305.9,390.9,304.2,390.9z M218,380.1h76.7c-6.7-6.5-20.5-11.9-38.4-11.9
				C238.5,368.3,224.8,373.6,218,380.1z"/>
		</g>
	</g>
</g>
</svg>
