<svg id="Camada_1" data-name="Camada 1" xmlns="http://www.w3.org/2000/svg" viewBox="0 0 512.8 512.8">
  <path d="M256.4,512.4C115,512.4,0,397.4,0,256S115-.4,256.4-.4,512.8,114.6,512.8,256,397.8,512.4,256.4,512.4Zm0-491.3C126.9,21.1,21.5,126.5,21.5,256S126.9,490.9,256.4,490.9,491.3,385.5,491.3,256,385.9,21.1,256.4,21.1ZM139.5,188.2a102.7,102.7,0,0,0-3.3,26.2c0,32,13.7,58,30.6,58s30.6-26,30.6-58a102.1,102.1,0,0,0-3.3-26.2Zm27.2,89.6c-20.2,0-36-27.8-36-63.4a107,107,0,0,1,3.5-27.6,5.3,5.3,0,0,1,5.2-4H194a5.3,5.3,0,0,1,5.2,4,107,107,0,0,1,3.5,27.6C202.7,249.9,186.9,277.8,166.7,277.8Zm-23-84.3a101.2,101.2,0,0,0-2.2,20.8c0,31,13.3,52.6,25.2,52.6s25.2-21.6,25.2-52.6a94.1,94.1,0,0,0-2.2-20.8Zm70.9,4.3H112.4a9.6,9.6,0,0,1,0-19.2H214.5a9.6,9.6,0,0,1,9.6,9.6A9.5,9.5,0,0,1,214.6,197.8Zm0,5.4H112.4a15,15,0,0,1,0-30H214.5a15,15,0,0,1,.1,30ZM112.4,183.9a4.3,4.3,0,0,0,0,8.5H214.5a4.3,4.3,0,1,0,0-8.5Zm204.7,4.3a102.7,102.7,0,0,0-3.3,26.2c0,32,13.7,58,30.6,58s30.6-26,30.6-58a102.1,102.1,0,0,0-3.3-26.2Zm27.2,89.6c-20.2,0-35.9-27.8-35.9-63.4a107,107,0,0,1,3.5-27.6,5.3,5.3,0,0,1,5.2-4h54.5a5.3,5.3,0,0,1,5.2,4,107,107,0,0,1,3.5,27.6C380.3,249.9,364.5,277.8,344.3,277.8Zm-23-84.3a101.2,101.2,0,0,0-2.2,20.8c0,31,13.3,52.6,25.2,52.6s25.2-21.6,25.2-52.6a93.4,93.4,0,0,0-2.2-20.8Zm79.1,4.3H298.2a9.6,9.6,0,1,1,0-19.2H400.3a9.6,9.6,0,0,1,9.6,9.6A9.5,9.5,0,0,1,400.4,197.8Zm0,5.4H298.2a15,15,0,0,1,0-30H400.3a15,15,0,0,1,.1,30ZM298.2,183.9a4.3,4.3,0,1,0,0,8.5H400.3a4.3,4.3,0,0,0,0-8.5Zm6,201.6c-3.2-12.8-23.4-22.6-47.8-22.6s-44.6,9.8-47.8,22.6Zm0,5.4H208.6a5.3,5.3,0,0,1-4.2-2.1,5.4,5.4,0,0,1-1-4.6c3.9-15.5,26.2-26.7,53-26.7s49.1,11.2,53,26.7a5.1,5.1,0,0,1-1,4.6A5.3,5.3,0,0,1,304.2,390.9ZM218,380.1h76.7c-6.7-6.5-20.5-11.9-38.4-11.9S224.8,373.6,218,380.1Z" transform="translate(0 0.4)" fill="currentColor"/>
</svg>
