<?xml version="1.0" encoding="utf-8"?>
<!-- Generator: Adobe Illustrator 24.0.1, SVG Export Plug-In . SVG Version: 6.00 Build 0)  -->
<svg version="1.1" id="Camada_1" focusable="false" xmlns="http://www.w3.org/2000/svg" xmlns:xlink="http://www.w3.org/1999/xlink"
	 x="0px" y="0px" viewBox="0 0 512 512" style="enable-background:new 0 0 512 512;" xml:space="preserve">
<g>
	<g>
		<g>
			<g>
				<path fill="currentColor" d="M256,512.4C114.6,512.4-0.4,397.4-0.4,256S114.6-0.4,256-0.4s256.4,115,256.4,256.4S397.4,512.4,256,512.4z M256,21.1
					C126.5,21.1,21.1,126.5,21.1,256S126.5,490.9,256,490.9S490.9,385.5,490.9,256S385.5,21.1,256,21.1z"/>
			</g>
		</g>
	</g>
	<g>
		<g>
			<g>
				<g>
					<path fill="currentColor" d="M402.7,143.4c0,0-0.8,1.7-2.6,4.3c-1,1.3-2.2,2.8-3.7,4.5c-1.5,1.6-3.4,3.4-5.5,5.1c-2.2,1.7-4.7,3.4-7.5,5
						c-2.8,1.5-5.9,3.1-9.4,4.1c-3.4,1.2-7.1,2-11,2.4c-3.9,0.5-7.9,0.3-11.9-0.1c-4-0.6-8-1.6-11.6-3.1c-0.9-0.4-1.8-0.7-2.7-1.2
						c-0.9-0.5-1.7-0.9-2.6-1.4c-1.7-0.9-3.3-2-4.8-3c-3-2.2-5.6-4.6-7.7-7.1c-1.1-1.2-2.1-2.5-2.9-3.7c-0.9-1.3-1.8-2.4-2.5-3.6
						c-0.7-1.2-1.3-2.4-1.9-3.5s-1-2.2-1.5-3.3c-0.8-2.1-1.5-3.9-1.9-5.5c-0.4-1.5-0.7-2.8-0.8-3.6c-0.1-0.9-0.2-1.3-0.2-1.3
						s0.4,0.2,1.2,0.7c0.7,0.5,1.8,1.1,3,2c1.3,0.9,2.8,1.9,4.6,3.1c1.6,1.2,3.6,2.4,5.7,3.7c1,0.7,2.1,1.3,3.2,1.9
						c1.1,0.6,2.1,1.4,3.4,1.9c2.3,1.3,4.7,2.4,7.2,3.5c2.5,1,5,2,7.6,2.7c2.6,0.8,5.2,1.2,7.9,1.7c2.7,0.3,5.5,0.6,8.2,0.6
						c0.7,0,1.4,0,2.1,0s1.4,0,2.1,0c1.4-0.1,2.7-0.2,4.1-0.3c2.8-0.2,5.5-0.7,8.1-1.1c2.6-0.5,5.2-0.9,7.6-1.5
						c4.8-1,8.9-2.1,11.9-2.8C401,143.8,402.7,143.4,402.7,143.4z"/>
					<path fill="currentColor" d="M358,174.5c-2.5,0-5-0.2-7.5-0.5c-5.4-0.9-9.5-2-13.2-3.5c-1.6-0.6-2.4-1-3.2-1.4l-2.5-1.4c-1.5-0.7-3-1.8-4.5-2.8
						c-4-2.9-6.9-5.5-9.4-8.4c-1.2-1.3-2.3-2.7-3.3-4.2l-0.7-0.9c-0.8-1.1-1.5-2.1-2.1-3.2l-2-3.6c-0.5-0.9-0.9-1.9-1.3-2.9
						c-1.3-3.2-2.1-5.3-2.5-7.1c-0.3-1-0.5-2.1-0.7-2.9l-0.4-2.4c-0.3-2,0.6-4,2.3-5.2c1.7-1.1,3.9-1.2,5.7-0.2l2.4,1.5
						c0.7,0.4,1.4,0.9,2.3,1.5c0.7,0.5,1.5,1,2.4,1.7l2,1.3c1.2,0.9,2.4,1.6,3.7,2.4l1.9,1.2c0.8,0.6,1.5,1,2.2,1.4l1.8,1.1
						c0.6,0.3,1.1,0.7,1.8,1c2.5,1.4,4.8,2.5,7.1,3.5c2.2,0.9,4.4,1.8,6.8,2.4c2.2,0.7,4.3,1,6.3,1.4l1.2,0.2
						c2.5,0.3,4.6,0.5,6.6,0.5h1.5c0.1,0,1.2,0,1.3,0l3.6-0.2c0.7,0,1.3-0.1,2-0.2c2.6-0.2,4.9-0.6,7.2-0.9c3.3-0.6,5.8-1,8.1-1.5
						c3.5-0.7,6.7-1.5,9.3-2.1l7.4-1.8c2-0.5,4.1,0.2,5.4,1.8s1.6,3.8,0.8,5.6c0,0-0.9,2.1-3.1,5.2c-1.1,1.5-2.5,3.2-4.2,5
						s-3.7,3.7-6.1,5.6c-2.4,2-5.2,3.8-8.2,5.5c-2.7,1.5-6.3,3.3-10.4,4.6c-3.7,1.3-7.8,2.2-12.1,2.6
						C361.8,174.4,359.9,174.5,358,174.5z M320.3,141.6l0.8,1.4c0.4,0.7,0.9,1.4,1.4,2.1l0.8,1c0.7,1.1,1.5,2.1,2.5,3.1
						c2.2,2.4,4.5,4.6,7,6.4c1.7,1.2,2.8,2,4,2.6l1.9,1c1.3,0.7,1.8,0.9,2.2,1c3.7,1.6,7,2.5,11.3,3.1c3.2,0.4,6.9,0.5,10.4,0.1
						c3.6-0.4,6.9-1.1,9.9-2.2c3.4-1.1,6.3-2.6,8.6-3.8c2.4-1.4,4.7-2.9,6.7-4.5c0.3-0.3,0.7-0.6,1-0.8c-0.5,0.1-1,0.2-1.5,0.3
						c-2.4,0.5-5,1-7.7,1.5c-3.5,0.5-6,0.9-8.6,1.1c-0.6,0.1-1.5,0.1-2.4,0.2l-3.2,0.2h-1.1H363c-0.1,0-1,0-1.1,0
						c-2.8,0-5.2-0.2-7.6-0.5c-0.1,0-1.1-0.1-1.2-0.1l-1.1-0.2c-2.5-0.4-5.1-0.9-7.5-1.7c-2.6-0.7-5.3-1.7-8-2.9s-5.3-2.4-7.8-3.8
						c-0.6-0.3-1.6-0.8-2.5-1.4l-0.9-0.6c-1.7-1-2.7-1.5-3.6-2.2L320.3,141.6z"/>
				</g>
			</g>
		</g>
		<g>
			<g>
				<g>
					<path fill="currentColor" d="M109.3,143.4c0,0,1.7,0.4,4.8,1.2c3,0.7,7.2,1.8,12,2.8c2.4,0.5,4.9,1,7.6,1.5c2.7,0.4,5.4,0.8,8.1,1.1
						c1.4,0.2,2.8,0.2,4.2,0.3c0.7,0,1.4,0,2.1,0c0.7,0,1.4,0.1,2.1,0c2.8,0.1,5.5-0.3,8.2-0.6c2.7-0.5,5.4-0.9,7.9-1.7
						c2.6-0.7,5.2-1.7,7.6-2.7c2.5-1.1,4.9-2.2,7.2-3.5c1.2-0.6,2.3-1.3,3.4-1.9c1.1-0.7,2.2-1.2,3.2-1.9c2-1.3,4-2.5,5.7-3.7
						s3.3-2.2,4.5-3.1c1.2-0.9,2.3-1.5,3-2c0.7-0.4,1.2-0.7,1.2-0.7s-0.1,0.5-0.2,1.3c-0.2,0.8-0.4,2.1-0.8,3.6
						c-0.3,1.6-1,3.4-1.8,5.5c-0.4,1-0.9,2.2-1.5,3.3s-1.2,2.2-1.9,3.5c-0.7,1.2-1.6,2.4-2.4,3.6c-0.9,1.2-1.8,2.5-3,3.7
						c-2.2,2.5-4.7,4.9-7.7,7.1c-1.5,1-3.1,2.2-4.8,3c-0.9,0.5-1.7,0.9-2.6,1.4c-0.8,0.5-1.8,0.8-2.7,1.2c-3.7,1.6-7.6,2.5-11.6,3.1
						c-4,0.5-8.1,0.6-11.9,0.1c-3.9-0.4-7.6-1.2-11-2.4c-3.4-1.1-6.5-2.6-9.4-4.1c-2.8-1.6-5.3-3.3-7.5-5s-4-3.5-5.5-5.1
						s-2.7-3.2-3.7-4.5C110,145.1,109.3,143.4,109.3,143.4z"/>
					<path fill="currentColor" d="M154,174.5c-1.9,0-3.8-0.1-5.7-0.3c-4.1-0.4-8.2-1.3-12.1-2.7c-4-1.3-7.6-3.1-10.2-4.5c-3.1-1.7-5.8-3.6-8.3-5.6
						c-2.4-1.9-4.4-3.8-6.1-5.6s-3.1-3.6-4.1-5c-2.2-3-3.1-5.1-3.2-5.3c-0.8-1.9-0.5-4,0.8-5.6s3.4-2.2,5.4-1.8l7.6,1.8
						c2.6,0.6,5.6,1.3,9,2.1c2.4,0.5,4.8,1,7.4,1.4c3,0.5,5.3,0.8,7.7,1c0.9,0.1,1.6,0.1,2.2,0.2l2.1,0.2c0.1,0,1.8,0,1.9,0l1,5.4
						l0.5-5.4c3,0,5-0.2,7-0.4l1.7-0.3c2.1-0.4,4.1-0.7,6.1-1.3c2.7-0.7,5-1.6,7.2-2.5c2.2-1,4.5-2,6.6-3.2c1-0.5,1.6-0.8,2.2-1.2
						l1.1-0.7c1.5-0.9,2.2-1.3,2.8-1.7l2.1-1.4c1.3-0.8,2.5-1.6,3.6-2.3l4.5-3.1c0.8-0.6,1.6-1.1,2.2-1.5c0.1-0.1,1-0.7,1.2-0.8
						l1.2-0.7c1.8-1,4-0.9,5.7,0.2s2.6,3.2,2.3,5.2l-0.3,1.6c-0.4,1.7-0.6,2.8-1,4.1c-0.3,1.5-1.1,3.6-2,6c-0.7,1.8-1.2,2.8-1.7,3.8
						l-1.9,3.5c-0.5,1-1.2,2-1.9,2.9l-0.8,1.1c-1.2,1.6-2.2,3-3.5,4.4c-2.5,2.8-5.4,5.4-8.5,7.7l-1,0.7c-1.4,1-2.9,2-4.5,2.8
						l-2.4,1.3c-0.8,0.4-1.6,0.8-2.5,1.2c-4.2,1.8-8.3,2.9-13.5,3.8C159,174.4,156.5,174.5,154,174.5z M123.5,152.3
						c0.3,0.3,0.7,0.6,1,0.8c2,1.6,4.2,3.1,6.7,4.5c2.1,1.2,5.1,2.7,8.4,3.7c3.2,1.1,6.5,1.8,9.9,2.2c3.7,0.5,7.2,0.3,10.8-0.1
						c4-0.7,7.3-1.5,10.1-2.7c1.3-0.5,1.8-0.7,2.2-0.9l2.6-1.4c1.3-0.7,2.3-1.4,3.4-2.1l0.9-0.6c2.3-1.7,4.6-3.8,6.7-6.2
						c1.1-1.1,1.9-2.3,2.6-3.3l0.9-1.2c0.4-0.6,0.9-1.2,1.2-1.8l0.8-1.4l-1.2,0.8c-0.7,0.5-1.6,1-2.5,1.5l-1.8,1.1
						c-0.9,0.6-1.9,1.1-2.9,1.6c-2.1,1.2-4.7,2.4-7.3,3.6c-2.8,1.2-5.6,2.2-8.4,3c-2.2,0.7-4.7,1.1-7.3,1.6l-1.1,0.2
						c-0.1,0-1.2,0.1-1.3,0.2c-2.4,0.3-4.7,0.5-7.1,0.5h-1.5l-1.6-0.1c-0.2,0-2.2,0-2.3,0l-1.6-0.1c-0.9-0.1-1.8-0.1-2.6-0.2
						c-2.4-0.2-4.9-0.6-7.4-0.9c-3.7-0.6-6.3-1.1-8.8-1.7C124.4,152.4,123.9,152.4,123.5,152.3z"/>
				</g>
			</g>
		</g>
	</g>
	<g>
		<g>
			<g>
				<path fill="currentColor" d="M378.5,290c-1.3,0-2.7-0.3-4-0.9l-74.4-34c-3.1-1.4-5.2-4.4-5.6-7.7c-0.3-3.4,1.1-6.7,3.8-8.7l74.5-55.2
					c4.3-3.2,10.3-2.3,13.5,2c3.2,4.2,2.3,10.3-2,13.5l-61.4,45.5l59.6,27.2c4.8,2.2,7,7.9,4.8,12.8
					C385.6,287.9,382.1,290,378.5,290z"/>
				<path fill="currentColor" d="M378.5,295.4c-2.2,0-4.3-0.5-6.3-1.4l-74.4-34c-4.8-2.2-8.1-6.8-8.7-12.1c-0.5-5.3,1.8-10.5,6-13.6l74.5-55.2
					c6.4-4.8,16.3-3.3,21,3.1c2.4,3.2,3.4,7.1,2.8,11.1s-2.7,7.5-5.9,9.9l-54.1,40.1l51.4,23.4c7.5,3.5,10.8,12.4,7.4,19.9
					C389.7,291.9,384.3,295.4,378.5,295.4z M378.5,186.9c-0.6,0-1.6,0.1-2.5,0.8l-74.5,55.2c-1.2,0.9-1.8,2.4-1.7,3.9
					c0.2,1.5,1.1,2.8,2.5,3.4l74.4,34c2,0.9,4.7,0,5.7-2.1s0-4.6-2.1-5.6l-59.6-27.2c-1.7-0.8-2.9-2.4-3.1-4.3
					c-0.2-1.9,0.6-3.7,2.1-4.9l61.4-45.5c0.9-0.7,1.5-1.7,1.7-2.8s-0.1-2.2-0.8-3.1C381.1,187.5,379.8,186.9,378.5,186.9z"/>
			</g>
		</g>
		<g>
			<g>
				<path fill="currentColor" d="M133.5,290c-3.7,0-7.2-2.1-8.8-5.6c-2.2-4.8-0.1-10.5,4.8-12.8l59.6-27.2l-61.4-45.5c-4.3-3.2-5.1-9.2-2-13.5
					c3.2-4.3,9.2-5.2,13.5-2l74.5,55.2c2.7,2,4.2,5.4,3.8,8.7c-0.3,3.4-2.5,6.3-5.6,7.7l-74.5,34C136.2,289.7,134.8,290,133.5,290z"
					/>
				<path fill="currentColor" d="M133.5,295.4c-5.8,0-11.2-3.4-13.7-8.7c-3.4-7.6-0.1-16.5,7.4-19.9l51.4-23.4l-54-40.1c-3.2-2.4-5.3-5.9-5.9-9.9
					s0.4-7.9,2.8-11.1c4.7-6.4,14.6-7.9,21-3.1l74.5,55.2c4.3,3.2,6.5,8.4,6,13.7c-0.5,5.2-3.8,9.8-8.7,12l-74.4,34
					C137.9,294.9,135.7,295.4,133.5,295.4z M133.5,186.9c-1.4,0-2.6,0.6-3.4,1.7c-0.7,0.9-1,2-0.8,3.1s0.8,2.1,1.7,2.8l61.4,45.5
					c1.5,1.1,2.3,3,2.1,4.9s-1.4,3.5-3.1,4.3l-59.6,27.2c-2.1,1-3.1,3.5-2.1,5.7c0.9,2,3.7,3,5.6,2.1l74.5-34
					c1.4-0.6,2.3-1.9,2.5-3.4s-0.5-3-1.7-3.9L136,187.7C135.1,187,134.2,186.9,133.5,186.9z"/>
			</g>
		</g>
	</g>
	<g>
		<g>
			<path fill="currentColor" d="M133.5,404.8c-0.2,0-0.4,0-0.6,0c-3.3-0.2-6.3-2.1-7.8-5l-25.6-46.2c-2.6-4.6-0.9-10.5,3.8-13.1
				c4.6-2.6,10.5-0.9,13.1,3.8l18.3,33l24.8-34c1.9-2.6,5-4.1,8.2-4c3.2,0.2,6.2,1.9,7.8,4.7l19.9,33.3l23.2-33.8
				c1.8-2.7,4.9-4.3,8.1-4.2c3.2,0.1,6.2,1.7,8,4.4l21.2,33.1l21.7-36.1c1.7-2.8,4.7-4.6,7.9-4.7c3.3-0.1,6.4,1.4,8.2,4.1l23.1,33.4
				l20-32.9c1.6-2.7,4.5-4.4,7.6-4.6c3.2-0.2,6.2,1.2,8.2,3.6l24.9,31.5l18.5-30.5c2.8-4.5,8.7-6,13.2-3.3c4.5,2.8,6,8.7,3.2,13.2
				l-25.7,42.4c-1.6,2.7-4.5,4.4-7.6,4.6c-3.2,0.2-6.2-1.2-8.2-3.6l-25-31.5l-20.5,33.7c-1.7,2.8-4.7,4.5-8,4.6s-6.3-1.5-8.2-4.1
				l-23.1-33.3l-22,36.6c-1.7,2.9-4.8,4.6-8.1,4.7c-3.3,0.1-6.5-1.6-8.3-4.4l-21.7-34l-23.4,34.2c-1.9,2.7-4.9,4.3-8.2,4.2
				c-3.3-0.1-6.3-1.9-8-4.7l-20.1-33.7l-25.1,34.4C139.5,403.3,136.6,404.8,133.5,404.8z"/>
			<path fill="currentColor" d="M133.5,410.2c-0.1,0-0.5,0-0.6,0c-5.5-0.3-10.1-3.2-12.5-7.8l-25.6-46.2c-4-7.2-1.4-16.4,5.9-20.4
				c7-3.9,16.5-1.1,20.4,5.9l14.2,25.6l19.8-27.2c2.8-3.9,7.4-6.2,12.2-6.2c5.7,0.3,10.2,3,12.8,7.3l15.6,26.1l18.4-26.9
				c2.8-4.1,7.4-6.5,12.3-6.5c5.4,0.1,10,2.7,12.7,6.9l16.5,25.8l17.2-28.7c2.6-4.4,7.3-7.1,12.4-7.3l0,0c5.4,0,10,2.4,12.8,6.5
				l18.4,26.6L332,338c2.6-4.2,7-6.9,11.9-7.2h0.1c5.5,0,9.8,2.1,12.6,5.6l20.1,25.4l14.5-23.9c4.2-6.9,13.7-9.2,20.6-5.1
				c7.1,4.3,9.3,13.6,5.1,20.6l-25.7,42.4c-2.5,4.2-6.9,6.9-11.8,7.2c-5.8,0.2-9.8-2-12.7-5.6L346.5,372L330,399.1
				c-2.6,4.4-7.3,7.1-12.4,7.2l0,0c-5.4,0-9.8-2.3-12.7-6.4l-18.4-26.5l-17.7,29.5c-2.7,4.5-7.4,7.2-12.6,7.3l0,0
				c-5.3,0-10.1-2.6-12.8-6.9L226,376.1l-18.9,27.5c-2.9,4.2-7.4,6.5-12.4,6.5c-5.6-0.1-10.2-2.9-12.9-7.3l-15.9-26.7L145.6,404
				C142.8,407.9,138.3,410.2,133.5,410.2z M107.9,344.7c-0.7,0-1.4,0.2-2,0.5c-2.1,1.1-2.8,3.7-1.7,5.8l25.6,46.2
				c0.7,1.3,2,2.1,3.5,2.2l0.2,5.4v-5.4c1.4,0,2.7-0.7,3.5-1.8l25.1-34.4c1.1-1.5,2.9-2.5,4.6-2.2c1.8,0.1,3.5,1.1,4.4,2.6
				l20.1,33.7c0.7,1.2,2,2,3.5,2.1l0,0c1.6,0,2.9-0.7,3.7-1.9l23.4-34.2c1-1.5,2.7-2.1,4.5-2.3c1.8,0,3.5,1,4.4,2.5l21.7,34
				c0.8,1.2,2.1,2,3.5,2c1.6,0,3-0.8,3.7-2.1l22-36.6c0.9-1.6,2.6-2.5,4.4-2.6c1.8,0.1,3.6,0.8,4.6,2.3l23.1,33.3
				c0.8,1.2,2,1.8,3.5,1.8c1.6,0,2.9-0.8,3.7-2l20.5-33.8c0.9-1.5,2.5-2.5,4.3-2.6c1.8-0.2,3.5,0.7,4.5,2l25,31.5
				c0.8,1,2.1,1.6,3.4,1.6c1.6-0.1,2.9-0.9,3.6-2l25.7-42.4c1.2-2,0.6-4.6-1.4-5.9c-1.9-1.1-4.7-0.5-5.9,1.5L382.1,374
				c-0.9,1.5-2.5,2.5-4.3,2.6c-1.8,0.2-3.5-0.7-4.5-2l-24.9-31.5c-0.8-1-2-1.6-3.3-1.6c-1.7,0.1-2.9,0.9-3.7,2.1l-20,32.9
				c-0.9,1.6-2.6,2.5-4.4,2.6c-1.6,0.1-3.5-0.8-4.6-2.3l-23.1-33.4c-0.8-1.2-2.1-1.8-3.6-1.8c-1.4,0-2.8,0.8-3.5,2.1l-21.7,36.1
				c-1,1.6-2.7,2.6-4.5,2.6c-1.9-0.5-3.6-0.9-4.6-2.5L230,346.7c-0.8-1.2-2.1-1.9-3.6-2l0,0c-1.4,0-2.7,0.7-3.5,1.9l-23.2,33.8
				c-1,1.5-2.8,2.2-4.6,2.3c-1.8-0.1-3.5-1-4.4-2.6l-19.9-33.3c-0.7-1.2-2-2-3.5-2.1l0,0c-1.5,0-2.8,0.7-3.6,1.8l-24.8,34
				c-1.1,1.5-2.9,2.4-4.7,2.2c-1.8-0.1-3.5-1.2-4.4-2.8l-18.3-33C110.9,345.5,109.5,344.7,107.9,344.7z"/>
		</g>
	</g>
</g>
</svg>
