<svg id="Camada_1" data-name="Camada 1" xmlns="http://www.w3.org/2000/svg" viewBox="0 0 512.8 512.8">
  <path d="M256,512.4C114.6,512.4-.4,397.4-.4,256S114.6-.4,256-.4,512.4,114.6,512.4,256,397.4,512.4,256,512.4Zm0-491.3C126.5,21.1,21.1,126.5,21.1,256S126.5,490.9,256,490.9,490.9,385.5,490.9,256,385.5,21.1,256,21.1ZM402.7,143.4a33.6,33.6,0,0,1-2.6,4.3c-1,1.3-2.2,2.8-3.7,4.5a56,56,0,0,1-5.5,5.1,65.1,65.1,0,0,1-7.5,5,54.8,54.8,0,0,1-20.4,6.5,52.7,52.7,0,0,1-11.9-.1,49.6,49.6,0,0,1-11.6-3.1c-.9-.4-1.8-.7-2.7-1.2l-2.6-1.4a56,56,0,0,1-4.8-3,44.1,44.1,0,0,1-7.7-7.1,31.2,31.2,0,0,1-2.9-3.7c-.9-1.3-1.8-2.4-2.5-3.6l-1.9-3.5c-.6-1.1-1-2.2-1.5-3.3a52.3,52.3,0,0,1-1.9-5.5,31.4,31.4,0,0,1-.8-3.6,11.1,11.1,0,0,0-.2-1.3l1.2.7c.7.5,1.8,1.1,3,2l4.6,3.1c1.6,1.2,3.6,2.4,5.7,3.7a33.7,33.7,0,0,0,3.2,1.9,27.4,27.4,0,0,0,3.4,1.9,80,80,0,0,0,7.2,3.5,68.6,68.6,0,0,0,7.6,2.7,69.3,69.3,0,0,0,7.9,1.7,75.4,75.4,0,0,0,8.2.6h4.2l4.1-.3c2.8-.2,5.5-.7,8.1-1.1s5.2-.9,7.6-1.5c4.8-1,8.9-2.1,11.9-2.8ZM358,174.5a63,63,0,0,1-7.5-.5,61,61,0,0,1-13.2-3.5,28.7,28.7,0,0,1-3.2-1.4l-2.5-1.4a36.8,36.8,0,0,1-4.5-2.8,53,53,0,0,1-9.4-8.4,33.9,33.9,0,0,1-3.3-4.2l-.7-.9a29.2,29.2,0,0,1-2.1-3.2l-2-3.6a25.5,25.5,0,0,1-1.3-2.9,48,48,0,0,1-2.5-7.1c-.3-1-.5-2.1-.7-2.9l-.4-2.4a5.4,5.4,0,0,1,2.3-5.2,5.6,5.6,0,0,1,5.7-.2l2.4,1.5,2.3,1.5,2.4,1.7,2,1.3c1.2.9,2.4,1.6,3.7,2.4l1.9,1.2,2.2,1.4,1.8,1.1,1.8,1a77.2,77.2,0,0,0,7.1,3.5,49.7,49.7,0,0,0,6.8,2.4,55.6,55.6,0,0,0,6.3,1.4l1.2.2a55.7,55.7,0,0,0,6.6.5H364l3.6-.2,2-.2c2.6-.2,4.9-.6,7.2-.9l8.1-1.5,9.3-2.1,7.4-1.8a5.3,5.3,0,0,1,5.4,1.8,5.5,5.5,0,0,1,.8,5.6,31.6,31.6,0,0,1-3.1,5.2,53.1,53.1,0,0,1-4.2,5,57.1,57.1,0,0,1-6.1,5.6,55.8,55.8,0,0,1-8.2,5.5,57.3,57.3,0,0,1-10.4,4.6,50.9,50.9,0,0,1-12.1,2.6A54.4,54.4,0,0,1,358,174.5Zm-37.7-32.9.8,1.4c.4.7.9,1.4,1.4,2.1l.8,1a17.9,17.9,0,0,0,2.5,3.1,46.6,46.6,0,0,0,7,6.4,32.5,32.5,0,0,0,4,2.6l1.9,1a10,10,0,0,0,2.2,1,40.9,40.9,0,0,0,11.3,3.1,45,45,0,0,0,10.4.1,42.3,42.3,0,0,0,9.9-2.2,54.7,54.7,0,0,0,8.6-3.8,55.9,55.9,0,0,0,6.7-4.5l1-.8-1.5.3-7.7,1.5c-3.5.5-6,.9-8.6,1.1l-2.4.2-3.2.2h-3.5a59.4,59.4,0,0,1-7.6-.5h-1.2l-1.1-.2a47.9,47.9,0,0,1-7.5-1.7,55.4,55.4,0,0,1-8-2.9c-2.7-1.2-5.3-2.4-7.8-3.8l-2.5-1.4-.9-.6a36,36,0,0,1-3.6-2.2Zm-211,1.8,4.8,1.2c3,.7,7.2,1.8,12,2.8l7.6,1.5,8.1,1.1,4.2.3h4.2a55.5,55.5,0,0,0,8.2-.6,65,65,0,0,0,7.9-1.7,62.1,62.1,0,0,0,7.6-2.7,80,80,0,0,0,7.2-3.5l3.4-1.9c1.1-.7,2.2-1.2,3.2-1.9l5.7-3.7,4.5-3.1,3-2,1.2-.7s-.1.5-.2,1.3-.4,2.1-.8,3.6a34.7,34.7,0,0,1-1.8,5.5,31.1,31.1,0,0,1-1.5,3.3l-1.9,3.5c-.7,1.2-1.6,2.4-2.4,3.6a32.5,32.5,0,0,1-3,3.7,48,48,0,0,1-7.7,7.1,38.8,38.8,0,0,1-4.8,3l-2.6,1.4a22.1,22.1,0,0,1-2.7,1.2,46.2,46.2,0,0,1-11.6,3.1,52,52,0,0,1-22.9-2.3,62,62,0,0,1-9.4-4.1,65.1,65.1,0,0,1-7.5-5,46.5,46.5,0,0,1-5.5-5.1,57.6,57.6,0,0,1-3.7-4.5A21.5,21.5,0,0,1,109.3,143.4ZM154,174.5a54.4,54.4,0,0,1-5.7-.3,50.4,50.4,0,0,1-12.1-2.7A62.8,62.8,0,0,1,126,167a61.4,61.4,0,0,1-14.4-11.2,48.1,48.1,0,0,1-4.1-5,30.1,30.1,0,0,1-3.2-5.3,5.4,5.4,0,0,1,.8-5.6,5.5,5.5,0,0,1,5.4-1.8l7.6,1.8,9,2.1,7.4,1.4c3,.5,5.3.8,7.7,1l2.2.2,2.1.2h1.9l1,5.4.5-5.4a63.2,63.2,0,0,0,7-.4l1.7-.3a59.9,59.9,0,0,0,6.1-1.3,54.8,54.8,0,0,0,7.2-2.5c2.2-1,4.5-2,6.6-3.2l2.2-1.2,1.1-.7,2.8-1.7,2.1-1.4,3.6-2.3,4.5-3.1,2.2-1.5,1.2-.8,1.2-.7a5.6,5.6,0,0,1,5.7.2,5.3,5.3,0,0,1,2.3,5.2l-.3,1.6c-.4,1.7-.6,2.8-1,4.1a46.2,46.2,0,0,1-2,6,39.3,39.3,0,0,1-1.7,3.8l-1.9,3.5a18.1,18.1,0,0,1-1.9,2.9l-.8,1.1a52,52,0,0,1-3.5,4.4,56.8,56.8,0,0,1-8.5,7.7l-1,.7a34,34,0,0,1-4.5,2.8l-2.4,1.3-2.5,1.2a57.8,57.8,0,0,1-13.5,3.8A55.8,55.8,0,0,1,154,174.5Zm-30.5-22.2,1,.8a48.9,48.9,0,0,0,6.7,4.5,42,42,0,0,0,8.4,3.7,47.3,47.3,0,0,0,9.9,2.2,43.3,43.3,0,0,0,10.8-.1,45.8,45.8,0,0,0,10.1-2.7l2.2-.9,2.6-1.4c1.3-.7,2.3-1.4,3.4-2.1l.9-.6a42.8,42.8,0,0,0,6.7-6.2,23.3,23.3,0,0,0,2.6-3.3l.9-1.2a18.8,18.8,0,0,0,1.2-1.8l.8-1.4-1.2.8-2.5,1.5-1.8,1.1a26.9,26.9,0,0,1-2.9,1.6c-2.1,1.2-4.7,2.4-7.3,3.6a70.5,70.5,0,0,1-8.4,3,66.2,66.2,0,0,1-7.3,1.6l-1.1.2-1.3.2a56.5,56.5,0,0,1-7.1.5h-7l-2.6-.2-7.4-.9c-3.7-.6-6.3-1.1-8.8-1.7A2.9,2.9,0,0,0,123.5,152.3ZM378.5,290a9.7,9.7,0,0,1-4-.9l-74.4-34a9.6,9.6,0,0,1-1.8-16.4l74.5-55.2A9.7,9.7,0,0,1,384.3,199l-61.4,45.5,59.6,27.2a9.7,9.7,0,0,1,4.8,12.8A10,10,0,0,1,378.5,290Zm0,5.4a15.2,15.2,0,0,1-6.3-1.4l-74.4-34a15,15,0,0,1-2.7-25.7l74.5-55.2a15.4,15.4,0,0,1,21,3.1,14.7,14.7,0,0,1,2.8,11.1,15.1,15.1,0,0,1-5.9,9.9l-54.1,40.1,51.4,23.4a15.1,15.1,0,0,1,7.4,19.9A15.3,15.3,0,0,1,378.5,295.4Zm0-108.5a4,4,0,0,0-2.5.8l-74.5,55.2a4.5,4.5,0,0,0-1.7,3.9,4.2,4.2,0,0,0,2.5,3.4l74.4,34a4.5,4.5,0,0,0,5.7-2.1,4.2,4.2,0,0,0-2.1-5.6l-59.6-27.2a5.4,5.4,0,0,1-3.1-4.3,5.5,5.5,0,0,1,2.1-4.9l61.4-45.5a4.6,4.6,0,0,0,1.7-2.8,3.9,3.9,0,0,0-.8-3.1A4.4,4.4,0,0,0,378.5,186.9ZM133.5,290a9.6,9.6,0,0,1-4-18.4l59.6-27.2-61.4-45.5a9.7,9.7,0,1,1,11.5-15.5l74.5,55.2a9.6,9.6,0,0,1,3.8,8.7,9.4,9.4,0,0,1-5.6,7.7l-74.5,34A7.8,7.8,0,0,1,133.5,290Zm0,5.4a15.2,15.2,0,0,1-13.7-8.7,15.1,15.1,0,0,1,7.4-19.9l51.4-23.4-54-40.1a15.1,15.1,0,0,1-5.9-9.9,14.7,14.7,0,0,1,2.8-11.1,15.4,15.4,0,0,1,21-3.1L217,234.4a15.2,15.2,0,0,1,6,13.7,14.8,14.8,0,0,1-8.7,12l-74.4,34A17.4,17.4,0,0,1,133.5,295.4Zm0-108.5a4.1,4.1,0,0,0-3.4,1.7,3.9,3.9,0,0,0-.8,3.1,4.6,4.6,0,0,0,1.7,2.8L192.4,240a5.4,5.4,0,0,1-1,9.2l-59.6,27.2a4.3,4.3,0,0,0-2.1,5.7,4.5,4.5,0,0,0,5.6,2.1l74.5-34a4.2,4.2,0,0,0,.8-7.3L136,187.7A3.9,3.9,0,0,0,133.5,186.9Zm0,217.9h-.6a9.4,9.4,0,0,1-7.8-5L99.5,353.6a9.6,9.6,0,0,1,16.9-9.3l18.3,33,24.8-34a9.8,9.8,0,0,1,8.2-4,9.6,9.6,0,0,1,7.8,4.7l19.9,33.3,23.2-33.8a9.5,9.5,0,0,1,8.1-4.2,10,10,0,0,1,8,4.4l21.2,33.1,21.7-36.1a9.7,9.7,0,0,1,7.9-4.7,9.4,9.4,0,0,1,8.2,4.1l23.1,33.4,20-32.9a9.6,9.6,0,0,1,7.6-4.6,9.9,9.9,0,0,1,8.2,3.6l24.9,31.5L396,340.6a9.7,9.7,0,0,1,13.2-3.3,9.6,9.6,0,0,1,3.2,13.2l-25.7,42.4a9.6,9.6,0,0,1-7.6,4.6,9.9,9.9,0,0,1-8.2-3.6l-25-31.5-20.5,33.7a9.6,9.6,0,0,1-8,4.6,9.8,9.8,0,0,1-8.2-4.1l-23.1-33.3-22,36.6a9.7,9.7,0,0,1-16.4.3l-21.7-34-23.4,34.2a9.6,9.6,0,0,1-8.2,4.2,9.7,9.7,0,0,1-8-4.7l-20.1-33.7-25.1,34.4A9,9,0,0,1,133.5,404.8Zm0,5.4h-.6a14.7,14.7,0,0,1-12.5-7.8L94.8,356.2a15,15,0,0,1,5.9-20.4c7-3.9,16.5-1.1,20.4,5.9l14.2,25.6,19.8-27.2a15.1,15.1,0,0,1,12.2-6.2,15.4,15.4,0,0,1,12.8,7.3l15.6,26.1,18.4-26.9a14.9,14.9,0,0,1,12.3-6.5,15.1,15.1,0,0,1,12.7,6.9l16.5,25.8,17.2-28.7a15,15,0,0,1,12.4-7.3h0a15.1,15.1,0,0,1,12.8,6.5l18.4,26.6L332,338a15.1,15.1,0,0,1,11.9-7.2h.1c5.5,0,9.8,2.1,12.6,5.6l20.1,25.4,14.5-23.9a15.4,15.4,0,0,1,20.6-5.1,15.1,15.1,0,0,1,5.1,20.6l-25.7,42.4a15,15,0,0,1-24.5,1.6L346.5,372,330,399.1a14.7,14.7,0,0,1-12.4,7.2h0a15,15,0,0,1-12.7-6.4l-18.4-26.5-17.7,29.5a14.9,14.9,0,0,1-12.6,7.3h0a15,15,0,0,1-12.8-6.9L226,376.1l-18.9,27.5a14.8,14.8,0,0,1-12.4,6.5,15.1,15.1,0,0,1-12.9-7.3l-15.9-26.7L145.6,404A14.9,14.9,0,0,1,133.5,410.2Zm-25.6-65.5a4.6,4.6,0,0,0-2,.5,4.3,4.3,0,0,0-1.7,5.8l25.6,46.2a4.2,4.2,0,0,0,3.5,2.2l.2,5.4v-5.4a4.4,4.4,0,0,0,3.5-1.8l25.1-34.4a5,5,0,0,1,4.6-2.2,5.5,5.5,0,0,1,4.4,2.6l20.1,33.7a4.4,4.4,0,0,0,3.5,2.1h0a4.3,4.3,0,0,0,3.7-1.9l23.4-34.2a5.9,5.9,0,0,1,4.5-2.3,5.2,5.2,0,0,1,4.4,2.5l21.7,34a4.3,4.3,0,0,0,3.5,2,4.1,4.1,0,0,0,3.7-2.1l22-36.6a5.3,5.3,0,0,1,4.4-2.6,5.8,5.8,0,0,1,4.6,2.3l23.1,33.3a4,4,0,0,0,3.5,1.8,4.4,4.4,0,0,0,3.7-2l20.5-33.8a5.4,5.4,0,0,1,4.3-2.6,5.1,5.1,0,0,1,4.5,2l25,31.5a4.4,4.4,0,0,0,3.4,1.6,4.5,4.5,0,0,0,3.6-2l25.7-42.4a4.4,4.4,0,0,0-1.4-5.9,4.5,4.5,0,0,0-5.9,1.5L382.1,374a5.4,5.4,0,0,1-4.3,2.6,5.1,5.1,0,0,1-4.5-2l-24.9-31.5a4.2,4.2,0,0,0-3.3-1.6,4.6,4.6,0,0,0-3.7,2.1l-20,32.9a5.3,5.3,0,0,1-4.4,2.6,5.6,5.6,0,0,1-4.6-2.3l-23.1-33.4a4.2,4.2,0,0,0-3.6-1.8,4,4,0,0,0-3.5,2.1l-21.7,36.1a5.4,5.4,0,0,1-4.5,2.6c-1.9-.5-3.6-.9-4.6-2.5L230,346.7a4.6,4.6,0,0,0-3.6-2h0a4.2,4.2,0,0,0-3.5,1.9l-23.2,33.8a5.8,5.8,0,0,1-4.6,2.3,5.3,5.3,0,0,1-4.4-2.6l-19.9-33.3a4.4,4.4,0,0,0-3.5-2.1h0a4.4,4.4,0,0,0-3.6,1.8l-24.8,34a5.2,5.2,0,0,1-4.7,2.2,5.5,5.5,0,0,1-4.4-2.8l-18.3-33A3.8,3.8,0,0,0,107.9,344.7Z" transform="translate(0.4 0.4)" fill="currentColor"/>
</svg>
