<?xml version="1.0" encoding="utf-8"?>
<!-- Generator: Adobe Illustrator 24.0.1, SVG Export Plug-In . SVG Version: 6.00 Build 0)  -->
<svg version="1.1" id="Camada_1" focusable="false" xmlns="http://www.w3.org/2000/svg" xmlns:xlink="http://www.w3.org/1999/xlink"
	 x="0px" y="0px" viewBox="0 0 512 512" style="enable-background:new 0 0 512 512;" xml:space="preserve">
<g>
	<g>
		<g>
			<g>
				<path fill="currentColor" d="M256,512.4C114.6,512.4-0.4,397.4-0.4,256S114.6-0.4,256-0.4s256.4,115,256.4,256.4S397.4,512.4,256,512.4z M256,21.1
					C126.5,21.1,21.1,126.5,21.1,256S126.5,490.9,256,490.9S490.9,385.5,490.9,256S385.5,21.1,256,21.1z"/>
			</g>
		</g>
	</g>
	<g>
		<g>
			<g>
				<path fill="currentColor" d="M262.9,376.5c-30.2,7.9-59.6,10.7-85.9,9.2c12.2,20.1,51.1,27.7,92.7,16.9c41.6-10.9,71.8-36.5,72.6-60
					C320.1,356.8,293,368.7,262.9,376.5z"/>
				<path fill="currentColor" d="M232.6,413c-28.4,0-50.8-9.1-60.1-24.4c-1-1.7-1-3.8,0-5.6c1-1.7,2.8-2.8,4.9-2.6c26.5,1.5,55.5-1.6,84.2-9.1
					c28.5-7.4,55.4-18.9,77.9-33.2c1.7-1.1,3.8-1.1,5.6-0.1c1.7,1,2.8,2.9,2.7,4.8c-0.9,26.3-33.2,53.6-76.6,65
					C258,411.2,245.1,413,232.6,413z M190,391.5c16.1,11.2,47.7,13.9,78.3,5.9c31.5-8.2,57.1-25.7,65.6-43.5
					c-20.9,11.8-44.7,21.3-69.7,27.8c-24.9,6.5-49.6,9.8-73.6,9.8C190.4,391.5,190.2,391.5,190,391.5z"/>
			</g>
		</g>
		<g>
			<g>
				<g>
					<path fill="currentColor" d="M162.9,200.2c-2.1,7.9-3.3,16.8-3.3,26.2c0,32,13.7,58,30.6,58s30.6-26,30.6-58c0-9.4-1.2-18.4-3.3-26.2H162.9z"/>
					<path fill="currentColor" d="M190.2,289.8c-20.1,0-35.9-27.8-35.9-63.4c0-9.7,1.2-19,3.5-27.6c0.6-2.4,2.7-4,5.2-4h54.5c2.4,0,4.6,1.6,5.2,4
						c2.3,8.6,3.5,17.9,3.5,27.6C226.1,261.9,210.3,289.8,190.2,289.8z M167.1,205.5c-1.4,6.6-2.2,13.7-2.2,20.9
						c0,31,13.3,52.6,25.2,52.6s25.2-21.6,25.2-52.6c0-7.2-0.7-14.3-2.2-20.9H167.1z"/>
				</g>
			</g>
			<g>
				<g>
					<path fill="currentColor" d="M210.7,209.8H108.5c-5.3,0-9.6-4.3-9.6-9.6s4.3-9.6,9.6-9.6h102.1c5.3,0,9.6,4.3,9.6,9.6
						C220.3,205.5,216,209.8,210.7,209.8z"/>
					<path fill="currentColor" d="M210.7,215.2H108.5c-8.3,0-15-6.7-15-15s6.7-15,15-15h102.1c8.3,0,15,6.7,15,15C225.6,208.4,218.9,215.2,210.7,215.2z
						 M108.5,195.9c-2.4,0-4.3,1.9-4.3,4.2s1.9,4.3,4.3,4.3h102.1c2.3,0,4.2-1.9,4.2-4.3c0-2.3-1.9-4.2-4.2-4.2H108.5z"/>
				</g>
			</g>
		</g>
		<g>
			<g>
				<g>
					<path fill="currentColor" d="M348.7,200.2c-2.1,7.9-3.3,16.8-3.3,26.2c0,32,13.7,58,30.6,58s30.6-26,30.6-58c0-9.4-1.2-18.4-3.3-26.2H348.7z"/>
					<path fill="currentColor" d="M375.9,289.8c-20.2,0-35.9-27.8-35.9-63.4c0-9.7,1.2-19,3.5-27.6c0.6-2.4,2.7-4,5.2-4h54.5c2.4,0,4.6,1.6,5.2,4
						c2.3,8.6,3.5,17.9,3.5,27.6C411.9,261.9,396.1,289.8,375.9,289.8z M352.9,205.5c-1.4,6.6-2.2,13.7-2.2,20.9
						c0,31,13.3,52.6,25.2,52.6c11.9,0,25.2-21.6,25.2-52.6c0-7.2-0.7-14.3-2.2-20.9H352.9z"/>
				</g>
			</g>
			<g>
				<g>
					<path fill="currentColor" d="M396.4,209.8H294.3c-5.3,0-9.7-4.3-9.7-9.6s4.3-9.6,9.7-9.6h102.1c5.3,0,9.6,4.3,9.6,9.6
						C406.1,205.5,401.8,209.8,396.4,209.8z"/>
					<path fill="currentColor" d="M396.4,215.2H294.3c-8.3,0-15-6.7-15-15s6.7-15,15-15h102.1c8.3,0,15,6.7,15,15C411.5,208.4,404.7,215.2,396.4,215.2z
						 M294.3,195.9c-2.4,0-4.3,1.9-4.3,4.2s1.9,4.3,4.3,4.3h102.1c2.3,0,4.3-1.9,4.3-4.3c0-2.3-1.9-4.2-4.3-4.2H294.3z"/>
				</g>
			</g>
		</g>
		<g>
			<g>
				<path fill="currentColor" d="M407,141.8c0,0-0.4-0.5-1.1-1.3s-1.7-2.2-3-3.5c-1.2-1.4-2.9-3-4.7-4.8c-0.9-0.8-2-1.7-3-2.7c-1.2-0.8-2.2-1.8-3.5-2.7
					c-1.3-0.8-2.5-1.8-3.9-2.6c-0.7-0.4-1.4-0.8-2.1-1.3c-0.7-0.4-1.5-0.7-2.2-1.2c-1.4-0.8-3-1.5-4.6-2.2c-1.7-0.6-3.2-1.4-4.9-1.9
					c-3.3-1.2-6.9-2-10.5-2.7c-3.7-0.6-7.4-0.8-11.1-0.9l-2.9,0.1h-1.6l-1.2,0.1l-2.5,0.2c-0.9,0.1-1.8,0.3-2.7,0.4
					c-0.9,0.1-1.8,0.4-2.7,0.6c-0.9,0.2-1.8,0.3-2.7,0.6c-0.9,0.3-1.7,0.5-2.6,0.7c-0.9,0.3-1.7,0.6-2.5,0.9
					c-1.7,0.5-3.3,1.3-4.9,1.9c-1.5,0.8-3.1,1.4-4.6,2.2c-0.7,0.4-1.5,0.8-2.2,1.2c-0.7,0.4-1.4,0.9-2.1,1.3
					c-1.4,0.8-2.6,1.8-3.9,2.6c-1.3,0.9-2.4,1.8-3.5,2.7c-1.1,0.9-2.1,1.8-3.1,2.7c-1.9,1.8-3.5,3.4-4.8,4.8c-1.4,1.4-2.4,2.6-3,3.4
					c-0.7,0.8-1.1,1.3-1.1,1.3s0-0.6,0.1-1.7c0.1-1.1,0.1-2.7,0.6-4.7c0.3-2.1,1-4.5,2.1-7.3c0.6-1.3,1.2-2.8,1.9-4.3
					c0.8-1.4,1.7-3,2.7-4.5c2.1-3,4.6-6.2,7.7-9.1c0.8-0.8,1.6-1.5,2.5-2.2s1.7-1.4,2.6-2.1c1.9-1.3,3.8-2.6,5.9-3.7
					c1-0.6,2.1-1.2,3.2-1.7s2.2-1,3.4-1.4c2.3-0.9,4.6-1.7,7.1-2.3c1.2-0.3,2.5-0.6,3.7-0.8c1.3-0.3,2.7-0.4,4-0.6l2.1-0.3l1.6-0.1
					l1.7-0.1h0.8h0.4h0.6h0.2c5.1,0.1,10.2,0.7,15,1.9c2.4,0.7,4.8,1.4,7.1,2.3c1.1,0.5,2.2,1,3.4,1.4c1.1,0.5,2.1,1.1,3.2,1.7
					c1,0.5,2.1,1.1,3,1.8c1,0.6,2,1.3,2.9,1.9c1.8,1.5,3.6,2.7,5.1,4.2c0.8,0.8,1.5,1.5,2.3,2.2c0.7,0.8,1.4,1.5,2,2.3
					c1.3,1.5,2.4,3.1,3.5,4.6c1,1.5,1.9,3.1,2.7,4.5c0.7,1.5,1.4,2.9,1.9,4.3c1,2.8,1.7,5.2,2,7.3c0.5,2,0.4,3.6,0.5,4.7
					C407,141.2,407,141.8,407,141.8z"/>
				<path fill="currentColor" d="M407.3,147.1c-0.1,0-0.3,0-0.4,0c-1.4-0.1-2.8-0.7-3.8-1.8l-1.2-1.5c-1-1.3-1.8-2.2-2.7-3.2c-1.3-1.4-2.8-2.9-4.5-4.6
					l-2.9-2.6c-0.2-0.1-0.8-0.5-1.4-1c-0.5-0.4-1-0.8-1.6-1.2c-0.5-0.3-1-0.7-1.6-1.1c-0.6-0.4-1.2-0.8-1.8-1.2l-4.3-2.5
					c-1-0.5-1.9-1-2.9-1.4l-1.5-0.7c-0.2,0-1-0.4-1.8-0.7c-0.7-0.3-1.4-0.6-2.2-0.8c-3.4-1.2-6.9-2-10.1-2.6
					c-2.8-0.5-6.1-0.7-10.2-0.8l-9.1,0.7c-0.1,0-1.2,0.2-1.3,0.2c-0.1,0-2,0.4-2,0.5c-1.4,0.3-1.8,0.3-2.2,0.4l-4.7,1.4
					c-1.4,0.4-2.1,0.7-2.8,1c-0.8,0.3-1.6,0.7-2.4,1l-1.3,0.7c-0.8,0.4-1.6,0.7-2.3,1.1l-4.3,2.5c-0.8,0.5-1.5,0.9-2.2,1.4l-1.4,1
					c-0.5,0.4-1.1,0.8-1.6,1.2c-0.6,0.5-1.2,0.9-1.8,1.4l-1.1,1c-0.6,0.5-1.2,1-1.8,1.5c-1.4,1.3-2.9,2.8-4.1,4.1
					c-1.2,1.2-1.9,2.1-2.5,2.8l-1.6,1.8c-1.4,1.7-3.8,2.4-5.9,1.6c-2.1-0.8-3.5-2.8-3.6-5c0,0,0-0.7,0.1-2.1c0.1-2,0.3-3.7,0.7-5.6
					c0.3-1.9,1.1-4.6,2.3-7.9c0.9-2.1,1.5-3.4,2.1-4.8l0.9-1.6c0.7-1.2,1.3-2.4,2.1-3.5c2.8-4,5.5-7.3,8.6-10.1
					c0.7-0.7,1.7-1.6,2.8-2.4l4-3.1c1.7-1.2,3.4-2.3,5.3-3.3c1.7-1,2.6-1.4,3.5-1.8l3.4-1.5c2.6-1.1,5.2-2,7.9-2.6l3.8-0.9
					c1.2-0.3,2.6-0.4,3.9-0.6l6.5-0.5l1.2-0.1c0.2,0,1.1,0,1.3,0c5.6,0.1,11.1,0.8,16.1,2.1c2.7,0.7,5.3,1.5,7.7,2.5l3.3,1.4
					c1.1,0.5,1.9,0.9,2.7,1.4l1,0.5c1.2,0.6,2.4,1.3,3.5,2.1c0.9,0.5,1.9,1.2,2.9,1.9l2,1.5c1.4,1.1,2.8,2.2,4,3.4l2.1,2
					c1,1.1,1.8,1.9,2.5,2.8c1.2,1.4,2.4,3,3.5,4.6c1.4,2,2.3,3.7,3.1,5.2c1,2.1,1.7,3.6,2.3,5c1.3,3.7,2,6.2,2.4,8.5
					c0.3,1.5,0.4,3,0.5,4.3c0,0.5,0.1,0.9,0.1,1.3c0.2,0.5,0.3,1.1,0.3,1.7C412.6,144.7,410.2,147.1,407.3,147.1z M351.3,94.8
					l-0.6,5.4l-5,0.4c-1.6,0.2-2.6,0.3-3.5,0.5l-3.7,0.8c-2.1,0.5-4.2,1.2-6.2,2.1l-3.2,1.4c-0.6,0.3-1.2,0.6-1.7,0.9l-1.1,0.6
					c-1.5,0.8-2.9,1.8-4.3,2.7l-3.4,2.6c-0.7,0.5-1.4,1.1-2,1.7c-2.6,2.4-4.9,5.1-7.1,8.4c-0.3,0.4-0.5,0.8-0.7,1.2
					c0.5-0.4,1-0.8,1.5-1.1l1.2-0.8c1-0.7,2-1.4,3.1-2l1-0.7c0.1-0.1,1-0.6,1.1-0.7l2.1-1.1c1-0.5,2-1,3.1-1.6l1.7-0.8
					c1.2-0.5,1.8-0.7,2.4-1c1.2-0.5,2.3-1,3.6-1.3l5-1.6c0.7-0.2,1.5-0.4,2.4-0.5l2.7,4.9l-1.3-5.2c0.9-0.2,1.7-0.4,2.7-0.5
					l11.3-0.9c4.9,0.1,8.7,0.4,12.1,1c3.8,0.7,7.8,1.6,11.5,2.9c0.8,0.2,2,0.7,3.1,1.1c0.6,0.2,1.1,0.5,1.7,0.7l2,0.9
					c1.2,0.6,2.4,1.1,3.6,1.8l1.5,0.8c0.2,0.1,0.9,0.5,1,0.6l1.9,1.2c0.8,0.4,1.8,1.1,2.8,1.8l1.2,0.8c0.6,0.4,1,0.7,1.5,1.1
					c-0.2-0.3-0.4-0.7-0.7-1c-1.1-1.6-2-2.9-3-4.1c-0.7-0.9-1.3-1.5-2-2.3l-1.3-1.3c-0.1-0.1-0.8-0.8-0.9-0.9
					c-0.8-0.9-1.8-1.6-2.7-2.3l-1.9-1.5c-0.5-0.3-1.4-0.9-2.3-1.5c-1-0.7-1.8-1.1-2.6-1.6l-1.2-0.6c-0.6-0.3-1.2-0.7-1.8-1l-3-1.2
					c-2.2-0.9-4.4-1.6-6.6-2.2c-4.2-1.1-8.8-1.7-13.7-1.8L351.3,94.8z"/>
			</g>
		</g>
		<g>
			<g>
				<path fill="currentColor" d="M214.3,141.8c0,0-0.4-0.5-1.1-1.3c-0.7-0.8-1.7-2.2-3-3.5c-1.2-1.4-2.9-3-4.7-4.8c-0.9-0.8-2-1.7-3-2.7
					c-1.2-0.8-2.2-1.8-3.5-2.7c-1.3-0.8-2.5-1.8-3.9-2.6c-0.7-0.4-1.4-0.8-2-1.3c-0.7-0.4-1.5-0.7-2.2-1.2c-1.5-0.8-3.1-1.5-4.6-2.2
					c-1.7-0.6-3.2-1.4-4.9-1.9c-3.3-1.2-6.9-2-10.5-2.7c-3.6-0.6-7.3-0.8-11.1-0.9l-2.9,0.1h-1.6l-1.2,0.1l-2.5,0.2
					c-0.9,0.1-1.8,0.3-2.7,0.4s-1.8,0.4-2.7,0.6s-1.8,0.3-2.7,0.6c-0.9,0.3-1.7,0.5-2.6,0.7c-0.9,0.3-1.7,0.6-2.5,0.9
					c-1.7,0.5-3.3,1.3-4.9,1.9c-1.5,0.8-3.1,1.4-4.6,2.2c-0.8,0.4-1.5,0.8-2.2,1.2c-0.7,0.4-1.3,0.9-2.1,1.3
					c-1.4,0.8-2.6,1.8-3.9,2.6c-1.3,0.9-2.3,1.8-3.5,2.7c-1.1,0.9-2.1,1.8-3.1,2.7c-1.9,1.8-3.5,3.4-4.8,4.8c-1.4,1.4-2.3,2.6-3,3.4
					c-0.7,0.8-1.1,1.3-1.1,1.3s0-0.6,0.1-1.7c0.1-1.1,0.1-2.7,0.6-4.7c0.3-2.1,1.1-4.5,2.1-7.3c0.6-1.3,1.2-2.8,2-4.3
					c0.8-1.4,1.7-3,2.7-4.5c2.1-3,4.6-6.2,7.7-9.1c0.8-0.8,1.6-1.5,2.5-2.2c0.8-0.7,1.7-1.4,2.6-2.1c1.9-1.3,3.8-2.6,5.9-3.7
					c1-0.6,2.1-1.2,3.2-1.7c1.1-0.5,2.2-1,3.4-1.4c2.3-0.9,4.6-1.7,7.1-2.3c1.2-0.3,2.5-0.6,3.7-0.8c1.3-0.3,2.7-0.4,4-0.6l2-0.3
					l1.7-0.1l1.6-0.1h0.8h0.4h0.6h0.2c5.1,0.1,10.2,0.7,15,1.9c2.4,0.7,4.8,1.4,7.1,2.3c1.1,0.5,2.2,1,3.4,1.4
					c1.1,0.5,2.1,1.1,3.1,1.7c1,0.5,2.1,1.1,3,1.8c1,0.6,2,1.3,2.9,1.9c1.7,1.5,3.6,2.7,5.1,4.2c0.8,0.8,1.6,1.5,2.3,2.2
					c0.7,0.8,1.4,1.5,2,2.3c1.3,1.5,2.4,3.1,3.5,4.6c1,1.5,1.9,3.1,2.7,4.5c0.7,1.5,1.4,2.9,1.9,4.3c1,2.8,1.7,5.2,2,7.3
					c0.5,2,0.4,3.6,0.5,4.7C214.3,141.2,214.3,141.8,214.3,141.8z"/>
				<path fill="currentColor" d="M214.5,147.1c-0.3,0-0.5,0-0.8-0.1c-1.2-0.1-2.4-0.7-3.3-1.6c0,0-0.5-0.6-1.4-1.7l-0.7-0.8c-0.5-0.7-1.2-1.5-2-2.3
					c-1.2-1.4-2.6-2.7-4.1-4.2l-3.3-2.9c-0.2-0.1-0.8-0.6-1.4-1c-0.5-0.4-1-0.9-1.6-1.2c-0.4-0.3-1-0.7-1.6-1.1
					c-0.6-0.4-1.2-0.8-1.8-1.2c-1-0.6-1.8-1.1-2.5-1.6c-0.2-0.1-1-0.5-1.8-0.9c-0.9-0.5-1.8-0.9-2.7-1.3l-1.6-0.7
					c-0.2,0-1-0.4-1.8-0.7c-0.7-0.3-1.4-0.6-2.2-0.8c-3.5-1.2-6.9-2-10.2-2.6c-2.8-0.5-6.1-0.7-10.2-0.8l-13.4,1.5
					c-0.4,0.1-0.8,0.1-1.2,0.3l-5,1.6c-1.1,0.3-1.8,0.6-2.5,0.9c-0.8,0.3-1.6,0.7-2.4,0.9l-1.4,0.7c-0.8,0.4-1.6,0.7-2.3,1.1
					l-2.4,1.3c-0.8,0.6-1.4,0.9-1.9,1.2c-0.9,0.5-1.5,0.9-2.1,1.4l-1.6,1.1c-0.5,0.3-1,0.8-1.6,1.2c-0.6,0.5-1.1,0.9-1.7,1.3
					l-2.8,2.5c-1.4,1.4-3,2.9-4.2,4.2c-1.1,1.1-1.8,1.9-2.3,2.6c0,0-0.7,0.8-0.7,0.9l-0.9,1.1c-1.4,1.8-3.9,2.5-6,1.7
					c-2.2-0.7-3.6-2.8-3.6-5.1c0,0,0-0.7,0.1-2c0.2-2.2,0.3-3.8,0.8-5.7c0.3-1.8,1-4.2,2.2-7.8c0.7-1.7,1.4-3.2,2.2-4.8
					c0.1-0.1,0.5-1,0.6-1.1c0.8-1.3,1.6-2.7,2.5-4.1c2.7-3.9,5.4-7.2,8.5-10.1c0.8-0.8,1.8-1.6,2.9-2.5l4.1-3.1
					c1.7-1.1,3.3-2.3,5.2-3.2c1.6-0.9,2.5-1.4,3.4-1.8l3.4-1.5c2.6-1.1,5.2-2,7.9-2.6l3.8-0.9c1.3-0.3,2.6-0.5,4-0.6l6.4-0.5
					l1.3-0.1c0.2,0,1.1,0,1.3,0c5.6,0.1,11.1,0.8,16.1,2.1c2.7,0.7,5.3,1.5,7.7,2.5l3.3,1.4c1.1,0.5,1.9,0.9,2.6,1.4l1,0.6
					c1.2,0.6,2.4,1.3,3.5,2.1c0.9,0.5,1.9,1.2,2.9,1.9l2,1.6c1.4,1.1,2.7,2.1,3.9,3.4l4.5,4.7c1.4,1.5,2.6,3.3,3.7,4.9
					c1.2,1.9,2.2,3.6,3.1,5.1c0.9,2,1.6,3.5,2.2,4.9c1.3,3.5,2,6.2,2.3,8.5c0.3,1.5,0.4,3,0.5,4.2c0,0.5,0.1,0.9,0.1,1.2
					c0.2,0.5,0.3,1.1,0.3,1.7C219.9,144.7,217.5,147.1,214.5,147.1z M158.5,94.8l-0.6,5.4l-4.9,0.4c-1.6,0.2-2.6,0.3-3.5,0.5
					l-3.7,0.8c-2,0.5-4.2,1.2-6.2,2.1l-3.2,1.4c-0.6,0.3-1.2,0.6-1.8,1l-1,0.5c-1.6,0.8-2.9,1.7-4.2,2.6l-3.5,2.7
					c-0.8,0.6-1.4,1.2-2,1.8c-2.6,2.4-4.9,5.1-7.1,8.4c-0.3,0.4-0.5,0.8-0.8,1.2c0.5-0.4,1-0.7,1.5-1.1l1.3-0.9c1-0.7,2-1.4,3.1-2
					l0.9-0.6c0.1-0.1,1-0.7,1.2-0.7l2.2-1.2c0.9-0.5,2-1,3.1-1.5l1.7-0.8c1.2-0.5,1.8-0.7,2.3-0.9c1.2-0.5,2.4-1,3.6-1.3l5-1.6
					c0.7-0.2,1.6-0.4,2.4-0.5l2.6,4.9l-1.3-5.2c0.9-0.2,1.7-0.4,2.7-0.5l11.3-0.9c4.9,0.1,8.7,0.4,12.1,1c3.8,0.7,7.8,1.6,11.5,2.9
					c0.8,0.2,2,0.7,3.1,1.2c0.6,0.2,1.1,0.5,1.7,0.7l2,0.9c1.2,0.5,2.3,1.1,3.5,1.7l4.4,2.6c0.8,0.4,1.8,1.1,2.7,1.8l1.2,0.9
					c0.6,0.4,1.1,0.8,1.5,1.1c-0.2-0.4-0.5-0.7-0.7-1.1c-0.9-1.4-1.9-2.8-3-4.1l-4-4.2c-1-1-1.9-1.7-2.8-2.4l-1.9-1.5
					c-0.5-0.3-1.3-0.9-2.2-1.4c-1-0.7-1.8-1.1-2.7-1.6l-1.3-0.7c-0.5-0.3-1.1-0.6-1.7-0.9l-2.9-1.2c-2.2-0.9-4.4-1.6-6.6-2.2
					c-4.2-1.1-8.8-1.7-13.7-1.8L158.5,94.8z"/>
			</g>
		</g>
	</g>
</g>
</svg>
