<svg id="Camada_1" data-name="Camada 1" xmlns="http://www.w3.org/2000/svg" viewBox="0 0 512.8 512.8">
  <path d="M256,512.4C114.6,512.4-.4,397.4-.4,256S114.6-.4,256-.4,512.4,114.6,512.4,256,397.4,512.4,256,512.4Zm0-491.3C126.5,21.1,21.1,126.5,21.1,256S126.5,490.9,256,490.9,490.9,385.5,490.9,256,385.5,21.1,256,21.1Zm6.9,355.4c-30.2,7.9-59.6,10.7-85.9,9.2,12.2,20.1,51.1,27.7,92.7,16.9s71.8-36.5,72.6-60C320.1,356.8,293,368.7,262.9,376.5ZM232.6,413c-28.4,0-50.8-9.1-60.1-24.4a5.6,5.6,0,0,1,0-5.6,5.1,5.1,0,0,1,4.9-2.6c26.5,1.5,55.5-1.6,84.2-9.1s55.4-18.9,77.9-33.2a5.4,5.4,0,0,1,8.3,4.7c-.9,26.3-33.2,53.6-76.6,65A154.9,154.9,0,0,1,232.6,413ZM190,391.5c16.1,11.2,47.7,13.9,78.3,5.9s57.1-25.7,65.6-43.5a292.5,292.5,0,0,1-69.7,27.8,291.7,291.7,0,0,1-73.6,9.8ZM162.9,200.2a102.7,102.7,0,0,0-3.3,26.2c0,32,13.7,58,30.6,58s30.6-26,30.6-58a102.1,102.1,0,0,0-3.3-26.2Zm27.3,89.6c-20.1,0-35.9-27.8-35.9-63.4a107,107,0,0,1,3.5-27.6,5.3,5.3,0,0,1,5.2-4h54.5a5.3,5.3,0,0,1,5.2,4,107,107,0,0,1,3.5,27.6C226.1,261.9,210.3,289.8,190.2,289.8Zm-23.1-84.3a101.4,101.4,0,0,0-2.2,20.9c0,31,13.3,52.6,25.2,52.6s25.2-21.6,25.2-52.6a95,95,0,0,0-2.2-20.9Zm43.6,4.3H108.5a9.6,9.6,0,1,1,0-19.2H210.6a9.6,9.6,0,0,1,9.6,9.6A9.5,9.5,0,0,1,210.7,209.8Zm0,5.4H108.5a15,15,0,0,1,0-30H210.6a15,15,0,0,1,.1,30ZM108.5,195.9a4.2,4.2,0,0,0-4.3,4.2,4.3,4.3,0,0,0,4.3,4.3H210.6a4.3,4.3,0,0,0,0-8.5Zm240.2,4.3a102.7,102.7,0,0,0-3.3,26.2c0,32,13.7,58,30.6,58s30.6-26,30.6-58a102.1,102.1,0,0,0-3.3-26.2Zm27.2,89.6c-20.2,0-35.9-27.8-35.9-63.4a107,107,0,0,1,3.5-27.6,5.3,5.3,0,0,1,5.2-4h54.5a5.3,5.3,0,0,1,5.2,4,107,107,0,0,1,3.5,27.6C411.9,261.9,396.1,289.8,375.9,289.8Zm-23-84.3a101.4,101.4,0,0,0-2.2,20.9c0,31,13.3,52.6,25.2,52.6s25.2-21.6,25.2-52.6a95,95,0,0,0-2.2-20.9Zm43.5,4.3H294.3a9.6,9.6,0,1,1,0-19.2H396.4a9.6,9.6,0,0,1,9.6,9.6A9.5,9.5,0,0,1,396.4,209.8Zm0,5.4H294.3a15,15,0,0,1,0-30H396.4a15,15,0,0,1,0,30ZM294.3,195.9a4.2,4.2,0,0,0-4.3,4.2,4.3,4.3,0,0,0,4.3,4.3H396.4a4.3,4.3,0,0,0,4.3-4.3,4.2,4.2,0,0,0-4.3-4.2ZM407,141.8l-1.1-1.3c-.7-.8-1.7-2.2-3-3.5s-2.9-3-4.7-4.8l-3-2.7c-1.2-.8-2.2-1.8-3.5-2.7s-2.5-1.8-3.9-2.6l-2.1-1.3a23.9,23.9,0,0,1-2.2-1.2,49.1,49.1,0,0,0-4.6-2.2c-1.7-.6-3.2-1.4-4.9-1.9a70.2,70.2,0,0,0-10.5-2.7,83,83,0,0,0-11.1-.9h-5.7l-2.5.2-2.7.4-2.7.6a26.1,26.1,0,0,0-2.7.6l-2.6.7-2.5.9c-1.7.5-3.3,1.3-4.9,1.9l-4.6,2.2-2.2,1.2-2.1,1.3c-1.4.8-2.6,1.8-3.9,2.6s-2.4,1.8-3.5,2.7l-3.1,2.7-4.8,4.8a32.9,32.9,0,0,0-3,3.4l-1.1,1.3s0-.6.1-1.7a25.9,25.9,0,0,1,.6-4.7,33.3,33.3,0,0,1,2.1-7.3l1.9-4.3c.8-1.4,1.7-3,2.7-4.5a57.3,57.3,0,0,1,7.7-9.1l2.5-2.2,2.6-2.1a58.7,58.7,0,0,1,5.9-3.7l3.2-1.7,3.4-1.4a53.6,53.6,0,0,1,7.1-2.3l3.7-.8c1.3-.3,2.7-.4,4-.6l2.1-.3h5.3a67.7,67.7,0,0,1,15,1.9c2.4.7,4.8,1.4,7.1,2.3l3.4,1.4,3.2,1.7a18.3,18.3,0,0,1,3,1.8l2.9,1.9c1.8,1.5,3.6,2.7,5.1,4.2l2.3,2.2c.7.8,1.4,1.5,2,2.3s2.4,3.1,3.5,4.6,1.9,3.1,2.7,4.5,1.4,2.9,1.9,4.3a38.8,38.8,0,0,1,2,7.3,24.1,24.1,0,0,1,.5,4.7A9.7,9.7,0,0,0,407,141.8Zm.3,5.3h-.4a5.7,5.7,0,0,1-3.8-1.8l-1.2-1.5c-1-1.3-1.8-2.2-2.7-3.2l-4.5-4.6-2.9-2.6-1.4-1-1.6-1.2-1.6-1.1-1.8-1.2-4.3-2.5-2.9-1.4-1.5-.7-1.8-.7-2.2-.8a68.3,68.3,0,0,0-10.1-2.6,69.2,69.2,0,0,0-10.2-.8l-9.1.7-1.3.2-2,.5-2.2.4-4.7,1.4a20.3,20.3,0,0,0-2.8,1l-2.4,1-1.3.7-2.3,1.1-4.3,2.5-2.2,1.4-1.4,1-1.6,1.2-1.8,1.4-1.1,1-1.8,1.5c-1.4,1.3-2.9,2.8-4.1,4.1s-1.9,2.1-2.5,2.8l-1.6,1.8a5.3,5.3,0,0,1-5.9,1.6,5.6,5.6,0,0,1-3.6-5s0-.7.1-2.1a34.3,34.3,0,0,1,.7-5.6,46.8,46.8,0,0,1,2.3-7.9l2.1-4.8.9-1.6a40.5,40.5,0,0,1,2.1-3.5,58.4,58.4,0,0,1,8.6-10.1,24.5,24.5,0,0,1,2.8-2.4l4-3.1a47.2,47.2,0,0,1,5.3-3.3,29.7,29.7,0,0,1,3.5-1.8l3.4-1.5a45.6,45.6,0,0,1,7.9-2.6l3.8-.9c1.2-.3,2.6-.4,3.9-.6l6.5-.5h2.5a69.5,69.5,0,0,1,16.1,2.1,57.9,57.9,0,0,1,7.7,2.5l3.3,1.4,2.7,1.4,1,.5a25,25,0,0,1,3.5,2.1l2.9,1.9,2,1.5a44.7,44.7,0,0,1,4,3.4l2.1,2c1,1.1,1.8,1.9,2.5,2.8a55.5,55.5,0,0,1,3.5,4.6,46.8,46.8,0,0,1,3.1,5.2l2.3,5a52.7,52.7,0,0,1,2.4,8.5,35.6,35.6,0,0,1,.5,4.3c0,.5.1.9.1,1.3a4.7,4.7,0,0,1,.3,1.7A5.7,5.7,0,0,1,407.3,147.1Zm-56-52.3-.6,5.4-5,.4-3.5.5-3.7.8a34.8,34.8,0,0,0-6.2,2.1l-3.2,1.4-1.7.9-1.1.6c-1.5.8-2.9,1.8-4.3,2.7l-3.4,2.6-2,1.7a45.6,45.6,0,0,0-7.1,8.4,7.5,7.5,0,0,0-.7,1.2l1.5-1.1,1.2-.8a32.8,32.8,0,0,1,3.1-2l1-.7,1.1-.7,2.1-1.1,3.1-1.6,1.7-.8,2.4-1a22,22,0,0,1,3.6-1.3l5-1.6,2.4-.5,2.7,4.9-1.3-5.2,2.7-.5,11.3-.9a78.5,78.5,0,0,1,12.1,1,77.5,77.5,0,0,1,11.5,2.9l3.1,1.1,1.7.7,2,.9c1.2.6,2.4,1.1,3.6,1.8l1.5.8,1,.6,1.9,1.2a25.5,25.5,0,0,1,2.8,1.8l1.2.8,1.5,1.1a6.1,6.1,0,0,0-.7-1c-1.1-1.6-2-2.9-3-4.1l-2-2.3-1.3-1.3-.9-.9a19.4,19.4,0,0,0-2.7-2.3l-1.9-1.5-2.3-1.5-2.6-1.6-1.2-.6-1.8-1-3-1.2a56.7,56.7,0,0,0-6.6-2.2,58.9,58.9,0,0,0-13.7-1.8Zm-137,47-1.1-1.3c-.7-.8-1.7-2.2-3-3.5s-2.9-3-4.7-4.8l-3-2.7c-1.2-.8-2.2-1.8-3.5-2.7s-2.5-1.8-3.9-2.6a13.7,13.7,0,0,1-2-1.3,23.9,23.9,0,0,1-2.2-1.2l-4.6-2.2c-1.7-.6-3.2-1.4-4.9-1.9a70.2,70.2,0,0,0-10.5-2.7,80.4,80.4,0,0,0-11.1-.9h-5.7l-2.5.2-2.7.4-2.7.6-2.7.6-2.6.7-2.5.9c-1.7.5-3.3,1.3-4.9,1.9l-4.6,2.2-2.2,1.2-2.1,1.3c-1.4.8-2.6,1.8-3.9,2.6s-2.3,1.8-3.5,2.7l-3.1,2.7-4.8,4.8c-1.4,1.4-2.3,2.6-3,3.4l-1.1,1.3s0-.6.1-1.7a25.9,25.9,0,0,1,.6-4.7A39.9,39.9,0,0,1,108,128c.6-1.3,1.2-2.8,2-4.3s1.7-3,2.7-4.5a57.3,57.3,0,0,1,7.7-9.1l2.5-2.2,2.6-2.1a58.7,58.7,0,0,1,5.9-3.7l3.2-1.7L138,99a53.6,53.6,0,0,1,7.1-2.3l3.7-.8c1.3-.3,2.7-.4,4-.6l2-.3h5.3a67.7,67.7,0,0,1,15,1.9c2.4.7,4.8,1.4,7.1,2.3l3.4,1.4a30.7,30.7,0,0,1,3.1,1.7,18.3,18.3,0,0,1,3,1.8l2.9,1.9c1.7,1.5,3.6,2.7,5.1,4.2l2.3,2.2c.7.8,1.4,1.5,2,2.3s2.4,3.1,3.5,4.6,1.9,3.1,2.7,4.5,1.4,2.9,1.9,4.3a38.8,38.8,0,0,1,2,7.3,24.1,24.1,0,0,1,.5,4.7A9.7,9.7,0,0,0,214.3,141.8Zm.2,5.3h-.8a5.4,5.4,0,0,1-3.3-1.6l-1.4-1.7-.7-.8a19.2,19.2,0,0,0-2-2.3c-1.2-1.4-2.6-2.7-4.1-4.2l-3.3-2.9-1.4-1a9.5,9.5,0,0,0-1.6-1.2l-1.6-1.1-1.8-1.2-2.5-1.6-1.8-.9-2.7-1.3-1.6-.7-1.8-.7-2.2-.8a60.7,60.7,0,0,0-20.4-3.4l-13.4,1.5-1.2.3-5,1.6-2.5.9-2.4.9-1.4.7-2.3,1.1-2.4,1.3-1.9,1.2-2.1,1.4-1.6,1.1-1.6,1.2-1.7,1.3-2.8,2.5-4.2,4.2a21.3,21.3,0,0,0-2.3,2.6,7.1,7.1,0,0,0-.7.9l-.9,1.1a5.4,5.4,0,0,1-9.6-3.4s0-.7.1-2a32.6,32.6,0,0,1,.8-5.7,56.1,56.1,0,0,1,2.2-7.8c.7-1.7,1.4-3.2,2.2-4.8l.6-1.1,2.5-4.1a61.3,61.3,0,0,1,8.5-10.1c.8-.8,1.8-1.6,2.9-2.5l4.1-3.1a45.2,45.2,0,0,1,5.2-3.2l3.4-1.8,3.4-1.5a45.6,45.6,0,0,1,7.9-2.6l3.8-.9a25.7,25.7,0,0,1,4-.6l6.4-.5h2.6a69.5,69.5,0,0,1,16.1,2.1,57.9,57.9,0,0,1,7.7,2.5l3.3,1.4a15.2,15.2,0,0,1,2.6,1.4l1,.6a25,25,0,0,1,3.5,2.1l2.9,1.9,2,1.6a31.7,31.7,0,0,1,3.9,3.4l4.5,4.7a42,42,0,0,1,3.7,4.9l3.1,5.1,2.2,4.9a39.2,39.2,0,0,1,2.3,8.5,36.5,36.5,0,0,1,.5,4.2c0,.5.1.9.1,1.2a4.7,4.7,0,0,1,.3,1.7A5.2,5.2,0,0,1,214.5,147.1Zm-56-52.3-.6,5.4-4.9.4-3.5.5-3.7.8a37.8,37.8,0,0,0-6.2,2.1l-3.2,1.4-1.8,1-1,.5a33.5,33.5,0,0,0-4.2,2.6l-3.5,2.7a18,18,0,0,0-2,1.8,45.6,45.6,0,0,0-7.1,8.4l-.8,1.2,1.5-1.1,1.3-.9a32.8,32.8,0,0,1,3.1-2l.9-.6a4.7,4.7,0,0,1,1.2-.7l2.2-1.2,3.1-1.5,1.7-.8,2.3-.9a26,26,0,0,1,3.6-1.3l5-1.6,2.4-.5,2.6,4.9-1.3-5.2,2.7-.5,11.3-.9a78.5,78.5,0,0,1,12.1,1,77.5,77.5,0,0,1,11.5,2.9,21.3,21.3,0,0,1,3.1,1.2l1.7.7,2,.9,3.5,1.7,4.4,2.6a18.1,18.1,0,0,1,2.7,1.8l1.2.9,1.5,1.1-.7-1.1a39.1,39.1,0,0,0-3-4.1l-4-4.2a27.8,27.8,0,0,0-2.8-2.4l-1.9-1.5-2.2-1.4a27.1,27.1,0,0,0-2.7-1.6l-1.3-.7-1.7-.9-2.9-1.2a56.7,56.7,0,0,0-6.6-2.2,58.9,58.9,0,0,0-13.7-1.8Z" transform="translate(0.4 0.4)" fill="currentColor"/>
</svg>
