<?xml version="1.0" encoding="utf-8"?>
<!-- Generator: Adobe Illustrator 24.0.1, SVG Export Plug-In . SVG Version: 6.00 Build 0)  -->
<svg version="1.1" id="Camada_1" focusable="false" xmlns="http://www.w3.org/2000/svg" xmlns:xlink="http://www.w3.org/1999/xlink"
	 x="0px" y="0px" viewBox="0 0 512 512" style="enable-background:new 0 0 512 512;" xml:space="preserve">
<g>
	<g>
		<g>
			<g>
				<path fill="currentColor" d="M256,512.4C114.6,512.4-0.4,397.4-0.4,256S114.6-0.4,256-0.4s256.4,115,256.4,256.4S397.4,512.4,256,512.4z M256,21.1
					C126.5,21.1,21.1,126.5,21.1,256S126.5,490.9,256,490.9S490.9,385.5,490.9,256S385.5,21.1,256,21.1z"/>
			</g>
		</g>
	</g>
	<g>
		<g>
			<g>
				<g>
					<path fill="currentColor" d="M372.5,234.6c0,32.1-13.7,58-30.6,58s-30.6-26-30.6-58s13.7-58,30.6-58S372.5,202.6,372.5,234.6z"/>
					<path fill="currentColor" d="M341.9,298c-20.1,0-35.9-27.8-35.9-63.4c0-35.5,15.8-63.4,35.9-63.4c20.2,0,35.9,27.8,35.9,63.4
						C377.9,270.2,362.1,298,341.9,298z M341.9,182c-11.9,0-25.2,21.6-25.2,52.6s13.3,52.7,25.2,52.7c11.9,0,25.2-21.6,25.2-52.7
						C367.1,203.6,353.8,182,341.9,182z"/>
				</g>
			</g>
			<g>
				<g>
					<path fill="currentColor" d="M305.7,110.1c0,0,1.7,1.1,4.7,3.1c1.5,0.9,3.2,2.1,5.3,3.4c2,1.3,4.3,2.7,6.7,4.3c1.2,0.8,2.5,1.5,3.8,2.3
						s2.6,1.7,4,2.5c2.8,1.6,5.7,3.5,8.7,5.2c1.6,0.8,3,1.9,4.6,2.7c1.6,0.9,3.1,1.7,4.7,2.7c1.5,1,3.2,1.8,4.8,2.7
						c1.6,0.8,3.2,1.8,4.8,2.7c3.3,1.7,6.6,3.4,9.8,5.2c1.7,0.8,3.3,1.6,4.9,2.4c1.6,0.8,3.2,1.6,4.7,2.5c3.2,1.5,6.2,3,9.1,4.5
						c1.4,0.8,2.9,1.5,4.3,2.1c1.4,0.7,2.7,1.4,4,2c2.6,1.3,5,2.7,7.2,3.7c2.2,1.1,4,2.1,5.6,3c1.6,0.8,2.8,1.6,3.6,2.1
						c0.8,0.5,1.3,0.8,1.3,0.8s-0.5,0.1-1.5,0.3c-0.9,0.1-2.4,0.4-4.2,0.6c-1.8,0.2-4,0.4-6.5,0.5c-2.5,0.2-5.3,0-8.4-0.2
						c-3.1-0.3-6.4-0.4-9.9-1.1c-3.4-0.7-7.1-1.4-10.9-2.4c-1.8-0.5-3.7-1.2-5.6-1.8s-3.8-1.3-5.7-2c-3.7-1.6-7.5-3.3-11.2-5.2
						c-1.8-1-3.6-2.1-5.3-3.1c-1.8-1-3.5-2.2-5.2-3.4c-3.3-2.4-6.5-4.7-9.4-7.4c-3-2.5-5.5-5.3-8-7.9c-2.4-2.7-4.4-5.3-6.2-7.9
						c-0.9-1.3-1.7-2.5-2.4-3.7c-0.8-1.2-1.4-2.4-2-3.5c-1.2-2.2-2.1-4.3-2.8-5.9c-0.7-1.7-1.1-3.1-1.4-4
						C305.8,110.7,305.7,110.1,305.7,110.1z"/>
					<path fill="currentColor" d="M398.1,176.7c-1.7,0-3.5-0.1-5.4-0.2l-1.1-0.1l-1.8-0.1c-2.8-0.2-5.7-0.4-8.7-1c-3.6-0.7-7.3-1.5-11.2-2.4
						c-1.8-0.5-3.3-1-4.9-1.6l-1.1-0.4c-1.9-0.6-3.9-1.3-5.9-2.1c-4-1.8-7.9-3.5-11.7-5.5l-5.7-3.3c-1.9-1.1-3.8-2.3-5.6-3.6
						c-3-2.1-6.6-4.7-9.9-7.8c-2.8-2.4-5.4-5.2-7.9-7.8c-2.9-3.3-5.1-6.1-7-8.8l-0.7-1.1c-0.7-1-1.3-2-1.9-2.9
						c-0.8-1.3-1.6-2.6-2.2-3.8c-1.2-2.2-2.2-4.4-3-6.2c-0.9-2.2-1.3-3.7-1.6-4.8c-0.5-1.4-0.5-2.4-0.5-2.4
						c-0.2-2.1,0.8-4.1,2.6-5.2c1.8-1.1,4-1.1,5.7,0.1l6.8,4.4c0.9,0.6,1.9,1.2,3,1.9l6.8,4.3c0.8,0.5,1.6,1,2.4,1.5l1.4,0.8
						c0.5,0.3,1.1,0.7,1.8,1.1c0.6,0.4,1.3,0.8,2,1.2l3.4,2.1c1.8,1.1,3.5,2.1,5.4,3.2c0.7,0.4,1.5,0.9,2.2,1.3s1.4,0.9,2.2,1.3
						c1.7,0.9,3.4,1.8,5,2.8c1,0.7,2,1.2,3,1.7l1.6,0.9c1.2,0.7,2.6,1.4,3.9,2.1l3.7,1.9c2.4,1.2,4.8,2.5,7.1,3.8
						c1.3,0.6,3,1.4,4.7,2.3l4.8,2.5c2.9,1.4,6.1,2.9,9,4.4c1.2,0.7,2.2,1.1,3.1,1.5l8.4,4.2c1.3,0.7,2.6,1.4,3.8,1.9
						c2.5,1.2,4.4,2.2,6.1,3.2c1.1,0.6,2.1,1.2,2.9,1.7c1.9,1.2,2.5,1.6,2.5,1.6c1.7,1.3,2.5,3.4,2,5.5s-2.1,3.7-4.1,4.1l-1.7,0.3
						c-2,0.3-3.1,0.5-4.5,0.6c-1.7,0.2-4,0.4-6.7,0.6C400,176.6,399.1,176.7,398.1,176.7z M318.4,124.6c0.1,0.1,0.1,0.2,0.2,0.3
						l0.7,1c1.6,2.3,3.5,4.8,5.8,7.3c2.4,2.6,4.8,5.1,7.4,7.4c3,2.8,6.2,5.1,9,7.1c1.6,1.2,3.1,2.2,4.8,3.1l5.4,3.2
						c3.3,1.7,7,3.3,10.6,4.9c1.6,0.6,3.4,1.2,5.2,1.8l1.2,0.4c1.4,0.5,2.8,1,4.2,1.4c3.5,0.8,7,1.6,10.4,2.3
						c2.5,0.5,5.1,0.7,7.5,0.8l1.8,0.1c0.5,0,0.9,0.1,1.3,0.1l-5.4-2.7c-2.1-1-3.4-1.5-4.6-2.3c-2.6-1.4-5.6-2.8-8.7-4.3l-5-2.6
						c-1.5-0.8-3.1-1.5-4.6-2.3c-2.6-1.5-4.9-2.6-7.2-3.8l-4-2.1c-1.2-0.7-2.5-1.4-3.7-2l-1.5-0.8c-1.2-0.7-2.5-1.3-3.7-2.1
						c-1.4-0.8-2.9-1.7-4.4-2.5c-0.9-0.5-1.8-1-2.7-1.6c-0.6-0.4-1.2-0.7-1.8-1.1c-2-1.1-3.9-2.3-5.7-3.4l-3.1-1.9
						c-0.8-0.4-1.7-1-2.6-1.6l-2.8-1.8c-0.9-0.6-1.8-1.1-2.7-1.7L318.4,124.6z"/>
				</g>
			</g>
		</g>
		<g>
			<g>
				<g>
					<path fill="currentColor" d="M137,234.6c0,32.1,13.7,58,30.6,58s30.6-26,30.6-58s-13.7-58-30.6-58S137,202.6,137,234.6z"/>
					<path fill="currentColor" d="M167.6,298c-20.2,0-35.9-27.8-35.9-63.4c0-35.5,15.8-63.4,35.9-63.4s35.9,27.8,35.9,63.4S187.7,298,167.6,298z
						 M167.6,182c-11.9,0-25.2,21.6-25.2,52.6s13.3,52.7,25.2,52.7s25.2-21.6,25.2-52.7C192.8,203.6,179.5,182,167.6,182z"/>
				</g>
			</g>
			<g>
				<g>
					<path fill="currentColor" d="M203.8,110.1c0,0-0.1,0.5-0.4,1.5c-0.3,0.9-0.7,2.3-1.4,4s-1.6,3.7-2.8,5.9c-0.6,1.1-1.3,2.3-2,3.5
						c-0.8,1.2-1.6,2.4-2.5,3.7c-1.8,2.5-3.9,5.2-6.2,7.9c-2.4,2.6-5,5.4-8,7.9c-2.9,2.7-6.1,5-9.4,7.4c-1.7,1.2-3.4,2.3-5.2,3.4
						c-1.8,1.1-3.5,2.1-5.4,3.1c-3.7,1.9-7.4,3.6-11.2,5.2c-1.9,0.7-3.8,1.4-5.7,2s-3.7,1.3-5.6,1.8c-3.7,0.9-7.4,1.7-10.8,2.4
						c-3.4,0.7-6.8,0.8-9.9,1.1c-3.1,0.2-5.9,0.4-8.4,0.2s-4.7-0.3-6.5-0.5s-3.2-0.4-4.2-0.6c-1-0.2-1.5-0.3-1.5-0.3
						s0.4-0.3,1.3-0.8c0.8-0.5,2.1-1.3,3.6-2.1c1.6-0.9,3.4-1.9,5.6-3c2.2-1,4.6-2.4,7.2-3.7c1.3-0.6,2.7-1.3,4.1-2s2.9-1.3,4.3-2.1
						c2.9-1.5,6-3,9.2-4.5c1.5-0.8,3.1-1.6,4.7-2.5c1.6-0.8,3.2-1.6,4.9-2.4c3.2-1.8,6.5-3.5,9.8-5.2c1.6-0.9,3.2-1.8,4.8-2.7
						s3.3-1.7,4.8-2.7c1.5-0.9,3.1-1.8,4.7-2.7c1.6-0.8,3-1.8,4.6-2.7c3.1-1.7,5.9-3.5,8.7-5.2c1.4-0.8,2.7-1.7,4-2.5
						s2.6-1.6,3.8-2.3c2.4-1.5,4.7-3,6.7-4.3c2.1-1.2,3.8-2.5,5.3-3.4C202,111.2,203.8,110.1,203.8,110.1z"/>
					<path fill="currentColor" d="M111.4,176.7c-1,0-1.9,0-2.8-0.1c-2.5-0.2-4.8-0.3-6.7-0.6c-1.2-0.1-2.4-0.3-3.4-0.4l-2.7-0.5c-2.1-0.4-3.7-2-4.1-4.1
						c-0.5-2.1,0.3-4.2,2-5.5c0,0,0.6-0.4,1.7-1.1c1.4-0.9,2.5-1.5,3.9-2.3c1.5-0.9,3.5-1.9,5.7-3c1.4-0.7,2.7-1.3,4.1-2.1l8.4-4.2
						c0.9-0.4,1.8-0.8,2.7-1.3c3.2-1.7,6.4-3.2,9.6-4.8c0.7-0.4,1.7-0.9,2.8-1.5l1.7-0.9c1.7-0.9,3.4-1.7,5.1-2.5
						c2.1-1.2,4.7-2.5,7.3-3.9l3.6-1.9c1.2-0.7,2.3-1.3,3.5-1.9l1.5-0.8c1-0.5,2-1,2.9-1.6c1.4-0.9,2.8-1.6,4.2-2.4
						c1.7-0.9,2.5-1.4,3.2-1.8s1.4-0.9,2.2-1.3c1.8-1,3.7-2.1,5.4-3.2l3.2-1.9c0.9-0.5,1.5-0.9,2-1.2c0.7-0.5,1.4-0.9,2.1-1.3
						l1.4-0.9c0.7-0.4,1.4-0.8,2-1.3l6.8-4.3c1.3-0.8,2.2-1.4,3.1-2l6.9-4.5c1.8-1.1,4-1.1,5.8,0s2.7,3.2,2.4,5.3
						c0,0-0.1,0.8-0.5,2.2c-0.4,1.3-0.9,2.8-1.6,4.5c-0.8,1.9-1.7,4.2-3.1,6.6c-0.7,1.2-1.4,2.5-2.1,3.7c-0.8,1.3-1.7,2.5-2.6,3.9
						c-1.9,2.8-4.2,5.6-6.7,8.4c-2.7,2.9-5.4,5.8-8.5,8.4c-3.1,2.9-6.7,5.5-9.8,7.7c-1.8,1.3-3.6,2.5-5.5,3.6l-4.6,2.7
						c-0.1,0-0.9,0.5-1,0.6c-3.8,2-7.6,3.7-11.5,5.4c-2.2,0.9-4.2,1.6-6.2,2.2c-2.5,0.9-4.1,1.4-5.7,1.9c-4,1-7.7,1.8-11.3,2.5
						c-3,0.6-6,0.8-8.7,1l-1.8,0.1l-1.1,0.1C114.9,176.6,113.1,176.7,111.4,176.7z M191.1,124.6l-1.2,0.7c-0.7,0.5-1.5,1-2.3,1.5
						l-1.5,0.9c-0.8,0.4-1.2,0.8-1.8,1.1c-0.8,0.6-1.7,1.1-2.7,1.6l-2.8,1.7c-1.8,1.1-3.8,2.3-5.7,3.4l-1.8,1c-1,0.6-2,1.2-3,1.7
						c-1.9,1-3.1,1.7-4.3,2.5c-1.1,0.7-2.4,1.4-3.6,2l-1.5,0.8c-1.2,0.6-2.2,1.2-3.3,1.8l-3.9,2.1c-2.5,1.3-4.9,2.5-7.3,3.9
						c-2,0.9-3.5,1.7-5,2.5l-4.6,2.4c-3.5,1.6-6.5,3.1-9.3,4.6c-1,0.6-2.2,1.2-3.4,1.7l-6.4,3.2c0.2,0,0.3,0,0.5,0l2.7-0.2
						c2.4-0.2,4.9-0.4,7.5-0.8c3.4-0.7,6.9-1.4,10.6-2.3c1.3-0.4,2.7-0.9,4.2-1.4l1.1-0.4c1.8-0.6,3.6-1.2,5.4-1.9
						c3.4-1.5,7.1-3.1,10.6-5l5-3c1.7-1,3.3-2,4.8-3.1c2.9-2,6.1-4.4,8.9-7c2.9-2.5,5.4-5.1,7.6-7.5c2.2-2.5,4.2-5,5.9-7.4
						C190.6,125.4,190.8,125,191.1,124.6z"/>
				</g>
			</g>
		</g>
	</g>
	<g>
		<g>
			<path fill="currentColor" d="M324.4,389.2c0,0-0.5-0.6-1.3-1.8c-0.8-1.2-2-3-3.6-5c-0.9-1-1.6-2.2-2.7-3.3c-1.1-1.2-2.1-2.4-3.3-3.7
				c-1.3-1.2-2.5-2.6-3.9-3.9c-1.5-1.3-2.9-2.7-4.6-4s-3.3-2.7-5.2-3.9c-0.9-0.6-1.9-1.3-2.8-1.9c-1-0.6-2-1.2-3-1.8
				c-2-1.3-4.2-2.2-6.4-3.4c-1.1-0.5-2.3-1-3.4-1.5l-1.7-0.7l-1.8-0.7c-4.7-1.9-9.8-3.1-14.9-4.1c-1.3-0.2-2.6-0.4-3.9-0.6
				s-2.6-0.2-3.9-0.4c-2.6-0.4-5.3-0.3-8-0.4h-0.3c-0.3,0,0.4,0,0.3,0h-0.1h-0.1h-0.6h-1.1l-2.3,0.1l-2.2,0.1l-1.8,0.2
				c-1.2,0.1-2.5,0.3-3.7,0.4c-1.3,0.2-2.6,0.4-3.9,0.6c-1.3,0.2-2.5,0.6-3.8,0.9s-2.6,0.5-3.8,0.9s-2.5,0.8-3.7,1.1
				c-1.2,0.4-2.4,0.9-3.6,1.3c-2.4,0.7-4.6,2-6.9,2.9c-1.1,0.6-2.2,1.1-3.2,1.7c-0.5,0.3-1.1,0.6-1.6,0.8c-0.5,0.3-1,0.6-1.5,0.9
				c-1,0.6-2,1.2-3,1.8c-1,0.6-1.9,1.3-2.8,1.9c-1.9,1.2-3.5,2.7-5.2,3.9c-1.7,1.3-3.1,2.7-4.6,4s-2.7,2.7-4,3.9
				c-2.4,2.6-4.5,4.9-6,7c-1.7,2-2.9,3.7-3.7,4.9c-0.8,1.2-1.3,1.8-1.3,1.8s0.1-0.7,0.3-2.2c0.3-1.4,0.5-3.6,1.2-6.2
				c0.7-2.7,1.8-5.8,3.4-9.4c0.9-1.7,1.8-3.6,2.9-5.5c1.2-1.8,2.4-3.8,3.8-5.8c1.5-1.9,3-4,4.8-5.9c0.9-1,1.8-2,2.7-3
				c1-0.9,2-1.9,3.1-2.8c0.5-0.5,1.1-1,1.6-1.4c0.6-0.5,1.1-0.9,1.7-1.3c1.2-0.9,2.3-1.8,3.5-2.7c1.2-0.8,2.5-1.6,3.8-2.5
				c1.3-0.8,2.6-1.6,4-2.3c1.4-0.7,2.7-1.5,4.2-2.1c1.4-0.6,2.9-1.2,4.4-1.8c1.5-0.7,3-1.1,4.6-1.6s3.1-1,4.7-1.3
				c1.6-0.4,3.2-0.7,4.8-1.1c1.7-0.3,3.5-0.5,5.2-0.7l2.6-0.3l2.2-0.1l2.2-0.1h1.1h0.6h0.7h0.3c6.7,0.2,13.4,0.8,19.7,2.5
				c1.6,0.3,3.1,0.9,4.7,1.3c1.6,0.5,3.1,0.9,4.6,1.6c1.5,0.6,3,1.2,4.4,1.8c1.4,0.7,2.8,1.4,4.2,2.1l2.1,1.1l2,1.2
				c1.3,0.8,2.6,1.6,3.8,2.4c1.2,0.9,2.4,1.8,3.5,2.6c0.6,0.5,1.2,0.9,1.7,1.3c0.5,0.5,1,0.9,1.6,1.4c1,0.9,2.1,1.9,3.1,2.8
				c1,1,1.9,2,2.8,2.9c1.8,1.9,3.3,4,4.8,5.9c1.4,2,2.6,4,3.8,5.8c1.1,2,2,3.8,2.8,5.6c1.5,3.6,2.6,6.8,3.3,9.5
				c0.8,2.7,0.9,4.8,1.1,6.2C324.4,388.4,324.4,389.2,324.4,389.2z"/>
			<path fill="currentColor" d="M324.7,394.5c-0.1,0-0.1,0-0.2,0l0,0c-1.7,0-3.3-0.8-4.3-2.2l-2.2-3.1c-0.7-1-1.5-2.2-2.6-3.6c-0.4-0.4-0.8-0.9-1.2-1.5
				c-0.4-0.5-0.8-1.1-1.3-1.6l-4.9-5.3c-0.7-0.7-1.4-1.4-2.1-2.1c-0.4-0.3-1.1-1-1.8-1.6c-0.8-0.7-1.5-1.4-2.4-2l-1.9-1.5
				c-0.9-0.7-1.8-1.5-2.9-2.1l-5.7-3.6c-1.3-0.8-2.6-1.4-3.8-2.1l-8.6-3.8c-4.6-1.8-9.5-2.9-14.2-3.9l-2.7-0.4
				c-1.6-0.3-2.2-0.3-2.7-0.3l-2-0.2c-1.7-0.3-3.3-0.3-5-0.3l-2.4-0.1l-14.8,1.4c-0.9,0.1-1.6,0.3-2.3,0.5l-1.1,0.3l-1.3,0.3
				c-0.7,0.1-1.3,0.3-2,0.5l-7.2,2.4c-1.4,0.5-2.5,1-3.7,1.5c-1,0.5-2,0.9-3.1,1.4l-4,2.1c-0.1,0-1.5,0.9-1.6,1l-4.9,3.1
				c-1.9,1.2-2.9,2-3.8,2.8l-1.9,1.4c-0.9,0.7-1.7,1.4-2.5,2.2l-1.8,1.6c-0.7,0.6-1.3,1.3-2,2l-1.8,1.7c-2,2.1-4,4.3-5.4,6.3
				c-1.5,1.7-2.4,3.1-3.1,4.1l-2,2.7c-1.4,1.9-4,2.6-6.2,1.7s-3.6-3.1-3.4-5.4c0,0,0.1-0.9,0.3-2.6l0.2-1.3c0.2-1.5,0.5-3.4,1.2-5.6
				c0.6-2.5,1.7-5.6,3.6-10c1.2-2.4,2.1-4.2,3.1-6l1.1-1.8c0.9-1.5,1.9-3,3-4.5l1.1-1.5c1.3-1.7,2.6-3.4,4.1-5
				c0.8-0.9,1.8-1.9,2.8-3l3.3-3c0,0,0.8-0.8,0.9-0.8c0.1-0.1,0.9-0.8,1-0.9l5.4-4.1c1.3-0.9,2.4-1.6,3.5-2.3c1.9-1.3,3.5-2.1,5-2.9
				l1.3-0.7c1-0.6,2.1-1.1,3.3-1.6l4.5-1.9c1-0.5,2.3-0.9,3.6-1.3l2.5-0.8c1.4-0.4,2.8-0.9,4.2-1.1l4.5-1c1.8-0.3,3.4-0.5,5-0.7
				l9.4-0.7c0.2,0,1.6,0,1.8-0.1c8.1,0.2,15,1.1,21,2.7c1.1,0.2,2.5,0.6,3.8,1.1l1.1,0.3c2.2,0.7,3.7,1.2,5.2,1.8
				c1.4,0.6,2.9,1.2,4.3,1.7c1.3,0.6,2.3,1.1,3.3,1.6l5.8,3.2c1.4,0.9,2.8,1.7,4.1,2.6l10.5,8.7l3.1,3.3c1.7,1.8,3.2,3.8,4.6,5.6
				c1.8,2.5,2.9,4.2,3.9,5.8l0.7,1.1c1.3,2.3,2.2,4.2,3.1,6.1c2,4.7,3.1,8,3.7,10.7c0.6,1.9,0.8,3.8,1,5.3l0.3,2.2
				c0.3,0.6,0.4,1.4,0.4,2.1C330,392.1,327.6,394.5,324.7,394.5z M250,334.1c0,0-1.1,0-1.2,0l-7.8,0.6c-2.1,0.3-3.5,0.4-4.8,0.7
				l-4.7,1.1c-1.3,0.2-2.2,0.5-3.2,0.8l-2.5,0.8c-0.9,0.3-1.8,0.6-2.7,1l-4.6,1.9c-0.8,0.3-1.6,0.8-2.4,1.2l-1.5,0.8
				c-1.2,0.6-2.4,1.2-3.5,2l-9.2,6.7l-3.8,3.5c-0.6,0.7-1.5,1.6-2.3,2.6c-1.4,1.4-2.5,2.9-3.5,4.3l-1.1,1.4
				c-0.3,0.4-0.6,0.9-0.9,1.3c0.5-0.5,1.1-0.9,1.7-1.3l1.6-1.2c1.3-1,2.6-2,4-2.9l12.6-7.4c1.3-0.5,2.1-0.9,2.9-1.3
				c1.6-0.7,3.1-1.4,4.8-2l7.2-2.4c0.9-0.3,2.1-0.6,3.2-0.8l2.2,5l-0.3-5.5c1.1-0.3,2.2-0.6,3.4-0.7l15.6-1.5l0,0
				c0.2,0,0.5-0.1,0.7-0.1s0.4,0,0.7,0l2,0.1c2.1,0.1,4.1,0.1,6.2,0.4l1.4,0.1c0.9,0.1,1.8,0.1,2.7,0.3l3.8,0.6
				c5.5,1.1,10.9,2.4,16.1,4.4l9.6,4.2c1.6,0.8,3.1,1.6,4.5,2.5l5.9,3.7c1.3,0.8,2.6,1.8,3.8,2.8l1.6,1.3c0.6,0.4,1.1,0.8,1.6,1.3
				c-0.3-0.4-0.6-0.9-0.9-1.3c-1.7-2.2-2.9-3.9-4.4-5.4l-7.8-7.4l-4.2-3.2c-1-0.7-2.2-1.4-3.4-2.2l-5.2-2.8
				c-0.8-0.4-1.6-0.9-2.5-1.2c-1.2-0.5-2.8-1.1-4.3-1.7c-1.2-0.5-2.3-0.9-3.5-1.2l-1.8-0.6c-1-0.3-1.9-0.6-2.9-0.8
				C263.2,335,257.2,334.3,250,334.1z"/>
		</g>
	</g>
	<g>
		<g>
			<g>
				<path fill="currentColor" d="M363.1,456.6c-25.2,0-45.7-20.5-45.7-45.7c0-22.8,36.6-106.8,40.8-116.4c0.9-2,2.8-3.2,4.9-3.2l0,0
					c2.1,0,4.1,1.3,4.9,3.2c4.2,9.5,40.8,93.6,40.8,116.4C408.8,436.1,388.3,456.6,363.1,456.6z M363.1,310.2
					c-12.9,30.5-35,85.5-35,100.6c0,19.3,15.7,35,35,35s35-15.7,35-35C398.1,395.7,376.1,340.7,363.1,310.2z"/>
			</g>
		</g>
	</g>
</g>
</svg>
