<svg id="Camada_1" data-name="Camada 1" xmlns="http://www.w3.org/2000/svg" viewBox="0 0 512.8 512.8">
  <path d="M256,512.4C114.6,512.4-.4,397.4-.4,256S114.6-.4,256-.4,512.4,114.6,512.4,256,397.4,512.4,256,512.4Zm0-491.3C126.5,21.1,21.1,126.5,21.1,256S126.5,490.9,256,490.9,490.9,385.5,490.9,256,385.5,21.1,256,21.1ZM372.5,234.6c0,32.1-13.7,58-30.6,58s-30.6-26-30.6-58,13.7-58,30.6-58S372.5,202.6,372.5,234.6ZM341.9,298c-20.1,0-35.9-27.8-35.9-63.4s15.8-63.4,35.9-63.4,35.9,27.8,35.9,63.4S362.1,298,341.9,298Zm0-116c-11.9,0-25.2,21.6-25.2,52.6s13.3,52.7,25.2,52.7,25.2-21.6,25.2-52.7S353.8,182,341.9,182Zm-36.2-71.9,4.7,3.1,5.3,3.4,6.7,4.3,3.8,2.3,4,2.5,8.7,5.2c1.6.8,3,1.9,4.6,2.7l4.7,2.7c1.5,1,3.2,1.8,4.8,2.7l4.8,2.7c3.3,1.7,6.6,3.4,9.8,5.2l4.9,2.4c1.6.8,3.2,1.6,4.7,2.5l9.1,4.5a42.5,42.5,0,0,0,4.3,2.1l4,2c2.6,1.3,5,2.7,7.2,3.7l5.6,3a39.3,39.3,0,0,1,3.6,2.1l1.3.8-1.5.3-4.2.6-6.5.5a60.9,60.9,0,0,1-8.4-.2,93.6,93.6,0,0,1-9.9-1.1c-3.4-.7-7.1-1.4-10.9-2.4l-5.6-1.8-5.7-2c-3.7-1.6-7.5-3.3-11.2-5.2l-5.3-3.1a58,58,0,0,1-5.2-3.4,98.8,98.8,0,0,1-9.4-7.4,99.8,99.8,0,0,1-8-7.9,81.9,81.9,0,0,1-6.2-7.9c-.9-1.3-1.7-2.5-2.4-3.7s-1.4-2.4-2-3.5-2.1-4.3-2.8-5.9-1.1-3.1-1.4-4A8.1,8.1,0,0,0,305.7,110.1Zm92.4,66.6-5.4-.2h-2.9a68.3,68.3,0,0,1-8.7-1l-11.2-2.4-4.9-1.6-1.1-.4-5.9-2.1c-4-1.8-7.9-3.5-11.7-5.5l-5.7-3.3a66.5,66.5,0,0,1-5.6-3.6,88.2,88.2,0,0,1-9.9-7.8c-2.8-2.4-5.4-5.2-7.9-7.8a102.6,102.6,0,0,1-7-8.8l-.7-1.1-1.9-2.9c-.8-1.3-1.6-2.6-2.2-3.8s-2.2-4.4-3-6.2a37.3,37.3,0,0,1-1.6-4.8,7.9,7.9,0,0,1-.5-2.4,5.5,5.5,0,0,1,2.6-5.2,5.1,5.1,0,0,1,5.7.1l6.8,4.4,3,1.9,6.8,4.3,2.4,1.5,1.4.8,1.8,1.1,2,1.2,3.4,2.1,5.4,3.2,2.2,1.3,2.2,1.3c1.7.9,3.4,1.8,5,2.8a22.8,22.8,0,0,0,3,1.7l1.6.9,3.9,2.1,3.7,1.9,7.1,3.8,4.7,2.3,4.8,2.5,9,4.4a28.2,28.2,0,0,0,3.1,1.5l8.4,4.2c1.3.7,2.6,1.4,3.8,1.9s4.4,2.2,6.1,3.2l2.9,1.7,2.5,1.6a5.3,5.3,0,0,1,2,5.5,5.4,5.4,0,0,1-4.1,4.1l-1.7.3-4.5.6-6.7.6A8.5,8.5,0,0,1,398.1,176.7Zm-79.7-52.1.2.3.7,1a68.3,68.3,0,0,0,5.8,7.3,103.3,103.3,0,0,0,7.4,7.4,86.8,86.8,0,0,0,9,7.1,35.6,35.6,0,0,0,4.8,3.1l5.4,3.2c3.3,1.7,7,3.3,10.6,4.9l5.2,1.8,1.2.4,4.2,1.4,10.4,2.3a49,49,0,0,0,7.5.8h3.1l-5.4-2.7a38.8,38.8,0,0,1-4.6-2.3c-2.6-1.4-5.6-2.8-8.7-4.3l-5-2.6-4.6-2.3c-2.6-1.5-4.9-2.6-7.2-3.8l-4-2.1-3.7-2-1.5-.8c-1.2-.7-2.5-1.3-3.7-2.1l-4.4-2.5-2.7-1.6-1.8-1.1-5.7-3.4-3.1-1.9-2.6-1.6-2.8-1.8-2.7-1.7ZM137,234.6c0,32.1,13.7,58,30.6,58s30.6-26,30.6-58-13.7-58-30.6-58S137,202.6,137,234.6ZM167.6,298c-20.2,0-35.9-27.8-35.9-63.4s15.8-63.4,35.9-63.4,35.9,27.8,35.9,63.4S187.7,298,167.6,298Zm0-116c-11.9,0-25.2,21.6-25.2,52.6s13.3,52.7,25.2,52.7,25.2-21.6,25.2-52.7S179.5,182,167.6,182Zm36.2-71.9s-.1.5-.4,1.5-.7,2.3-1.4,4a59.6,59.6,0,0,1-2.8,5.9l-2,3.5-2.5,3.7c-1.8,2.5-3.9,5.2-6.2,7.9a85.6,85.6,0,0,1-8,7.9,98.8,98.8,0,0,1-9.4,7.4l-5.2,3.4-5.4,3.1c-3.7,1.9-7.4,3.6-11.2,5.2l-5.7,2c-1.9.6-3.7,1.3-5.6,1.8l-10.8,2.4a90.8,90.8,0,0,1-9.9,1.1,60.9,60.9,0,0,1-8.4.2l-6.5-.5-4.2-.6-1.5-.3,1.3-.8,3.6-2.1,5.6-3c2.2-1,4.6-2.4,7.2-3.7l4.1-2c1.4-.7,2.9-1.3,4.3-2.1l9.2-4.5,4.7-2.5,4.9-2.4c3.2-1.8,6.5-3.5,9.8-5.2l4.8-2.7c1.6-.9,3.3-1.7,4.8-2.7l4.7-2.7c1.6-.8,3-1.8,4.6-2.7s5.9-3.5,8.7-5.2l4-2.5,3.8-2.3,6.7-4.3c2.1-1.2,3.8-2.5,5.3-3.4Zm-92.4,66.6h-2.8c-2.5-.2-4.8-.3-6.7-.6l-3.4-.4-2.7-.5a5.1,5.1,0,0,1-4.1-4.1,5.3,5.3,0,0,1,2-5.5l1.7-1.1,3.9-2.3c1.5-.9,3.5-1.9,5.7-3l4.1-2.1,8.4-4.2,2.7-1.3,9.6-4.8,2.8-1.5,1.7-.9,5.1-2.5,7.3-3.9,3.6-1.9,3.5-1.9,1.5-.8a26.9,26.9,0,0,0,2.9-1.6l4.2-2.4,3.2-1.8,2.2-1.3,5.4-3.2,3.2-1.9,2-1.2,2.1-1.3,1.4-.9a13.7,13.7,0,0,0,2-1.3l6.8-4.3,3.1-2,6.9-4.5a5.5,5.5,0,0,1,5.8,0,5.3,5.3,0,0,1,2.4,5.3,16.3,16.3,0,0,1-.5,2.2c-.4,1.3-.9,2.8-1.6,4.5a53.4,53.4,0,0,1-3.1,6.6l-2.1,3.7-2.6,3.9a82.1,82.1,0,0,1-6.7,8.4,96.3,96.3,0,0,1-8.5,8.4,94.1,94.1,0,0,1-9.8,7.7,64.9,64.9,0,0,1-5.5,3.6l-4.6,2.7-1,.6c-3.8,2-7.6,3.7-11.5,5.4-2.2.9-4.2,1.6-6.2,2.2l-5.7,1.9c-4,1-7.7,1.8-11.3,2.5a70.4,70.4,0,0,1-8.7,1h-2.9A45.3,45.3,0,0,1,111.4,176.7Zm79.7-52.1-1.2.7-2.3,1.5-1.5.9-1.8,1.1a17.5,17.5,0,0,1-2.7,1.6l-2.8,1.7-5.7,3.4-1.8,1-3,1.7a45.6,45.6,0,0,0-4.3,2.5l-3.6,2-1.5.8-3.3,1.8-3.9,2.1c-2.5,1.3-4.9,2.5-7.3,3.9s-3.5,1.7-5,2.5l-4.6,2.4c-3.5,1.6-6.5,3.1-9.3,4.6l-3.4,1.7-6.4,3.2h.5l2.7-.2c2.4-.2,4.9-.4,7.5-.8l10.6-2.3,4.2-1.4,1.1-.4,5.4-1.9c3.4-1.5,7.1-3.1,10.6-5l5-3a56.6,56.6,0,0,0,4.8-3.1,80.2,80.2,0,0,0,8.9-7,84.7,84.7,0,0,0,13.5-14.9A4.1,4.1,0,0,1,191.1,124.6ZM324.4,389.2l-1.3-1.8c-.8-1.2-2-3-3.6-5s-1.6-2.2-2.7-3.3l-3.3-3.7c-1.3-1.2-2.5-2.6-3.9-3.9s-2.9-2.7-4.6-4-3.3-2.7-5.2-3.9l-2.8-1.9-3-1.8c-2-1.3-4.2-2.2-6.4-3.4l-3.4-1.5-1.7-.7-1.8-.7a81.9,81.9,0,0,0-14.9-4.1l-3.9-.6-3.9-.4a70.3,70.3,0,0,0-8-.4h-6.4l-1.8.2-3.7.4-3.9.6c-1.3.2-2.5.6-3.8.9s-2.6.5-3.8.9l-3.7,1.1-3.6,1.3c-2.4.7-4.6,2-6.9,2.9l-3.2,1.7-1.6.8-1.5.9-3,1.8-2.8,1.9c-1.9,1.2-3.5,2.7-5.2,3.9s-3.1,2.7-4.6,4-2.7,2.7-4,3.9a78.7,78.7,0,0,0-6,7,52.2,52.2,0,0,0-3.7,4.9l-1.3,1.8.3-2.2c.3-1.4.5-3.6,1.2-6.2a61.3,61.3,0,0,1,3.4-9.4c.9-1.7,1.8-3.6,2.9-5.5s2.4-3.8,3.8-5.8,3-4,4.8-5.9l2.7-3,3.1-2.8,1.6-1.4,1.7-1.3,3.5-2.7,3.8-2.5c1.3-.8,2.6-1.6,4-2.3s2.7-1.5,4.2-2.1l4.4-1.8a35.7,35.7,0,0,1,4.6-1.6,41.2,41.2,0,0,1,4.7-1.3l4.8-1.1,5.2-.7,2.6-.3h7.1a85.7,85.7,0,0,1,19.7,2.5c1.6.3,3.1.9,4.7,1.3a35.7,35.7,0,0,1,4.6,1.6l4.4,1.8,4.2,2.1,2.1,1.1,2,1.2,3.8,2.4,3.5,2.6,1.7,1.3,1.6,1.4,3.1,2.8,2.8,2.9c1.8,1.9,3.3,4,4.8,5.9s2.6,4,3.8,5.8,2,3.8,2.8,5.6a72.8,72.8,0,0,1,3.3,9.5,35.4,35.4,0,0,1,1.1,6.2A6.5,6.5,0,0,1,324.4,389.2Zm.3,5.3h-.2a5.3,5.3,0,0,1-4.3-2.2l-2.2-3.1c-.7-1-1.5-2.2-2.6-3.6l-1.2-1.5a18.3,18.3,0,0,0-1.3-1.6l-4.9-5.3-2.1-2.1-1.8-1.6a23.1,23.1,0,0,0-2.4-2l-1.9-1.5a21.6,21.6,0,0,0-2.9-2.1l-5.7-3.6-3.8-2.1-8.6-3.8a90.7,90.7,0,0,0-14.2-3.9l-2.7-.4a12.6,12.6,0,0,0-2.7-.3l-2-.2a28,28,0,0,0-5-.3h-2.4L235,354.6l-2.3.5-1.1.3-1.3.3-2,.5-7.2,2.4-3.7,1.5-3.1,1.4-4,2.1-1.6,1-4.9,3.1a26.7,26.7,0,0,0-3.8,2.8l-1.9,1.4-2.5,2.2-1.8,1.6-2,2-1.8,1.7a58.7,58.7,0,0,0-5.4,6.3,39.9,39.9,0,0,0-3.1,4.1l-2,2.7a5.3,5.3,0,0,1-6.2,1.7,5.4,5.4,0,0,1-3.4-5.4l.3-2.6.2-1.3a31.7,31.7,0,0,1,1.2-5.6,63.5,63.5,0,0,1,3.6-10c1.2-2.4,2.1-4.2,3.1-6l1.1-1.8q1.3-2.2,3-4.5l1.1-1.5a64,64,0,0,1,4.1-5l2.8-3,3.3-3,.9-.8,1-.9,5.4-4.1,3.5-2.3a47.8,47.8,0,0,1,5-2.9l1.3-.7a25.3,25.3,0,0,1,3.3-1.6l4.5-1.9a24.9,24.9,0,0,1,3.6-1.3l2.5-.8a32.5,32.5,0,0,1,4.2-1.1l4.5-1,5-.7,9.4-.7h1.8a90.1,90.1,0,0,1,21,2.7,22.4,22.4,0,0,1,3.8,1.1l1.1.3,5.2,1.8,4.3,1.7,3.3,1.6,5.8,3.2,4.1,2.6,10.5,8.7,3.1,3.3c1.7,1.8,3.2,3.8,4.6,5.6s2.9,4.2,3.9,5.8l.7,1.1c1.3,2.3,2.2,4.2,3.1,6.1a62.4,62.4,0,0,1,3.7,10.7,30.3,30.3,0,0,1,1,5.3l.3,2.2a4.9,4.9,0,0,1,.4,2.1C330,392.1,327.6,394.5,324.7,394.5ZM250,334.1h-1.2l-7.8.6c-2.1.3-3.5.4-4.8.7l-4.7,1.1a21.3,21.3,0,0,0-3.2.8l-2.5.8-2.7,1-4.6,1.9-2.4,1.2-1.5.8a24.3,24.3,0,0,0-3.5,2l-9.2,6.7-3.8,3.5-2.3,2.6a33,33,0,0,0-3.5,4.3l-1.1,1.4-.9,1.3a10.9,10.9,0,0,1,1.7-1.3l1.6-1.2c1.3-1,2.6-2,4-2.9l12.6-7.4,2.9-1.3c1.6-.7,3.1-1.4,4.8-2l7.2-2.4,3.2-.8,2.2,5-.3-5.5a18.6,18.6,0,0,1,3.4-.7l15.6-1.5h3.4c2.1.1,4.1.1,6.2.4h1.4a24.8,24.8,0,0,1,2.7.3l3.8.6a98.2,98.2,0,0,1,16.1,4.4l9.6,4.2a47.9,47.9,0,0,1,4.5,2.5l5.9,3.7a33.7,33.7,0,0,1,3.8,2.8l1.6,1.3,1.6,1.3-.9-1.3a56.1,56.1,0,0,0-4.4-5.4l-7.8-7.4-4.2-3.2-3.4-2.2-5.2-2.8a19.2,19.2,0,0,0-2.5-1.2l-4.3-1.7a24.2,24.2,0,0,0-3.5-1.2l-1.8-.6-2.9-.8A76.6,76.6,0,0,0,250,334.1ZM363.1,456.6a45.8,45.8,0,0,1-45.7-45.7c0-22.8,36.6-106.8,40.8-116.4a5.3,5.3,0,0,1,4.9-3.2h0a5.4,5.4,0,0,1,4.9,3.2c4.2,9.5,40.8,93.6,40.8,116.4A45.8,45.8,0,0,1,363.1,456.6Zm0-146.4c-12.9,30.5-35,85.5-35,100.6a35,35,0,1,0,70,0C398.1,395.7,376.1,340.7,363.1,310.2Z" transform="translate(0.4 0.4)" fill="currentColor"/>
</svg>
