<svg id="Camada_1" data-name="Camada 1" xmlns="http://www.w3.org/2000/svg" viewBox="0 0 512 512">
  <path d="M256,512C114.8,512,0,397.2,0,256S114.8,0,256,0,512,114.8,512,256,397.2,512,256,512Zm0-489.8C127.1,22.2,22.2,127.1,22.2,256S127.1,489.8,256,489.8,489.8,384.9,489.8,256,384.9,22.2,256,22.2ZM491.2,173.5a18,18,0,0,0-9.4,2.6c-7.8-8.8-19.5-14.9-36.7-14.9H336c-35,0-57.6,15.6-60,46.1a33.6,33.6,0,0,0-10.5-1.9H245.4a30.5,30.5,0,0,0-11.2,2.1c-2.3-30.6-24.9-46.2-60-46.2H65.1c-16.7,0-28.2,5.7-36.1,14.1a19.1,19.1,0,0,0-8.2-2A18.5,18.5,0,0,0,2.4,191.8v23.5a18.2,18.2,0,0,0,10.2,16.4,106,106,0,0,0,1,14.1c4.4,49.2,16.7,82,70,84.7h65.2c38.4-1.9,62.5-43.4,73.5-68.7a12.9,12.9,0,0,0,11.8-12.9c0-10.5,6-17.9,11.4-17.9h20.1c5.4,0,11.4,7.3,11.4,17.9a12.9,12.9,0,0,0,11.2,12.8c11,25.2,35,66.9,73.5,68.8h65.2c53.3-2.7,65.6-35.5,70-84.7a121.9,121.9,0,0,0,1-13.4,18.4,18.4,0,0,0,12-17.2V191.7A18.6,18.6,0,0,0,491.2,173.5ZM195.3,243.8s-17.7,59.5-56.5,61.3H93.3c-37.3-1.8-45.9-24.7-49-59.1,0,0-9-59.3,36-59.3h76.3C189.4,186.7,206.5,206.2,195.3,243.8Zm268.4,1.5c-3.1,34.4-11.7,57.3-48.9,59.3H369.3c-38.7-1.9-56.5-61.3-56.5-61.3-11.4-37.7,6-57.1,38.6-57.1h76.3C472.7,186.1,463.7,245.3,463.7,245.3ZM158.7,362c6.6,36.9,47.6,65.3,97.3,65.3s90.8-28.4,97.3-65.3ZM256,432.7c-51.5,0-95.6-30.1-102.8-69.8a5.2,5.2,0,0,1,1.2-4.5,5.6,5.6,0,0,1,4.2-2H353.2a5.2,5.2,0,0,1,4.2,2,5.6,5.6,0,0,1,1.2,4.5C351.7,402.6,307.5,432.7,256,432.7Zm-90.3-65.3c9.6,31.3,47,54.1,90.3,54.1s80.7-22.8,90.3-54.1Zm88-136a4.9,4.9,0,0,1-4.2,5.3h0a4.8,4.8,0,0,1-5.3-4.2L241,202.6a4.9,4.9,0,0,1,4.2-5.3h0a4.9,4.9,0,0,1,5.3,4.2Zm13,1a4.8,4.8,0,0,1-5.2,4.4h0a4.8,4.8,0,0,1-4.4-5.2l2.4-29.9a4.8,4.8,0,0,1,5.2-4.4h0a4.8,4.8,0,0,1,4.4,5.2Zm-6.9-.5a4.8,4.8,0,0,1-4.9,4.8h0a4.8,4.8,0,0,1-4.8-4.8V201.8a4.8,4.8,0,0,1,4.8-4.8h0a4.9,4.9,0,0,1,4.9,4.8Zm130.7,7.9c0,24.5-10.5,44.4-23.4,44.4s-23.3-19.8-23.3-44.4,10.4-44.4,23.3-44.4S390.5,215.2,390.5,239.8ZM367,289.7c-16.2,0-28.9-21.9-28.9-50s12.7-50,28.9-50,28.9,21.9,28.9,50S383.2,289.7,367,289.7Zm0-88.7c-8.5,0-17.9,15.9-17.9,38.8s9.4,38.8,17.9,38.8,17.9-15.9,17.9-38.8S375.5,201,367,201ZM164.9,239.8c0,24.5-10.4,44.4-23.4,44.4s-23.3-19.8-23.3-44.4,10.5-44.4,23.3-44.4S164.9,215.2,164.9,239.8Zm-23.4,49.9c-16.2,0-28.9-21.9-28.9-50s12.7-50,28.9-50,29,21.9,29,50S157.8,289.7,141.5,289.7Zm0-88.7c-8.5,0-17.9,15.9-17.9,38.8s9.4,38.8,17.9,38.8,17.9-15.9,17.9-38.8S149.9,201,141.5,201Z" fill="currentColor"/>
</svg>
