<svg id="Camada_1" data-name="Camada 1" xmlns="http://www.w3.org/2000/svg" viewBox="0 0 512.8 512.8">
  <path d="M256,512.4C114.6,512.4-.4,397.4-.4,256S114.6-.4,256-.4,512.4,114.6,512.4,256,397.4,512.4,256,512.4Zm0-491.3C126.5,21.1,21.1,126.5,21.1,256S126.5,490.9,256,490.9,490.9,385.5,490.9,256,385.5,21.1,256,21.1Zm0,317.5a99.4,99.4,0,0,1,84.8,47.2,86.8,86.8,0,0,0-169.6,0A99.4,99.4,0,0,1,256,338.6Zm84.8,52.6a5.3,5.3,0,0,1-4.6-2.6,94.4,94.4,0,0,0-160.4,0,5.5,5.5,0,0,1-6.6,2.2,5.5,5.5,0,0,1-3.3-6.1c8.7-42.1,46.6-72.7,90-72.7s80.4,29.9,89.7,71.2a5.4,5.4,0,0,1-4.8,7.9C340.9,391.2,340.9,391.2,340.8,391.2ZM256,322.8a81.8,81.8,0,0,0-66,33.6,105.8,105.8,0,0,1,132,0A81.8,81.8,0,0,0,256,322.8Zm122.1-94.3c0,32-13.7,58-30.6,58s-30.6-26-30.6-58,13.7-58,30.6-58S378.1,196.5,378.1,228.5Zm-30.5,63.4c-20.2,0-35.9-27.8-35.9-63.4s15.8-63.4,35.9-63.4,35.9,27.8,35.9,63.4S367.7,291.9,347.6,291.9Zm0-116c-11.9,0-25.2,21.6-25.2,52.7s13.3,52.6,25.2,52.6,25.2-21.6,25.2-52.6S359.5,175.9,347.6,175.9Zm-54.8,25.3,4.7-3.1,5.2-3.5,6.5-4.5,3.7-2.6,3.9-2.7c2.6-1.9,5.4-3.8,8.2-6s2.9-2,4.2-3.2l4.3-3.3c1.5-1,2.9-2.3,4.3-3.4s2.9-2.3,4.4-3.4,5.7-4.8,8.6-6.9l4.1-3.6,4.1-3.4c2.6-2.4,5.2-4.6,7.7-6.7s2.5-2.1,3.6-3.1l3.4-2.9c2.2-1.9,4.4-3.5,6.2-5.2s3.5-2.9,4.9-4l3.4-2.5,1.3-.9-.3,1.5c-.3.9-.6,2.3-1.1,4.1s-1.2,3.8-2.1,6.2a79.7,79.7,0,0,1-3.4,7.7,96.4,96.4,0,0,1-4.8,8.7c-2,2.9-4.1,6-6.4,9.1-1.2,1.5-2.5,2.9-3.8,4.4s-2.7,3-4.1,4.4c-3,2.8-6,5.6-9.2,8.2l-5,3.7a56.5,56.5,0,0,1-5.1,3.4,98.8,98.8,0,0,1-10.5,5.8,81.8,81.8,0,0,1-10.4,4.3c-3.4,1.1-6.7,2-9.7,2.7l-4.4.8-4,.5a53.2,53.2,0,0,1-6.6.3,39.1,39.1,0,0,1-4.3-.3Zm6.5,5.9h-.4a46.4,46.4,0,0,1-5.4-.4l-2-.3a5.4,5.4,0,0,1-1.7-9.6l6.9-4.7,2.8-1.9,6.6-4.6,2.5-1.8,1.1-.8,1.7-1.2,1.8-1.3,3.1-2.2,5.2-3.8,2.3-1.7,1.8-1.3,4.5-3.5,2.6-2,1.6-1.3,3.6-2.8,2.6-2.1c2.3-1.9,4.5-3.8,6.8-5.5s2.5-2.2,3.9-3.4l1.2-1c1-.8,2-1.7,3-2.4s5-4.4,7.6-6.6l2.4-2,7.5-6.3a30.2,30.2,0,0,0,3.2-2.7c2-1.7,3.7-3.2,5.2-4.3l2.7-2,2.2-1.6a5.1,5.1,0,0,1,5.8,0,5.3,5.3,0,0,1,2.4,5.3s-.1.7-.4,1.9-.8,3.1-1.2,4.4-1.2,3.9-2.1,6.4a50.1,50.1,0,0,1-3.3,7.4l-.5,1-.9,1.8a80.9,80.9,0,0,1-4.2,7.4c-2,3-4.2,6.2-6.6,9.3s-2.6,3.1-3.9,4.5l-4.4,4.8c-3.2,3.1-6.3,5.9-9.7,8.7l-1.4,1.1-3.9,2.9a56.3,56.3,0,0,1-5.4,3.6,93.7,93.7,0,0,1-11,6,89.2,89.2,0,0,1-10.7,4.4,86,86,0,0,1-10.4,2.8l-1.4.3-3.3.6-4.2.5Zm79.2-65.2-5.6,4.8-2.9,2.5c-2.2,1.9-4.8,4-7.3,6.4l-3,2.5-1.3,1.1-3.9,3.4c-2.6,2-4.7,3.7-6.8,5.5l-2,1.6-.9.7-3.4,2.7-1.5,1.2-3.2,2.5-4,3.1-2.3,1.7-1.8,1.4c-2,1.6-3.9,2.9-5.7,4.1l-2.8,2-2.4,1.7-2.5,1.8-2.9,2-1,.7h.1l1.3-.3a83.4,83.4,0,0,0,9-2.5,102.1,102.1,0,0,0,9.6-3.9,86.4,86.4,0,0,0,10.1-5.5c1.6-1,3.2-2,4.7-3.1l3.8-2.8,1.3-.9c2.9-2.4,5.8-5.1,8.7-7.8l3.8-4.1,3.7-4.2c2.2-2.9,4.2-5.9,6.2-8.7a67.4,67.4,0,0,0,3.6-6.3l1-1.9A1.8,1.8,0,0,1,378.5,141.9ZM133.9,228.5c0,32,13.7,58,30.6,58s30.6-26,30.6-58-13.7-58-30.6-58S133.9,196.5,133.9,228.5Zm30.5,63.4c-20.2,0-35.9-27.8-35.9-63.4s15.8-63.4,35.9-63.4,35.9,27.8,35.9,63.4S184.6,291.9,164.4,291.9Zm0-116c-11.9,0-25.2,21.6-25.2,52.7s13.3,52.6,25.2,52.6,25.2-21.6,25.2-52.6S176.4,175.9,164.4,175.9Zm54.8,25.3-1.5.2a37.3,37.3,0,0,1-4.3.3,54,54,0,0,1-6.6-.3l-4-.5-4.4-.8a90.2,90.2,0,0,1-9.7-2.7,88.3,88.3,0,0,1-10.4-4.3,91.4,91.4,0,0,1-10.5-5.8,56.5,56.5,0,0,1-5.1-3.4l-5-3.7c-3.2-2.6-6.2-5.4-9.2-8.2-1.4-1.5-2.8-2.9-4.1-4.4l-3.9-4.4c-2.3-3.1-4.5-6.2-6.4-9.1a76.7,76.7,0,0,1-4.8-8.7,55.2,55.2,0,0,1-3.4-7.7c-.9-2.4-1.5-4.5-2.1-6.2s-.9-3.1-1.1-4.1-.3-1.5-.3-1.5l1.3.9,3.4,2.5,4.9,4,6.2,5.2,3.4,2.9c1.2,1,2.3,2.1,3.6,3.1s5.1,4.3,7.7,6.7l4.1,3.4c1.4,1.1,2.7,2.3,4.1,3.6,2.9,2.2,5.7,4.6,8.6,6.9l4.4,3.4,4.3,3.4,4.3,3.3,4.3,3.2,8.2,6,3.9,2.7,3.7,2.6,6.5,4.5,5.2,3.5C217.5,200.1,219.2,201.2,219.2,201.2Zm-6.5,5.9a50.2,50.2,0,0,1-6.4-.3l-4.3-.5-3.4-.6-1.1-.2c-3.4-.7-6.8-1.7-10.4-2.8a96.3,96.3,0,0,1-11.1-4.6,83.1,83.1,0,0,1-10.9-6,58.9,58.9,0,0,1-5.5-3.7l-5-3.7c-3.5-2.9-6.6-5.8-9.7-8.7l-4.4-4.8c-1.3-1.5-2.7-3-4-4.6-2.5-3.3-4.7-6.5-6.7-9.4a80.9,80.9,0,0,1-4.2-7.4l-.9-1.8-.5-1a66.4,66.4,0,0,1-3.3-7.5c-.8-2.3-1.6-4.5-2.1-6.3s-.7-2.4-.9-3.3a29.7,29.7,0,0,1-.7-2.9,5.4,5.4,0,0,1,8.2-5.3l1.4,1c1.6,1.1,2.5,1.8,3.6,2.7l5,4.1,3.4,2.8,7.3,6.2a15.9,15.9,0,0,0,2.4,2l8.2,7,3.3,2.7,4.9,4.2c1.9,1.4,4.1,3.3,6.4,5.1l2,1.7,4.4,3.4,1.3,1,2.7,2.1,4.6,3.5,2,1.5,2.3,1.7,4.9,3.6,3.1,2.3,2.1,1.5,1.9,1.3.9.7,2.4,1.7,6.6,4.6,3,2,6.9,4.7a5.3,5.3,0,0,1,2.2,5.3,5.3,5.3,0,0,1-3.9,4.3l-2.2.4-4.7.4Zm-79.2-65.2c.1.2.2.3.2.5L135,145a59,59,0,0,0,3.6,6.3c1.9,2.8,4,5.8,6.3,8.8l3.6,4.1c1.3,1.5,2.6,2.9,4,4.3s5.7,5.3,8.7,7.8l4.7,3.5c1.6,1.2,3.2,2.2,4.8,3.2a88.1,88.1,0,0,0,9.9,5.5,72.9,72.9,0,0,0,10,4.1c3.1,1,6.1,1.8,9,2.5l1,.2h.3l-1.2-.8-2.7-1.9-2.5-1.8a24.8,24.8,0,0,1-2.6-1.9l-2.8-2-5.3-3.9-1.9-1.4-2.5-1.9-4.1-3.1-3.3-2.5-1.2-1a44.6,44.6,0,0,0-4.3-3.3l-2.2-1.8L158,163l-4.3-3.7-4-3.3c-2.9-2.6-5.4-4.8-7.9-6.8l-2.9-2.5Z" transform="translate(0.4 0.4)" fill="currentColor"/>
</svg>
