<?xml version="1.0" encoding="utf-8"?>
<!-- Generator: Adobe Illustrator 24.0.1, SVG Export Plug-In . SVG Version: 6.00 Build 0)  -->
<svg version="1.1" id="Camada_1" focusable="false" xmlns="http://www.w3.org/2000/svg" xmlns:xlink="http://www.w3.org/1999/xlink"
	 x="0px" y="0px" viewBox="0 0 512 512" style="enable-background:new 0 0 512 512;" xml:space="preserve">
<g>
	<g>
		<g>
			<g>
				<path fill="currentColor" d="M256,512.4C114.6,512.4-0.4,397.4-0.4,256C-0.4,114.6,114.6-0.4,256-0.4c141.4,0,256.4,115,256.4,256.4
					C512.4,397.4,397.4,512.4,256,512.4z M256,21.1C126.5,21.1,21.1,126.5,21.1,256c0,129.5,105.4,234.9,234.9,234.9
					S490.9,385.5,490.9,256C490.9,126.5,385.5,21.1,256,21.1z"/>
			</g>
		</g>
	</g>
	<g>
		<g>
			<g>
				<path fill="currentColor" d="M256,338.6c35.9,0,67.4,18.9,84.8,47.2c-8.1-39-42.9-68.4-84.8-68.4s-76.7,29.4-84.8,68.4
					C188.6,357.5,220.1,338.6,256,338.6z"/>
				<path fill="currentColor" d="M340.8,391.2c-1.8,0-3.6-0.9-4.6-2.6C319,360.7,289,344,256,344c-33,0-63,16.7-80.2,44.6c-1.4,2.2-4.1,3.1-6.6,2.2
					c-2.4-1-3.8-3.5-3.3-6.1c8.7-42.1,46.6-72.7,90-72.7c42.9,0,80.4,29.9,89.7,71.2c0.4,0.8,0.6,1.6,0.6,2.5c0,3-2.4,5.4-5.4,5.4
					C340.9,391.2,340.9,391.2,340.8,391.2z M256,322.8c-26.7,0-51.1,13.1-66,33.6c18.3-14.8,41.4-23.1,66-23.1s47.6,8.3,66,23.1
					C307.1,335.9,282.7,322.8,256,322.8z"/>
			</g>
		</g>
		<g>
			<g>
				<g>
					<g>
						<path fill="currentColor" d="M378.1,228.5c0,32-13.7,58-30.6,58c-16.9,0-30.6-26-30.6-58c0-32,13.7-58,30.6-58
							C364.5,170.5,378.1,196.5,378.1,228.5z"/>
						<path fill="currentColor" d="M347.6,291.9c-20.2,0-35.9-27.8-35.9-63.4c0-35.6,15.8-63.4,35.9-63.4c20.2,0,35.9,27.8,35.9,63.4
							C383.5,264.1,367.7,291.9,347.6,291.9z M347.6,175.9c-11.9,0-25.2,21.6-25.2,52.7c0,31,13.3,52.6,25.2,52.6
							s25.2-21.6,25.2-52.6C372.8,197.5,359.5,175.9,347.6,175.9z"/>
					</g>
				</g>
				<g>
					<g>
						<path fill="currentColor" d="M292.8,201.2c0,0,1.7-1.1,4.7-3.1c1.4-1,3.2-2.1,5.2-3.5c2-1.3,4.2-2.9,6.5-4.5c1.2-0.8,2.4-1.7,3.7-2.6
							c1.2-0.9,2.6-1.7,3.9-2.7c2.6-1.9,5.4-3.8,8.2-6c1.3-1.1,2.9-2,4.2-3.2c1.4-1.1,2.8-2.2,4.3-3.3c1.5-1,2.9-2.3,4.3-3.4
							c1.4-1.2,2.9-2.3,4.4-3.4c2.9-2.4,5.7-4.8,8.6-6.9c1.4-1.2,2.7-2.4,4.1-3.6c1.4-1.2,2.7-2.3,4.1-3.4c2.6-2.4,5.2-4.6,7.7-6.7
							c1.3-1,2.5-2.1,3.6-3.1c1.2-1,2.3-2,3.4-2.9c2.2-1.9,4.4-3.5,6.2-5.2c1.8-1.6,3.5-2.9,4.9-4c1.4-1.1,2.6-1.9,3.4-2.5
							c0.8-0.6,1.3-0.9,1.3-0.9s-0.1,0.5-0.3,1.5c-0.3,0.9-0.6,2.3-1.1,4.1c-0.5,1.7-1.2,3.8-2.1,6.2c-0.8,2.4-2.1,4.9-3.4,7.7
							c-1.4,2.7-2.9,5.8-4.8,8.7c-2,2.9-4.1,6-6.4,9.1c-1.2,1.5-2.5,2.9-3.8,4.4c-1.3,1.5-2.7,3-4.1,4.4c-3,2.8-6,5.6-9.2,8.2
							c-1.7,1.2-3.3,2.5-5,3.7c-1.6,1.2-3.4,2.4-5.1,3.4c-3.5,2.1-6.9,4.2-10.5,5.8c-3.5,1.8-7,3.1-10.4,4.3c-3.4,1.1-6.7,2-9.7,2.7
							c-1.6,0.3-3,0.6-4.4,0.8c-1.4,0.2-2.7,0.4-4,0.5c-2.5,0.3-4.7,0.3-6.6,0.3c-1.8,0-3.3-0.2-4.3-0.3
							C293.3,201.3,292.8,201.2,292.8,201.2z"/>
						<path fill="currentColor" d="M299.3,207.1h-0.4c-2.6-0.1-4.2-0.2-5.4-0.4c-1.3-0.1-2-0.3-2-0.3c-2-0.6-3.6-2.2-3.9-4.3c-0.3-2.1,0.5-4.2,2.2-5.3
							l6.9-4.7c0.9-0.6,1.8-1.2,2.8-1.9l6.6-4.6c0.9-0.6,1.7-1.2,2.5-1.8l1.1-0.8c0.5-0.4,1.1-0.8,1.7-1.2c0.6-0.4,1.2-0.8,1.8-1.3
							l3.1-2.2c1.7-1.2,3.5-2.5,5.2-3.8c0.6-0.5,1.4-1.1,2.3-1.7c0.6-0.4,1.2-0.9,1.8-1.3c1.5-1.2,3-2.4,4.5-3.5
							c1-0.7,1.8-1.3,2.6-2l1.6-1.3c1.1-0.9,2.4-1.9,3.6-2.8l2.6-2.1c2.3-1.9,4.5-3.8,6.8-5.5c1-1,2.5-2.2,3.9-3.4l1.2-1
							c1-0.8,2-1.7,3-2.4c2.3-2.2,5-4.4,7.6-6.6c1-0.8,1.7-1.4,2.4-2l7.5-6.3c1.2-0.9,2.3-1.8,3.2-2.7c2-1.7,3.7-3.2,5.2-4.3
							c1-0.8,2-1.5,2.7-2l2.2-1.6c1.8-1.2,4.1-1.2,5.8,0c1.8,1.1,2.7,3.2,2.4,5.3c0,0-0.1,0.7-0.4,1.9c-0.5,1.9-0.8,3.1-1.2,4.4
							c-0.5,1.8-1.2,3.9-2.1,6.4c-0.7,2.2-1.9,4.7-3.3,7.4c0,0-0.5,0.9-0.5,1l-0.9,1.8c-1.2,2.4-2.6,4.9-4.2,7.4
							c-2,3-4.2,6.2-6.6,9.3c-1.3,1.6-2.6,3.1-3.9,4.5c-1.6,1.8-3,3.3-4.4,4.8c-3.2,3.1-6.3,5.9-9.7,8.7l-1.4,1.1
							c-1.3,1-2.6,1.9-3.9,2.9c-1.6,1.2-3.5,2.5-5.4,3.6c-3.2,2-7,4.2-11,6c-3.5,1.8-7.1,3.1-10.7,4.4c-3.7,1.2-7.2,2.2-10.4,2.8
							l-1.4,0.3c-1.1,0.2-2.2,0.4-3.3,0.6c-1.5,0.2-2.9,0.4-4.2,0.5C303.4,207.1,301.2,207.1,299.3,207.1z M378.5,141.9l-5.6,4.8
							c-0.9,0.8-1.9,1.7-2.9,2.5c-2.2,1.9-4.8,4-7.3,6.4c-1.2,1-2.1,1.7-3,2.5l-1.3,1.1c-1.3,1.1-2.6,2.2-3.9,3.4
							c-2.6,2-4.7,3.7-6.8,5.5l-2,1.6c0,0-0.9,0.7-0.9,0.7c-1.2,0.9-2.3,1.8-3.4,2.7l-1.5,1.2c-1,0.8-2.1,1.7-3.2,2.5
							c-1.3,1-2.7,2-4,3.1c-0.7,0.6-1.5,1.2-2.3,1.7c-0.6,0.4-1.2,0.9-1.8,1.4c-2,1.6-3.9,2.9-5.7,4.1l-2.8,2
							c-0.6,0.5-1.5,1.1-2.4,1.7l-2.5,1.8c-1,0.7-1.9,1.4-2.9,2l-1,0.7c0,0,0.1,0,0.1,0l1.3-0.3c2.7-0.6,5.8-1.4,9-2.5
							c3-1.1,6.3-2.3,9.6-3.9c3.7-1.6,7.1-3.7,10.1-5.5c1.6-1,3.2-2,4.7-3.1c1.4-1,2.6-1.9,3.8-2.8l1.3-0.9c2.9-2.4,5.8-5.1,8.7-7.8
							c1.2-1.2,2.5-2.7,3.8-4.1c1.4-1.6,2.6-2.9,3.7-4.2c2.2-2.9,4.2-5.9,6.2-8.7c1.4-2.1,2.5-4.2,3.6-6.3l1-1.9
							C378.1,142.6,378.3,142.2,378.5,141.9z"/>
					</g>
				</g>
			</g>
			<g>
				<g>
					<g>
						<path fill="currentColor" d="M133.9,228.5c0,32,13.7,58,30.6,58c16.9,0,30.6-26,30.6-58c0-32-13.7-58-30.6-58C147.5,170.5,133.9,196.5,133.9,228.5
							z"/>
						<path fill="currentColor" d="M164.4,291.9c-20.2,0-35.9-27.8-35.9-63.4c0-35.6,15.8-63.4,35.9-63.4c20.2,0,35.9,27.8,35.9,63.4
							C200.4,264.1,184.6,291.9,164.4,291.9z M164.4,175.9c-11.9,0-25.2,21.6-25.2,52.7c0,31,13.3,52.6,25.2,52.6
							c11.9,0,25.2-21.6,25.2-52.6C189.6,197.5,176.4,175.9,164.4,175.9z"/>
					</g>
				</g>
				<g>
					<g>
						<path fill="currentColor" d="M219.2,201.2c0,0-0.5,0.1-1.5,0.2c-1,0.1-2.4,0.3-4.3,0.3c-1.8,0-4.1,0-6.6-0.3c-1.3-0.1-2.6-0.3-4-0.5
							c-1.4-0.2-2.9-0.5-4.4-0.8c-3-0.7-6.3-1.5-9.7-2.7c-3.3-1.2-6.9-2.5-10.4-4.3c-3.5-1.6-7-3.6-10.5-5.8c-1.7-1-3.5-2.2-5.1-3.4
							c-1.7-1.2-3.3-2.5-5-3.7c-3.2-2.6-6.2-5.4-9.2-8.2c-1.4-1.5-2.8-2.9-4.1-4.4c-1.3-1.5-2.6-2.9-3.9-4.4
							c-2.3-3.1-4.5-6.2-6.4-9.1c-2-2.9-3.4-6-4.8-8.7c-1.4-2.8-2.6-5.2-3.4-7.7c-0.9-2.4-1.5-4.5-2.1-6.2c-0.5-1.7-0.9-3.1-1.1-4.1
							c-0.2-0.9-0.3-1.5-0.3-1.5s0.5,0.3,1.3,0.9c0.8,0.6,2,1.4,3.4,2.5c1.4,1.1,3.1,2.5,4.9,4c1.8,1.6,4,3.3,6.2,5.2
							c1.1,0.9,2.2,1.9,3.4,2.9c1.2,1,2.3,2.1,3.6,3.1c2.5,2.1,5.1,4.3,7.7,6.7c1.4,1.1,2.7,2.2,4.1,3.4c1.4,1.1,2.7,2.3,4.1,3.6
							c2.9,2.2,5.7,4.6,8.6,6.9c1.5,1.1,2.9,2.2,4.4,3.4c1.4,1.1,2.8,2.3,4.3,3.4c1.5,1.1,2.9,2.2,4.3,3.3c1.4,1.1,2.9,2.1,4.3,3.2
							c2.8,2.1,5.6,4,8.2,6c1.3,1,2.6,1.8,3.9,2.7c1.2,0.9,2.5,1.8,3.7,2.6c2.4,1.6,4.6,3.2,6.5,4.5c2,1.4,3.8,2.5,5.2,3.5
							C217.5,200.1,219.2,201.2,219.2,201.2z"/>
						<path fill="currentColor" d="M212.7,207.1c-1.8,0-4,0-6.4-0.3c-1.4-0.1-2.8-0.3-4.3-0.5c-1.1-0.2-2.2-0.4-3.4-0.6l-1.1-0.2
							c-3.4-0.7-6.8-1.7-10.4-2.8c-3.8-1.4-7.4-2.7-11.1-4.6c-3.7-1.6-7.4-3.8-10.9-6c-1.8-1.1-3.7-2.3-5.5-3.7l-5-3.7
							c-3.5-2.9-6.6-5.8-9.7-8.7c-1.6-1.7-3.1-3.3-4.4-4.8c-1.3-1.5-2.7-3-4-4.6c-2.5-3.3-4.7-6.5-6.7-9.4c-1.6-2.5-3-5-4.2-7.4
							l-0.9-1.8c0,0-0.5-0.9-0.5-1c-1.3-2.7-2.5-5.1-3.3-7.5c-0.8-2.3-1.6-4.5-2.1-6.3c-0.4-1.3-0.7-2.4-0.9-3.3
							c-0.6-2.2-0.7-2.9-0.7-2.9c-0.3-2.1,0.6-4.2,2.4-5.3c1.8-1.1,4.1-1.2,5.8,0l1.4,1c1.6,1.1,2.5,1.8,3.6,2.7
							c1.4,1.1,3.1,2.5,5,4.1c1.1,1,2.2,1.9,3.4,2.8l7.3,6.2c0.7,0.7,1.5,1.4,2.4,2c2.8,2.3,5.5,4.6,8.2,7c0.9,0.7,2.1,1.7,3.3,2.7
							c2,1.7,3.5,2.9,4.9,4.2c1.9,1.4,4.1,3.3,6.4,5.1l2,1.7c1.4,1,2.9,2.2,4.4,3.4l1.3,1c0.9,0.7,1.8,1.5,2.7,2.1
							c1.6,1.2,3.1,2.3,4.6,3.5c0.7,0.5,1.3,1,2,1.5c0.8,0.6,1.5,1.1,2.3,1.7c1.6,1.2,3.3,2.4,4.9,3.6l3.1,2.3
							c0.8,0.6,1.4,1.1,2.1,1.5c0.6,0.4,1.3,0.9,1.9,1.3l0.9,0.7c0.8,0.6,1.6,1.2,2.4,1.7l6.6,4.6c1.1,0.8,2.1,1.4,3,2l6.9,4.7
							c1.7,1.2,2.6,3.3,2.2,5.3c-0.3,2.1-1.9,3.8-3.9,4.3c0,0-0.7,0.2-2.2,0.4c-1,0.1-2.6,0.3-4.7,0.4
							C213.5,207.1,212.7,207.1,212.7,207.1z M133.5,141.9c0.1,0.2,0.2,0.3,0.2,0.5l1.3,2.6c1,2,2.2,4.2,3.6,6.3
							c1.9,2.8,4,5.8,6.3,8.8c1.1,1.3,2.3,2.7,3.6,4.1c1.3,1.5,2.6,2.9,4,4.3c2.7,2.5,5.7,5.3,8.7,7.8l4.7,3.5
							c1.6,1.2,3.2,2.2,4.8,3.2c3.2,2,6.6,4,9.9,5.5c3.5,1.8,6.8,3,10,4.1c3.1,1,6.1,1.8,9,2.5l1,0.2c0.1,0,0.2,0,0.3,0.1l-1.2-0.8
							c-0.8-0.5-1.8-1.2-2.7-1.9l-2.5-1.8c-0.9-0.6-1.8-1.2-2.6-1.9l-2.8-2c-1.7-1.2-3.5-2.5-5.3-3.9c-0.7-0.5-1.3-1-1.9-1.4
							c-0.8-0.6-1.7-1.2-2.5-1.9c-1.3-1-2.7-2.1-4.1-3.1c-1.1-0.8-2.2-1.6-3.3-2.5l-1.2-1c-1.4-1.2-2.8-2.3-4.3-3.3l-2.2-1.8
							c-2.1-1.7-4.2-3.5-6.3-5.1c-1.7-1.5-3-2.6-4.3-3.7c-1.8-1.5-2.9-2.4-4-3.3c-2.9-2.6-5.4-4.8-7.9-6.8c-0.9-0.7-1.9-1.6-2.9-2.5
							L133.5,141.9z"/>
					</g>
				</g>
			</g>
		</g>
	</g>
</g>
</svg>
