<svg id="Camada_1" data-name="Camada 1" xmlns="http://www.w3.org/2000/svg" viewBox="0 0 512.8 512.8">
  <path d="M256,512.4C114.6,512.4-.4,397.4-.4,256S114.6-.4,256-.4,512.4,114.6,512.4,256,397.4,512.4,256,512.4Zm0-491.3C126.5,21.1,21.1,126.5,21.1,256S126.5,490.9,256,490.9,490.9,385.5,490.9,256,385.5,21.1,256,21.1ZM218.8,386.6H221c1.4,0,3.6,0,6.2.2s5.9-.1,9.4-.1l5.7-.3c2-.2,4.1-.1,6.3-.4l6.8-.6,7.2-1,3.9-.5,3.6-.8c2.5-.6,4.9-.8,7.4-1.6s5.2-1.3,7.7-2.1,5.1-1.8,7.8-2.5,5.1-2.1,7.7-3,5-2.3,7.6-3.4a158.7,158.7,0,0,0,14.6-8c2.4-1.4,4.6-3,6.8-4.5l3.3-2.3,3.1-2.4,3.1-2.4,3-2.5c1.9-1.7,3.9-3.2,5.6-5l5.2-5,4.6-4.9a57.4,57.4,0,0,0,4.1-4.7l3.7-4.4c2.1-2.9,4.2-5.4,5.7-7.5l3.6-5.1L376,310l-.3,2.2c-.3,1.4-.5,3.6-1,6.3s-1.6,5.8-2.7,9.5c-.6,1.8-1.4,3.7-2.2,5.7a68.1,68.1,0,0,1-2.9,6.2c-1.2,2.1-2.4,4.2-3.6,6.5s-2.9,4.3-4.5,6.6l-1.2,1.7-1.3,1.6-2.7,3.3c-1.8,2.3-3.9,4.3-6,6.5s-2.1,2.2-3.2,3.2l-3.5,3-3.6,3c-1.2,1-2.5,1.8-3.8,2.8a109.7,109.7,0,0,1-16.6,9.8c-3,1.3-5.9,2.7-8.9,3.8l-9.1,3.1-9.2,2.2c-3,.6-6.1,1-9.1,1.4l-2.2.3-2.3.2-4.5.2-4.4.2-4-.2-3.8-.2h-4.2l-7.3-1.1-3.4-.7-3.2-.8-5.9-1.6c-3.7-1.3-6.8-2.4-9.3-3.5l-5.6-2.8A7.3,7.3,0,0,0,218.8,386.6Zm48.4,17.8H267l-4.1-.2L259,404h-3.5l-8.3-1.3-3.9-.8-5.4-1.4a42.1,42.1,0,0,1-4.2-1.2l-1.3-.5c-3.3-1.2-6.1-2.2-8.4-3.2l-4.2-2.1-3.6-1.9a5.3,5.3,0,0,1,2.6-10h25.9l3.2-.2,6.2-.6,14.9-2.3,3.1-.7,3.8-.9,4.2-1.2,3.6-1,7.8-2.5,2.9-1.2,4.5-1.8c1.4-.5,2.8-1.2,4.3-1.9l2.9-1.4a133.5,133.5,0,0,0,13.9-7.7c1.9-1.1,3.5-2.2,5.1-3.3l10.3-7.6a13.4,13.4,0,0,0,1.9-1.6l1.6-1.4,2.2-1.9,2.9-2.6,9.7-9.8a33,33,0,0,0,2.7-3l2.9-3.4,1.9-2.3c.9-1.3,1.9-2.5,2.8-3.7l2.7-3.6c.9-1.3,1.7-2.5,2.5-3.5l2.5-3.5a5.5,5.5,0,0,1,6.3-1.9,5.3,5.3,0,0,1,3.4,5.6l-.6,4.3c-.2,1.3-.4,2.8-.8,4.6s-1.4,5.6-2.5,8.9l-.4,1.2c-.4,1.4-1,2.8-1.6,4.3l-1.3,3c-.8,1.8-1.6,3.7-2.6,5.6l-3.6,6.5-3.7,5.6-1,1.5-1.3,1.9-4.2,5.1a74.9,74.9,0,0,1-5.5,6l-1.7,1.7-2.5,2.4-3.2,2.7-4.2,3.5a33,33,0,0,1-3,2.2l-1.1.8a118.2,118.2,0,0,1-17.3,10.2l-3.2,1.4-6.2,2.6-9.3,3.2c-3.5.9-6.6,1.7-9.6,2.3s-6.5,1.1-9.5,1.5l-13.9.9C267.4,404.4,267.3,404.4,267.2,404.4ZM258,393.2l1.5.8.2-.8,3.8.2,3.6.2,12.6-.8,8.8-1.3,8.8-2.2,8.6-2.9,5.5-2.3,3.1-1.4a111.3,111.3,0,0,0,15.5-9.2l1.3-.9,2.2-1.6,3.7-3.1,3.4-2.8,3.9-3.9a55.6,55.6,0,0,0,4.7-5.1l6.1-7.9,3.4-5,3.5-6.2.8-1.5-1.6,1.7-9.7,9.9a38.8,38.8,0,0,1-3.6,3.2l-2.2,1.9-1.4,1.2-1.9,1.6-11.3,8.3c-1.8,1.3-3.7,2.5-5.7,3.7-4.5,2.8-9.6,5.6-14.9,8.2l-2.8,1.3-5.1,2.3-4.3,1.7-3.5,1.4-7.9,2.6-4.2,1.2-3.7,1-5,1.2a26.1,26.1,0,0,0-2.7.6l-8.1,1.4-7.1,1h-1.2l-5.8.5-1.8.2,1.5.3,7.2,1.1H258ZM199.3,223.6c0,32-13.7,58-30.6,58s-30.6-26-30.6-58,13.7-58,30.6-58S199.3,191.6,199.3,223.6ZM168.7,287c-20.2,0-35.9-27.8-35.9-63.4s15.8-63.4,35.9-63.4,35.9,27.8,35.9,63.4S188.9,287,168.7,287Zm0-116c-11.9,0-25.2,21.6-25.2,52.6s13.3,52.7,25.2,52.7,25.2-21.6,25.2-52.7S180.6,171,168.7,171ZM371.9,282.7a9.7,9.7,0,0,1-4-.9l-74.5-34a9.7,9.7,0,0,1-1.8-16.6L366.1,176a9.7,9.7,0,0,1,11.5,15.5L316.3,237l59.6,27.2a9.7,9.7,0,0,1-4,18.5Zm0,5.3a14.8,14.8,0,0,1-6.2-1.4l-74.4-34a15.1,15.1,0,0,1-8.7-12.1,14.8,14.8,0,0,1,6-13.6l74.5-55.2c6.4-4.8,16.2-3.3,21,3.1a14.7,14.7,0,0,1,2.8,11.1,15.1,15.1,0,0,1-5.9,9.9l-54,40.1,51.4,23.4a15.1,15.1,0,0,1,7.4,19.9A15.7,15.7,0,0,1,371.9,288Zm0-108.5a4,4,0,0,0-2.5.8l-74.5,55.2a4.2,4.2,0,0,0-1.7,3.9,4.3,4.3,0,0,0,2.5,3.5l74.5,34a4.2,4.2,0,0,0,5.6-2.1,4.4,4.4,0,0,0-2.1-5.7L314,241.9a5.4,5.4,0,0,1-3.1-4.3,5.5,5.5,0,0,1,2.1-4.9l61.4-45.5a4.6,4.6,0,0,0,1.7-2.8,3.9,3.9,0,0,0-.8-3.1A4.3,4.3,0,0,0,371.9,179.5Z" transform="translate(0.4 0.4)" fill="currentColor"/>
</svg>
