<?xml version="1.0" encoding="utf-8"?>
<!-- Generator: Adobe Illustrator 24.0.1, SVG Export Plug-In . SVG Version: 6.00 Build 0)  -->
<svg version="1.1" id="Camada_1" focusable="false" xmlns="http://www.w3.org/2000/svg" xmlns:xlink="http://www.w3.org/1999/xlink"
	 x="0px" y="0px" viewBox="0 0 512 512" style="enable-background:new 0 0 512 512;" xml:space="preserve">
<g>
	<g>
		<g>
			<g>
				<path fill="currentColor" d="M256,512.4C114.6,512.4-0.4,397.4-0.4,256C-0.4,114.6,114.6-0.4,256-0.4s256.4,115,256.4,256.4
					C512.4,397.4,397.4,512.4,256,512.4z M256,21.1C126.5,21.1,21.1,126.5,21.1,256S126.5,490.9,256,490.9S490.9,385.5,490.9,256
					S385.5,21.1,256,21.1z"/>
			</g>
		</g>
	</g>
	<g>
		<g>
			<path fill="currentColor" d="M218.8,386.6c0,0,0.8,0,2.2,0c1.4,0,3.6,0,6.2,0.2c2.7,0.1,5.9-0.1,9.4-0.1c1.8,0,3.7-0.2,5.7-0.3c2-0.2,4.1-0.1,6.3-0.4
				c2.2-0.2,4.4-0.4,6.8-0.6c2.3-0.3,4.7-0.7,7.2-1c1.3-0.2,2.6-0.4,3.9-0.5c1.2-0.3,2.4-0.5,3.6-0.8c2.5-0.6,4.9-0.8,7.4-1.6
				c2.5-0.8,5.2-1.3,7.7-2.1c2.6-0.9,5.1-1.8,7.8-2.5c2.6-1,5.1-2.1,7.7-3c2.6-1,5-2.3,7.6-3.4c5-2.4,9.9-5.1,14.6-8
				c2.4-1.4,4.6-3,6.8-4.5c1.1-0.8,2.2-1.5,3.3-2.3c1-0.8,2.1-1.6,3.1-2.4c1.1-0.8,2.1-1.6,3.1-2.4c1-0.8,2-1.7,3-2.5
				c1.9-1.7,3.9-3.2,5.6-5c1.8-1.7,3.5-3.4,5.2-5c1.6-1.7,3.1-3.4,4.6-4.9c1.6-1.5,2.8-3.2,4.1-4.7c1.3-1.5,2.6-3,3.7-4.4
				c2.1-2.9,4.2-5.4,5.7-7.5c1.5-2.2,2.7-3.9,3.6-5.1c0.9-1.2,1.3-1.8,1.3-1.8s-0.1,0.8-0.3,2.2c-0.3,1.4-0.5,3.6-1,6.3
				c-0.6,2.7-1.6,5.8-2.7,9.5c-0.6,1.8-1.4,3.7-2.2,5.7c-0.9,2-1.7,4.1-2.9,6.2c-1.2,2.1-2.4,4.2-3.6,6.5c-1.4,2.2-2.9,4.3-4.5,6.6
				c-0.4,0.6-0.8,1.2-1.2,1.7c-0.4,0.5-0.9,1.1-1.3,1.6c-0.9,1.1-1.8,2.2-2.7,3.3c-1.8,2.3-3.9,4.3-6,6.5c-1.1,1.1-2.1,2.2-3.2,3.2
				c-1.1,1-2.4,2-3.5,3c-1.2,1-2.4,2-3.6,3c-1.2,1-2.5,1.8-3.8,2.8c-5.1,3.8-10.8,6.9-16.6,9.8c-3,1.3-5.9,2.7-8.9,3.8
				c-3,1.1-6.1,2.1-9.1,3.1c-3.1,0.8-6.2,1.5-9.2,2.2c-3,0.6-6.1,1-9.1,1.4c-0.8,0.1-1.5,0.2-2.2,0.3c-0.8,0.1-1.6,0.1-2.3,0.2
				c-1.5,0.1-3,0.2-4.5,0.2c-1.5,0-3,0.1-4.4,0.2c-1.4,0-2.7-0.1-4-0.2c-1.3-0.1-2.6-0.1-3.8-0.2c-0.6,0-1.3-0.1-1.9-0.1l-0.5,0
				l-0.3,0h-0.1h-0.1c-0.1,0,0.2,0-0.3,0l-1-0.1c-2.5-0.4-5-0.7-7.3-1.1c-1.2-0.2-2.3-0.4-3.4-0.7c-1.1-0.3-2.2-0.5-3.2-0.8
				c-2.1-0.6-4-1-5.9-1.6c-3.7-1.3-6.8-2.4-9.3-3.5c-2.4-1.1-4.3-2.2-5.6-2.8C219.5,387,218.8,386.6,218.8,386.6z"/>
			<path fill="currentColor" d="M267.2,404.4c-0.1,0-0.1,0-0.2,0c-1.4,0-2.8-0.1-4.1-0.2l-3.9-0.2c0,0-1.9-0.1-1.9-0.1c-0.2,0-0.3,0-0.5-0.1l0,0
				c-0.3,0-0.8,0-1.1-0.1l-8.3-1.3c-1.3-0.2-2.6-0.5-3.9-0.8l-5.4-1.4c-1.5-0.4-2.9-0.7-4.2-1.2l-1.3-0.5c-3.3-1.2-6.1-2.2-8.4-3.2
				c-1.6-0.8-3.1-1.5-4.2-2.1l-3.6-1.9c-2.2-1.2-3.2-3.7-2.6-6c0.6-2.4,2.7-4,5.2-4l3.9,0c1.3,0,2.9,0,4.8,0.1l8.5-0.1
				c2.1-0.1,2.8-0.1,4-0.1l2.2-0.1c0.6-0.1,1.6-0.1,2.5-0.1c1,0,2.1-0.1,3.2-0.2c2.2-0.2,4.2-0.4,6.2-0.6l14.9-2.3
				c0.9-0.2,2-0.4,3.1-0.7c1.2-0.2,2.5-0.5,3.8-0.9c1.4-0.4,2.8-0.8,4.2-1.2c1.2-0.3,2.4-0.6,3.6-1c2.4-0.8,5.1-1.7,7.8-2.5l2.9-1.2
				c1.5-0.6,3-1.2,4.5-1.8c1.4-0.5,2.8-1.2,4.3-1.9l2.9-1.4c4.8-2.3,9.5-4.9,13.9-7.7c1.9-1.1,3.5-2.2,5.1-3.3l10.3-7.6
				c1.1-0.8,1.5-1.2,1.9-1.6c0.5-0.5,1.1-0.9,1.6-1.4c0.5-0.5,1.3-1.2,2.2-1.9c1-0.8,2-1.7,2.9-2.6l9.7-9.8c1.2-1.1,1.9-2.1,2.7-3
				l2.9-3.4c0.7-0.8,1.3-1.6,1.9-2.3c0.9-1.3,1.9-2.5,2.8-3.7c1-1.3,1.9-2.5,2.7-3.6c0.9-1.3,1.7-2.5,2.5-3.5l2.5-3.5
				c1.4-2,4-2.7,6.3-1.9c2.3,0.9,3.7,3.2,3.4,5.6l-0.6,4.3c-0.2,1.3-0.4,2.8-0.8,4.6c-0.6,2.6-1.4,5.6-2.5,8.9l-0.4,1.2
				c-0.4,1.4-1,2.8-1.6,4.3l-1.3,3c-0.8,1.8-1.6,3.7-2.6,5.6l-3.6,6.5c-1.3,2-2.5,3.8-3.7,5.6l-1,1.5c-0.6,0.9-1,1.4-1.3,1.9
				l-4.2,5.1c-1.6,2-3.5,4-5.5,6l-1.7,1.7c-0.8,0.8-1.6,1.6-2.5,2.4c-1.1,1-2.2,1.9-3.2,2.7l-4.2,3.5c-0.9,0.8-2,1.5-3,2.2l-1.1,0.8
				c-4.7,3.4-10.2,6.7-17.3,10.2l-3.2,1.4c-2,0.9-4.1,1.8-6.2,2.6c-3.1,1.1-6.2,2.2-9.3,3.2c-3.5,0.9-6.6,1.7-9.6,2.3
				c-3.3,0.7-6.5,1.1-9.5,1.5l-13.9,0.9C267.4,404.4,267.3,404.4,267.2,404.4z M258,393.2c0.5,0.2,1,0.5,1.5,0.8l0.2-0.8l3.8,0.2
				c1.2,0.1,2.4,0.2,3.6,0.2l12.6-0.8c2.9-0.4,5.9-0.8,8.8-1.3c2.8-0.6,5.8-1.4,8.8-2.2c2.7-0.9,5.6-1.9,8.6-2.9
				c1.8-0.7,3.7-1.5,5.5-2.3l3.1-1.4c6.2-3.1,11.2-6.1,15.5-9.2l1.3-0.9c0.7-0.5,1.5-1,2.2-1.6l3.7-3.1c1.6-1.3,2.5-2,3.4-2.8
				l3.9-3.9c1.7-1.7,3.3-3.3,4.7-5.1l6.1-7.9c1.2-1.7,2.3-3.4,3.4-5l3.5-6.2c0.3-0.5,0.5-1,0.8-1.5c-0.5,0.6-1,1.1-1.6,1.7l-9.7,9.9
				c-1,1.1-2.3,2.1-3.6,3.2c-0.7,0.6-1.4,1.2-2.2,1.9l-1.4,1.2c-0.6,0.6-1.3,1.1-1.9,1.6l-11.3,8.3c-1.8,1.3-3.7,2.5-5.7,3.7
				c-4.5,2.8-9.6,5.6-14.9,8.2l-2.8,1.3c-1.7,0.8-3.4,1.6-5.1,2.3c-1.5,0.6-2.9,1.1-4.3,1.7l-3.5,1.4c-2.9,0.9-5.4,1.7-7.9,2.6
				c-1.5,0.5-2.9,0.8-4.2,1.2c-1.2,0.3-2.5,0.6-3.7,1c-1.7,0.5-3.3,0.8-5,1.2c-0.9,0.2-1.8,0.3-2.7,0.6l-8.1,1.4l-7.1,1
				c-0.1,0-1.1,0.1-1.2,0.1c-2,0.2-3.9,0.3-5.8,0.5c-0.6,0.1-1.2,0.1-1.8,0.2c0.5,0.1,1,0.2,1.5,0.3l7.2,1.1c0.4,0,0.8,0,1.1,0.1
				c0.3,0,0.6,0,0.7,0.1L258,393.2z"/>
		</g>
	</g>
	<g>
		<g>
			<g>
				<path fill="currentColor" d="M199.3,223.6c0,32-13.7,58-30.6,58c-16.9,0-30.6-26-30.6-58c0-32,13.7-58,30.6-58C185.6,165.6,199.3,191.6,199.3,223.6z
					"/>
				<path fill="currentColor" d="M168.7,287c-20.2,0-35.9-27.8-35.9-63.4c0-35.5,15.8-63.4,35.9-63.4c20.1,0,35.9,27.8,35.9,63.4
					C204.6,259.1,188.9,287,168.7,287z M168.7,171c-11.9,0-25.2,21.6-25.2,52.6c0,31,13.3,52.7,25.2,52.7
					c11.9,0,25.2-21.6,25.2-52.7C193.9,192.6,180.6,171,168.7,171z"/>
			</g>
		</g>
		<g>
			<g>
				<path fill="currentColor" d="M371.9,282.7c-1.3,0-2.7-0.3-4-0.9l-74.5-34c-3.1-1.4-5.2-4.4-5.6-7.8c-0.4-3.4,1.1-6.7,3.8-8.8l74.5-55.2
					c4.3-3.2,10.3-2.3,13.5,2c3.2,4.3,2.3,10.3-2,13.5L316.3,237l59.6,27.2c4.8,2.2,7,7.9,4.7,12.8
					C379,280.6,375.5,282.7,371.9,282.7z"/>
				<path fill="currentColor" d="M371.9,288c-2.1,0-4.3-0.5-6.2-1.4l-74.4-34c-4.8-2.2-8.2-6.9-8.7-12.1c-0.6-5.2,1.7-10.5,6-13.6l74.5-55.2
					c6.4-4.8,16.2-3.3,21,3.1c2.4,3.2,3.4,7.1,2.8,11.1c-0.6,4-2.7,7.5-5.9,9.9l-54,40.1l51.4,23.4c7.5,3.5,10.8,12.4,7.4,19.9
					C383.1,284.6,377.7,288,371.9,288z M371.9,179.5c-0.6,0-1.6,0.1-2.5,0.8l-74.5,55.2c-1.2,0.9-1.9,2.4-1.7,3.9
					c0.1,1.5,1.1,2.8,2.5,3.5l74.5,34c2.2,1.1,4.7-0.1,5.6-2.1c1-2.1,0-4.7-2.1-5.7L314,241.9c-1.7-0.8-2.9-2.4-3.1-4.3
					c-0.2-1.9,0.6-3.7,2.1-4.9l61.4-45.5c0.9-0.7,1.5-1.7,1.7-2.8c0.2-1.1-0.1-2.2-0.8-3.1C374.5,180.2,373.2,179.5,371.9,179.5z"/>
			</g>
		</g>
	</g>
</g>
</svg>
