<svg id="Camada_1" data-name="Camada 1" xmlns="http://www.w3.org/2000/svg" viewBox="0 0 512.8 512.8">
  <path d="M256,512.4C114.6,512.4-.4,397.4-.4,256S114.6-.4,256-.4,512.4,114.6,512.4,256,397.4,512.4,256,512.4Zm0-491.3C126.5,21.1,21.1,126.5,21.1,256S126.5,490.9,256,490.9,490.9,385.5,490.9,256,385.5,21.1,256,21.1ZM373.9,198.2c0,32-13.7,58-30.6,58s-30.6-26-30.6-58,13.7-58,30.6-58S373.9,166.2,373.9,198.2Zm-30.6,63.4c-20.1,0-35.9-27.8-35.9-63.4s15.8-63.4,35.9-63.4,35.9,27.8,35.9,63.4S363.4,261.6,343.3,261.6Zm0-116c-11.9,0-25.2,21.6-25.2,52.6s13.3,52.6,25.2,52.6,25.2-21.6,25.2-52.6S355.2,145.6,343.3,145.6Zm-144,52.6c0,32-13.7,58-30.6,58s-30.6-26-30.6-58,13.7-58,30.6-58S199.3,166.2,199.3,198.2Zm-30.6,63.4c-20.2,0-35.9-27.8-35.9-63.4s15.8-63.4,35.9-63.4,35.9,27.8,35.9,63.4S188.9,261.6,168.7,261.6Zm0-116c-11.9,0-25.2,21.6-25.2,52.6s13.3,52.6,25.2,52.6,25.2-21.6,25.2-52.6S180.6,145.6,168.7,145.6ZM376.1,391.8l-1.8-3a93.5,93.5,0,0,0-5.1-8.5l-1.8-2.7a14.2,14.2,0,0,0-2.1-2.9c-1.6-2-3.1-4.2-4.9-6.4s-3.9-4.5-6-6.8-4.6-4.7-7.2-7-5.2-4.8-8.3-6.9l-4.5-3.4-4.9-3.2-2.5-1.6-2.6-1.5-5.3-3-5.6-2.7-2.8-1.4-3-1.2c-7.8-3.4-16.3-5.6-25-7.5l-6.5-1.1-3.3-.4-3.4-.3c-4.4-.7-9-.5-13.5-.7H245.7l-3.2.4-6.4.7-6.5,1.2c-2.2.3-4.3,1-6.4,1.5a64.8,64.8,0,0,0-6.3,1.7l-6.2,2-5.9,2.3-3,1.2-2.8,1.3-5.6,2.7-5.3,3-2.6,1.5L183,341l-4.9,3.2-4.5,3.4c-3.1,2.1-5.6,4.7-8.3,6.9a41.2,41.2,0,0,0-3.7,3.5l-3.5,3.5c-2.2,2.3-4.1,4.7-6.1,6.8a143.4,143.4,0,0,0-9,12c-2.4,3.5-4,6.4-5.2,8.3l-1.8,3,.8-3.4a71.5,71.5,0,0,1,2.8-9.6l1.2-3.2.6-1.7.8-1.8c1.1-2.4,2.2-5,3.7-7.7s3.1-5.5,5-8.4l3-4.4q1.5-2.2,3.3-4.5a107.3,107.3,0,0,1,7.9-8.9c1.4-1.5,2.9-2.9,4.4-4.4l5-4.2,2.5-2.2,2.7-2,5.6-4,6-3.7,3.1-1.8,3.2-1.6c2.2-1,4.3-2.2,6.6-3.2l6.9-2.7c2.3-1,4.8-1.6,7.2-2.4s4.8-1.5,7.4-2l7.5-1.6c2.6-.5,5.3-.7,7.9-1.1l4-.5,3.6-.2,3.6-.2h4a148.9,148.9,0,0,1,30.6,3.7c1.3.2,2.5.6,3.7.9l3.7,1.1a59.3,59.3,0,0,1,7.1,2.4l6.9,2.7,6.6,3.2,3.3,1.6,3.1,1.8,6,3.6,5.6,4,2.7,2,2.5,2.1,5,4.2,4.5,4.5a107.3,107.3,0,0,1,7.9,8.9,47.1,47.1,0,0,1,3.3,4.5l3,4.4c1.8,2.9,3.4,5.8,4.9,8.5l3.6,7.8a26.7,26.7,0,0,1,1.4,3.6c.4,1.1.8,2.2,1.1,3.3a68.7,68.7,0,0,1,2.6,9.6C375.8,390.6,376.1,391.8,376.1,391.8Zm-240.2,5.4a5.2,5.2,0,0,1-2.1-.4,5.3,5.3,0,0,1-3.1-6.2l1.2-5.2a49,49,0,0,1,2.6-8.6l2.7-7c1.2-2.8,2.4-5.3,3.8-8l.9-1.6c1.3-2.3,2.7-4.7,4.3-7.2l3.2-4.6c1.6-2.2,2.6-3.6,3.7-4.9l1.7-2c2-2.4,4.1-4.9,6.5-7.3l15.1-13.3,5.7-4.1,6.4-3.9,3.2-1.9,1-.5,4.8-2.4,4.5-2.2,7.1-2.8a44.7,44.7,0,0,1,5.2-1.8l4.6-1.4a54.7,54.7,0,0,1,5.8-1.5l7.3-1.6,6.3-.9,15.6-1.2h2.2a147.7,147.7,0,0,1,32.2,3.9l3.9,1,5.1,1.5a47,47,0,0,1,6.3,2.2l6.1,2.4,5.7,2.6,8.8,4.6c2.1,1.2,4.2,2.4,6.2,3.7l11.5,8.5,9.8,9a85.4,85.4,0,0,1,6.4,7.1l1.8,2.1a30.4,30.4,0,0,1,2.6,3.4l4.1,5.8c2,3.3,3.7,6.2,5.2,8.9s2.8,5.8,3.8,8.3.9,2.2,1.4,3.4l1.3,3.8a48.8,48.8,0,0,1,2.3,8.1l.9,4.2a5.4,5.4,0,0,1,.6,2.5c0,3-2.4,5.1-5.5,5.4a5.2,5.2,0,0,1-4.7-2.6l-2.7-4.7a61.2,61.2,0,0,0-4-6.5l-.6-.9-1.2-1.8a22,22,0,0,0-1.7-2.5l-2.3-3.1-2.6-3.5c-.7-.7-1.6-1.8-2.5-2.9l-3.2-3.7c-.8-.7-1.7-1.7-2.7-2.7l-4-3.9-2.7-2.4a54.3,54.3,0,0,0-5.1-4.2l-15.8-10.4-14.3-6.9a134.8,134.8,0,0,0-24.2-7.3l-6.3-1.1-2.5-.3-3.9-.4a70.3,70.3,0,0,0-9-.6h-4.4L231,327a36.2,36.2,0,0,0-4.1.9l-3.9,1-3.7,1-6.4,2.1-3.8,1.5-7.4,3.2-5.5,2.7-18.8,12.2a53.1,53.1,0,0,0-5.5,4.5l-2.6,2.2a30.8,30.8,0,0,0-2.6,2.4l-4.3,4.3-3.6,4-2.2,2.5a124.5,124.5,0,0,0-8.4,11.3,79.4,79.4,0,0,0-4.5,7.2l-2.5,4.2C139.4,396.3,137.7,397.2,135.9,397.2Zm119-97-.7,5.4-14.8,1.1a46.8,46.8,0,0,0-5.4.8l-7.3,1.6c-1.7.3-3.3.8-4.8,1.2l-4.6,1.4a34.5,34.5,0,0,0-4.2,1.4L206,316l-3.7,1.8-8.4,4.5-5.9,3.6-15.6,12.4-3.6,3.6c-2.2,2.2-4,4.4-5.8,6.5l-1.8,2.1a13,13,0,0,0-1.5,2,20.5,20.5,0,0,1,2.3-2l2.2-1.9a64.5,64.5,0,0,1,6.3-5.2l12-8.4,1.1-.6,7.1-4.1,5.9-2.9,1.2-.6a17.6,17.6,0,0,1,2-.9l2-.8,1-.4,1.8-.7,4.3-1.7,6.3-2.1,4.8-1.4,3.6-.9a50.5,50.5,0,0,1,5.3-1.2l6.3-1.1,3.8-.5,15.6-1.1h5.9a85.7,85.7,0,0,1,10.1.7l3.1.3a34.2,34.2,0,0,1,3.9.5l6.4,1.1a145.6,145.6,0,0,1,26.2,7.8l11.6,5.3L342.5,343a45.9,45.9,0,0,1,6,4.9l2.5,2.2,2,1.8-1.3-1.7-1.9-2.3a64.9,64.9,0,0,0-5.6-6.3L330,329.2l-5.6-3.9-5.6-3.3-8.1-4.3-4.3-2-6.7-2.6a48.8,48.8,0,0,0-5.4-1.8l-5-1.5-3.1-.8a139.1,139.1,0,0,0-29.9-3.6Z" transform="translate(0.4 0.4)" fill="currentColor"/>
</svg>
