<?xml version="1.0" encoding="utf-8"?>
<!-- Generator: Adobe Illustrator 24.0.1, SVG Export Plug-In . SVG Version: 6.00 Build 0)  -->
<svg version="1.1" id="Camada_1" focusable="false" xmlns="http://www.w3.org/2000/svg" xmlns:xlink="http://www.w3.org/1999/xlink"
	 x="0px" y="0px" viewBox="0 0 512 512" style="enable-background:new 0 0 512 512;" xml:space="preserve">
<g>
	<g>
		<g>
			<g>
				<path fill="currentColor" d="M256,512.4C114.6,512.4-0.4,397.4-0.4,256C-0.4,114.6,114.6-0.4,256-0.4s256.4,115,256.4,256.4
					C512.4,397.4,397.4,512.4,256,512.4z M256,21.1C126.5,21.1,21.1,126.5,21.1,256S126.5,490.9,256,490.9S490.9,385.5,490.9,256
					S385.5,21.1,256,21.1z"/>
			</g>
		</g>
	</g>
	<g>
		<g>
			<g>
				<path fill="currentColor" d="M367.4,413.9H145.2c-1.6,0-3-0.7-4.1-1.9c-1-1.2-1.5-2.8-1.2-4.3c7.9-53.6,58-94.1,116.4-94.1
					c58.4,0,108.4,40.5,116.4,94.1c0.2,1.5-0.2,3.1-1.2,4.3C370.4,413.2,368.9,413.9,367.4,413.9z M151.7,403.1h209.3
					c-10-45.3-53.8-78.8-104.6-78.8C205.4,324.4,161.6,357.8,151.7,403.1z"/>
			</g>
		</g>
		<g>
			<g>
				<path fill="currentColor" d="M367.2,408.5C337.1,385.8,298.4,372,256,372s-81.1,13.8-111.2,36.5l0,0H367.2L367.2,408.5z"/>
				<path fill="currentColor" d="M367.2,413.9H144.8c-2.3,0-4.4-1.5-5.1-3.7c-0.7-2.2,0-4.6,1.8-6c32.1-24.2,72.7-37.6,114.4-37.6
					c41.8,0,82.4,13.3,114.4,37.6c1.8,1.4,2.6,3.8,1.8,6C371.5,412.4,369.5,413.9,367.2,413.9z M162.3,403.1h187.4
					c-27.6-16.7-60.2-25.7-93.7-25.7S189.9,386.4,162.3,403.1z"/>
			</g>
		</g>
	</g>
	<g>
		<g>
			<g>
				<path fill="currentColor" d="M380.8,271.6c-1.3,0-2.7-0.3-4-0.9l-74.5-34c-3.1-1.4-5.2-4.4-5.6-7.8c-0.4-3.4,1.1-6.7,3.8-8.7l74.5-55.2
					c4.3-3.1,10.3-2.3,13.5,2c3.2,4.2,2.3,10.3-2,13.5L325.2,226l59.6,27.2c4.8,2.2,7,7.9,4.8,12.8
					C387.9,269.5,384.5,271.6,380.8,271.6z"/>
				<path fill="currentColor" d="M380.8,276.9c-2.2,0-4.3-0.5-6.2-1.4l-74.4-34c-4.8-2.2-8.1-6.9-8.7-12.1c-0.6-5.2,1.7-10.4,6-13.6l74.5-55.2
					c6.4-4.8,16.3-3.3,21,3.1c2.4,3.2,3.4,7.1,2.8,11.1c-0.6,4-2.7,7.5-5.9,9.8l-54,40.1l51.3,23.4c7.5,3.5,10.8,12.4,7.4,19.9
					C392,273.5,386.7,276.9,380.8,276.9z M380.8,168.5c-0.6,0-1.6,0.1-2.5,0.8l-74.4,55.2c-1.2,0.9-1.9,2.4-1.7,3.8
					c0.2,1.6,1.1,2.8,2.5,3.5l74.4,34c2,0.9,4.7,0,5.6-2.1c1-2.1,0-4.7-2.1-5.7l-59.6-27.2c-1.7-0.8-2.9-2.4-3.1-4.3
					c-0.2-1.9,0.6-3.7,2.1-4.9l61.4-45.5c0.9-0.7,1.5-1.7,1.7-2.8c0.2-1.1-0.1-2.3-0.8-3.2C383.4,169.1,382.1,168.5,380.8,168.5z"/>
			</g>
		</g>
		<g>
			<g>
				<path fill="currentColor" d="M131.8,271.6c-3.7,0-7.2-2.1-8.8-5.6c-2.2-4.8-0.1-10.5,4.7-12.8l59.6-27.2L126,180.5c-4.3-3.2-5.1-9.2-2-13.5
					c3.1-4.3,9.2-5.2,13.5-2l74.5,55.2c2.7,2,4.2,5.4,3.8,8.7c-0.4,3.4-2.5,6.3-5.6,7.8l-74.5,34
					C134.5,271.3,133.1,271.6,131.8,271.6z"/>
				<path fill="currentColor" d="M131.8,276.9c-5.9,0-11.2-3.5-13.7-8.8c-3.4-7.5-0.1-16.4,7.4-19.9l51.4-23.4l-54-40.1c-3.2-2.4-5.3-5.9-5.9-9.9
					c-0.6-4,0.4-7.9,2.8-11.1c4.7-6.4,14.5-7.9,20.9-3.1l74.5,55.2c4.3,3.2,6.6,8.4,6,13.6c-0.5,5.2-3.9,9.8-8.7,12l-74.5,34
					C136,276.5,133.9,276.9,131.8,276.9z M131.8,168.5c-1.4,0-2.6,0.6-3.4,1.7c-0.7,0.9-1,2.1-0.8,3.2c0.2,1.1,0.8,2.1,1.7,2.8
					l61.4,45.5c1.5,1.1,2.3,3,2.1,4.9c-0.2,1.9-1.4,3.5-3.1,4.3L130,258.1c-2.1,1-3.1,3.5-2.1,5.6c0.9,2.1,3.7,3,5.6,2.1l74.5-34
					c1.4-0.6,2.3-1.9,2.5-3.4c0.2-1.5-0.5-3-1.7-3.9l-74.4-55.2C133.4,168.6,132.4,168.5,131.8,168.5z"/>
			</g>
		</g>
	</g>
</g>
</svg>
