<svg id="Camada_1" data-name="Camada 1" xmlns="http://www.w3.org/2000/svg" viewBox="0 0 512.8 512.8">
  <path d="M256,512.4C114.6,512.4-.4,397.4-.4,256S114.6-.4,256-.4,512.4,114.6,512.4,256,397.4,512.4,256,512.4Zm0-491.3C126.5,21.1,21.1,126.5,21.1,256S126.5,490.9,256,490.9,490.9,385.5,490.9,256,385.5,21.1,256,21.1ZM367.4,413.9H145.2a5.5,5.5,0,0,1-4.1-1.9,5.2,5.2,0,0,1-1.2-4.3c7.9-53.6,58-94.1,116.4-94.1s108.4,40.5,116.4,94.1a5.4,5.4,0,0,1-5.3,6.2ZM151.7,403.1H361c-10-45.3-53.8-78.8-104.6-78.8S161.6,357.8,151.7,403.1Zm215.5,5.4C337.1,385.8,298.4,372,256,372s-81.1,13.8-111.2,36.5H367.2Zm0,5.4H144.8a5.4,5.4,0,0,1-5.1-3.7,5.5,5.5,0,0,1,1.8-6c32.1-24.2,72.7-37.6,114.4-37.6s82.4,13.3,114.4,37.6a5.3,5.3,0,0,1,1.8,6A5,5,0,0,1,367.2,413.9ZM162.3,403.1H349.7a183.7,183.7,0,0,0-187.4,0ZM380.8,271.6a9.7,9.7,0,0,1-4-.9l-74.5-34a9.8,9.8,0,0,1-5.6-7.8,9.5,9.5,0,0,1,3.8-8.7L375,165a9.7,9.7,0,0,1,11.5,15.5L325.2,226l59.6,27.2a9.6,9.6,0,0,1-4,18.4Zm0,5.3a14.4,14.4,0,0,1-6.2-1.4l-74.4-34a15.3,15.3,0,0,1-8.7-12.1,14.9,14.9,0,0,1,6-13.6L372,160.6a15.4,15.4,0,0,1,21,3.1,14.9,14.9,0,0,1-3.1,20.9l-54,40.1,51.3,23.4a15.1,15.1,0,0,1-6.4,28.8Zm0-108.4a4,4,0,0,0-2.5.8l-74.4,55.2a4.2,4.2,0,0,0-1.7,3.8,4.4,4.4,0,0,0,2.5,3.5l74.4,34a4.3,4.3,0,0,0,3.5-7.8L323,230.8a5.4,5.4,0,0,1-3.1-4.3,5.5,5.5,0,0,1,2.1-4.9l61.4-45.5a4.6,4.6,0,0,0,1.7-2.8,4.1,4.1,0,0,0-.8-3.2A4.8,4.8,0,0,0,380.8,168.5Zm-249,103.1a9.6,9.6,0,0,1-4.1-18.4L187.3,226,126,180.5a9.7,9.7,0,0,1-2-13.5,9.6,9.6,0,0,1,13.5-2L212,220.2a9.6,9.6,0,0,1,3.8,8.7,9.9,9.9,0,0,1-5.6,7.8l-74.5,34A8.9,8.9,0,0,1,131.8,271.6Zm0,5.3a15,15,0,0,1-6.3-28.7l51.4-23.4-54-40.1a15.1,15.1,0,0,1-5.9-9.9,14.7,14.7,0,0,1,2.8-11.1,15.3,15.3,0,0,1,20.9-3.1l74.5,55.2a14.9,14.9,0,0,1-2.7,25.6l-74.5,34A12.6,12.6,0,0,1,131.8,276.9Zm0-108.4a4.2,4.2,0,0,0-4.2,4.9,4.6,4.6,0,0,0,1.7,2.8l61.4,45.5a5.4,5.4,0,0,1-1,9.2L130,258.1a4.2,4.2,0,0,0-2.1,5.6,4.4,4.4,0,0,0,5.6,2.1l74.5-34a4.2,4.2,0,0,0,.8-7.3l-74.4-55.2A4.5,4.5,0,0,0,131.8,168.5Z" transform="translate(0.4 0.4)" fill="currentColor"/>
</svg>
