
<svg version="1.1" id="Layer_1" xmlns="http://www.w3.org/2000/svg" xmlns:xlink="http://www.w3.org/1999/xlink" x="0px" y="0px" viewBox="0 0 200 200" style="enable-background:new 0 0 200 200;" xml:space="preserve">
<style type="text/css">
	.st0{fill:#006;}
</style>
<g>
	<g>
		<g>
			<g>
				<path class="st0" d="M100,200C44.86,200,0,155.14,0,100C0,44.86,44.86,0,100,0s100,44.86,100,100C200,155.14,155.14,200,100,200
					z M100,8.38C49.48,8.38,8.38,49.48,8.38,100s41.1,91.62,91.62,91.62s91.62-41.1,91.62-91.62S150.52,8.38,100,8.38z"/>
			</g>
		</g>
	</g>
	<g>
		<g>
			<path class="st0" d="M83.47,84.87H43.64c-2.07,0-3.76-1.68-3.76-3.76c0-2.07,1.69-3.76,3.76-3.76h39.83
				c2.08,0,3.76,1.69,3.76,3.76C87.23,83.18,85.55,84.87,83.47,84.87z"/>
			<path class="st0" d="M83.47,86.96H43.64c-3.23,0-5.85-2.62-5.85-5.85c0-3.23,2.62-5.85,5.85-5.85h39.83
				c3.23,0,5.85,2.62,5.85,5.85C89.33,84.34,86.7,86.96,83.47,86.96z M43.64,79.45c-0.92,0-1.66,0.74-1.66,1.66
				c0,0.92,0.74,1.66,1.66,1.66h39.83c0.92,0,1.66-0.75,1.66-1.66c0-0.92-0.74-1.66-1.66-1.66H43.64z"/>
		</g>
	</g>
	<g>
		<g>
			<path class="st0" d="M159.58,84.87h-39.83c-2.07,0-3.76-1.68-3.76-3.76c0-2.07,1.69-3.76,3.76-3.76h39.83
				c2.08,0,3.76,1.69,3.76,3.76C163.34,83.18,161.66,84.87,159.58,84.87z"/>
			<path class="st0" d="M159.58,86.96h-39.83c-3.23,0-5.85-2.62-5.85-5.85c0-3.23,2.62-5.85,5.85-5.85h39.83
				c3.23,0,5.85,2.62,5.85,5.85C165.43,84.34,162.81,86.96,159.58,86.96z M119.75,79.45c-0.92,0-1.66,0.74-1.66,1.66
				c0,0.92,0.74,1.66,1.66,1.66h39.83c0.92,0,1.66-0.75,1.66-1.66c0-0.92-0.74-1.66-1.66-1.66H119.75z"/>
		</g>
	</g>
	<g>
		<g>
			<path class="st0" d="M141.71,136.94H58.28c-2.07,0-3.75-1.69-3.75-3.75c0-2.08,1.68-3.77,3.75-3.77h83.43
				c2.08,0,3.77,1.69,3.77,3.77C145.48,135.26,143.79,136.94,141.71,136.94z"/>
			<path class="st0" d="M141.71,139.04H58.28c-3.22,0-5.84-2.62-5.84-5.85c0-3.23,2.62-5.86,5.84-5.86h83.43
				c3.23,0,5.86,2.63,5.86,5.86C147.57,136.42,144.95,139.04,141.71,139.04z M58.28,131.52c-0.91,0-1.65,0.75-1.65,1.67
				c0,0.91,0.74,1.66,1.65,1.66h83.43c0.92,0,1.67-0.74,1.67-1.66c0-0.92-0.75-1.67-1.67-1.67H58.28z"/>
		</g>
	</g>
</g>
</svg>
