<?xml version="1.0" encoding="utf-8"?>
<!-- Generator: Adobe Illustrator 24.0.1, SVG Export Plug-In . SVG Version: 6.00 Build 0)  -->
<svg version="1.1" id="Camada_1" focusable="false" xmlns="http://www.w3.org/2000/svg" xmlns:xlink="http://www.w3.org/1999/xlink"
	 x="0px" y="0px" viewBox="0 0 512 512" style="enable-background:new 0 0 512 512;" xml:space="preserve">
<g>
	<g>
		<g>
			<g>
				<path fill="currentColor" d="M372.4,252.7c-1.3,0-2.6-0.3-3.8-0.8l-70.7-32.3c-3-1.3-5-4.1-5.3-7.4c-0.3-3.2,1.1-6.4,3.6-8.3l70.7-52.4
					c4-3,9.8-2.2,12.8,1.9c3,4.1,2.2,9.8-1.9,12.8l-58.3,43.2l56.7,25.9c4.6,2.1,6.6,7.5,4.5,12.1
					C379.1,250.7,375.8,252.7,372.4,252.7z"/>
				<path fill="currentColor" d="M372.4,257.8c-2.1,0-4.1-0.4-5.9-1.3l-70.7-32.3c-4.6-2.1-7.7-6.5-8.3-11.5c-0.5-5,1.6-9.9,5.7-12.9l70.8-52.4
					c6.1-4.5,15.4-3.1,19.9,2.9c4.7,6.3,3.3,15.3-3,19.9l-51.3,38.1l48.8,22.3c3.5,1.6,6.1,4.4,7.4,8c1.3,3.6,1.2,7.4-0.4,10.9
					C383,254.5,377.9,257.8,372.4,257.8z M372.4,154.7c-0.6,0-1.5,0.1-2.4,0.8L299.2,208c-1.2,0.9-1.8,2.2-1.6,3.7
					c0.1,1.4,1,2.7,2.3,3.2l70.7,32.3c2.1,0.9,4.5,0,5.4-2c0.4-1,0.5-2.1,0.1-3.1c-0.4-1-1.1-1.8-2.1-2.3L317.4,214
					c-1.6-0.8-2.8-2.3-3-4.1c-0.2-1.8,0.6-3.5,2-4.6l58.3-43.2c1.8-1.3,2.2-3.9,0.8-5.7C374.8,155.3,373.6,154.7,372.4,154.7z"/>
			</g>
		</g>
		<g>
			<g>
				<path fill="currentColor" d="M139.7,252.7c-3.5,0-6.8-2-8.3-5.3c-2.1-4.6-0.1-10,4.5-12.1l56.6-25.9l-58.3-43.2c-4-3-4.9-8.7-1.9-12.8
					c3-4.1,8.8-4.9,12.8-1.9l70.7,52.4c2.6,1.9,4,5.1,3.6,8.3c-0.3,3.2-2.4,6-5.3,7.4l-70.7,32.3
					C142.2,252.4,140.9,252.7,139.7,252.7z"/>
				<path fill="currentColor" d="M139.7,257.8c-5.6,0-10.7-3.3-13-8.3c-1.6-3.4-1.7-7.3-0.4-10.9c1.3-3.6,4-6.4,7.4-8l48.8-22.3l-51.3-38.1
					c-6.3-4.7-7.6-13.6-3-19.9c4.5-6.1,13.9-7.5,19.9-2.9l70.7,52.4c4,3,6.2,8,5.7,12.9c-0.5,5-3.7,9.4-8.3,11.5l-70.7,32.3
					C143.7,257.3,141.7,257.8,139.7,257.8z M139.7,154.7c-1.3,0-2.5,0.6-3.2,1.6c-1.3,1.8-1,4.3,0.8,5.7l58.3,43.2
					c1.4,1.1,2.2,2.8,2,4.6c-0.2,1.8-1.3,3.4-2.9,4.1L138,239.9c-1,0.4-1.7,1.2-2.1,2.3c-0.4,1-0.3,2.1,0.1,3.1c0.9,2,3.3,2.9,5.3,2
					l70.7-32.3c1.3-0.6,2.2-1.8,2.4-3.2c0.2-1.4-0.5-2.8-1.6-3.7l-70.7-52.4C141.2,154.9,140.3,154.7,139.7,154.7z"/>
			</g>
		</g>
	</g>
	<g>
		<g>
			<path fill="currentColor" d="M303.7,511.6c-3.5,0-7.2-0.3-10.9-0.9c-31.7-5.2-26-47.1-22.6-72.1c0.6-4.6,1.2-8.8,1.5-12.4l0.7-7.1
				c1.6-16.6,3.2-33.8,1-49.8c-0.7-5.2-1.5-10.4-2.3-15.7c-1.5-10.2-3.1-20.8-4.1-31.4c-0.7-7-2.2-14.5-3.8-22.4
				c-2.8-13.9-5.7-28.2-4.3-41.7c-0.1-2.7,0.9-4.5,1.8-5.6c1.7-2,5.6-4,14.4-0.5c1.5,0.7,5.8,3,11.2,6c9.1,5,21.7,12,27.5,14.5
				c18.1,7.9,36.2,17.7,53.7,27.1l4.9,2.7c25.9,14,53.3,35.1,77.2,59.6c11.2,11.5,26.3,29,29.1,49.5c2.6,19.4-9.9,26.1-19.9,31.4
				c-1.7,0.9-3.5,1.9-5.2,2.9c-6.4,3.7-9.9,9.2-13.9,15.6c-2.8,4.4-5.7,8.9-9.7,13.2c-5.9,6.2-13.6,9.4-23,9.4l0,0
				c-7.9,0-16.1-2.2-23.6-4.5c-13.1-4-23.8-0.4-36.7,12.9C334.3,505.2,319.9,511.6,303.7,511.6z M268.9,261.6
				c-0.7,11.2,1.9,23.8,4.3,36c1.6,7.8,3.2,15.9,3.9,23.5c1,10.2,2.6,20.7,4.1,30.8c0.8,5.3,1.6,10.6,2.3,15.8
				c2.3,17.4,0.7,35.3-1,52.5l-0.6,7c-0.3,3.8-0.9,8.2-1.6,13c-4.2,30.7-6,56.3,14,59.6c17.7,2.9,32.4-2.1,45.4-15.3
				c7.3-7.5,18.8-17.4,34.3-17.4c4,0,8.1,0.7,12.2,1.9c6.9,2.1,14.2,4.1,20.8,4.1c6.7,0,11.9-2,15.8-6.2c3.3-3.6,5.8-7.5,8.5-11.6
				c4.4-6.9,8.9-14.1,17.4-19.1c1.8-1.1,3.7-2.1,5.5-3c10.4-5.6,15.8-9,14.3-20c-1.7-12.8-10.2-26.9-26-43.1
				c-23.1-23.7-49.7-44.2-74.7-57.7l-4.9-2.7c-17.3-9.3-35.2-19-52.9-26.7c-6.3-2.7-19-9.8-28.4-14.9c-5.1-2.8-9.1-5-10.3-5.6
				C270.4,262.1,269.6,261.8,268.9,261.6z"/>
		</g>
	</g>
	<g>
		<path fill="currentColor" d="M267.6,466.3c-3.8,0.2-7.7,0.3-11.6,0.3c-123,0-223.1-100.1-223.1-223.1C32.9,120.5,133,20.4,256,20.4
			s223.1,100.1,223.1,223.1c0,42.3-11.8,81.9-32.4,115.6c1,1,2,2,2.9,2.9c3.6,3.6,7.5,7.9,11.4,12.7c24.4-37.9,38.5-83,38.5-131.3
			C499.5,109.2,390.3,0,256,0S12.5,109.2,12.5,243.5c0,134.3,109.2,243.5,243.5,243.5c4.4,0,8.8-0.1,13.2-0.4
			C267.8,480.4,267.4,473.4,267.6,466.3z"/>
	</g>
	<g>
		<path fill="currentColor" d="M272.1,359c-0.7-5.2-1.5-10.4-2.3-15.7c-0.1-0.7-0.2-1.5-0.3-2.2l-11.9,19.8l-20.1-31.5c-1.7-2.6-4.5-4.2-7.6-4.2
			c-3,0-6,1.4-7.7,4l-22,32.1l-18.9-31.6c-1.6-2.6-4.4-4.3-7.4-4.4c-3.1-0.1-6,1.3-7.8,3.8l-23.5,32.3l-17.3-31.3
			c-2.4-4.4-8-6-12.4-3.6c-4.4,2.4-6,8-3.6,12.4l24.3,43.9c1.5,2.7,4.3,4.5,7.5,4.7c0.2,0,0.4,0,0.5,0c2.9,0,5.7-1.4,7.4-3.8
			l23.8-32.7l19.1,32c1.6,2.7,4.4,4.4,7.6,4.5c3.2,0.1,6.1-1.4,7.8-4l22.3-32.5l20.6,32.3c1.7,2.7,4.7,4.2,7.9,4.2
			c3.2,0,6.1-1.7,7.7-4.5l7.3-12.2C272.9,366.7,272.6,362.8,272.1,359z"/>
	</g>
	<g>
		<g>
			<path fill="currentColor" d="M317.2,342.3c27.7,52.6,26.1,73.4,24.2,108.5c7.1-5.7,15.1-8.6,24.2-8.8C364.7,423,353.3,381.9,317.2,342.3z"/>
		</g>
	</g>
	<g>
		<g>
			<path fill="currentColor" d="M419.5,384.8c-15.5-41.9-56.3-65.7-93.8-84.4c-64-32,61,18.6,78.3,123.7C419.6,401.9,429.8,412.7,419.5,384.8
				C415.4,373.7,421.9,391.4,419.5,384.8z"/>
		</g>
	</g>
</g>
</svg>
