<svg xmlns="http://www.w3.org/2000/svg" viewBox="0 0 487 511.6">
  <path d="M372.4,252.7a10,10,0,0,1-3.8-.8l-70.7-32.3a8.8,8.8,0,0,1-5.3-7.4,9.4,9.4,0,0,1,3.6-8.3l70.7-52.4a9.2,9.2,0,0,1,10.9,14.7l-58.3,43.2,56.7,25.9a9.1,9.1,0,0,1,4.5,12.1A9.3,9.3,0,0,1,372.4,252.7Zm0,5.1a13.1,13.1,0,0,1-5.9-1.3l-70.7-32.3a14.5,14.5,0,0,1-8.3-11.5,14.2,14.2,0,0,1,5.7-12.9L364,147.4a14.7,14.7,0,0,1,19.9,2.9,14.2,14.2,0,0,1-3,19.9l-51.3,38.1,48.8,22.3a13.9,13.9,0,0,1,7.4,8,14.2,14.2,0,0,1-.4,10.9A14.6,14.6,0,0,1,372.4,257.8Zm0-103.1a3.8,3.8,0,0,0-2.4.8L299.2,208a3.8,3.8,0,0,0-1.6,3.7,3.7,3.7,0,0,0,2.3,3.2l70.7,32.3a4.1,4.1,0,0,0,5.4-2,4.2,4.2,0,0,0,.1-3.1,4.3,4.3,0,0,0-2.1-2.3L317.4,214a5.3,5.3,0,0,1-3-4.1,5.1,5.1,0,0,1,2-4.6l58.3-43.2a4,4,0,0,0,.8-5.7A3.7,3.7,0,0,0,372.4,154.7Zm-232.7,98a9.1,9.1,0,0,1-3.8-17.4l56.6-25.9-58.3-43.2a9.2,9.2,0,1,1,10.9-14.7l70.7,52.4a9,9,0,0,1,3.6,8.3,9.3,9.3,0,0,1-5.3,7.4l-70.7,32.3A9.9,9.9,0,0,1,139.7,252.7Zm0,5.1a14.4,14.4,0,0,1-13-8.3,14.3,14.3,0,0,1,7-18.9l48.8-22.3-51.3-38.1a14.3,14.3,0,0,1-3-19.9c4.5-6.1,13.9-7.5,19.9-2.9l70.7,52.4a14.5,14.5,0,0,1,5.7,12.9,14.3,14.3,0,0,1-8.3,11.5l-70.7,32.3A14.4,14.4,0,0,1,139.7,257.8Zm0-103.1a3.9,3.9,0,0,0-3.2,1.6,4.1,4.1,0,0,0,.8,5.7l58.3,43.2a5.1,5.1,0,0,1,2,4.6,5.1,5.1,0,0,1-2.9,4.1l-56.7,26a3.7,3.7,0,0,0-2.1,2.3,4.2,4.2,0,0,0,.1,3.1,4,4,0,0,0,5.3,2L212,215a4,4,0,0,0,.8-6.9l-70.7-52.4A3.6,3.6,0,0,0,139.7,154.7Zm164,356.9a68.7,68.7,0,0,1-10.9-.9c-31.7-5.2-26-47.1-22.6-72.1.6-4.6,1.2-8.8,1.5-12.4l.7-7.1c1.6-16.6,3.2-33.8,1-49.8-.7-5.2-1.5-10.4-2.3-15.7-1.5-10.2-3.1-20.8-4.1-31.4-.7-7-2.2-14.5-3.8-22.4-2.8-13.9-5.7-28.2-4.3-41.7a8.1,8.1,0,0,1,1.8-5.6c1.7-2,5.6-4,14.4-.5,1.5.7,5.8,3,11.2,6,9.1,5,21.7,12,27.5,14.5,18.1,7.9,36.2,17.7,53.7,27.1l4.9,2.7c25.9,14,53.3,35.1,77.2,59.6,11.2,11.5,26.3,29,29.1,49.5s-9.9,26.1-19.9,31.4l-5.2,2.9c-6.4,3.7-9.9,9.2-13.9,15.6a87.3,87.3,0,0,1-9.7,13.2c-5.9,6.2-13.6,9.4-23,9.4h0c-7.9,0-16.1-2.2-23.6-4.5-13.1-4-23.8-.4-36.7,12.9S319.9,511.6,303.7,511.6Zm-34.8-250c-.7,11.2,1.9,23.8,4.3,36a221.3,221.3,0,0,1,3.9,23.5c1,10.2,2.6,20.7,4.1,30.8.8,5.3,1.6,10.6,2.3,15.8,2.3,17.4.7,35.3-1,52.5l-.6,7c-.3,3.8-.9,8.2-1.6,13-4.2,30.7-6,56.3,14,59.6,17.7,2.9,32.4-2.1,45.4-15.3,7.3-7.5,18.8-17.4,34.3-17.4a43.6,43.6,0,0,1,12.2,1.9c6.9,2.1,14.2,4.1,20.8,4.1s11.9-2,15.8-6.2a88.6,88.6,0,0,0,8.5-11.6c4.4-6.9,8.9-14.1,17.4-19.1,1.8-1.1,3.7-2.1,5.5-3,10.4-5.6,15.8-9,14.3-20-1.7-12.8-10.2-26.9-26-43.1-23.1-23.7-49.7-44.2-74.7-57.7l-4.9-2.7c-17.3-9.3-35.2-19-52.9-26.7-6.3-2.7-19-9.8-28.4-14.9l-10.3-5.6Zm-1.3,204.7c-3.8.2-7.7.3-11.6.3-123,0-223.1-100.1-223.1-223.1S133,20.4,256,20.4,479.1,120.5,479.1,243.5a220.9,220.9,0,0,1-32.4,115.6l2.9,2.9A167.6,167.6,0,0,1,461,374.7a241.8,241.8,0,0,0,38.5-131.3C499.5,109.2,390.3,0,256,0S12.5,109.2,12.5,243.5,121.7,487,256,487c4.4,0,8.8-.1,13.2-.4A83.2,83.2,0,0,1,267.6,466.3ZM272.1,359c-.7-5.2-1.5-10.4-2.3-15.7l-.3-2.2-11.9,19.8-20.1-31.5a9.1,9.1,0,0,0-7.6-4.2,9.2,9.2,0,0,0-7.7,4l-22,32.1-18.9-31.6a9.1,9.1,0,0,0-15.2-.6l-23.5,32.3-17.3-31.3a9.1,9.1,0,0,0-16,8.8l24.3,43.9a9.2,9.2,0,0,0,7.5,4.7h.5a9.1,9.1,0,0,0,7.4-3.8L172.8,351l19.1,32a9.1,9.1,0,0,0,7.6,4.5,8.9,8.9,0,0,0,7.8-4L229.6,351l20.6,32.3a9.2,9.2,0,0,0,7.9,4.2,8.8,8.8,0,0,0,7.7-4.5l7.3-12.2C272.9,366.7,272.6,362.8,272.1,359Zm45.1-16.7c27.7,52.6,26.1,73.4,24.2,108.5a38.9,38.9,0,0,1,24.2-8.8C364.7,423,353.3,381.9,317.2,342.3Zm102.3,42.5c-15.5-41.9-56.3-65.7-93.8-84.4-64-32,61,18.6,78.3,123.7,15.6-22.2,25.8-11.4,15.5-39.3C415.4,373.7,421.9,391.4,419.5,384.8Z" transform="translate(-12.5)" fill="currentColor"/>
</svg>
