<svg id="Camada_1" data-name="Camada 1" xmlns="http://www.w3.org/2000/svg" viewBox="0 0 512.8 512.8">
  <path d="M256,512.4C114.6,512.4-.4,397.4-.4,256S114.6-.4,256-.4,512.4,114.6,512.4,256,397.4,512.4,256,512.4Zm0-491.3C126.5,21.1,21.1,126.5,21.1,256S126.5,490.9,256,490.9,490.9,385.5,490.9,256,385.5,21.1,256,21.1ZM373.9,209.6c0,32-13.7,58-30.6,58s-30.6-26-30.6-58,13.7-58,30.6-58S373.9,177.6,373.9,209.6ZM343.3,273c-20.2,0-35.9-27.8-35.9-63.4s15.8-63.4,35.9-63.4,35.9,27.8,35.9,63.4S363.4,273,343.3,273Zm0-116c-11.9,0-25.2,21.6-25.2,52.7s13.3,52.6,25.2,52.6,25.2-21.6,25.2-52.6S355.2,157,343.3,157Zm-144,52.6c0,32-13.7,58-30.6,58s-30.6-26-30.6-58,13.7-58,30.6-58S199.3,177.6,199.3,209.6ZM168.7,273c-20.2,0-35.9-27.8-35.9-63.4s15.8-63.4,35.9-63.4,35.9,27.8,35.9,63.4S188.9,273,168.7,273Zm0-116c-11.9,0-25.2,21.6-25.2,52.7s13.3,52.6,25.2,52.6,25.2-21.6,25.2-52.6S180.6,157,168.7,157Zm80.9,241.4a42.6,42.6,0,0,1-15.5-2.8c-9.3-3.6-15.9-10.1-19.1-19-3.9-10.8-1.7-24,5.7-33.4a25.5,25.5,0,0,1,2.6-3,29,29,0,0,1-2.5-3.6c-6.1-10.3-6.7-23.6-1.4-33.9,4.3-8.4,11.7-14.1,21.3-16.5,11.2-2.8,24.7-.5,33.5,5.7a9.6,9.6,0,0,1,2.3,13.4,9.5,9.5,0,0,1-13.4,2.3c-3.7-2.6-11.4-4.3-17.8-2.7a12.6,12.6,0,0,0-8.8,6.5,16.4,16.4,0,0,0,.9,15.2c1.8,3.1,4.3,4.8,7.3,5.1h2.2a9.6,9.6,0,0,1-2.6,19.1h-.7c-3.1-.1-5.6,1.3-7.8,4.1s-4.4,10.4-2.8,15,3.9,6,7.9,7.6c6.2,2.4,14,1.6,18-.5a9.6,9.6,0,0,1,9,17C262.8,397,256.3,398.4,249.6,398.4Zm0,5.4a49.7,49.7,0,0,1-17.4-3.1c-10.8-4.1-18.5-11.8-22.2-22.2-4.6-12.5-2-27.6,6.5-38.5h0l-.3-.5c-7.1-11.9-7.7-27.2-1.6-39.1,5-9.8,13.6-16.4,24.8-19.2s28-.4,37.8,6.5a14.5,14.5,0,0,1,6.1,9.7,14.8,14.8,0,0,1-2.5,11.2c-4.5,6.5-14.3,8.2-20.9,3.6-2.2-1.6-8.8-3-13.4-1.9s-4.6,2.5-5.3,3.8-1.1,7,.7,10,2.6,2.4,3.2,2.5l2.2.2a14.9,14.9,0,0,1,12.9,16.8,15.2,15.2,0,0,1-14.9,13.1h-2.5c-.4.1-1.4.3-2.8,2.1s-3,7-2,9.8,1.5,3.2,4.8,4.4,11.5.8,13.5-.2a15.3,15.3,0,0,1,20.2,6.3,14.6,14.6,0,0,1,1.1,11.4,15.1,15.1,0,0,1-7.3,8.9C264.7,402.1,257.2,403.8,249.6,403.8Zm1.1-113.3a34.4,34.4,0,0,0-8.6,1c-8.1,2-14.2,6.7-17.8,13.7-4.5,8.7-4,19.9,1.2,28.7a16.1,16.1,0,0,0,2.1,3,5.3,5.3,0,0,1-.4,7.2,15.7,15.7,0,0,0-2.1,2.4c-6.3,8.1-8.3,19.2-4.9,28.3,2.7,7.4,8.2,12.8,16,15.8s21.5,3,29.5-1.1a4.4,4.4,0,0,0,2.1-2.5,4.4,4.4,0,0,0-.3-3.2,4.3,4.3,0,0,0-5.7-1.8c-5.7,3-15.6,3.4-22.4.7s-9.2-5.7-11-10.8-.9-14.4,3.6-20.1,8.6-6.1,11.8-6.1h.9c3.2.2,5-1.5,5.2-3.6a4.3,4.3,0,0,0-3.5-4.8H245a14.6,14.6,0,0,1-11.9-7.7,21.7,21.7,0,0,1-1-20.4c2.4-4.8,6.6-7.9,12.3-9.3,7.4-1.8,16.9-.1,22.2,3.6a4.3,4.3,0,0,0,5.9-1,4.1,4.1,0,0,0,.7-3.2,4.6,4.6,0,0,0-1.7-2.8A38.7,38.7,0,0,0,250.7,290.5Z" transform="translate(0.4 0.4)" fill="currentColor"/>
</svg>
