<?xml version="1.0" encoding="utf-8"?>
<!-- Generator: Adobe Illustrator 24.0.1, SVG Export Plug-In . SVG Version: 6.00 Build 0)  -->
<svg version="1.1" id="Camada_1" focusable="false" xmlns="http://www.w3.org/2000/svg" xmlns:xlink="http://www.w3.org/1999/xlink"
	 x="0px" y="0px" viewBox="0 0 512 512" style="enable-background:new 0 0 512 512;" xml:space="preserve">
<g>
	<g>
		<g>
			<g>
				<path fill="currentColor" d="M256,512.4C114.6,512.4-0.4,397.4-0.4,256C-0.4,114.6,114.6-0.4,256-0.4s256.4,115,256.4,256.4
					C512.4,397.4,397.4,512.4,256,512.4z M256,21.1C126.5,21.1,21.1,126.5,21.1,256S126.5,490.9,256,490.9S490.9,385.5,490.9,256
					S385.5,21.1,256,21.1z"/>
			</g>
		</g>
	</g>
	<g>
		<g>
			<g>
				<path fill="currentColor" d="M373.9,209.6c0,32-13.7,58-30.6,58c-16.9,0-30.6-26-30.6-58c0-32.1,13.7-58,30.6-58
					C360.2,151.6,373.9,177.6,373.9,209.6z"/>
				<path fill="currentColor" d="M343.3,273c-20.2,0-35.9-27.8-35.9-63.4c0-35.6,15.8-63.4,35.9-63.4c20.1,0,35.9,27.8,35.9,63.4
					C379.2,245.2,363.4,273,343.3,273z M343.3,157c-11.9,0-25.2,21.6-25.2,52.7c0,31,13.3,52.6,25.2,52.6
					c11.9,0,25.2-21.6,25.2-52.6C368.5,178.6,355.2,157,343.3,157z"/>
			</g>
		</g>
		<g>
			<g>
				<path fill="currentColor" d="M199.3,209.6c0,32-13.7,58-30.6,58c-16.9,0-30.6-26-30.6-58c0-32.1,13.7-58,30.6-58
					C185.6,151.6,199.3,177.6,199.3,209.6z"/>
				<path fill="currentColor" d="M168.7,273c-20.2,0-35.9-27.8-35.9-63.4c0-35.6,15.8-63.4,35.9-63.4c20.2,0,35.9,27.8,35.9,63.4
					C204.7,245.2,188.9,273,168.7,273z M168.7,157c-11.9,0-25.2,21.6-25.2,52.7c0,31,13.3,52.6,25.2,52.6
					c11.9,0,25.2-21.6,25.2-52.6C193.9,178.6,180.6,157,168.7,157z"/>
			</g>
		</g>
	</g>
	<g>
		<g>
			<path fill="currentColor" d="M249.6,398.4c-5.3,0-10.7-0.9-15.5-2.8c-9.3-3.6-15.9-10.1-19.1-19c-3.9-10.8-1.7-24,5.7-33.4c0.8-1.1,1.7-2.1,2.6-3
				c-0.9-1.1-1.8-2.4-2.5-3.6c-6.1-10.3-6.7-23.6-1.4-33.9c4.3-8.4,11.7-14.1,21.3-16.5c11.2-2.8,24.7-0.5,33.5,5.7
				c4.3,3.1,5.4,9.1,2.3,13.4c-3,4.4-9.1,5.4-13.4,2.3c-3.7-2.6-11.4-4.3-17.8-2.7c-4.2,1-7.1,3.2-8.8,6.5
				c-2.2,4.4-1.9,10.6,0.9,15.2c1.8,3.1,4.3,4.8,7.3,5.1c0.2,0,0.3,0,0.5,0c0,0,0,0,0.1,0c0.4,0,0.8,0.1,1.3,0.1l0.3,0
				c5.1,0.8,8.7,5.6,8,10.8c-0.7,5.2-5.4,8.9-10.6,8.3c-0.1,0-0.1,0-0.2,0c-0.2,0-0.4,0-0.5,0c-3.1-0.1-5.6,1.3-7.8,4.1
				c-3.3,4.2-4.4,10.4-2.8,15c1.3,3.6,3.9,6,7.9,7.6c6.2,2.4,14,1.6,18-0.5c4.7-2.5,10.5-0.7,13,4c2.5,4.7,0.7,10.5-4,13
				C262.8,397,256.3,398.4,249.6,398.4z"/>
			<path fill="currentColor" d="M249.6,403.8c-6.1,0-12.1-1.1-17.4-3.1c-10.8-4.1-18.5-11.8-22.2-22.2c-4.6-12.5-2-27.6,6.5-38.5c0,0,0,0,0-0.1
				c-0.1-0.2-0.2-0.4-0.3-0.5c-7.1-11.9-7.7-27.2-1.6-39.1c5-9.8,13.6-16.4,24.8-19.2c12.6-3.1,28-0.4,37.8,6.5
				c3.3,2.3,5.5,5.8,6.1,9.7c0.7,4-0.2,7.9-2.5,11.2c-4.5,6.5-14.3,8.2-20.9,3.6c-2.2-1.6-8.8-3-13.4-1.9c-3.4,0.9-4.6,2.5-5.3,3.8
				c-1.4,2.7-1.1,7,0.7,10c1.4,2.3,2.6,2.4,3.2,2.5c1,0,1.6,0.1,2.2,0.2c8.5,1.3,14,8.7,12.9,16.8c-1,7.4-7.4,13.1-14.9,13.1
				c-0.2,0-1.4-0.1-1.6-0.1c0.1,0,0.1,0-0.2,0c-0.3,0-0.6,0-0.7-0.1c-0.4,0.1-1.4,0.3-2.8,2.1c-2.2,2.8-3,7-2,9.8
				c0.5,1.5,1.5,3.2,4.8,4.4c4.5,1.8,11.5,0.8,13.5-0.2c7.1-3.7,16.5-0.8,20.2,6.3c1.9,3.5,2.3,7.6,1.1,11.4c-1.2,3.9-3.8,7-7.3,8.9
				C264.7,402.1,257.2,403.8,249.6,403.8z M250.7,290.5c-3,0-5.9,0.3-8.6,1c-8.1,2-14.2,6.7-17.8,13.7c-4.5,8.7-4,19.9,1.2,28.7
				c0.6,1.1,1.3,2.1,2.1,3c1.8,2.2,1.6,5.3-0.4,7.2c-0.8,0.7-1.5,1.6-2.1,2.4c-6.3,8.1-8.3,19.2-4.9,28.3c2.7,7.4,8.2,12.8,16,15.8
				c9.1,3.5,21.5,3,29.5-1.1c1-0.5,1.7-1.4,2.1-2.5c0.3-1.1,0.2-2.2-0.3-3.2c-1.1-2-3.7-2.9-5.7-1.8c-5.7,3-15.6,3.4-22.4,0.7
				c-5.5-2.1-9.2-5.7-11-10.8c-2.3-6.3-0.9-14.4,3.6-20.1c4-5.1,8.6-6.1,11.8-6.1c0.2,0,0.6,0,0.9,0c3.2,0.2,5-1.5,5.2-3.6
				c0.3-2.3-1.3-4.4-3.5-4.8c-0.1,0-1.3-0.1-1.4-0.1c-3.7-0.3-8.5-1.9-11.9-7.7c-3.7-6.1-4.1-14.3-1-20.4c2.4-4.8,6.6-7.9,12.3-9.3
				c7.4-1.8,16.9-0.1,22.2,3.6c1.9,1.4,4.6,0.8,5.9-1c0.7-0.9,0.9-2.1,0.7-3.2c-0.2-1.1-0.8-2.1-1.7-2.8
				C265.9,292.7,258.3,290.5,250.7,290.5z"/>
		</g>
	</g>
</g>
</svg>
