<svg id="Camada_1" data-name="Camada 1" xmlns="http://www.w3.org/2000/svg" viewBox="0 0 512.8 512.8">
  <path d="M256,512.4C114.6,512.4-.4,397.4-.4,256S114.6-.4,256-.4,512.4,114.6,512.4,256,397.4,512.4,256,512.4Zm0-491.3C126.5,21.1,21.1,126.5,21.1,256S126.5,490.9,256,490.9,490.9,385.5,490.9,256,385.5,21.1,256,21.1Zm9.7,331.2c30-8.4,59.4-11.7,85.7-10.6-12.5-19.9-51.5-26.9-92.9-15.4s-71.2,37.6-71.6,61.1C208.8,372.9,235.7,360.6,265.7,352.3Zm-78.9,40.5a4.8,4.8,0,0,1-2.6-.7,5.4,5.4,0,0,1-2.8-4.8c.5-26.3,32.3-54.2,75.6-66.2a151.8,151.8,0,0,1,40.5-5.8c26.6,0,48,8.3,57.6,22.3a5.4,5.4,0,0,1-3.6,9.4h-.4c-26.7-1.1-55.4,2.5-84,10.4s-55.1,19.8-77.3,34.4A4.7,4.7,0,0,1,186.8,392.8Zm110.7-66.7a138.9,138.9,0,0,0-37.6,5.4c-31.4,8.7-56.7,26.6-64.9,44.5a295,295,0,0,1,69.2-28.9,289.9,289.9,0,0,1,74.2-11C329,329.7,314.6,326.1,297.5,326.1Zm63.1-48.3A76.8,76.8,0,1,1,437.4,201,76.9,76.9,0,0,1,360.6,277.8Zm0-142.8a66,66,0,1,0,66,66A66.2,66.2,0,0,0,360.6,135Zm70.2,53.3a71.4,71.4,0,0,0-70.3-58.7,70.3,70.3,0,0,0-24.4,4.3,54.6,54.6,0,1,0,94.7,54.4Zm-47.6,33.3a60,60,0,0,1-51.7-90.5,4.9,4.9,0,0,1,2.8-2.3,75.5,75.5,0,0,1,26.3-4.6,76.5,76.5,0,0,1,75.5,63.1,5.7,5.7,0,0,1-.6,3.6A60.2,60.2,0,0,1,383.2,221.6Zm-43.4-83.3a49.2,49.2,0,0,0,43.3,72.5,49.6,49.6,0,0,0,42-23.5,66,66,0,0,0-64.6-52.4A69,69,0,0,0,339.8,138.3ZM171.5,277.8A76.8,76.8,0,1,1,248.3,201,76.9,76.9,0,0,1,171.5,277.8Zm0-142.8a66,66,0,1,0,66,66A66.1,66.1,0,0,0,171.5,135Zm70.3,53.3a71.4,71.4,0,0,0-70.3-58.7,70.3,70.3,0,0,0-24.4,4.3,54.6,54.6,0,1,0,94.7,54.4Zm-47.7,33.3a60,60,0,0,1-51.7-90.5,4.9,4.9,0,0,1,2.8-2.3,75.5,75.5,0,0,1,26.3-4.6,76.7,76.7,0,0,1,75.6,63.1,5.7,5.7,0,0,1-.6,3.6A60.4,60.4,0,0,1,194.1,221.6Zm-43.4-83.3a48.3,48.3,0,0,0-5.9,23.3A49.2,49.2,0,0,0,236,187.3a66,66,0,0,0-64.6-52.4A69.6,69.6,0,0,0,150.7,138.3Z" transform="translate(0.4 0.4)" fill="currentColor"/>
</svg>
