<?xml version="1.0" encoding="utf-8"?>
<!-- Generator: Adobe Illustrator 24.0.1, SVG Export Plug-In . SVG Version: 6.00 Build 0)  -->
<svg version="1.1" id="Camada_1" focusable="false" xmlns="http://www.w3.org/2000/svg" xmlns:xlink="http://www.w3.org/1999/xlink"
	 x="0px" y="0px" viewBox="0 0 512 512" style="enable-background:new 0 0 512 512;" xml:space="preserve">
<g>
	<g>
		<g>
			<g>
				<path fill="currentColor" d="M256,512.4C114.6,512.4-0.4,397.4-0.4,256C-0.4,114.6,114.6-0.4,256-0.4c141.4,0,256.4,115,256.4,256.4
					C512.4,397.4,397.4,512.4,256,512.4z M256,21.1C126.5,21.1,21.1,126.5,21.1,256S126.5,490.9,256,490.9
					c129.5,0,234.9-105.4,234.9-234.9S385.5,21.1,256,21.1z"/>
			</g>
		</g>
	</g>
	<g>
		<g>
			<path fill="currentColor" d="M265.7,352.3c30-8.4,59.4-11.7,85.7-10.6c-12.5-19.9-51.5-26.9-92.9-15.4c-41.4,11.5-71.2,37.6-71.6,61.1
				C208.8,372.9,235.7,360.6,265.7,352.3z"/>
			<path fill="currentColor" d="M186.8,392.8c-0.9,0-1.8-0.2-2.6-0.7c-1.8-1-2.8-2.8-2.8-4.8c0.5-26.3,32.3-54.2,75.6-66.2c13.7-3.8,27.3-5.8,40.5-5.8
				c26.6,0,48,8.3,57.6,22.3c1.1,1,1.8,2.4,1.8,4c0,3-2.4,5.4-5.4,5.4c0,0-0.1,0-0.2,0c0,0-0.1,0-0.2,0c-26.7-1.1-55.4,2.5-84,10.4
				c-28.4,7.9-55.1,19.8-77.3,34.4C188.9,392.5,187.9,392.8,186.8,392.8z M297.5,326.1c-12.2,0-24.8,1.8-37.6,5.4
				c-31.4,8.7-56.7,26.6-64.9,44.5c20.7-12.1,44.4-22,69.2-28.9c25.1-7,50-10.7,74.2-11C329,329.7,314.6,326.1,297.5,326.1z"/>
		</g>
	</g>
	<g>
		<g>
			<g>
				<g>
					<path fill="currentColor" d="M360.6,277.8c-42.3,0-76.8-34.4-76.8-76.8s34.5-76.8,76.8-76.8c42.3,0,76.8,34.4,76.8,76.8S402.9,277.8,360.6,277.8z
						 M360.6,135c-36.4,0-66.1,29.6-66.1,66c0,36.4,29.6,66,66.1,66c36.4,0,66-29.6,66-66C426.6,164.6,397,135,360.6,135z"/>
				</g>
			</g>
			<g>
				<g>
					<path fill="currentColor" d="M430.8,188.3c-6-33.4-35.2-58.7-70.3-58.7c-8.6,0-16.8,1.5-24.4,4.3c-4.8,8.1-7.6,17.6-7.6,27.7
						c0,30.2,24.4,54.6,54.6,54.6C403.7,216.2,421.5,204.9,430.8,188.3z"/>
					<path fill="currentColor" d="M383.2,221.6c-33.1,0-60-26.9-60-60c0-10.7,2.9-21.3,8.3-30.5c0.6-1.1,1.6-1.9,2.8-2.3c8.4-3.1,17.2-4.6,26.3-4.6
						c37.2,0,69,26.5,75.5,63.1c0.2,1.2,0,2.5-0.6,3.6C424.9,209.8,404.8,221.6,383.2,221.6z M339.8,138.3
						c-3.9,7.2-5.9,15.2-5.9,23.3c0,27.2,22.1,49.2,49.2,49.2c17.1,0,33-9,42-23.5c-6.4-30.5-33.3-52.4-64.6-52.4
						C353.4,135,346.5,136.1,339.8,138.3z"/>
				</g>
			</g>
		</g>
		<g>
			<g>
				<g>
					<path fill="currentColor" d="M171.5,277.8c-42.3,0-76.8-34.4-76.8-76.8s34.4-76.8,76.8-76.8c42.3,0,76.8,34.4,76.8,76.8S213.8,277.8,171.5,277.8z
						 M171.5,135c-36.4,0-66,29.6-66,66c0,36.4,29.6,66,66,66c36.4,0,66-29.6,66-66C237.5,164.6,207.9,135,171.5,135z"/>
				</g>
			</g>
			<g>
				<g>
					<path fill="currentColor" d="M241.8,188.3c-6-33.4-35.2-58.7-70.3-58.7c-8.6,0-16.8,1.5-24.4,4.3c-4.8,8.1-7.6,17.6-7.6,27.7
						c0,30.2,24.4,54.6,54.6,54.6C214.6,216.2,232.4,204.9,241.8,188.3z"/>
					<path fill="currentColor" d="M194.1,221.6c-33.1,0-60-26.9-60-60c0-10.8,2.9-21.3,8.3-30.5c0.6-1.1,1.6-1.9,2.8-2.3c8.4-3.1,17.2-4.6,26.3-4.6
						c37.2,0,69,26.5,75.6,63.1c0.2,1.2,0,2.5-0.6,3.6C235.8,209.8,215.7,221.6,194.1,221.6z M150.7,138.3
						c-3.9,7.1-5.9,15.1-5.9,23.3c0,27.2,22.1,49.2,49.2,49.2c17.1,0,33-9,42-23.5c-6.4-30.5-33.3-52.4-64.6-52.4
						C164.4,135,157.4,136.1,150.7,138.3z"/>
				</g>
			</g>
		</g>
	</g>
</g>
</svg>
