<svg id="Camada_1" data-name="Camada 1" xmlns="http://www.w3.org/2000/svg" viewBox="0 0 512.8 512.8">
  <path d="M256,512.4C114.6,512.4-.4,397.4-.4,256S114.6-.4,256-.4,512.4,114.6,512.4,256,397.4,512.4,256,512.4Zm0-491.3C126.5,21.1,21.1,126.5,21.1,256S126.5,490.9,256,490.9,490.9,385.5,490.9,256,385.5,21.1,256,21.1Zm.2,357.4c31.2,0,60.3,4.7,85.4,12.7-6.7-22.5-42.4-39.7-85.4-39.7s-78.7,17.2-85.4,39.7C195.9,383.2,225,378.5,256.2,378.5Zm85.4,18.1a4.1,4.1,0,0,1-1.6-.3c-50.6-16.3-116.8-16.3-167.5,0a5.4,5.4,0,0,1-6.8-6.7c7.6-25.2,45.6-43.5,90.5-43.5s81.5,17.6,90.1,42.1a5.3,5.3,0,0,1,.9,3,5.4,5.4,0,0,1-5.4,5.4Zm-85.4-23.5a294.5,294.5,0,0,1,74.4,9.3c-12.7-15.1-41.8-25.5-74.4-25.5s-61.7,10.4-74.4,25.5A295,295,0,0,1,256.2,373.1Zm-101.8-185a102.7,102.7,0,0,0-3.3,26.2c0,32,13.7,58,30.6,58s30.6-26,30.6-58a102.1,102.1,0,0,0-3.3-26.2Zm27.3,89.7c-20.1,0-35.9-27.8-35.9-63.4a107,107,0,0,1,3.5-27.6,5.3,5.3,0,0,1,5.2-4H209a5.3,5.3,0,0,1,5.2,4,109.3,109.3,0,0,1,3.5,27.6C217.7,249.9,201.9,277.8,181.7,277.8Zm-23-84.3a101.4,101.4,0,0,0-2.2,20.9c0,31,13.3,52.6,25.2,52.6s25.2-21.6,25.2-52.6a95.6,95.6,0,0,0-2.2-20.9Zm43.5,4.3H100.1a9.6,9.6,0,1,1,0-19.2H202.2a9.6,9.6,0,1,1,0,19.2Zm0,5.4H100.1a15,15,0,1,1,0-30H202.2a15,15,0,0,1,0,30ZM100.1,183.9a4.2,4.2,0,0,0-4.3,4.2,4.3,4.3,0,0,0,4.3,4.3H202.2a4.3,4.3,0,0,0,0-8.5Zm240.1,4.2a102.7,102.7,0,0,0-3.3,26.2c0,32,13.7,58,30.6,58s30.6-26,30.6-58a102.1,102.1,0,0,0-3.3-26.2Zm27.3,89.7c-20.1,0-35.9-27.8-35.9-63.4a107,107,0,0,1,3.5-27.6,5.3,5.3,0,0,1,5.2-4h54.5a5.3,5.3,0,0,1,5.2,4,107,107,0,0,1,3.5,27.6C403.4,249.9,387.6,277.8,367.5,277.8Zm-23-84.3a101.4,101.4,0,0,0-2.2,20.9c0,31,13.3,52.6,25.2,52.6s25.2-21.6,25.2-52.6a95,95,0,0,0-2.2-20.9Zm43.5,4.3H285.9a9.6,9.6,0,1,1,0-19.2H388a9.6,9.6,0,1,1,0,19.2Zm0,5.4H285.9a15,15,0,0,1,0-30H388a15,15,0,0,1,0,30ZM285.9,183.9a4.2,4.2,0,0,0-4.3,4.2,4.3,4.3,0,0,0,4.3,4.3H388a4.3,4.3,0,1,0,0-8.5Z" transform="translate(0.4 0.4)" fill="currentColor"/>
</svg>
