<?xml version="1.0" encoding="utf-8"?>
<!-- Generator: Adobe Illustrator 24.0.1, SVG Export Plug-In . SVG Version: 6.00 Build 0)  -->
<svg version="1.1" id="Camada_1" focusable="false" xmlns="http://www.w3.org/2000/svg" xmlns:xlink="http://www.w3.org/1999/xlink"
	 x="0px" y="0px" viewBox="0 0 512 512" style="enable-background:new 0 0 512 512;" xml:space="preserve">
<g>
	<g>
		<g>
			<g>
				<path fill="currentColor" d="M256,512.4C114.6,512.4-0.4,397.4-0.4,256C-0.4,114.6,114.6-0.4,256-0.4c141.4,0,256.4,115,256.4,256.4
					C512.4,397.4,397.4,512.4,256,512.4z M256,21.1C126.5,21.1,21.1,126.5,21.1,256S126.5,490.9,256,490.9
					c129.5,0,234.9-105.4,234.9-234.9S385.5,21.1,256,21.1z"/>
			</g>
		</g>
	</g>
	<g>
		<g>
			<path fill="currentColor" d="M256.2,378.5c31.2,0,60.3,4.7,85.4,12.7c-6.7-22.5-42.4-39.7-85.4-39.7c-43,0-78.7,17.2-85.4,39.7
				C195.9,383.2,225,378.5,256.2,378.5z"/>
			<path fill="currentColor" d="M341.6,396.6c-0.6,0-1.1-0.1-1.6-0.3c-50.6-16.3-116.8-16.3-167.5,0c-1.9,0.6-4,0.1-5.4-1.3c-1.4-1.4-2-3.5-1.4-5.4
				c7.6-25.2,45.6-43.5,90.5-43.5c44,0,81.5,17.6,90.1,42.1c0.6,0.9,0.9,1.9,0.9,3c0,3-2.4,5.4-5.4,5.4
				C341.7,396.6,341.6,396.6,341.6,396.6z M256.2,373.1c25.8,0,51.3,3.2,74.4,9.3c-12.7-15.1-41.8-25.5-74.4-25.5
				c-32.6,0-61.7,10.4-74.4,25.5C205,376.3,230.4,373.1,256.2,373.1z"/>
		</g>
	</g>
	<g>
		<g>
			<g>
				<path fill="currentColor" d="M154.4,188.1c-2.1,7.9-3.3,16.8-3.3,26.2c0,32,13.7,58,30.6,58c16.9,0,30.6-26,30.6-58c0-9.4-1.2-18.4-3.3-26.2H154.4z"
					/>
				<path fill="currentColor" d="M181.7,277.8c-20.1,0-35.9-27.8-35.9-63.4c0-9.7,1.2-19,3.5-27.6c0.6-2.4,2.7-4,5.2-4H209c2.4,0,4.6,1.6,5.2,4
					c2.3,8.8,3.5,18.1,3.5,27.6C217.7,249.9,201.9,277.8,181.7,277.8z M158.7,193.5c-1.4,6.6-2.2,13.7-2.2,20.9
					c0,31,13.3,52.6,25.2,52.6c11.9,0,25.2-21.6,25.2-52.6c0-7.2-0.7-14.2-2.2-20.9H158.7z"/>
			</g>
		</g>
		<g>
			<g>
				<path fill="currentColor" d="M202.2,197.8H100.1c-5.3,0-9.6-4.3-9.6-9.6c0-5.3,4.3-9.6,9.6-9.6h102.1c5.3,0,9.6,4.3,9.6,9.6
					C211.8,193.5,207.5,197.8,202.2,197.8z"/>
				<path fill="currentColor" d="M202.2,203.2H100.1c-8.3,0-15-6.7-15-15c0-8.3,6.7-15,15-15h102.1c8.3,0,15,6.7,15,15
					C217.2,196.4,210.4,203.2,202.2,203.2z M100.1,183.9c-2.4,0-4.3,1.9-4.3,4.2c0,2.3,1.9,4.3,4.3,4.3h102.1c2.3,0,4.2-1.9,4.2-4.3
					c0-2.3-1.9-4.2-4.2-4.2H100.1z"/>
			</g>
		</g>
	</g>
	<g>
		<g>
			<g>
				<path fill="currentColor" d="M340.2,188.1c-2.1,7.9-3.3,16.8-3.3,26.2c0,32,13.7,58,30.6,58c16.9,0,30.6-26,30.6-58c0-9.4-1.2-18.4-3.3-26.2H340.2z"
					/>
				<path fill="currentColor" d="M367.5,277.8c-20.1,0-35.9-27.8-35.9-63.4c0-9.7,1.2-19,3.5-27.6c0.6-2.4,2.7-4,5.2-4h54.5c2.4,0,4.6,1.6,5.2,4
					c2.3,8.6,3.5,17.9,3.5,27.6C403.4,249.9,387.6,277.8,367.5,277.8z M344.5,193.5c-1.4,6.6-2.2,13.7-2.2,20.9
					c0,31,13.3,52.6,25.2,52.6c11.9,0,25.2-21.6,25.2-52.6c0-7.2-0.7-14.3-2.2-20.9H344.5z"/>
			</g>
		</g>
		<g>
			<g>
				<path fill="currentColor" d="M388,197.8H285.9c-5.3,0-9.6-4.3-9.6-9.6c0-5.3,4.3-9.6,9.6-9.6H388c5.3,0,9.7,4.3,9.7,9.6
					C397.6,193.5,393.3,197.8,388,197.8z"/>
				<path fill="currentColor" d="M388,203.2H285.9c-8.3,0-15-6.7-15-15c0-8.3,6.7-15,15-15H388c8.3,0,15,6.7,15,15C403,196.4,396.2,203.2,388,203.2z
					 M285.9,183.9c-2.4,0-4.3,1.9-4.3,4.2c0,2.3,1.9,4.3,4.3,4.3H388c2.4,0,4.3-1.9,4.3-4.3c0-2.3-1.9-4.2-4.3-4.2H285.9z"/>
			</g>
		</g>
	</g>
</g>
</svg>
