<?xml version="1.0" encoding="utf-8"?>
<!-- Generator: Adobe Illustrator 24.0.1, SVG Export Plug-In . SVG Version: 6.00 Build 0)  -->
<svg version="1.1" id="Camada_1" focusable="false" xmlns="http://www.w3.org/2000/svg" xmlns:xlink="http://www.w3.org/1999/xlink"
	 x="0px" y="0px" viewBox="0 0 512 512" style="enable-background:new 0 0 512 512;" xml:space="preserve">
<g>
	<g>
		<g>
			<g>
				<path fill="currentColor" d="M256,512.4C114.6,512.4-0.4,397.4-0.4,256C-0.4,114.6,114.6-0.4,256-0.4s256.4,115,256.4,256.4
					C512.4,397.4,397.4,512.4,256,512.4z M256,21.1C126.5,21.1,21.1,126.5,21.1,256S126.5,490.9,256,490.9S490.9,385.5,490.9,256
					S385.5,21.1,256,21.1z"/>
			</g>
		</g>
	</g>
	<g>
		<g>
			<path fill="currentColor" d="M218.8,386.6c0,0,0.8,0,2.2,0c1.4,0,3.6,0,6.3,0.1c2.7,0.1,5.9-0.1,9.4-0.1c1.8,0,3.7-0.2,5.7-0.3c2-0.1,4.1,0,6.3-0.4
				c2.2-0.2,4.4-0.4,6.8-0.7c2.3-0.3,4.7-0.7,7.2-1c1.3-0.2,2.6-0.4,3.9-0.5c1.2-0.3,2.4-0.5,3.6-0.8c2.4-0.6,4.8-0.8,7.4-1.6
				c2.5-0.8,5.1-1.3,7.7-2.1c2.6-0.9,5.2-1.7,7.8-2.5c2.6-1,5.1-2.1,7.7-3c2.6-1,5.1-2.3,7.6-3.5c5-2.4,9.9-5.1,14.6-8
				c2.4-1.3,4.6-3,6.8-4.5c1.1-0.8,2.2-1.5,3.3-2.3c1-0.8,2.1-1.6,3.1-2.4c1-0.8,2.1-1.6,3.1-2.4c1-0.8,1.9-1.7,2.9-2.5
				c1.9-1.7,3.9-3.2,5.6-5c1.8-1.7,3.5-3.3,5.2-4.9c1.6-1.7,3.1-3.4,4.6-4.9c1.6-1.5,2.8-3.2,4.1-4.7c1.3-1.5,2.6-3,3.7-4.4
				c2.1-2.9,4.2-5.4,5.7-7.5c1.4-2.2,2.7-3.9,3.5-5.1c0.9-1.2,1.3-1.8,1.3-1.8s-0.1,0.8-0.3,2.2c-0.2,1.4-0.5,3.6-1,6.2
				c-0.5,2.7-1.6,5.8-2.7,9.5c-0.6,1.8-1.4,3.7-2.2,5.7c-0.9,2-1.7,4.1-2.9,6.2c-1.1,2.1-2.3,4.2-3.6,6.5c-1.4,2.2-2.9,4.3-4.5,6.6
				c-0.4,0.6-0.8,1.2-1.2,1.7c-0.4,0.5-0.9,1.1-1.3,1.6c-0.9,1.1-1.8,2.2-2.7,3.3c-1.8,2.3-3.9,4.3-6,6.5c-1.1,1.1-2.1,2.2-3.3,3.2
				c-1.1,1-2.3,2-3.5,3c-1.2,1-2.4,2-3.6,3c-1.2,1-2.6,1.8-3.9,2.8c-5.1,3.8-10.8,6.9-16.5,9.8c-3,1.3-5.9,2.7-8.9,3.8
				c-3,1.1-6.1,2.1-9.1,3.1c-3,0.8-6.1,1.5-9.2,2.2c-3,0.6-6.1,1-9.1,1.4c-0.7,0.1-1.5,0.2-2.2,0.3c-0.7,0.1-1.5,0.1-2.3,0.1
				c-1.5,0.1-3,0.1-4.5,0.2c-1.5,0.1-2.9,0.1-4.4,0.2c-1.3,0-2.6-0.1-3.9-0.2c-1.3-0.1-2.6-0.1-3.9-0.2c-0.6,0-1.2-0.1-1.9-0.1
				l-0.5,0l-0.2,0h-0.1h-0.1c-0.1,0,0.2,0-0.3,0l-1-0.1c-2.6-0.4-5-0.7-7.3-1.1c-1.2-0.2-2.3-0.4-3.4-0.7c-1.1-0.3-2.2-0.5-3.2-0.8
				c-2.1-0.6-4-1-5.9-1.6c-3.7-1.3-6.8-2.4-9.2-3.5c-2.4-1.2-4.3-2.2-5.6-2.8C219.5,386.9,218.8,386.6,218.8,386.6z"/>
			<path fill="currentColor" d="M267.2,404.4C267.2,404.4,267.1,404.4,267.2,404.4c-1.5,0-2.9-0.1-4.3-0.2l-3.8-0.2c0,0-2-0.1-2-0.1
				c-0.1,0-0.3,0-0.4-0.1l0,0c-0.3,0-0.8,0-1.1-0.1l-2.9-0.4c-1.9-0.3-3.7-0.6-5.5-0.9c-1.3-0.2-2.6-0.5-3.9-0.8l-5.1-1.3
				c-1.5-0.4-3-0.8-4.4-1.3l-1.6-0.6c-3.1-1.1-5.9-2.1-8.1-3.1c-1.6-0.8-3-1.5-4.2-2.1l-3.6-1.9c-2.2-1.1-3.3-3.6-2.7-6
				c0.6-2.4,2.7-4.1,5.2-4.1l4,0c1.3,0,2.9,0,4.8,0.1l9.2-0.1c1,0,2.2-0.1,3.4-0.2l2-0.1c0.7-0.1,1.6-0.1,2.5-0.1
				c1.1,0,2.2,0,3.3-0.2l21.1-2.9c0.9-0.2,2.1-0.5,3.2-0.7c1.2-0.2,2.5-0.4,3.8-0.8c1.4-0.4,2.9-0.8,4.3-1.2
				c1.2-0.3,2.3-0.6,3.5-0.9c2.4-0.8,5-1.7,7.7-2.5l3.3-1.3c1.4-0.6,2.8-1.1,4.2-1.6c1.3-0.5,2.8-1.2,4.2-1.9l3-1.4
				c4.8-2.3,9.5-4.9,13.9-7.7c1.8-1,3.4-2.1,4.9-3.2l11.2-8.2c0.3-0.3,0.8-0.6,1.2-1l1.5-1.3c0.5-0.5,1.3-1.2,2.1-1.8
				c1.1-0.9,2.1-1.8,3.1-2.7l9.7-9.8c1.2-1.1,2-2.1,2.8-3.1l2.5-3c0.8-0.9,1.5-1.8,2.2-2.7c0.9-1.3,2-2.7,3-4
				c0.9-1.2,1.8-2.3,2.5-3.3c1-1.5,1.9-2.8,2.7-3.9l2.2-3c1.4-2,4-2.7,6.3-1.9c2.3,0.9,3.7,3.2,3.4,5.6l-0.5,3.7
				c-0.2,1.4-0.5,3.1-0.9,5.2c-0.5,2.4-1.3,5-2.2,8l-0.6,2.1c-0.5,1.4-1,2.7-1.6,4.1l-0.8,2c-1.2,2.9-2.1,4.9-3.2,6.9l-3.5,6.4
				c-1.3,2-2.4,3.7-3.6,5.4l-1.1,1.7c-0.3,0.6-0.8,1.2-1.3,1.9l-4.2,5.1c-1.5,2-3.4,3.9-5.3,5.8l-1,1c-1.6,1.6-2.5,2.5-3.4,3.3
				c-1,0.9-1.8,1.6-2.7,2.4l-4.6,3.9c-0.9,0.8-1.9,1.5-3,2.2l-1.2,0.8c-4.6,3.4-10.2,6.7-17.3,10.2l-3.1,1.4
				c-2.1,0.9-4.2,1.9-6.3,2.7c-3.2,1.1-6.3,2.2-9.4,3.1c-3.4,0.9-6.5,1.6-9.6,2.4c-3.1,0.6-6.1,1-9,1.4l-4.4,0.5
				c0,0-1.1,0.1-1.1,0.1l-9,0.4H267.2z M258,393.2c0.5,0.2,1,0.4,1.5,0.8l0.2-0.8l3.8,0.2c1.3,0.1,2.4,0.2,3.6,0.2l12.6-0.8
				c3.5-0.5,6.2-0.8,8.9-1.4c2.8-0.7,5.8-1.4,8.8-2.2c2.7-0.9,5.7-1.9,8.7-2.9c1.8-0.7,3.7-1.5,5.6-2.4l3-1.3
				c6.3-3.1,11.3-6.1,15.5-9.2l1.5-1c0.7-0.5,1.4-0.9,2.1-1.5l4.7-3.9c0.8-0.7,1.6-1.3,2.4-2c0.8-0.7,1.6-1.5,2.4-2.4l1.7-1.7
				c1.6-1.6,3.2-3.2,4.5-4.9l4.2-5.1c0.1-0.2,0.5-0.7,0.8-1.2l1.2-1.8c1.1-1.6,2.2-3.2,3.3-4.8l3.4-6.1c0.3-0.5,0.5-1,0.8-1.5
				c-0.5,0.5-1,1.1-1.5,1.6l-9.8,9.9c-1,1-2.3,2.2-3.7,3.3l-3.4,2.9c-0.6,0.5-1.2,1.1-1.9,1.6l-6.2,4.7c-1,0.7-1.7,1.2-2.5,1.8
				l-2.8,2c-1.8,1.2-3.6,2.5-5.5,3.6c-4.5,2.8-9.5,5.6-14.9,8.2l-2.9,1.4c-1.7,0.8-3.3,1.6-5,2.3c-1.5,0.5-2.8,1-4.1,1.6
				c-1.3,0.5-2.5,1-3.8,1.5c-2.8,0.9-5.4,1.7-7.9,2.6c-1.5,0.4-2.8,0.8-4.1,1.1c-1.3,0.3-2.5,0.7-3.8,1c-1.7,0.5-3.3,0.8-5,1.1
				c-0.9,0.2-1.8,0.3-2.7,0.6l-8.1,1.4l-14.1,1.7c-0.6,0.1-1.2,0.1-1.8,0.2c0.5,0.1,0.9,0.2,1.4,0.2c1.8,0.3,3.5,0.6,5.4,0.8
				l1.9,0.3c0.4,0,0.8,0,1.1,0.1c0.3,0,0.6,0,0.7,0L258,393.2z"/>
		</g>
	</g>
	<path fill="currentColor" d="M21.9,198.8c1.8,0.9,3,2.7,3,4.8c0.2,7.7,0.9,12.9,0.9,13c4.4,48.2,15.6,74.7,62.4,77l62.5,0c34-1.7,55.9-40.2,65.9-62.9
		c0.8-1.8,2.6-3.1,4.6-3.2c3.6-0.3,6.4-3.4,6.4-7c0-12.5,7.4-22.7,16.4-22.7h19.4c9.1,0,16.4,10.2,16.4,22.7c0,3.5,2.6,6.4,6,6.9
		c1.9,0.3,3.5,1.5,4.3,3.2c10,22.8,31.9,61.4,66.2,63l62.4,0c46.4-2.4,58-29.9,62.2-76.7c0-0.4,0.8-5.3,1-12.6
		c0.1-2.2,1.5-4.2,3.5-5c4.8-1.8,8-6.4,8-11.5v-22.7c0-6.7-5.5-12.2-12.3-12.2c-2.2,0-4.3,0.6-6.3,1.8c-2.2,1.4-5.1,0.9-6.9-1
		c-7.4-8.3-17.9-12.5-31.3-12.5H331.4c-18.4,0-49.8,5.1-52.4,39.3c-0.1,1.7-1,3.2-2.5,4.2c-1.4,0.9-3.2,1.1-4.8,0.6
		c-2.7-1-5.6-1.5-8.4-1.5h-19.4c-3,0-6,0.5-8.8,1.6c-1.6,0.6-3.4,0.4-4.8-0.5c-1.5-0.9-2.4-2.5-2.5-4.2c-2.6-34.4-34-39.5-52.5-39.5
		H70.1c-13.2,0-23.3,3.9-30.8,11.9c-1.7,1.8-4.3,2.2-6.5,1.1c-1.7-0.9-3.6-1.3-5.5-1.3c-6.7,0-12.2,5.5-12.2,12.2v22.7
		C15.1,192.5,17.7,196.7,21.9,198.8z M307.4,170c7.7-10.4,21.2-15.9,38.8-15.9h73.6c12.4,0,22.3,4.2,29.3,12.4
		c15.6,18.2,11,49.7,10.8,51c-2.6,28.6-9,59.6-52.3,61.7c-0.1,0-0.2,0-0.3,0h-43.9c-41-2-58.9-60.5-59.7-63
		C296.4,192,301.6,177.7,307.4,170z M55.5,167.2c7.1-8.2,16.9-12.4,29.3-12.4h73.5c17.6,0,31,5.5,38.8,15.9
		c5.7,7.7,11,21.9,3.7,46.2c-0.7,2.5-18.6,61.1-59.4,63.1c-0.1,0-0.2,0-0.3,0H97.3c-43.6-2.2-50-33.2-52.7-62.1
		C44.5,216.9,39.9,185.3,55.5,167.2z"/>
</g>
</svg>
