<svg id="Camada_1" data-name="Camada 1" xmlns="http://www.w3.org/2000/svg" viewBox="0 0 512.8 512.8">
  <path d="M256,512.4C114.6,512.4-.4,397.4-.4,256S114.6-.4,256-.4,512.4,114.6,512.4,256,397.4,512.4,256,512.4Zm0-491.3C126.5,21.1,21.1,126.5,21.1,256S126.5,490.9,256,490.9,490.9,385.5,490.9,256,385.5,21.1,256,21.1ZM218.8,386.6h8.5c2.7.1,5.9-.1,9.4-.1l5.7-.3a46.4,46.4,0,0,0,6.3-.4l6.8-.7,7.2-1,3.9-.5,3.6-.8c2.4-.6,4.8-.8,7.4-1.6s5.1-1.3,7.7-2.1l7.8-2.5c2.6-1,5.1-2.1,7.7-3s5.1-2.3,7.6-3.5a158.7,158.7,0,0,0,14.6-8,80,80,0,0,0,6.8-4.5l3.3-2.3,3.1-2.4,3.1-2.4,2.9-2.5c1.9-1.7,3.9-3.2,5.6-5l5.2-4.9,4.6-4.9a57.4,57.4,0,0,0,4.1-4.7l3.7-4.4c2.1-2.9,4.2-5.4,5.7-7.5s2.7-3.9,3.5-5.1l1.3-1.8-.3,2.2c-.2,1.4-.5,3.6-1,6.2s-1.6,5.8-2.7,9.5c-.6,1.8-1.4,3.7-2.2,5.7a68.1,68.1,0,0,1-2.9,6.2c-1.1,2.1-2.3,4.2-3.6,6.5s-2.9,4.3-4.5,6.6l-1.2,1.7-1.3,1.6-2.7,3.3c-1.8,2.3-3.9,4.3-6,6.5s-2.1,2.2-3.3,3.2l-3.5,3-3.6,3c-1.2,1-2.6,1.8-3.9,2.8a113.9,113.9,0,0,1-16.5,9.8c-3,1.3-5.9,2.7-8.9,3.8l-9.1,3.1-9.2,2.2c-3,.6-6.1,1-9.1,1.4l-2.2.3h-2.3l-4.5.2-4.4.2-3.9-.2-3.9-.2h-4.1l-7.3-1.1-3.4-.7-3.2-.8-5.9-1.6c-3.7-1.3-6.8-2.4-9.2-3.5l-5.6-2.8A7,7,0,0,0,218.8,386.6Zm48.4,17.8h0l-4.3-.2-3.8-.2h-3.5l-2.9-.4-5.5-.9-3.9-.8-5.1-1.3-4.4-1.3-1.6-.6c-3.1-1.1-5.9-2.1-8.1-3.1l-4.2-2.1-3.6-1.9a5.3,5.3,0,0,1-2.7-6,5.3,5.3,0,0,1,5.2-4.1h18l3.4-.2h4.5a18.3,18.3,0,0,0,3.3-.2l21.1-2.9,3.2-.7a28.7,28.7,0,0,0,3.8-.8l4.3-1.2,3.5-.9,7.7-2.5,3.3-1.3,4.2-1.6,4.2-1.9,3-1.4a133.5,133.5,0,0,0,13.9-7.7,46.1,46.1,0,0,0,4.9-3.2l11.2-8.2,1.2-1L339,344l2.1-1.8,3.1-2.7,9.7-9.8a25.3,25.3,0,0,0,2.8-3.1l2.5-3,2.2-2.7,3-4,2.5-3.3,2.7-3.9,2.2-3a5.5,5.5,0,0,1,6.3-1.9,5.3,5.3,0,0,1,3.4,5.6l-.5,3.7c-.2,1.4-.5,3.1-.9,5.2s-1.3,5-2.2,8l-.6,2.1c-.5,1.4-1,2.7-1.6,4.1l-.8,2a66.5,66.5,0,0,1-3.2,6.9l-3.5,6.4c-1.3,2-2.4,3.7-3.6,5.4l-1.1,1.7a16.2,16.2,0,0,1-1.3,1.9l-4.2,5.1a56.8,56.8,0,0,1-5.3,5.8l-1,1-3.4,3.3-2.7,2.4-4.6,3.9a23.2,23.2,0,0,1-3,2.2l-1.2.8a113,113,0,0,1-17.3,10.2l-3.1,1.4c-2.1.9-4.2,1.9-6.3,2.7s-6.3,2.2-9.4,3.1l-9.6,2.4c-3.1.6-6.1,1-9,1.4l-4.4.5h-1.1l-9,.4h-.4ZM258,393.2a5.5,5.5,0,0,1,1.5.8l.2-.8,3.8.2,3.6.2,12.6-.8c3.5-.5,6.2-.8,8.9-1.4l8.8-2.2,8.7-2.9,5.6-2.4,3-1.3a100.7,100.7,0,0,0,15.5-9.2l1.5-1c.7-.5,1.4-.9,2.1-1.5l4.7-3.9,2.4-2a27.2,27.2,0,0,0,2.4-2.4l1.7-1.7a51.2,51.2,0,0,0,4.5-4.9l4.2-5.1.8-1.2,1.2-1.8,3.3-4.8,3.4-6.1.8-1.5-1.5,1.6-9.8,9.9a42.7,42.7,0,0,1-3.7,3.3l-3.4,2.9-1.9,1.6-6.2,4.7-2.5,1.8-2.8,2c-1.8,1.2-3.6,2.5-5.5,3.6a158.2,158.2,0,0,1-14.9,8.2l-2.9,1.4-5,2.3-4.1,1.6-3.8,1.5-7.9,2.6-4.1,1.1-3.8,1a44.8,44.8,0,0,1-5,1.1,26.1,26.1,0,0,0-2.7.6l-8.1,1.4-14.1,1.7-1.8.2,1.4.2,5.4.8,1.9.3h1.8ZM21.9,198.8a5.3,5.3,0,0,1,3,4.8c.2,7.7.9,12.9.9,13,4.4,48.2,15.6,74.7,62.4,77h62.5c34-1.7,55.9-40.2,65.9-62.9a5.4,5.4,0,0,1,4.6-3.2,7.1,7.1,0,0,0,6.4-7c0-12.5,7.4-22.7,16.4-22.7h19.4c9.1,0,16.4,10.2,16.4,22.7a7,7,0,0,0,6,6.9,5.7,5.7,0,0,1,4.3,3.2c10,22.8,31.9,61.4,66.2,63h62.4c46.4-2.4,58-29.9,62.2-76.7,0-.4.8-5.3,1-12.6a5.7,5.7,0,0,1,3.5-5,12.3,12.3,0,0,0,8-11.5V165.1a12.3,12.3,0,0,0-12.3-12.2,12.1,12.1,0,0,0-6.3,1.8,5.5,5.5,0,0,1-6.9-1c-7.4-8.3-17.9-12.5-31.3-12.5H331.4c-18.4,0-49.8,5.1-52.4,39.3a5.4,5.4,0,0,1-2.5,4.2,5.8,5.8,0,0,1-4.8.6,24.4,24.4,0,0,0-8.4-1.5H243.9a24.1,24.1,0,0,0-8.8,1.6,5.4,5.4,0,0,1-4.8-.5,5.2,5.2,0,0,1-2.5-4.2c-2.6-34.4-34-39.5-52.5-39.5H70.1c-13.2,0-23.3,3.9-30.8,11.9a5.5,5.5,0,0,1-6.5,1.1,11.7,11.7,0,0,0-5.5-1.3,12.2,12.2,0,0,0-12.2,12.2v22.7A12.2,12.2,0,0,0,21.9,198.8ZM307.4,170c7.7-10.4,21.2-15.9,38.8-15.9h73.6c12.4,0,22.3,4.2,29.3,12.4,15.6,18.2,11,49.7,10.8,51-2.6,28.6-9,59.6-52.3,61.7H363.4c-41-2-58.9-60.5-59.7-63C296.4,192,301.6,177.7,307.4,170ZM55.5,167.2c7.1-8.2,16.9-12.4,29.3-12.4h73.5c17.6,0,31,5.5,38.8,15.9,5.7,7.7,11,21.9,3.7,46.2-.7,2.5-18.6,61.1-59.4,63.1H97.3c-43.6-2.2-50-33.2-52.7-62.1C44.5,216.9,39.9,185.3,55.5,167.2Z" transform="translate(0.4 0.4)" fill="currentColor"/>
</svg>
