<svg id="Camada_1" data-name="Camada 1" xmlns="http://www.w3.org/2000/svg" viewBox="0 0 512.8 512.8">
  <path d="M256,512.4C114.6,512.4-.4,397.4-.4,256S114.6-.4,256-.4,512.4,114.6,512.4,256,397.4,512.4,256,512.4Zm0-491.3C126.5,21.1,21.1,126.5,21.1,256S126.5,490.9,256,490.9,490.9,385.5,490.9,256,385.5,21.1,256,21.1Zm0,279.3c-25.1,0-45.4,28.4-45.4,63.4S231,427.2,256,427.2s45.4-28.4,45.4-63.4S281.1,300.4,256,300.4Zm0,116c-12.5,0-24.2-10.6-30.3-27.2,19-12.6,41.5-12.6,60.6,0C280.2,405.8,268.5,416.4,256,416.4Zm39.9-33.6c-24.3-18.1-55.5-18.1-79.8,0a5.4,5.4,0,0,0-1.9,5.9c7.1,23.4,23.5,38.5,41.8,38.5s34.7-15.1,41.8-38.5A5.3,5.3,0,0,0,295.9,382.8ZM256,416.4c-12.5,0-24.2-10.6-30.3-27.2,19-12.6,41.5-12.6,60.6,0C280.2,405.8,268.5,416.4,256,416.4ZM373.9,202c0,32-13.7,58-30.6,58s-30.6-26-30.6-58,13.7-58,30.6-58S373.9,170,373.9,202Zm-30.6,63.4c-20.2,0-35.9-27.8-35.9-63.4s15.8-63.4,35.9-63.4,35.9,27.8,35.9,63.4S363.4,265.4,343.3,265.4Zm0-116c-11.9,0-25.2,21.6-25.2,52.7s13.3,52.6,25.2,52.6,25.2-21.6,25.2-52.6S355.2,149.4,343.3,149.4ZM199.3,202c0,32-13.7,58-30.6,58s-30.6-26-30.6-58,13.7-58,30.6-58S199.3,170,199.3,202Zm-30.6,63.4c-20.2,0-35.9-27.8-35.9-63.4s15.8-63.4,35.9-63.4,35.9,27.8,35.9,63.4S188.9,265.4,168.7,265.4Zm0-116c-11.9,0-25.2,21.6-25.2,52.7s13.3,52.6,25.2,52.6,25.2-21.6,25.2-52.6S180.6,149.4,168.7,149.4Z" transform="translate(0.4 0.4)" fill="currentColor"/>
</svg>
