<?xml version="1.0" encoding="utf-8"?>
<!-- Generator: Adobe Illustrator 24.0.1, SVG Export Plug-In . SVG Version: 6.00 Build 0)  -->
<svg version="1.1" id="Camada_1" focusable="false" xmlns="http://www.w3.org/2000/svg" xmlns:xlink="http://www.w3.org/1999/xlink"
	 x="0px" y="0px" viewBox="0 0 512 512" style="enable-background:new 0 0 512 512;" xml:space="preserve">
<g>
	<g>
		<g>
			<g>
				<path fill="currentColor" d="M256,512.4C114.6,512.4-0.4,397.4-0.4,256S114.6-0.4,256-0.4s256.4,115,256.4,256.4S397.4,512.4,256,512.4z M256,21.1
					C126.5,21.1,21.1,126.5,21.1,256S126.5,490.9,256,490.9S490.9,385.5,490.9,256S385.5,21.1,256,21.1z"/>
			</g>
		</g>
	</g>
	<g>
		<g>
			<path fill="currentColor" d="M256,300.4c-25.1,0-45.4,28.4-45.4,63.4c0,34.9,20.4,63.4,45.4,63.4s45.4-28.4,45.4-63.4S281.1,300.4,256,300.4z
				 M256,416.4c-12.5,0-24.2-10.6-30.3-27.2c19-12.6,41.5-12.6,60.6,0C280.2,405.8,268.5,416.4,256,416.4z"/>
			<path fill="currentColor" d="M295.9,382.8c-24.3-18.1-55.5-18.1-79.8,0c-1.8,1.4-2.6,3.7-1.9,5.9c7.1,23.4,23.5,38.5,41.8,38.5s34.7-15.1,41.8-38.5
				C298.5,386.5,297.7,384.1,295.9,382.8z M256,416.4c-12.5,0-24.2-10.6-30.3-27.2c19-12.6,41.5-12.6,60.6,0
				C280.2,405.8,268.5,416.4,256,416.4z"/>
		</g>
	</g>
	<g>
		<g>
			<g>
				<path fill="currentColor" d="M373.9,202c0,32-13.7,58-30.6,58s-30.6-26-30.6-58c0-32.1,13.7-58,30.6-58C360.2,144,373.9,170,373.9,202z"/>
				<path fill="currentColor" d="M343.3,265.4c-20.2,0-35.9-27.8-35.9-63.4s15.8-63.4,35.9-63.4c20.2,0,35.9,27.8,35.9,63.4
					C379.2,237.6,363.4,265.4,343.3,265.4z M343.3,149.4c-11.9,0-25.2,21.6-25.2,52.7c0,31,13.3,52.6,25.2,52.6
					c11.9,0,25.2-21.6,25.2-52.6C368.5,171,355.2,149.4,343.3,149.4z"/>
			</g>
		</g>
		<g>
			<g>
				<path fill="currentColor" d="M199.3,202c0,32-13.7,58-30.6,58s-30.6-26-30.6-58c0-32.1,13.7-58,30.6-58S199.3,170,199.3,202z"/>
				<path fill="currentColor" d="M168.7,265.4c-20.2,0-35.9-27.8-35.9-63.4s15.8-63.4,35.9-63.4s35.9,27.8,35.9,63.4
					C204.6,237.6,188.9,265.4,168.7,265.4z M168.7,149.4c-11.9,0-25.2,21.6-25.2,52.7c0,31,13.3,52.6,25.2,52.6s25.2-21.6,25.2-52.6
					C193.9,171,180.6,149.4,168.7,149.4z"/>
			</g>
		</g>
	</g>
</g>
</svg>
