<?xml version="1.0" encoding="utf-8"?>
<!-- Generator: Adobe Illustrator 24.0.1, SVG Export Plug-In . SVG Version: 6.00 Build 0)  -->
<svg version="1.1" id="Camada_1" focusable="false" xmlns="http://www.w3.org/2000/svg" xmlns:xlink="http://www.w3.org/1999/xlink"
	 x="0px" y="0px" viewBox="0 0 512 512" style="enable-background:new 0 0 512 512;" xml:space="preserve">
<g>
	<g>
		<g>
			<g>
				<path fill="currentColor" d="M256,512.4C114.6,512.4-0.4,397.4-0.4,256C-0.4,114.6,114.6-0.4,256-0.4c141.4,0,256.4,115,256.4,256.4
					C512.4,397.4,397.4,512.4,256,512.4z M256,21.1C126.5,21.1,21.1,126.5,21.1,256S126.5,490.9,256,490.9
					c129.5,0,234.9-105.4,234.9-234.9S385.5,21.1,256,21.1z"/>
			</g>
		</g>
	</g>
	<path fill="currentColor" d="M367.1,416.8H144.9c-1.6,0-3-0.7-4.1-1.9c-1-1.2-1.5-2.7-1.2-4.3c7.9-53.6,58-94.1,116.4-94.1
		c58.4,0,108.4,40.5,116.4,94.1c0.2,1.5-0.2,3.1-1.2,4.3C370.1,416.1,368.6,416.8,367.1,416.8z M151.3,406h209.3
		c-10-45.3-53.8-78.8-104.6-78.8C205.1,327.3,161.3,360.7,151.3,406z"/>
	<path fill="currentColor" d="M256,368.7c39.6,0,78.2,12,109.3,33.8c-11.4-46.1-56-80.6-109.3-80.6c-53.4,0-98,34.4-109.3,80.6
		C177.8,380.6,216.4,368.7,256,368.7z"/>
	<g>
		<g>
			<g>
				<g>
					<path fill="currentColor" d="M373.6,217.3c0,32-13.7,58-30.6,58c-16.9,0-30.6-26-30.6-58c0-32,13.7-58,30.6-58C359.9,159.3,373.6,185.3,373.6,217.3
						z"/>
					<path fill="currentColor" d="M343,280.7c-20.2,0-35.9-27.8-35.9-63.4c0-35.6,15.8-63.4,35.9-63.4c20.2,0,36,27.8,36,63.4
						C379,252.9,363.2,280.7,343,280.7z M343,164.7c-11.9,0-25.2,21.6-25.2,52.7c0,31,13.3,52.6,25.2,52.6
						c11.9,0,25.2-21.6,25.2-52.6C368.2,186.3,354.9,164.7,343,164.7z"/>
				</g>
			</g>
			<g>
				<g>
					<path fill="currentColor" d="M306.8,92.8c0,0,1.7,1.1,4.7,3.1c1.5,0.9,3.2,2.1,5.3,3.4c2,1.3,4.3,2.7,6.7,4.2c1.2,0.8,2.5,1.6,3.8,2.4
						c1.4,0.8,2.6,1.7,4.1,2.5c2.8,1.7,5.6,3.5,8.7,5.2c1.5,0.8,3,1.8,4.6,2.7c1.6,0.9,3.2,1.7,4.7,2.7c1.5,1,3.2,1.8,4.8,2.6
						c1.6,0.9,3.2,1.8,4.8,2.7c3.3,1.7,6.6,3.4,9.8,5.2c1.7,0.7,3.3,1.6,4.9,2.4c1.6,0.8,3.2,1.6,4.7,2.5c3.2,1.5,6.3,3,9.2,4.5
						c1.4,0.8,2.9,1.4,4.3,2.1c1.4,0.7,2.7,1.4,4.1,2c2.6,1.3,5,2.7,7.2,3.7c2.2,1.1,4,2,5.6,2.9c1.6,0.9,2.8,1.6,3.6,2.1
						c0.8,0.5,1.3,0.8,1.3,0.8s-0.5,0.1-1.4,0.3c-1,0.1-2.4,0.4-4.2,0.6c-1.8,0.2-4,0.4-6.5,0.5c-2.6,0.2-5.3,0-8.4-0.2
						c-3-0.3-6.4-0.4-9.9-1.1c-3.5-0.7-7.1-1.4-10.9-2.4c-1.9-0.5-3.7-1.2-5.6-1.8c-1.9-0.6-3.8-1.3-5.7-2
						c-3.7-1.6-7.5-3.3-11.2-5.2c-1.8-1-3.6-2.1-5.3-3.1c-1.8-1-3.5-2.2-5.1-3.4c-3.3-2.4-6.6-4.8-9.4-7.4c-3-2.5-5.6-5.3-8-7.9
						c-2.3-2.7-4.4-5.4-6.2-7.9c-0.9-1.3-1.7-2.5-2.5-3.7c-0.8-1.2-1.4-2.4-2-3.5c-1.2-2.2-2.1-4.3-2.8-5.9
						c-0.7-1.7-1.1-3.1-1.4-4.1C306.9,93.3,306.8,92.8,306.8,92.8z"/>
					<path fill="currentColor" d="M399.1,159.3c-1.8,0-3.6-0.1-5.6-0.2l-3-0.2c-2.6-0.2-5.4-0.4-8.3-1c-3.5-0.7-7.3-1.5-11.2-2.4c-2-0.6-3.8-1.2-5.6-1.8
						c-2.3-0.7-4.3-1.4-6.3-2.2c-4-1.7-7.9-3.5-11.7-5.5l-5.6-3.3c-1.9-1.1-3.7-2.3-5.5-3.6c-3.1-2.2-6.7-4.8-9.9-7.9
						c-2.9-2.4-5.6-5.2-8.2-8.2c-2.6-2.9-4.8-5.7-6.7-8.4l-2.6-4c-0.8-1.4-1.5-2.6-2.2-3.8c-1.3-2.4-2.3-4.6-3-6.5
						c-0.8-1.9-1.2-3.4-1.6-4.5c-0.4-1.5-0.5-2.2-0.5-2.2c-0.3-2.1,0.6-4.2,2.4-5.4c1.8-1.1,4-1.2,5.8,0l7,4.5
						c0.9,0.6,1.9,1.2,2.9,1.9l6.8,4.3c0.9,0.6,1.8,1.1,2.7,1.7l1.1,0.7c0.5,0.3,1.2,0.7,1.9,1.2c0.6,0.4,1.2,0.8,1.9,1.1l2.8,1.7
						c1.9,1.2,3.9,2.4,6,3.6c0.8,0.4,1.6,0.9,2.4,1.4c0.7,0.4,1.4,0.8,2.1,1.2c2,1.1,3.5,1.9,5,2.8c1,0.6,1.9,1.1,2.9,1.6l1.7,0.9
						c1.7,0.9,3.3,1.8,4.9,2.7l2.3,1.2c2.5,1.3,5,2.6,7.4,4c1.3,0.5,3,1.4,4.7,2.3c2.3,1.2,3.6,1.9,4.9,2.6c2.9,1.3,6,2.9,9,4.4
						c1,0.6,1.8,0.9,2.6,1.3l5.6,2.7c1.2,0.6,2.4,1.2,3.4,1.8c1.3,0.7,2.5,1.3,3.6,1.9c2.4,1.2,4.3,2.2,6,3.1
						c1.1,0.6,2.1,1.2,2.9,1.7c0,0,0.9,0.5,0.9,0.6l1.5,0.9c1.7,1.2,2.6,3.2,2.3,5.3c-0.3,2.1-1.8,3.8-3.9,4.3c0,0-0.7,0.2-2,0.4
						l-1.2,0.2c-0.9,0.1-2,0.3-3.3,0.4c-1.8,0.2-4.1,0.4-6.8,0.5C401,159.3,400.1,159.3,399.1,159.3z M319.5,107.3l0.8,1.3
						c1.6,2.2,3.5,4.7,5.8,7.3c2.2,2.3,4.6,5,7.4,7.3c3,2.8,6.2,5.2,9.1,7.2c1.5,1.1,3.1,2.2,4.7,3.1l4.8,2.9
						c3.9,2,7.5,3.7,11.1,5.2c1.6,0.6,3.4,1.2,5.2,1.8c2.1,0.7,3.7,1.3,5.4,1.8c3.5,0.9,7,1.6,10.4,2.3c2.4,0.5,4.8,0.7,7,0.8
						l2.3,0.2c0.5,0,0.9,0.1,1.4,0.1l-6.7-3.3c-1.1-0.5-2.2-1-3.3-1.7c-2.6-1.4-5.6-2.9-8.7-4.3c-1.6-0.9-2.8-1.5-4-2.1
						c0,0-1-0.5-1-0.5c-1.5-0.8-3.1-1.6-4.6-2.3c-2.8-1.6-5.1-2.8-7.5-4l-2.6-1.3c-1.8-1-3.3-1.9-4.9-2.7l-1.5-0.8
						c-1.2-0.6-2.5-1.3-3.6-2c-1.2-0.8-2.6-1.5-4-2.3c-1.3-0.7-2.2-1.2-3.1-1.8c-0.6-0.4-1.3-0.8-1.9-1.1c-2.3-1.3-4.4-2.6-6.5-3.8
						l-2.5-1.5c-0.7-0.4-1.6-0.9-2.4-1.5l-2.7-1.6c-1-0.6-2-1.2-2.9-1.8L319.5,107.3z"/>
				</g>
			</g>
		</g>
		<g>
			<g>
				<g>
					<path fill="currentColor" d="M138.1,217.3c0,32,13.7,58,30.6,58c16.9,0,30.6-26,30.6-58c0-32-13.7-58-30.6-58C151.8,159.3,138.1,185.3,138.1,217.3z
						"/>
					<path fill="currentColor" d="M168.7,280.7c-20.2,0-35.9-27.8-35.9-63.4c0-35.6,15.8-63.4,35.9-63.4c20.1,0,35.9,27.8,35.9,63.4
						C204.6,252.9,188.8,280.7,168.7,280.7z M168.7,164.7c-11.9,0-25.2,21.6-25.2,52.7c0,31,13.3,52.6,25.2,52.6
						c11.9,0,25.2-21.6,25.2-52.6C193.8,186.3,180.6,164.7,168.7,164.7z"/>
				</g>
			</g>
			<g>
				<g>
					<path fill="currentColor" d="M204.8,92.8c0,0-0.1,0.5-0.4,1.4c-0.3,1-0.7,2.4-1.4,4.1c-0.7,1.7-1.6,3.7-2.8,5.9c-0.6,1.1-1.3,2.3-2,3.5
						c-0.7,1.2-1.6,2.4-2.5,3.7c-1.8,2.5-3.9,5.2-6.3,7.9c-2.4,2.6-5,5.4-8,7.9c-2.9,2.7-6.1,5.1-9.4,7.4c-1.6,1.2-3.4,2.3-5.2,3.4
						c-1.7,1.1-3.5,2.1-5.3,3.1c-3.7,1.9-7.5,3.6-11.2,5.2c-1.9,0.7-3.8,1.4-5.7,2c-1.9,0.6-3.8,1.3-5.6,1.8
						c-3.8,1-7.4,1.7-10.9,2.4c-3.5,0.7-6.8,0.8-9.9,1.1c-3.1,0.2-5.9,0.4-8.4,0.2c-2.5-0.1-4.7-0.3-6.5-0.5
						c-1.8-0.2-3.2-0.5-4.2-0.6c-1-0.1-1.5-0.3-1.5-0.3s0.4-0.3,1.3-0.8c0.9-0.5,2.1-1.3,3.6-2.1c1.6-0.9,3.5-1.9,5.6-2.9
						c2.2-1,4.6-2.4,7.2-3.7c1.3-0.6,2.6-1.3,4.1-2c1.4-0.7,2.9-1.3,4.3-2.1c2.9-1.5,6-3,9.2-4.5c1.6-0.9,3.1-1.7,4.7-2.5
						c1.6-0.8,3.2-1.6,4.9-2.4c3.2-1.8,6.5-3.5,9.7-5.2c1.6-0.9,3.2-1.8,4.9-2.7c1.6-0.9,3.3-1.7,4.8-2.6c1.6-1,3.1-1.8,4.7-2.7
						c1.6-0.8,3-1.9,4.6-2.7c3.1-1.7,5.9-3.5,8.7-5.2c1.4-0.8,2.7-1.7,4-2.5c1.3-0.8,2.6-1.6,3.8-2.4c2.4-1.5,4.7-2.9,6.7-4.2
						c2.1-1.3,3.8-2.5,5.3-3.4C203.1,93.9,204.8,92.8,204.8,92.8z"/>
					<path fill="currentColor" d="M112.6,159.3c-1,0-2,0-2.9-0.1c-2.5-0.1-4.8-0.3-6.7-0.5c-1.2-0.1-2.3-0.3-3.2-0.4c0,0-1.1-0.2-1.2-0.2
						c-1.4-0.2-2.1-0.4-2.1-0.4c-2-0.6-3.5-2.3-3.9-4.3c-0.3-2.1,0.5-4.1,2.3-5.3l2.6-1.6c0.8-0.5,1.7-1,2.7-1.6
						c1.6-0.9,3.6-1.9,5.9-3.1c1.2-0.6,2.4-1.2,3.7-1.9c1.1-0.6,2.3-1.2,3.5-1.8l5.6-2.7c0.8-0.4,1.6-0.7,2.4-1.2
						c3.3-1.7,6.4-3.3,9.7-4.8c1-0.6,2.3-1.3,3.7-2c2.6-1.3,4.3-2.2,6-3c1.9-1.1,4.3-2.3,6.7-3.6l2.7-1.4c1.5-0.9,3.1-1.8,4.8-2.7
						l1.6-0.9c1-0.5,1.9-1,2.9-1.6c1.5-1,3.1-1.8,4.6-2.6c1.2-0.7,1.9-1.1,2.6-1.5c0.8-0.5,1.5-1,2.3-1.4c2.1-1.2,4.2-2.4,6.1-3.7
						l2.4-1.4c0.9-0.5,1.6-0.9,2.3-1.4l1.8-1.1c1.7-1,2.7-1.6,3.6-2.2l6.7-4.3c1.2-0.8,2.3-1.4,3.2-2.1l6.8-4.4c1.8-1.1,4-1.1,5.8,0
						c1.8,1.1,2.7,3.3,2.4,5.3c0,0-0.1,0.8-0.6,2.2c-0.3,0.9-0.7,2.5-1.5,4.4c-0.9,2-1.8,4.3-3.2,6.7c-0.6,1.1-1.3,2.3-2.1,3.6
						c-0.5,0.8-1,1.6-1.6,2.5l-0.9,1.4c-2,2.9-4.2,5.7-6.7,8.5c-2.6,2.8-5.3,5.7-8.5,8.4c-3.1,2.9-6.7,5.5-9.7,7.7
						c-1.7,1.3-3.6,2.5-5.6,3.6c-1.6,1-3.5,2.1-5.3,3.1c-4,2.1-7.9,3.8-11.7,5.5c-2.2,0.9-4.2,1.6-6.1,2.2c-2.2,0.7-4,1.4-5.8,1.9
						c-4,1-7.8,1.8-11.4,2.5c-2.8,0.6-5.6,0.8-8.3,1l-2.2,0.2C116.2,159.2,114.3,159.3,112.6,159.3z M192.2,107.3L191,108
						c-1,0.6-2.1,1.3-3.2,2l-2.2,1.4c-0.9,0.6-1.8,1.2-2.8,1.7l-2.1,1.3c-2.1,1.3-4.3,2.6-6.5,3.9c-0.7,0.4-1.3,0.7-1.9,1.1
						c-0.9,0.6-1.8,1.1-2.7,1.6c-1.7,0.9-3.1,1.7-4.4,2.5c-1.1,0.7-2.3,1.3-3.6,2l-1.5,0.8c-1.6,0.9-3.2,1.8-4.8,2.7l-2.9,1.5
						c-2.3,1.2-4.6,2.4-6.8,3.6c-2.1,1-3.6,1.7-5.1,2.5c-2.1,1.1-3.3,1.7-4.6,2.4c-3.5,1.6-6.5,3.1-9.3,4.6c-0.8,0.5-2,1-3.1,1.6
						l-5.3,2.6c-0.5,0.2-1,0.5-1.4,0.7c0.3,0,0.6,0,0.9,0l2.8-0.2c2.2-0.2,4.6-0.3,7-0.8c3.4-0.7,6.9-1.4,10.6-2.3
						c1.4-0.4,3.1-1,4.8-1.6c2.2-0.7,4.1-1.4,5.9-2.1c3.4-1.5,7.1-3.1,10.6-5c1.6-0.9,3.3-1.9,5-3c1.8-1,3.3-2,4.8-3.1
						c2.8-2,6.1-4.4,8.9-7c2.9-2.5,5.4-5.1,7.6-7.6c2.2-2.5,4.2-5,5.9-7.4L192.2,107.3z"/>
				</g>
			</g>
		</g>
	</g>
</g>
</svg>
