<?xml version="1.0" encoding="utf-8"?>
<!-- Generator: Adobe Illustrator 24.0.1, SVG Export Plug-In . SVG Version: 6.00 Build 0)  -->
<svg version="1.1" id="Camada_1" focusable="false" xmlns="http://www.w3.org/2000/svg" xmlns:xlink="http://www.w3.org/1999/xlink"
	 x="0px" y="0px" viewBox="0 0 512 512" style="enable-background:new 0 0 512 512;" xml:space="preserve">
<g>
	<g>
		<g>
			<g>
				<path fill="currentColor" d="M256,512.4C114.6,512.4-0.4,397.4-0.4,256S114.6-0.4,256-0.4s256.4,115,256.4,256.4S397.4,512.4,256,512.4z M256,21.1
					C126.5,21.1,21.1,126.5,21.1,256S126.5,490.9,256,490.9S490.9,385.5,490.9,256S385.5,21.1,256,21.1z"/>
			</g>
		</g>
	</g>
	<g>
		<g>
			<g>
				<g>
					<path fill="currentColor" d="M413.9,175.6c0,0-1.7-1.1-4.7-3.1c-1.5-0.9-3.3-2.1-5.3-3.4c-2-1.3-4.3-2.7-6.7-4.2c-1.2-0.8-2.5-1.5-3.8-2.3
						s-2.6-1.7-4.1-2.5c-2.8-1.6-5.6-3.5-8.7-5.2c-1.6-0.8-3-1.9-4.6-2.7s-3.2-1.7-4.7-2.7s-3.2-1.8-4.8-2.7
						c-1.6-0.9-3.2-1.8-4.8-2.7c-3.3-1.7-6.6-3.4-9.8-5.2c-1.7-0.8-3.3-1.6-4.9-2.4c-1.6-0.8-3.2-1.6-4.7-2.5
						c-3.2-1.5-6.3-3-9.2-4.5c-1.4-0.8-2.9-1.5-4.3-2.1c-1.4-0.7-2.7-1.4-4-2c-2.6-1.3-5-2.7-7.2-3.7c-2.2-1.1-4-2.1-5.6-2.9
						s-2.8-1.6-3.6-2.1c-0.9-0.5-1.3-0.8-1.3-0.8s0.5-0.1,1.5-0.3c1-0.1,2.4-0.4,4.2-0.6c1.8-0.2,4-0.4,6.5-0.5
						c2.5-0.2,5.3,0,8.4,0.2c3,0.3,6.4,0.4,9.9,1.1s7.1,1.4,10.9,2.4c1.8,0.5,3.7,1.2,5.6,1.8c1.9,0.6,3.8,1.3,5.7,2
						c3.7,1.6,7.5,3.3,11.2,5.2c1.8,1,3.6,2.1,5.4,3.1s3.5,2.2,5.1,3.4c3.4,2.4,6.6,4.8,9.4,7.4c3,2.5,5.6,5.3,8,7.9
						c2.4,2.7,4.4,5.3,6.2,7.9c0.9,1.3,1.7,2.5,2.5,3.7s1.4,2.4,2,3.5c1.2,2.2,2.1,4.3,2.8,5.9c0.7,1.7,1.1,3.1,1.4,4
						C413.8,175,413.9,175.6,413.9,175.6z"/>
					<path fill="currentColor" d="M414.1,180.9c-0.2,0-0.4,0-0.6,0c-0.9-0.1-1.8-0.3-2.6-0.9l-4.7-3.1c-0.7-0.4-1.6-1-2.6-1.6l-2.6-1.7
						c-1.6-1-3.2-2-4.9-3.1l-5.6-3.5c-0.5-0.3-1.1-0.7-1.8-1.1c-0.6-0.4-1.3-0.8-2-1.2l-3.4-2.1c-1.7-1.1-3.5-2.1-5.4-3.2
						c-0.7-0.4-1.5-0.9-2.3-1.4c-0.7-0.4-1.4-0.9-2.1-1.3c-1.7-0.9-3.3-1.8-5-2.8c-1.1-0.7-2.2-1.3-3.3-1.8l-1.4-0.7
						c-1.6-0.9-3.3-1.8-4.9-2.7l-2.3-1.2c-2.5-1.3-5-2.6-7.5-4c-1.4-0.6-3.1-1.5-4.8-2.4c-1.5-0.8-3.2-1.6-4.8-2.5
						c-2.9-1.3-6.1-2.9-9.1-4.4c-1.2-0.7-2.1-1.1-3.1-1.6l-1-0.5l-7.2-3.7c-1.4-0.7-2.7-1.4-3.9-2c-2.4-1.2-4.4-2.2-6-3.1
						c-1.2-0.6-2.2-1.2-3-1.8c-1.9-1.1-2.4-1.5-2.4-1.5c-1.7-1.2-2.5-3.4-2.1-5.5s2-3.7,4.1-4.2c0,0,0.6-0.1,1.8-0.3l1.1,3.1
						l0.4-0.5l-0.4-2.7c0.9-0.2,2.1-0.3,3.4-0.5c1.8-0.2,4.1-0.4,6.7-0.5c2.1-0.2,5-0.1,7.9,0.1l3.3,0.2c2.7,0.2,5.6,0.4,8.5,1
						c3.6,0.7,7.3,1.5,11.2,2.5c1.6,0.5,2.9,0.9,4.3,1.4l1.7,0.5c2,0.7,4,1.4,5.9,2.1c4.1,1.7,8,3.5,11.7,5.5l5.6,3.3
						c1.9,1.1,3.8,2.4,5.6,3.7c3,2.1,6.6,4.7,9.9,7.8c3.1,2.6,5.9,5.6,8.3,8.2c2.6,2.9,4.8,5.7,6.7,8.4l0.9,1.4
						c0.6,0.9,1.2,1.8,1.7,2.7c0.8,1.3,1.5,2.6,2.2,3.8c1.2,2.2,2.2,4.5,3,6.3c0.8,2.1,1.3,3.7,1.6,4.7c0,0.1,0.1,0.2,0.1,0.4
						c0.4,0.8,0.7,1.7,0.7,2.6C419.4,178.5,417,180.9,414.1,180.9z M325.7,119.9l5.4,2.7c2.1,1,3.4,1.6,4.7,2.3
						c2.6,1.4,5.6,2.8,8.7,4.3c1.8,1,3.3,1.7,4.9,2.5c1.7,0.9,3.2,1.6,4.8,2.4c2.7,1.5,5.1,2.7,7.5,4l2.5,1.3c1.7,1,3.3,1.9,4.9,2.7
						l1.3,0.7c1.3,0.7,2.7,1.4,3.9,2.2c1.3,0.8,2.9,1.6,4.4,2.4c0.9,0.5,1.8,1.1,2.8,1.6c0.6,0.4,1.2,0.8,1.9,1.1
						c2,1.1,3.9,2.3,5.7,3.4l3.1,1.9c0.8,0.4,1.7,1,2.6,1.6l2.9,1.8c0.9,0.5,1.8,1.1,2.6,1.6l1.1,0.7l-0.8-1.2
						c-1.6-2.3-3.5-4.8-5.8-7.3c-2.2-2.4-4.6-5-7.4-7.3c-3-2.8-6.2-5.1-9-7.1c-1.6-1.2-3.2-2.2-4.8-3.2l-5.4-3.1
						c-3.3-1.7-6.9-3.4-10.6-4.9c-1.6-0.6-3.4-1.3-5.2-1.8l-1.8-0.6c-1.2-0.4-2.5-0.8-3.7-1.2c-3.4-0.9-7-1.6-10.4-2.3
						c-2.5-0.5-4.9-0.6-7.2-0.8l-3.1-0.2C326,119.9,325.8,119.9,325.7,119.9z"/>
				</g>
			</g>
		</g>
		<g>
			<g>
				<g>
					<path fill="currentColor" d="M98.1,175.6c0,0,0.1-0.5,0.4-1.5c0.3-0.9,0.7-2.3,1.4-4c0.7-1.7,1.6-3.7,2.8-5.9c0.6-1.1,1.3-2.3,2-3.5
						s1.6-2.4,2.4-3.7c1.8-2.5,3.9-5.2,6.2-7.9c2.4-2.6,5-5.4,8-7.9c2.9-2.6,6.1-5,9.4-7.4c1.6-1.2,3.4-2.3,5.1-3.4
						c1.8-1.1,3.6-2.1,5.4-3.1c3.7-1.9,7.5-3.6,11.2-5.2c1.9-0.7,3.8-1.4,5.7-2s3.8-1.3,5.6-1.8c3.7-0.9,7.4-1.7,10.9-2.4
						c3.5-0.7,6.8-0.8,9.9-1.1c3.1-0.2,5.9-0.4,8.4-0.2c2.5,0.1,4.7,0.3,6.5,0.5s3.2,0.5,4.2,0.6s1.5,0.3,1.5,0.3s-0.4,0.3-1.3,0.8
						c-0.8,0.5-2.1,1.3-3.6,2.1c-1.6,0.9-3.5,1.9-5.6,2.9c-2.2,1-4.6,2.4-7.2,3.7c-1.3,0.6-2.6,1.3-4,2s-2.9,1.3-4.3,2.1
						c-2.9,1.5-6,3-9.2,4.5c-1.6,0.9-3.1,1.6-4.8,2.5c-1.6,0.9-3.2,1.6-4.9,2.4c-3.2,1.8-6.5,3.5-9.8,5.2c-1.6,0.9-3.2,1.8-4.8,2.7
						s-3.3,1.7-4.8,2.7c-1.6,0.9-3.1,1.8-4.7,2.7c-1.6,0.8-3,1.8-4.6,2.7c-3,1.7-5.9,3.5-8.7,5.2c-1.4,0.8-2.7,1.7-4,2.5
						s-2.6,1.6-3.8,2.3c-2.4,1.5-4.7,2.9-6.7,4.2c-2.1,1.3-3.8,2.5-5.3,3.4C99.8,174.4,98.1,175.6,98.1,175.6z"/>
					<path fill="currentColor" d="M98.3,180.9c-1,0-2-0.3-2.8-0.8c-1.8-1.1-2.8-3.1-2.6-5.2c0,0,0.1-0.9,0.6-2.4c0.3-0.9,0.8-2.5,1.5-4.4
						c0.9-2.1,1.8-4.3,3.2-6.7c0.6-1.1,1.3-2.4,2.1-3.7c0.5-0.9,1.1-1.8,1.8-2.8l0.7-1.1c2-2.8,4.2-5.7,6.7-8.5
						c2.6-2.8,5.3-5.8,8.5-8.4c3.1-2.8,6.7-5.5,9.8-7.7c1.7-1.3,3.6-2.5,5.5-3.6l5.4-3.1c4-2.1,7.9-3.9,11.8-5.5
						c2.2-0.8,4.2-1.6,6.1-2.2l1.9-0.6c1.3-0.4,2.6-0.9,3.9-1.2c4-1,7.8-1.8,11.3-2.5c3-0.6,5.8-0.8,8.5-1l3.2-0.2
						c2.9-0.2,5.6-0.3,8-0.1c2.5,0.1,4.8,0.3,6.7,0.5c1.2,0.1,2.4,0.3,3.3,0.5c2.3,0.3,2.9,0.5,2.9,0.5c2,0.5,3.6,2.1,4,4.2
						s-0.4,4.2-2.1,5.4c0,0-0.6,0.4-1.6,1c-1.6,1-2.7,1.6-3.9,2.3c-1.6,0.9-3.5,1.9-5.8,3c-1.4,0.6-2.7,1.3-4.1,2.1l-7.1,3.6
						c-1.9,0.9-2.9,1.3-3.9,1.9c-3.2,1.7-6.4,3.2-9.6,4.8c-1.1,0.6-2.6,1.4-4.2,2.2c-2,1.1-3.7,1.9-5.5,2.7
						c-2.1,1.2-4.6,2.5-7.2,3.8l-8.4,4.6c-1.1,0.6-2.2,1.1-3.2,1.8c-1.8,1-3.4,2-5,2.9c-0.8,0.4-1.5,0.8-2.2,1.3
						c-0.8,0.5-1.6,1-2.3,1.4c-1.8,1-3.7,2.1-5.4,3.2l-3.1,1.9c-0.9,0.5-1.6,0.9-2.2,1.3l-2.8,1.8c-0.9,0.5-1.7,1-2.5,1.6L101.1,180
						C100.3,180.6,99.3,180.9,98.3,180.9z M186.3,119.9c-0.1,0-0.2,0-0.4,0l-3.1,0.2c-2.3,0.2-4.8,0.3-7.3,0.8
						c-3.3,0.7-6.9,1.4-10.5,2.3c-1,0.3-2.1,0.7-3.3,1.1l-1.9,0.6c-1.8,0.6-3.6,1.2-5.4,1.9c-3.4,1.5-7,3.1-10.6,5l-5.1,3
						c-1.7,1-3.2,2-4.7,3.1c-2.9,2.1-6.2,4.4-9,7c-3,2.5-5.5,5.2-7.6,7.6c-2.2,2.4-4.1,5-5.8,7.3l-0.7,1l-0.1,0.1l1.2-0.8
						c0.8-0.5,1.8-1.2,2.8-1.8l2.5-1.6c0.9-0.6,1.8-1.2,2.8-1.7l2.8-1.7c1.9-1.1,3.8-2.3,5.8-3.4c0.7-0.4,1.3-0.8,1.9-1.1
						c0.9-0.6,1.8-1.1,2.8-1.6c1.5-0.8,3-1.6,4.5-2.5c1.1-0.7,2.4-1.4,3.8-2.1l8.5-4.6c2.4-1.3,4.9-2.5,7.2-3.9c2-0.9,3.5-1.7,5-2.5
						c2-1,3.4-1.7,4.7-2.4c3.4-1.6,6.4-3.1,9.3-4.6c1.1-0.7,2.4-1.3,3.8-1.9L186.3,119.9z"/>
				</g>
			</g>
		</g>
	</g>
	<g>
		<g>
			<g>
				<path fill="currentColor" d="M215.9,220.3c0,0-0.4-0.3-1.1-0.9c-0.3-0.3-0.8-0.7-1.3-1.1c-0.5-0.4-1.1-0.8-1.8-1.3c-0.6-0.4-1.3-0.9-2.1-1.4
					c-0.4-0.3-0.8-0.5-1.2-0.8c-0.4-0.2-0.9-0.5-1.3-0.7c-0.5-0.2-0.9-0.5-1.4-0.8c-0.5-0.2-1-0.5-1.6-0.7c-1-0.5-2.1-1-3.3-1.4
					c-1.1-0.5-2.4-0.9-3.6-1.3c-1.3-0.3-2.5-0.8-3.9-1.2c-2.7-0.7-5.5-1.3-8.5-1.9c-1.5-0.2-3-0.5-4.5-0.7c-1.6-0.1-3.1-0.4-4.7-0.5
					c-3.1-0.3-6.3-0.4-9.5-0.4h-2.4c-0.9,0-1.9,0-2.5,0.1c-1.4,0.1-2.9,0.1-4.5,0.3c-1.6,0.1-3.1,0.3-4.6,0.5s-3,0.5-4.5,0.7
					c-2.9,0.6-5.8,1.2-8.5,2c-1.4,0.3-2.6,0.8-3.9,1.2c-1.2,0.4-2.5,0.9-3.6,1.3c-1.1,0.5-2.3,0.9-3.3,1.4c-1.1,0.5-2.1,1-3,1.5
					c-0.5,0.3-0.9,0.5-1.4,0.7c-0.4,0.3-0.8,0.5-1.2,0.8c-0.8,0.5-1.6,0.9-2.2,1.4c-0.7,0.5-1.3,0.9-1.8,1.2c-0.5,0.4-0.9,0.8-1.3,1
					c-0.7,0.6-1.1,0.9-1.1,0.9s0-0.5,0.2-1.4c0.1-0.5,0.1-1,0.3-1.7c0.1-0.7,0.4-1.4,0.6-2.3c0.2-0.9,0.6-1.8,1-2.7
					c0.4-1,1-2,1.6-3.1c1.2-2.2,3-4.4,5.1-6.7c1-1.2,2.3-2.2,3.5-3.4c1.3-1,2.6-2.1,4.1-3.1c2.9-2,6.3-3.8,9.8-5.3
					c3.6-1.4,7.4-2.7,11.4-3.4c1.9-0.4,4.1-0.7,6.3-0.9c1.2-0.1,2-0.2,2.9-0.2l1.4-0.1h0.7h0.3h0.4h0.2c4.1,0.1,8.2,0.4,12.1,1.2
					c4,0.7,7.8,1.9,11.4,3.3c3.6,1.4,6.9,3.2,9.9,5.2c1.5,1,2.9,2.1,4.2,3.1c1.2,1.2,2.5,2.2,3.5,3.3c1,1.2,2.1,2.2,2.9,3.4
					c0.8,1.1,1.6,2.2,2.2,3.3c0.3,0.5,0.6,1.1,0.9,1.6c0.3,0.5,0.5,1.1,0.7,1.6c0.4,1,0.8,1.9,1,2.8c0.3,0.9,0.5,1.6,0.6,2.3
					s0.2,1.2,0.2,1.7C215.9,219.8,215.9,220.3,215.9,220.3z"/>
				<path fill="currentColor" d="M216.1,225.6c-0.2,0-0.5,0-0.7-0.1c-0.9-0.1-1.8-0.4-2.6-1c0,0-0.6-0.4-1.5-1.2l-1.8-1.5c-1.3-1-2-1.3-2.6-1.7l-1.1-0.7
					L203,218c-0.1-0.1-1.2-0.5-1.3-0.6c-0.8-0.4-1.8-0.8-2.8-1.2l-3.6-1.3l0,0c-0.1,0-0.8-0.2-1.4-0.4c-0.6-0.2-1.2-0.4-1.8-0.5
					c-2.7-0.8-5.4-1.3-8.2-1.8l-5.9-0.8c-0.8-0.1-1.7-0.2-2.5-0.2c-3-0.3-5.9-0.4-8.7-0.4h-2.9c-1.2,0-1.6,0-1.9,0l-1.8,0.1
					c-0.9,0.1-1.8,0.1-2.8,0.2c-1.3,0.1-2.2,0.2-3.1,0.3l-5.9,0.9c-2.5,0.5-5.2,1-7.7,1.8c-1,0.2-1.6,0.5-2.2,0.7l-2.5,0.8
					c-0.8,0.3-1.5,0.5-2.2,0.8c-1.6,0.7-2.4,1-3,1.3c-1.1,0.5-2,0.9-2.8,1.4l-3.9-4l2.7,4.6l-4-3.9l0,0l2.8,4.6
					c-0.8,0.5-1.3,0.8-1.7,1.1c-0.1,0.1-1,0.7-1.1,0.8l-3,2.3c-1.6,1.3-3.9,1.5-5.7,0.6c-1.9-0.9-3-2.9-3-5c0,0,0-0.7,0.2-2l0.3-1.7
					c0.2-1,0.4-1.7,0.7-2.5c0.3-1.2,0.7-2.2,1.2-3.3c0.6-1.5,1.3-2.8,2-4.1c1.4-2.5,3.3-5.1,5.9-7.8c0.8-0.8,1.7-1.7,2.6-2.6l1.1-1
					c0.1-0.1,0.9-0.7,1-0.8c1.2-1,2.5-2,3.9-2.9c3-2.1,6.6-4,10.7-5.7c4.7-1.8,8.7-3,12.6-3.7c1.9-0.4,4.3-0.7,6.7-0.9
					c1.2-0.2,2.2-0.2,3.3-0.2l1.2-0.1c0.1,0,1.2,0,1.3,0c0.2,0,1,0,1.2,0c4.7,0.1,8.9,0.5,12.6,1.2c4.1,0.7,8.2,2,12.3,3.6
					c4,1.6,7.6,3.5,10.9,5.7c1.6,1,3.1,2.2,4.5,3.4l1.3,1.2c1,0.9,2,1.8,2.9,2.8c1.6,1.7,2.5,2.8,3.3,3.9c0.9,1.2,1.8,2.5,2.5,3.8
					l0.8,1.4c0.5,0.9,0.7,1.4,0.9,2c0.7,1.7,1.2,2.8,1.4,3.9c0.3,0.9,0.5,1.9,0.7,2.7l0.2,1.3c0,0.2,0,0.4,0.1,0.6
					c0.3,0.6,0.4,1.3,0.4,2C221.5,223.2,219.1,225.6,216.1,225.6z M164.6,186.1l0.3,5.4l-1.4,0.1c-0.9,0-1.5,0-2.5,0.2
					c-2.1,0.2-4.1,0.4-5.7,0.8c-3.5,0.6-6.8,1.6-10.7,3.1c-3.2,1.4-6.2,3-8.7,4.7c-1.2,0.8-2.2,1.6-3.2,2.4l-1.5,1.3
					c-0.7,0.6-1.4,1.2-2,1.9c-0.4,0.4-0.7,0.8-1,1.1c0.2-0.1,0.4-0.2,0.6-0.3c1.7-0.7,2.6-1,3.6-1.4l2.7-0.9c1-0.3,1.9-0.6,3-0.9
					c2.5-0.7,5.5-1.4,8.6-2l2-0.3c0.9-0.2,1.9-0.3,2.8-0.4l1.6-0.2c1.1-0.1,2.3-0.3,3.4-0.3c0.9-0.1,2-0.2,3.1-0.2l1.3-0.1
					c0.3-0.1,1.2-0.1,2-0.1l3.2-0.1c4,0.1,7.1,0.1,10.2,0.5c0.8,0,1.8,0.1,2.9,0.3l6.5,0.9c3.3,0.6,6.3,1.2,9.2,2
					c0.7,0.2,1.5,0.4,2.4,0.7l3.5,1.2c0.8,0.3,1.6,0.5,2.3,0.9c0.4,0.2,0.8,0.3,1.3,0.5c-0.1-0.1-0.1-0.1-0.2-0.2l-0.7-0.8
					c-0.6-0.7-1.2-1.2-1.9-1.8l-1.2-1.1c-0.9-0.7-2.1-1.7-3.5-2.6c-2.7-1.8-5.6-3.4-8.9-4.7c-3.4-1.4-6.9-2.4-10.3-3
					c-3.2-0.7-6.8-1-11.3-1.1L164.6,186.1z"/>
			</g>
		</g>
		<g>
			<g>
				<path fill="currentColor" d="M395.6,220.3c0,0-0.4-0.3-1.1-0.9c-0.4-0.3-0.8-0.7-1.3-1.1c-0.5-0.4-1.1-0.8-1.8-1.3c-0.6-0.4-1.3-0.9-2.1-1.4
					c-0.4-0.3-0.8-0.5-1.2-0.8c-0.4-0.2-0.9-0.5-1.4-0.7c-0.4-0.2-0.9-0.5-1.4-0.8c-0.5-0.2-1-0.5-1.5-0.7c-1-0.5-2.1-1-3.3-1.4
					c-1.1-0.5-2.4-0.9-3.6-1.3c-1.3-0.3-2.5-0.8-3.9-1.2c-2.7-0.7-5.5-1.3-8.5-1.9c-1.5-0.2-3-0.5-4.5-0.7c-1.5-0.1-3.1-0.4-4.6-0.5
					c-3.1-0.3-6.3-0.4-9.5-0.4h-2.4c-0.9,0-1.9,0-2.6,0.1c-1.4,0.1-2.9,0.1-4.5,0.3c-1.6,0.1-3.1,0.3-4.6,0.5s-3,0.5-4.5,0.7
					c-2.9,0.6-5.8,1.2-8.4,2c-1.4,0.3-2.6,0.8-3.9,1.2c-1.2,0.4-2.5,0.9-3.6,1.3c-1.2,0.5-2.3,0.9-3.3,1.4c-1.1,0.5-2.1,1-3,1.5
					c-0.5,0.3-0.9,0.5-1.4,0.7c-0.4,0.3-0.8,0.5-1.2,0.8c-0.8,0.5-1.6,0.9-2.2,1.4c-0.7,0.5-1.2,0.9-1.8,1.2c-0.5,0.4-0.9,0.8-1.3,1
					c-0.7,0.6-1.1,0.9-1.1,0.9s0-0.5,0.1-1.4c0.1-0.5,0.2-1,0.3-1.7c0.1-0.7,0.4-1.4,0.6-2.3c0.2-0.9,0.6-1.8,1-2.7
					c0.4-1,1-2,1.6-3.1c1.2-2.2,3-4.4,5.1-6.7c1-1.2,2.3-2.2,3.5-3.4c1.3-1,2.7-2.1,4.1-3.1c3-2,6.3-3.8,9.9-5.3
					c3.6-1.4,7.4-2.7,11.4-3.4c2-0.4,4.1-0.7,6.3-0.9c1.2-0.1,2-0.2,2.9-0.2l1.4-0.1h0.7h0.4h0.5h0.2c4.1,0.1,8.2,0.4,12.2,1.2
					c3.9,0.7,7.8,1.9,11.4,3.3c3.6,1.4,6.9,3.2,9.9,5.2c1.5,1,2.9,2.1,4.2,3.1c1.2,1.2,2.5,2.2,3.5,3.3c1,1.2,2.1,2.2,2.9,3.4
					c0.9,1.1,1.6,2.2,2.2,3.3c0.3,0.5,0.6,1.1,0.9,1.6s0.5,1.1,0.7,1.6c0.4,1,0.8,1.9,1,2.8c0.3,0.9,0.5,1.6,0.6,2.3
					s0.1,1.2,0.2,1.7C395.6,219.8,395.6,220.3,395.6,220.3z"/>
				<path fill="currentColor" d="M395.8,225.6c-0.1,0-0.3,0-0.4,0c-1.1,0-2.3-0.4-3.2-1.2l-3.1-2.5c-1.3-0.9-1.8-1.3-2.5-1.7c-0.1,0-0.9-0.6-0.9-0.6
					l-1.5-0.8l-1.5-0.8c-0.1,0-1.2-0.6-1.3-0.6c-0.8-0.4-1.8-0.8-2.8-1.2c-0.7-0.3-1.3-0.5-1.9-0.7l-1.7-0.6l0,0
					c-0.1,0-0.8-0.2-1.4-0.4s-1.1-0.4-1.7-0.5c-2.7-0.8-5.4-1.3-8.2-1.8l-5.9-0.8c-0.8-0.1-1.7-0.2-2.5-0.2c-3-0.3-5.9-0.4-8.7-0.4
					h-2.9c-1.2,0-1.7,0-2,0l-1.8,0.1c-0.9,0-1.8,0.1-2.8,0.2c-1.3,0.1-2.2,0.2-3.1,0.3l-5.9,0.9c-2.5,0.5-5.2,1-7.6,1.8
					c-1.1,0.3-1.7,0.5-2.3,0.7l-2.5,0.8c-0.8,0.3-1.5,0.5-2.2,0.8c-1.4,0.6-2.3,0.9-3.1,1.3c-1.1,0.5-1.9,0.9-2.7,1.4l-1.1,0.6
					c-0.1,0-1.2,0.8-1.3,0.8c-0.7,0.4-1.2,0.7-1.8,1.1l-4.1,3.1c-1.6,1.2-3.9,1.4-5.7,0.5c-1.8-1-3-2.9-2.9-5c0,0,0-0.6,0.2-1.9
					c0-0.1,0.3-2,0.3-2.2c0.2-0.8,0.4-1.6,0.7-2.6c0.2-0.8,0.6-1.8,1.1-2.9c0.6-1.5,1.3-2.8,2.1-4.2c1.3-2.4,3.3-5,5.7-7.6
					c0.7-0.8,1.6-1.6,2.5-2.5l1.2-1.1c0.1-0.1,0.8-0.6,0.9-0.7c1.3-1,2.6-2.1,4-3c3.1-2.1,6.8-4.1,10.7-5.7c4.5-1.8,8.6-3,12.5-3.7
					c1.9-0.4,4.3-0.7,6.7-0.9c1.2-0.2,2.2-0.2,3.3-0.2l1.2-0.1c0.1,0,1.2,0,1.3,0c0.2,0,0.9,0,1.1,0c4.8,0.1,9,0.5,12.7,1.3
					c4,0.7,8.2,2,12.3,3.6c3.9,1.6,7.6,3.5,10.9,5.7c1.5,1,2.9,2.1,4.2,3.2l1.6,1.4c1,0.9,2,1.8,2.8,2.7l0.8,0.8
					c0.9,1,1.8,2,2.5,3.1c0.9,1.1,1.8,2.5,2.5,3.8l1.6,3.2c0.7,1.6,1.2,2.8,1.5,4c0.3,1,0.5,1.8,0.7,2.6c0,0.1,0.1,1.2,0.2,1.3
					c0,0.3,0.1,0.5,0.1,0.8c0.2,0.6,0.4,1.3,0.4,2C401.2,223.2,398.8,225.6,395.8,225.6z M344.2,186.1l0.3,5.4l-1.4,0.1
					c-0.9,0-1.6,0-2.5,0.2c-2.1,0.2-4,0.4-5.8,0.8c-3.4,0.6-6.8,1.6-10.6,3.1c-3.2,1.3-6.2,2.9-8.8,4.7c-1.2,0.8-2.3,1.7-3.3,2.5
					l-1.5,1.4c-0.6,0.6-1.3,1.1-1.8,1.8c-0.3,0.4-0.7,0.7-1,1.1c0.3-0.1,0.6-0.3,1-0.4c1.3-0.6,2.3-0.9,3.2-1.2l2.7-0.9
					c1-0.3,2-0.7,3.1-0.9c2.4-0.7,5.4-1.4,8.5-2l2.1-0.3c0.9-0.2,1.8-0.3,2.7-0.4l1.6-0.2c1.1-0.1,2.3-0.3,3.4-0.3
					c0.9-0.1,2-0.2,3.1-0.2l1.3-0.1c0.3-0.1,1.2-0.1,2.1-0.1l3.2-0.1c4,0.1,7.1,0.1,10.2,0.5c0.8,0,1.9,0.1,2.9,0.3l6.4,0.9
					c3.3,0.6,6.3,1.2,9.2,2c0.7,0.2,1.5,0.4,2.4,0.7l3.4,1.1c0.8,0.3,1.6,0.6,2.4,0.9c0.4,0.1,0.8,0.3,1.2,0.5
					c0-0.1-0.1-0.1-0.1-0.1L383,206c-0.6-0.6-1.2-1.2-2-1.9l-1.2-1.1c-1-0.8-2.2-1.7-3.5-2.6c-2.7-1.8-5.7-3.4-8.9-4.7
					c-3.4-1.4-6.9-2.4-10.3-3c-3.2-0.7-6.8-1-11.3-1.1L344.2,186.1z"/>
			</g>
		</g>
	</g>
	<g>
		<path fill="currentColor" d="M125.5,339.7c0.4-42.6,66.3-15.2,119.8-28.4c65.4-16.1,140.2-51,129.9,17.1C362.7,412,124.7,417.1,125.5,339.7z"/>
		<path fill="currentColor" d="M236.1,400c-46,0-84.5-11.1-103-29.8c-8.7-8.8-13.1-19.1-13-30.5c0.3-30.5,30.4-30.5,46.6-30.5c5.6,0,11.7,0.2,17.9,0.4
			c6.6,0.2,13.6,0.4,20.6,0.4c15.8,0,28.1-1.2,38.8-3.8c11.1-2.7,22.4-6,33.6-9.2c25.5-7.3,49.7-14.3,68.3-14.3
			c13,0,22.3,3.4,28.2,10.4c6.8,7.9,8.9,19.7,6.4,36.3C373.2,377.8,300.5,400,236.1,400z M166.8,319.9c-26.7,0-35.7,5-35.9,19.9
			c-0.1,8.5,3.2,16.1,9.9,22.8c16.5,16.7,52.1,26.6,95.3,26.6c61.9,0,127.8-21.1,133.9-61.6c2-13.1,0.7-22.4-3.9-27.6
			c-3.8-4.5-10.4-6.6-20.1-6.6c-17.1,0-40.5,6.7-65.3,13.9c-11.3,3.3-22.8,6.6-34,9.3c-11.5,2.8-24.7,4.2-41.3,4.2
			c-7.1,0-14.2-0.2-21-0.5C178.2,320.1,172.3,319.9,166.8,319.9z"/>
	</g>
	<path fill="currentColor" d="M359.4,469.1c-0.9,2.9-0.8,6.5-0.6,10.3c0.2,6.1,0.5,13.1-3.5,19.4c-3.3,5.1-8.4,7.9-14.3,7.9c-8.4,0-17.7-6-21.6-14
		c-4.6-9.3-2.5-23.4-0.3-38.2c3.1-20.4,4.5-35.1-4.2-37.7c-17.3-5.1-35-12.4-35-27.9c0-18.8,12.9-23.5,20.5-26.3
		c1.7-0.6,3.4-1.2,4.8-1.9c3.4-1.7,5.7-4.2,8.5-7.1c3.2-3.3,6.7-7.1,12.2-9.7c4.3-2.1,8.6-3.1,12.8-3.1c18.5,0,29.2,20,30.6,33.5
		C373.3,414.2,369.3,436.7,359.4,469.1z"/>
</g>
</svg>
