<svg xmlns="http://www.w3.org/2000/svg" viewBox="0 0 200 200"><defs><style>.a{fill:#006;}</style></defs><title>3</title><path class="a" d="M100,200A100,100,0,1,1,200,100,100.11,100.11,0,0,1,100,200ZM100,8.38A91.62,91.62,0,1,0,191.62,100,91.72,91.72,0,0,0,100,8.38Z"/><path class="a" d="M156.24,60.28a11.93,11.93,0,0,1-1.4,1.42,15.77,15.77,0,0,1-1.8,1.36,20.86,20.86,0,0,1-2.55,1.45,21.83,21.83,0,0,1-3.28,1.24,19.61,19.61,0,0,1-3.92.73,19.14,19.14,0,0,1-4.4-.07,19.56,19.56,0,0,1-4.51-1.11,18.45,18.45,0,0,1-4.13-2.23c-.31-.23-.64-.43-.92-.68l-.85-.76A16.23,16.23,0,0,1,127,60.05a18.85,18.85,0,0,1-2.31-3.36,16.87,16.87,0,0,1-.79-1.68c-.21-.55-.46-1.07-.6-1.59s-.3-1-.42-1.5a12.06,12.06,0,0,1-.25-1.37,13.38,13.38,0,0,1-.23-2.24c0-.63,0-1.13,0-1.46l0-.51.38.37c.22.24.59.59,1,1s.9,1,1.45,1.57,1.16,1.24,1.82,1.92a14.4,14.4,0,0,0,1,1,12.18,12.18,0,0,0,1.11,1c.74.68,1.56,1.34,2.4,2a22.59,22.59,0,0,0,2.66,1.7,22,22,0,0,0,2.86,1.35,26.62,26.62,0,0,0,3.07.95c.26.07.52.13.8.18l.79.18c.55.08,1.07.18,1.61.25,1.06.16,2.14.24,3.18.32s2.06.11,3,.12c1.91,0,3.58,0,4.78,0Z"/><path class="a" d="M141.4,68.67a21.7,21.7,0,0,1-2.77-.18,21.25,21.25,0,0,1-4.95-1.22A20.48,20.48,0,0,1,129,64.74a10.19,10.19,0,0,1-1-.78l-.86-.77a14.8,14.8,0,0,1-1.47-1.49,22,22,0,0,1-2.83-4,18.59,18.59,0,0,1-.88-1.87l-.2-.48a11.42,11.42,0,0,1-.49-1.38l-.42-1.52a13.09,13.09,0,0,1-.28-1.47,17.87,17.87,0,0,1-.27-2.69c0-.38,0-.79,0-1.13l0-1a2.1,2.1,0,0,1,3.5-1.36l.46.45-.81,1.2.18,0,.92-.91c.23.23.49.5.77.82s.53.59.83.91l.58.61c.4.46.8.87,1.22,1.31l.57.59a10.35,10.35,0,0,0,.82.81l.46.44a7,7,0,0,0,.63.58,29.32,29.32,0,0,0,2.38,1.95,20.58,20.58,0,0,0,2.38,1.53,17.54,17.54,0,0,0,2.46,1.17,21.32,21.32,0,0,0,2.93.92c.32.09.52.13.72.17l.49.11,1.8.3c1.07.16,2.1.23,3.08.31s2,.1,2.89.12l2.27,0,4.39,0a1.81,1.81,0,0,1,1.89,1.17,2.1,2.1,0,0,1-.22,2.22,13.84,13.84,0,0,1-1.66,1.69,18,18,0,0,1-2.06,1.55,21.32,21.32,0,0,1-2.78,1.58,24.08,24.08,0,0,1-3.6,1.36,22.54,22.54,0,0,1-4.35.81A16.75,16.75,0,0,1,141.4,68.67ZM125.09,52.25l.17.59a5.48,5.48,0,0,0,.33.88l.2.52a12.84,12.84,0,0,0,.68,1.42,17.21,17.21,0,0,0,2.06,3A13.48,13.48,0,0,0,129.82,60l.9.8c.12.11.29.22.45.34a17.28,17.28,0,0,0,4,2.2,17.91,17.91,0,0,0,7.9,1,18.88,18.88,0,0,0,3.57-.67,20.66,20.66,0,0,0,2.94-1.11l.46-.23h-.57c-1,0-2-.06-3.09-.13s-2.24-.17-3.36-.34c-.28,0-.62-.09-1-.14l-.64-.1-.56-.12c-.64-.13-1-.2-1.3-.29a25.38,25.38,0,0,1-2.93-.89l-.61-.24a22.06,22.06,0,0,1-2.9-1.39,24.17,24.17,0,0,1-2.8-1.79c-.92-.7-1.8-1.4-2.59-2.13a8.63,8.63,0,0,1-.89-.82l1.07-1.87-1.42,1.53a14.75,14.75,0,0,1-1-1Z"/><path class="a" d="M42.77,60.58l1.88.46c1.17.28,2.79.68,4.66,1.08.93.2,1.93.38,2.95.57s2.1.33,3.18.42c.54.06,1.08.08,1.62.13l.82,0a7.12,7.12,0,0,0,.8,0A26.52,26.52,0,0,0,61.9,63,22.94,22.94,0,0,0,65,62.38a24.31,24.31,0,0,0,3-1c1-.42,1.9-.87,2.79-1.37.47-.22.88-.51,1.31-.75a13.64,13.64,0,0,0,1.24-.76c.79-.52,1.56-1,2.21-1.44s1.29-.84,1.77-1.2.92-.6,1.2-.79.45-.27.45-.27,0,.18-.09.51-.16.83-.32,1.43a15.31,15.31,0,0,1-.74,2.14c-.16.4-.34.83-.56,1.26s-.48.88-.75,1.37a15.28,15.28,0,0,1-1,1.42,16.2,16.2,0,0,1-1.15,1.45,18.65,18.65,0,0,1-3,2.74,15.14,15.14,0,0,1-1.86,1.19l-1,.54c-.34.18-.7.3-1.06.46a19.19,19.19,0,0,1-4.53,1.23,20.69,20.69,0,0,1-4.65,0,20,20,0,0,1-4.29-1A22.32,22.32,0,0,1,50.31,68a23.38,23.38,0,0,1-2.91-2,20.33,20.33,0,0,1-2.15-2A14.93,14.93,0,0,1,43.8,62.3,12.64,12.64,0,0,1,42.77,60.58Z"/><path class="a" d="M60.19,72.73A17.53,17.53,0,0,1,58,72.6a22,22,0,0,1-4.72-1,23.9,23.9,0,0,1-4-1.75,27,27,0,0,1-3.23-2.17,20.84,20.84,0,0,1-2.38-2.21,18.64,18.64,0,0,1-1.61-1.93,14.63,14.63,0,0,1-1.24-2.05,2.11,2.11,0,0,1,2.4-2.91l2.37.58c1.1.27,2.52.61,4.12,1,.92.2,1.89.38,2.89.56s2,.31,3,.39l2.73.14h.6A21.27,21.27,0,0,0,61.2,61l.49-.05a20.51,20.51,0,0,0,2.68-.58,21.38,21.38,0,0,0,2.8-1c.86-.38,1.73-.79,2.57-1.26a6.08,6.08,0,0,0,.79-.44l.51-.31c.5-.29.79-.45,1.06-.64l.82-.53c.49-.32,1-.61,1.39-.92l.87-.59.87-.59c.4-.28.74-.5,1-.68.66-.43.9-.56.9-.56A2.11,2.11,0,0,1,81,55s0,.23-.11.65c-.14.67-.22,1.09-.35,1.56a18.11,18.11,0,0,1-.81,2.37c-.23.57-.42,1-.65,1.47l-.77,1.41a10.33,10.33,0,0,1-.82,1.26l-.25.34a16.44,16.44,0,0,1-1.32,1.65,20.89,20.89,0,0,1-3.32,3,17.29,17.29,0,0,1-2.15,1.37l-.95.52c-.29.15-.57.27-.87.39a21.69,21.69,0,0,1-5.37,1.52A24.19,24.19,0,0,1,60.19,72.73ZM48.32,64.05l.39.32a20.55,20.55,0,0,0,2.64,1.78,18.87,18.87,0,0,0,3.25,1.43,17.21,17.21,0,0,0,3.88.86,18.34,18.34,0,0,0,4.19,0,16.86,16.86,0,0,0,3.91-1.06l.47-.2a3.19,3.19,0,0,0,.46-.2l1-.54a10.12,10.12,0,0,0,1.33-.85,17.05,17.05,0,0,0,3-2.62,15.41,15.41,0,0,0,1-1.28l.27-.38a7.27,7.27,0,0,0,.53-.79l.32-.58-.49.31c-.31.22-.72.46-1.15.71l-.58.34a9.71,9.71,0,0,1-1.1.61,31,31,0,0,1-2.82,1.38,26.56,26.56,0,0,1-3.27,1.15,23.52,23.52,0,0,1-3.1.67l-.79.1a26.6,26.6,0,0,1-2.69.18h-.6l-3.13-.16c-1.05-.09-2.14-.25-3.2-.42s-2.2-.4-3.16-.61C48.68,64.13,48.5,64.09,48.32,64.05Z"/><path class="a" d="M134.9,105.87a90,90,0,0,1,9.61.52A39.56,39.56,0,0,0,146,95.53C146,83,140.63,72.9,134.05,72.9S122.12,83,122.12,95.53a39.56,39.56,0,0,0,1.52,11A89.35,89.35,0,0,1,134.9,105.87Z"/><path class="a" d="M123.65,108.68a2.1,2.1,0,0,1-2-1.5A41.78,41.78,0,0,1,120,95.53c0-13.86,6.16-24.72,14-24.72s14,10.86,14,24.72A41.67,41.67,0,0,1,146.52,107a2,2,0,0,1-2.24,1.5,87.9,87.9,0,0,0-20.38.19ZM134.05,75c-4.65,0-9.83,8.43-9.83,20.53a38.36,38.36,0,0,0,1,8.76,92.1,92.1,0,0,1,17.73-.16,38.62,38.62,0,0,0,.94-8.6C143.87,83.42,138.7,75,134.05,75Z"/><path class="a" d="M66.82,105.87a89.81,89.81,0,0,1,9.6.52,39.56,39.56,0,0,0,1.46-10.86C77.88,83,72.55,72.9,66,72.9S54,83,54,95.53a39.57,39.57,0,0,0,1.51,11A89.39,89.39,0,0,1,66.82,105.87Z"/><path class="a" d="M55.55,108.68a2.1,2.1,0,0,1-2-1.5,41.57,41.57,0,0,1-1.6-11.65c0-13.86,6.16-24.72,14-24.72S80,81.67,80,95.53A41.67,41.67,0,0,1,78.42,107a2,2,0,0,1-2.24,1.5,87.93,87.93,0,0,0-20.38.19ZM66,75c-4.65,0-9.82,8.43-9.82,20.53a38.74,38.74,0,0,0,1,8.76,92.13,92.13,0,0,1,17.73-.16,38.62,38.62,0,0,0,.94-8.6C75.78,83.42,70.6,75,66,75Z"/><path class="a" d="M136.86,148.51c-2.29-5.46-1.87-10.56,0-16,.83-2.35,1.61-5.24-1.4-6.51-3.84-1.62-5.31,2.72-6.2,5.45a24.62,24.62,0,0,0,0,18.83c.88,2.73,2.37,7.1,6.21,5.47C138.74,154.35,137.62,151,136.86,148.51Z"/><path class="a" d="M63.89,148.51c2.3-5.46,1.87-10.56,0-16-.83-2.35-1.61-5.24,1.4-6.51,3.83-1.62,5.32,2.72,6.2,5.45a24.67,24.67,0,0,1,0,18.83c-.89,2.73-2.37,7.1-6.22,5.47C62,154.35,63.13,151,63.89,148.51Z"/><path class="a" d="M131.92,144.07l-.74-.33c-.47-.24-1.19-.56-2.05-1s-2-.87-3.13-1.42c-.58-.27-1.24-.52-1.92-.79s-1.35-.62-2.13-.85-1.51-.54-2.31-.83l-2.53-.78-1.36-.43-1.31-.3c-.89-.17-1.71-.48-2.68-.61s-1.89-.38-2.86-.53-2-.23-2.93-.38-2-.12-3-.22-2,0-3-.07a57,57,0,0,0-6,.32c-1,.07-2,.24-2.94.38-.48.08-1,.13-1.44.22s-.94.2-1.42.29l-1.39.28c-.47.09-.91.24-1.35.34-.89.25-1.8.42-2.63.72l-2.48.79c-.8.3-1.56.58-2.29.87a21.36,21.36,0,0,0-2.1.86c-.67.29-1.32.55-1.92.83-1.15.59-2.23,1.07-3.07,1.53s-1.52.83-2,1.08l-.74.37.43-.68c.3-.43.72-1.1,1.3-1.91s1.42-1.69,2.37-2.74c.47-.52,1-1,1.62-1.52a22.29,22.29,0,0,1,1.92-1.6c.69-.52,1.43-1,2.2-1.59s1.64-1,2.51-1.48c.22-.13.43-.27.66-.38l.7-.32,1.42-.66a25.32,25.32,0,0,1,3-1.2c.52-.17,1-.37,1.56-.54s1.1-.29,1.65-.43l1.66-.43c.56-.15,1.13-.2,1.71-.3a44,44,0,0,1,7-.61c1.18.05,2.37,0,3.54.15s2.33.28,3.48.43,2.27.48,3.37.74,2.17.64,3.21,1l.79.26c.25.09.52.2.77.31l1.52.65c.49.23,1,.44,1.46.65s.85.47,1.27.7l1.22.69.59.34.15.08.07,0,0,0h0s-.08,0,.11.06l.29.2c.77.53,1.51,1,2.21,1.54a22.73,22.73,0,0,1,1.92,1.56c.6.54,1.17,1,1.66,1.49,1,1,1.84,1.88,2.46,2.65s1,1.42,1.37,1.83Z"/><path class="a" d="M68.2,146.47a2.07,2.07,0,0,1-1.54-.68,2.11,2.11,0,0,1-.25-2.51l.87-1.33c.26-.38.57-.86,1-1.38.59-.79,1.33-1.61,2.18-2.55l.34-.37a15.83,15.83,0,0,1,1.18-1.13l.56-.51a23.12,23.12,0,0,1,2.16-1.78c.58-.44,1.26-.92,2-1.43,1.16-.74,2-1.24,2.91-1.75.33-.2.53-.32.74-.43l2.18-1a25.89,25.89,0,0,1,3-1.18l1.9-.65c.48-.14.9-.25,1.33-.35l2.09-.53c.43-.11.89-.19,1.35-.26l.52-.08a44.71,44.71,0,0,1,7.34-.64l1.27,0c.83,0,1.67,0,2.49.12,1.17.12,2.3.27,3.43.43,1.43.27,2.58.53,3.71.79s2.28.67,3.35,1l4.75,1.95,2.69,1.49-.44,2.17,1-1.83a1.37,1.37,0,0,1,.2.13h0c.09,0,.56.34.64.39l2.26,1.57a17.83,17.83,0,0,1,1.6,1.27l1.06.91a14.82,14.82,0,0,1,1.22,1.13l.33.34c.9.92,1.67,1.73,2.25,2.45.38.48.69.91,1,1.27l.68.93a2.1,2.1,0,0,1-1.36,3.7H132a2.08,2.08,0,0,1-.84-.18l-1.4-.65c-.43-.21-1-.46-1.54-.77-.36-.18-.84-.39-1.35-.61s-1.11-.49-1.7-.77c-.38-.18-.84-.36-1.32-.55l-.49-.19-.88-.37a8.35,8.35,0,0,0-1.06-.42c-.7-.23-1.35-.47-2-.72L114,139.38c-.35-.07-.75-.17-1.17-.28a11.87,11.87,0,0,0-1.33-.3c-.56-.08-1.07-.18-1.6-.29s-.87-.17-1.31-.24c-.9-.1-1.91-.23-2.92-.38l-1.12-.07c-.6,0-1.19-.08-1.78-.14s-1.06,0-1.63,0l-1.24,0a53.71,53.71,0,0,0-5.72.31c-.77,0-1.45.16-2.12.26l-2.12.32c-.32.08-.76.16-1.2.25l-1.22.25c-.53.11-.74.16-.94.22l-1.65.42a12.73,12.73,0,0,0-1.41.4l-4.73,1.63a10.37,10.37,0,0,0-1.4.56l-1.38.6c-.38.16-.76.32-1.11.49s-1,.52-1.54.76-1,.48-1.42.71-1.09.6-1.52.83l-1.26.65A2.73,2.73,0,0,1,68.2,146.47Zm31.66-16.38a39.81,39.81,0,0,0-6.55.57l-.65.11a6.63,6.63,0,0,0-.89.16l-2.15.55c-.37.09-.75.18-1.12.29l-1.49.52a23.68,23.68,0,0,0-2.73,1.07l-2.47,1.19c-1.07.61-1.88,1.08-2.66,1.57s-1.44,1-2.05,1.49l-.52.38c.27-.11.54-.2.81-.29.53-.22,1.25-.49,2-.77l2.74-.88a16.71,16.71,0,0,1,1.76-.49l1.54-.4c.29-.08.59-.16.89-.22L91.4,134c.79-.12,1.58-.24,2.39-.29a59.39,59.39,0,0,1,6.14-.32l1.19,0c.66,0,1.32,0,2,0s1.14.09,1.68.13l1.35.09c1.08.16,2,.28,3,.38.59.09,1.09.19,1.58.29s.9.18,1.36.25a13.36,13.36,0,0,1,1.82.4c.32.08.63.17.95.23l6,1.76c.62.23,1.22.46,1.82.65.23.07.45.15.68.24l-.41-.3-1.9-1.33.57-2.15-.9,1.89a2.4,2.4,0,0,1-.27-.16h0a2,2,0,0,1-.45-.41l-.09.1-6.94-3.26c-1-.34-2-.68-3.07-.95s-2.14-.49-3.26-.71-2.18-.29-3.28-.41c-.71-.06-1.45-.08-2.2-.1Z"/></svg>