<svg data-name="Camada 1" xmlns="http://www.w3.org/2000/svg" viewBox="0 0 512.8 512.8">
  <path d="M256,512.4C114.6,512.4-.4,397.4-.4,256S114.6-.4,256-.4,512.4,114.6,512.4,256,397.4,512.4,256,512.4Zm0-491.3C126.5,21.1,21.1,126.5,21.1,256S126.5,490.9,256,490.9,490.9,385.5,490.9,256,385.5,21.1,256,21.1ZM413.9,175.6l-4.7-3.1-5.3-3.4-6.7-4.2-3.8-2.3c-1.3-.8-2.6-1.7-4.1-2.5s-5.6-3.5-8.7-5.2-3-1.9-4.6-2.7a43.9,43.9,0,0,1-4.7-2.7c-1.5-1-3.2-1.8-4.8-2.7l-4.8-2.7c-3.3-1.7-6.6-3.4-9.8-5.2l-4.9-2.4c-1.6-.8-3.2-1.6-4.7-2.5l-9.2-4.5a42.5,42.5,0,0,0-4.3-2.1l-4-2c-2.6-1.3-5-2.7-7.2-3.7l-5.6-2.9a39.3,39.3,0,0,1-3.6-2.1l-1.3-.8,1.5-.3,4.2-.6,6.5-.5a60.9,60.9,0,0,1,8.4.2,96.5,96.5,0,0,1,9.9,1.1c3.5.7,7.1,1.4,10.9,2.4l5.6,1.8,5.7,2c3.7,1.6,7.5,3.3,11.2,5.2l5.4,3.1a45.2,45.2,0,0,1,5.1,3.4,90.4,90.4,0,0,1,9.4,7.4,85.6,85.6,0,0,1,8,7.9,81.9,81.9,0,0,1,6.2,7.9l2.5,3.7c.8,1.2,1.4,2.4,2,3.5s2.1,4.3,2.8,5.9,1.1,3.1,1.4,4A10.8,10.8,0,0,0,413.9,175.6Zm.2,5.3h-.6a5.1,5.1,0,0,1-2.6-.9l-4.7-3.1-2.6-1.6-2.6-1.7-4.9-3.1-5.6-3.5-1.8-1.1-2-1.2-3.4-2.1-5.4-3.2-2.3-1.4-2.1-1.3-5-2.8a26.8,26.8,0,0,0-3.3-1.8l-1.4-.7-4.9-2.7-2.3-1.2-7.5-4c-1.4-.6-3.1-1.5-4.8-2.4l-4.8-2.5c-2.9-1.3-6.1-2.9-9.1-4.4l-3.1-1.6-1-.5-7.2-3.7-3.9-2-6-3.1a19.8,19.8,0,0,1-3-1.8l-2.4-1.5a5.5,5.5,0,0,1-2.1-5.5,5.4,5.4,0,0,1,4.1-4.2l1.8-.3,1.1,3.1.4-.5-.4-2.7,3.4-.5,6.7-.5a53.1,53.1,0,0,1,7.9.1l3.3.2a65.3,65.3,0,0,1,8.5,1c3.6.7,7.3,1.5,11.2,2.5l4.3,1.4,1.7.5,5.9,2.1a126.2,126.2,0,0,1,11.7,5.5l5.6,3.3c1.9,1.1,3.8,2.4,5.6,3.7a88.2,88.2,0,0,1,9.9,7.8,92.2,92.2,0,0,1,8.3,8.2,91,91,0,0,1,6.7,8.4l.9,1.4c.6.9,1.2,1.8,1.7,2.7l2.2,3.8c1.2,2.2,2.2,4.5,3,6.3s1.3,3.7,1.6,4.7.1.2.1.4a5.9,5.9,0,0,1,.7,2.6A5.7,5.7,0,0,1,414.1,180.9Zm-88.4-61,5.4,2.7,4.7,2.3c2.6,1.4,5.6,2.8,8.7,4.3l4.9,2.5,4.8,2.4,7.5,4,2.5,1.3,4.9,2.7,1.3.7c1.3.7,2.7,1.4,3.9,2.2l4.4,2.4,2.8,1.6a11.8,11.8,0,0,0,1.9,1.1l5.7,3.4,3.1,1.9,2.6,1.6,2.9,1.8,2.6,1.6,1.1.7-.8-1.2a68.3,68.3,0,0,0-5.8-7.3,73.2,73.2,0,0,0-7.4-7.3,86.8,86.8,0,0,0-9-7.1c-1.6-1.2-3.2-2.2-4.8-3.2l-5.4-3.1c-3.3-1.7-6.9-3.4-10.6-4.9-1.6-.6-3.4-1.3-5.2-1.8l-1.8-.6-3.7-1.2c-3.4-.9-7-1.6-10.4-2.3a63.4,63.4,0,0,0-7.2-.8l-3.1-.2A.6.6,0,0,0,325.7,119.9ZM98.1,175.6s.1-.5.4-1.5.7-2.3,1.4-4a59.6,59.6,0,0,1,2.8-5.9l2-3.5c.7-1.2,1.6-2.4,2.4-3.7s3.9-5.2,6.2-7.9a85.6,85.6,0,0,1,8-7.9,118,118,0,0,1,9.4-7.4c1.6-1.2,3.4-2.3,5.1-3.4l5.4-3.1c3.7-1.9,7.5-3.6,11.2-5.2l5.7-2,5.6-1.8,10.9-2.4a93.6,93.6,0,0,1,9.9-1.1,60.9,60.9,0,0,1,8.4-.2l6.5.5,4.2.6a6.1,6.1,0,0,1,1.5.3l-1.3.8-3.6,2.1-5.6,2.9c-2.2,1-4.6,2.4-7.2,3.7l-4,2c-1.4.7-2.9,1.3-4.3,2.1l-9.2,4.5-4.8,2.5c-1.6.9-3.2,1.6-4.9,2.4s-6.5,3.5-9.8,5.2l-4.8,2.7c-1.6.9-3.3,1.7-4.8,2.7l-4.7,2.7c-1.6.8-3,1.8-4.6,2.7l-8.7,5.2-4,2.5L115,165l-6.7,4.2-5.3,3.4C99.8,174.4,98.1,175.6,98.1,175.6Zm.2,5.3a5.4,5.4,0,0,1-2.8-.8,5.5,5.5,0,0,1-2.6-5.2,13,13,0,0,1,.6-2.4c.3-.9.8-2.5,1.5-4.4a57,57,0,0,1,3.2-6.7c.6-1.1,1.3-2.4,2.1-3.7a32.3,32.3,0,0,1,1.8-2.8l.7-1.1a99.5,99.5,0,0,1,6.7-8.5,84.5,84.5,0,0,1,8.5-8.4,109.8,109.8,0,0,1,9.8-7.7,52.1,52.1,0,0,1,5.5-3.6l5.4-3.1c4-2.1,7.9-3.9,11.8-5.5l6.1-2.2,1.9-.6c1.3-.4,2.6-.9,3.9-1.2,4-1,7.8-1.8,11.3-2.5a67.4,67.4,0,0,1,8.5-1l3.2-.2a54.1,54.1,0,0,1,8-.1l6.7.5,3.3.5,2.9.5a5.4,5.4,0,0,1,1.9,9.6l-1.6,1-3.9,2.3-5.8,3a39.8,39.8,0,0,0-4.1,2.1l-7.1,3.6c-1.9.9-2.9,1.3-3.9,1.9l-9.6,4.8-4.2,2.2c-2,1.1-3.7,1.9-5.5,2.7l-7.2,3.8-8.4,4.6a33,33,0,0,0-3.2,1.8l-5,2.9-2.2,1.3-2.3,1.4-5.4,3.2-3.1,1.9-2.2,1.3-2.8,1.8-2.5,1.6L101.1,180A4.7,4.7,0,0,1,98.3,180.9Zm88-61h-.4l-3.1.2a65,65,0,0,0-7.3.8c-3.3.7-6.9,1.4-10.5,2.3l-3.3,1.1-1.9.6-5.4,1.9c-3.4,1.5-7,3.1-10.6,5l-5.1,3a54.6,54.6,0,0,0-4.7,3.1,95.1,95.1,0,0,0-9,7,68,68,0,0,0-7.6,7.6,88,88,0,0,0-5.8,7.3l-.7,1h-.1l1.2-.8,2.8-1.8,2.5-1.6a26.1,26.1,0,0,1,2.8-1.7l2.8-1.7,5.8-3.4,1.9-1.1,2.8-1.6,4.5-2.5,3.8-2.1,8.5-4.6c2.4-1.3,4.9-2.5,7.2-3.9l5-2.5,4.7-2.4,9.3-4.6a26.9,26.9,0,0,1,3.8-1.9Zm29.6,100.4-1.1-.9-1.3-1.1-1.8-1.3-2.1-1.4-1.2-.8-1.3-.7-1.4-.8-1.6-.7a25.2,25.2,0,0,0-3.3-1.4,38.2,38.2,0,0,0-3.6-1.3l-3.9-1.2-8.5-1.9-4.5-.7-4.7-.5c-3.1-.3-6.3-.4-9.5-.4h-4.9l-4.5.3-4.6.5-4.5.7c-2.9.6-5.8,1.2-8.5,2s-2.6.8-3.9,1.2l-3.6,1.3-3.3,1.4-3,1.5-1.4.7-1.2.8a21.1,21.1,0,0,0-2.2,1.4l-1.8,1.2a9.1,9.1,0,0,1-1.3,1l-1.1.9a7.2,7.2,0,0,1,.2-1.4,15.5,15.5,0,0,1,.3-1.7c.1-.7.4-1.4.6-2.3a14.8,14.8,0,0,1,1-2.7A30.7,30.7,0,0,1,120,209a36.1,36.1,0,0,1,5.1-6.7c1-1.2,2.3-2.2,3.5-3.4s2.6-2.1,4.1-3.1a57.2,57.2,0,0,1,9.8-5.3,60.2,60.2,0,0,1,11.4-3.4,56.1,56.1,0,0,1,6.3-.9l2.9-.2h3a68.9,68.9,0,0,1,12.1,1.2,60.1,60.1,0,0,1,11.4,3.3,51.6,51.6,0,0,1,9.9,5.2c1.5,1,2.9,2.1,4.2,3.1s2.5,2.2,3.5,3.3a43.8,43.8,0,0,1,2.9,3.4,31.5,31.5,0,0,1,2.2,3.3l.9,1.6a11.1,11.1,0,0,1,.7,1.6,19,19,0,0,1,1,2.8,13.1,13.1,0,0,1,.6,2.3,12.8,12.8,0,0,1,.2,1.7A10.2,10.2,0,0,1,215.9,220.3Zm.2,5.3h-.7a5.2,5.2,0,0,1-2.6-1l-1.5-1.2-1.8-1.5a25.7,25.7,0,0,0-2.6-1.7l-1.1-.7L203,218l-1.3-.6-2.8-1.2-3.6-1.3h0l-1.4-.4-1.8-.5a74.8,74.8,0,0,0-8.2-1.8l-5.9-.8-2.5-.2a87.1,87.1,0,0,0-8.7-.4h-6.6l-2.8.2-3.1.3-5.9.9a71.4,71.4,0,0,0-7.7,1.8,14.4,14.4,0,0,0-2.2.7l-2.5.8-2.2.8-3,1.3-2.8,1.4-3.9-4,2.7,4.6-4-3.9h0l2.8,4.6-1.7,1.1-1.1.8-3,2.3a5.4,5.4,0,0,1-5.7.6,5.5,5.5,0,0,1-3-5,14.7,14.7,0,0,1,.2-2l.3-1.7a14.9,14.9,0,0,1,.7-2.5,18.5,18.5,0,0,1,1.2-3.3,39.1,39.1,0,0,1,2-4.1,38.1,38.1,0,0,1,5.9-7.8l2.6-2.6,1.1-1,1-.8a39.5,39.5,0,0,1,3.9-2.9,56.3,56.3,0,0,1,10.7-5.7,69.1,69.1,0,0,1,12.6-3.7,57.4,57.4,0,0,1,6.7-.9,18.8,18.8,0,0,1,3.3-.2H167a77,77,0,0,1,12.6,1.2,63.5,63.5,0,0,1,12.3,3.6,59,59,0,0,1,10.9,5.7,37.9,37.9,0,0,1,4.5,3.4l1.3,1.2a45.4,45.4,0,0,1,6.2,6.7,31.1,31.1,0,0,1,2.5,3.8l.8,1.4a10.5,10.5,0,0,1,.9,2,21,21,0,0,1,1.4,3.9c.3.9.5,1.9.7,2.7l.2,1.3a1.3,1.3,0,0,0,.1.6,4.5,4.5,0,0,1,.4,2A5.8,5.8,0,0,1,216.1,225.6Zm-51.5-39.5.3,5.4h-1.4a11,11,0,0,0-2.5.2,41.2,41.2,0,0,0-5.7.8,49.4,49.4,0,0,0-19.4,7.8c-1.2.8-2.2,1.6-3.2,2.4l-1.5,1.3a18,18,0,0,0-2,1.9l-1,1.1.6-.3,3.6-1.4,2.7-.9,3-.9c2.5-.7,5.5-1.4,8.6-2l2-.3,2.8-.4,1.6-.2,3.4-.3,3.1-.2h6.5a100.8,100.8,0,0,1,10.2.5l2.9.3,6.5.9c3.3.6,6.3,1.2,9.2,2l2.4.7,3.5,1.2a15.7,15.7,0,0,1,2.3.9l1.3.5-.2-.2-.7-.8a16.2,16.2,0,0,0-1.9-1.8l-1.2-1.1c-.9-.7-2.1-1.7-3.5-2.6a46.9,46.9,0,0,0-8.9-4.7,50.1,50.1,0,0,0-10.3-3,59.2,59.2,0,0,0-11.3-1.1Zm231,34.2-1.1-.9-1.3-1.1-1.8-1.3-2.1-1.4-1.2-.8-1.4-.7-1.4-.8-1.5-.7a25.2,25.2,0,0,0-3.3-1.4,38.2,38.2,0,0,0-3.6-1.3l-3.9-1.2-8.5-1.9-4.5-.7-4.6-.5c-3.1-.3-6.3-.4-9.5-.4h-5l-4.5.3-4.6.5-4.5.7c-2.9.6-5.8,1.2-8.4,2s-2.6.8-3.9,1.2l-3.6,1.3-3.3,1.4-3,1.5-1.4.7-1.2.8a21.1,21.1,0,0,0-2.2,1.4l-1.8,1.2a9.1,9.1,0,0,1-1.3,1l-1.1.9s0-.5.1-1.4.2-1,.3-1.7.4-1.4.6-2.3a14.8,14.8,0,0,1,1-2.7,30.7,30.7,0,0,1,1.6-3.1,36.1,36.1,0,0,1,5.1-6.7c1-1.2,2.3-2.2,3.5-3.4l4.1-3.1a58.2,58.2,0,0,1,9.9-5.3,61.8,61.8,0,0,1,17.7-4.3l2.9-.2h3.2a71,71,0,0,1,12.2,1.2,62.3,62.3,0,0,1,11.4,3.3,51.6,51.6,0,0,1,9.9,5.2c1.5,1,2.9,2.1,4.2,3.1s2.5,2.2,3.5,3.3a43.8,43.8,0,0,1,2.9,3.4,21,21,0,0,1,2.2,3.3l.9,1.6a11.1,11.1,0,0,1,.7,1.6,19,19,0,0,1,1,2.8,13.1,13.1,0,0,1,.6,2.3c.1.7.1,1.2.2,1.7A10.2,10.2,0,0,0,395.6,220.3Zm.2,5.3h-.4a4.9,4.9,0,0,1-3.2-1.2l-3.1-2.5-2.5-1.7-.9-.6-1.5-.8-1.5-.8-1.3-.6-2.8-1.2-1.9-.7-1.7-.6h0l-1.4-.4-1.7-.5a74.8,74.8,0,0,0-8.2-1.8l-5.9-.8-2.5-.2a87.1,87.1,0,0,0-8.7-.4h-6.7l-2.8.2-3.1.3-5.9.9a64.6,64.6,0,0,0-7.6,1.8l-2.3.7-2.5.8-2.2.8-3.1,1.3-2.7,1.4-1.1.6-1.3.8-1.8,1.1-4.1,3.1a5.6,5.6,0,0,1-5.7.5,5.5,5.5,0,0,1-2.9-5,14.2,14.2,0,0,1,.2-1.9c0-.1.3-2,.3-2.2s.4-1.6.7-2.6a18.3,18.3,0,0,1,1.1-2.9,32.9,32.9,0,0,1,2.1-4.2,39.6,39.6,0,0,1,5.7-7.6l2.5-2.5,1.2-1.1.9-.7c1.3-1,2.6-2.1,4-3a60,60,0,0,1,10.7-5.7,64,64,0,0,1,12.5-3.7,57.4,57.4,0,0,1,6.7-.9,18.8,18.8,0,0,1,3.3-.2h3.6a67.1,67.1,0,0,1,12.7,1.3,65.6,65.6,0,0,1,12.3,3.6,62.4,62.4,0,0,1,10.9,5.7,46.3,46.3,0,0,1,4.2,3.2l1.6,1.4a36.3,36.3,0,0,1,2.8,2.7l.8.8a24.2,24.2,0,0,1,2.5,3.1,24.9,24.9,0,0,1,2.5,3.8l1.6,3.2a25.8,25.8,0,0,1,1.5,4c.3,1,.5,1.8.7,2.6a5.9,5.9,0,0,0,.2,1.3c0,.3.1.5.1.8a6.5,6.5,0,0,1,.4,2A5.2,5.2,0,0,1,395.8,225.6Zm-51.6-39.5.3,5.4h-1.4a10.6,10.6,0,0,0-2.5.2,47.8,47.8,0,0,0-5.8.8,54.1,54.1,0,0,0-10.6,3.1,46,46,0,0,0-8.8,4.7c-1.2.8-2.3,1.7-3.3,2.5l-1.5,1.4a15.3,15.3,0,0,0-1.8,1.8l-1,1.1,1-.4a27.4,27.4,0,0,1,3.2-1.2l2.7-.9a28,28,0,0,1,3.1-.9c2.4-.7,5.4-1.4,8.5-2l2.1-.3,2.7-.4,1.6-.2,3.4-.3,3.1-.2h6.6a100.8,100.8,0,0,1,10.2.5l2.9.3,6.4.9c3.3.6,6.3,1.2,9.2,2l2.4.7,3.4,1.1,2.4.9,1.2.5h-.1l-.8-.9-2-1.9-1.2-1.1-3.5-2.6a51.4,51.4,0,0,0-19.2-7.7,59.2,59.2,0,0,0-11.3-1.1ZM125.5,339.7c.4-42.6,66.3-15.2,119.8-28.4,65.4-16.1,140.2-51,129.9,17.1C362.7,412,124.7,417.1,125.5,339.7ZM236.1,400c-46,0-84.5-11.1-103-29.8-8.7-8.8-13.1-19.1-13-30.5.3-30.5,30.4-30.5,46.6-30.5,5.6,0,11.7.2,17.9.4s13.6.4,20.6.4c15.8,0,28.1-1.2,38.8-3.8s22.4-6,33.6-9.2c25.5-7.3,49.7-14.3,68.3-14.3,13,0,22.3,3.4,28.2,10.4s8.9,19.7,6.4,36.3C373.2,377.8,300.5,400,236.1,400Zm-69.3-80.1c-26.7,0-35.7,5-35.9,19.9q-.2,12.8,9.9,22.8c16.5,16.7,52.1,26.6,95.3,26.6,61.9,0,127.8-21.1,133.9-61.6,2-13.1.7-22.4-3.9-27.6s-10.4-6.6-20.1-6.6c-17.1,0-40.5,6.7-65.3,13.9-11.3,3.3-22.8,6.6-34,9.3s-24.7,4.2-41.3,4.2c-7.1,0-14.2-.2-21-.5S172.3,319.9,166.8,319.9ZM359.4,469.1c-.9,2.9-.8,6.5-.6,10.3.2,6.1.5,13.1-3.5,19.4a16.6,16.6,0,0,1-14.3,7.9c-8.4,0-17.7-6-21.6-14s-2.5-23.4-.3-38.2c3.1-20.4,4.5-35.1-4.2-37.7-17.3-5.1-35-12.4-35-27.9,0-18.8,12.9-23.5,20.5-26.3a43.7,43.7,0,0,0,4.8-1.9c3.4-1.7,5.7-4.2,8.5-7.1s6.7-7.1,12.2-9.7a29,29,0,0,1,12.8-3.1c18.5,0,29.2,20,30.6,33.5C373.3,414.2,369.3,436.7,359.4,469.1Z" transform="translate(0.4 0.4)" fill="currentColor"/>
</svg>
