<svg version="1.1" focusable="false" xmlns="http://www.w3.org/2000/svg" xmlns:xlink="http://www.w3.org/1999/xlink"
	 x="0px" y="0px" viewBox="0 0 512 512" style="enable-background:new 0 0 512 512;" xml:space="preserve">

<path fill="currentColor" d="M256,512.4C114.6,512.4-0.4,397.4-0.4,256S114.6-0.4,256-0.4s256.4,115,256.4,256.4S397.4,512.4,256,512.4z
	 M256,21.1C126.5,21.1,21.1,126.5,21.1,256S126.5,490.9,256,490.9S490.9,385.5,490.9,256S385.5,21.1,256,21.1z M371.4,253.9
	c0,32-13.7,58-30.6,58s-30.6-26-30.6-58s13.7-58,30.6-58C357.7,195.9,371.4,221.9,371.4,253.9z M340.8,317.3
	c-20.2,0-35.9-27.8-35.9-63.4s15.8-63.4,35.9-63.4s35.9,27.8,35.9,63.4C376.7,289.5,361,317.3,340.8,317.3z M340.8,201.3
	c-11.9,0-25.2,21.6-25.2,52.7c0,31,13.3,52.6,25.2,52.6c11.9,0,25.2-21.6,25.2-52.6C366,222.9,352.7,201.3,340.8,201.3z
	 M196.8,253.9c0,32-13.7,58-30.6,58s-30.6-26-30.6-58s13.7-58,30.6-58S196.8,221.9,196.8,253.9z M166.2,317.3
	c-20.2,0-35.9-27.8-35.9-63.4s15.8-63.4,35.9-63.4c20.2,0,35.9,27.8,35.9,63.4C202.2,289.5,186.4,317.3,166.2,317.3z M166.2,201.3
	c-11.9,0-25.2,21.6-25.2,52.7c0,31,13.3,52.6,25.2,52.6s25.2-21.6,25.2-52.6C191.4,222.9,178.1,201.3,166.2,201.3z M218.8,170.8
	c0,0-0.4-0.5-1.1-1.3c-0.7-0.8-1.7-2.2-3-3.5c-1.2-1.4-2.9-3.1-4.7-4.8c-1-0.8-2-1.7-3-2.7c-1.2-0.8-2.2-1.8-3.5-2.7
	c-1.3-0.8-2.5-1.8-3.9-2.6c-0.7-0.4-1.4-0.8-2.1-1.3c-0.7-0.4-1.4-0.8-2.2-1.2c-1.4-0.8-3.1-1.5-4.6-2.2c-1.7-0.5-3.2-1.4-4.9-1.9
	c-3.3-1.2-6.9-2-10.5-2.7c-3.6-0.6-7.3-0.8-11.1-0.9l-2.9,0.1l-1.6,0.1l-1.3,0.1l-2.5,0.2c-0.9,0.1-1.8,0.3-2.7,0.4
	c-0.9,0.1-1.8,0.4-2.7,0.6c-0.9,0.2-1.8,0.3-2.7,0.6c-0.9,0.2-1.7,0.5-2.6,0.7c-0.9,0.3-1.7,0.6-2.6,0.8c-1.7,0.5-3.3,1.4-4.9,1.9
	c-1.6,0.8-3.2,1.4-4.6,2.2c-0.8,0.4-1.5,0.8-2.2,1.2s-1.3,0.9-2.1,1.3c-1.4,0.8-2.6,1.8-3.9,2.6s-2.4,1.8-3.5,2.7s-2,1.8-3.1,2.6
	c-1.9,1.8-3.5,3.4-4.8,4.8c-1.4,1.4-2.3,2.6-3,3.4c-0.7,0.8-1.1,1.3-1.1,1.3s0-0.6,0.1-1.7c0.1-1.1,0.1-2.7,0.6-4.7
	c0.4-2.1,1.1-4.5,2.1-7.3c0.6-1.3,1.2-2.8,2-4.3c0.8-1.4,1.6-3,2.7-4.5c2.1-3,4.6-6.2,7.7-9.1c0.8-0.8,1.6-1.5,2.4-2.2
	c0.9-0.7,1.7-1.4,2.6-2.1c1.8-1.3,3.8-2.7,5.9-3.7c1-0.6,2.1-1.2,3.2-1.7c1.1-0.5,2.2-1,3.4-1.4c2.3-0.9,4.6-1.7,7.1-2.3
	c1.2-0.3,2.5-0.6,3.7-0.8c1.3-0.3,2.7-0.4,4.1-0.6l2-0.3l1.6-0.1l1.7-0.1h0.8h0.4h0.6h0.3c5.1,0.1,10.2,0.7,15,2
	c2.4,0.6,4.8,1.4,7.1,2.3c1.1,0.5,2.2,0.9,3.4,1.4c1.1,0.5,2.1,1.1,3.2,1.7c1,0.5,2.1,1.1,3,1.8c1,0.6,1.9,1.2,2.9,1.9
	c1.8,1.4,3.6,2.7,5.1,4.2c0.8,0.7,1.5,1.5,2.3,2.2c0.7,0.8,1.4,1.5,2,2.3c1.3,1.5,2.4,3.1,3.5,4.6c1,1.5,1.8,3.1,2.6,4.5
	c0.7,1.5,1.4,2.9,1.9,4.3c1,2.8,1.7,5.2,2,7.3c0.5,2,0.4,3.6,0.5,4.7C218.9,170.2,218.8,170.8,218.8,170.8z M109.5,176.2
	c-0.6,0-1.2-0.1-1.8-0.3c-2.1-0.8-3.5-2.8-3.5-5c0,0,0-0.7,0.1-2.1c0.1-2.1,0.3-3.7,0.7-5.6c0.3-2,1.1-4.6,2.3-7.9
	c0.7-1.7,1.4-3.2,2.2-4.8c1.2-2.1,2-3.6,3-5.1c2.7-4,5.5-7.3,8.5-10.1c0.7-0.7,1.7-1.6,2.8-2.5l2.6-2.1c2.7-1.9,4.6-3.2,6.7-4.3
	l0.9-0.5c0.8-0.5,1.7-0.9,2.5-1.3l3.5-1.5c2.6-1,5.2-1.9,7.9-2.6l3.8-0.9c1.5-0.3,3-0.5,4.5-0.7l5.9-0.5l1.4-0.1
	c6.7,0.1,12.2,0.8,17.2,2.1c2.6,0.7,5.2,1.5,7.7,2.5l3.4,1.4c1.1,0.5,1.9,1,2.8,1.4c2,1,3.2,1.8,4.4,2.5c0.9,0.6,2,1.3,3,2l1.9,1.5
	c1.4,1.1,2.8,2.2,4,3.4l4.5,4.7c1.1,1.3,2.2,2.7,3.2,4.1c0,0.1,0.7,1,0.7,1c0.9,1.4,1.8,2.9,2.5,4.3c1.2,2.4,1.9,4,2.5,5.4
	c1.3,3.7,2,6.3,2.4,8.6c0.4,1.6,0.5,3.2,0.5,4.4c0.1,2.2,0.1,3,0.1,3c-0.1,2.2-1.6,4.2-3.7,4.9c-2.1,0.7-4.4,0.1-5.8-1.6l-1.1-1.3
	c-1.1-1.4-1.8-2.3-2.7-3.2c-1.3-1.6-2.9-3-4.6-4.7l-2.8-2.5c-0.2-0.1-0.7-0.5-1.3-1c-0.5-0.4-1-0.9-1.6-1.2l-1.6-1.1
	c-0.6-0.5-1.3-0.9-2-1.3c-0.5-0.3-1.1-0.7-1.7-1l-2.4-1.3c-0.9-0.5-1.7-0.9-2.5-1.2l-2-0.9l0,0c-0.2,0-1-0.3-1.8-0.7
	c-0.7-0.3-1.4-0.6-2.1-0.8c-3.4-1.2-6.7-1.9-10.1-2.6c-2.8-0.5-6.1-0.7-10.2-0.8l-10.1,0.9c-0.6,0.1-1.1,0.2-1.5,0.3l-1.7,0.4
	c-0.4,0.1-0.7,0.1-1.1,0.2l-4.3,1.3c0,0-1.1,0.3-1.1,0.4c-0.7,0.2-1.4,0.5-2.1,0.8c-0.8,0.4-1.7,0.7-2.5,1l-1.2,0.6
	c-0.8,0.4-1.6,0.7-2.4,1.2l-2.5,1.3c-0.9,0.6-1.4,0.9-1.9,1.2c-0.8,0.4-1.4,0.9-2.1,1.4l-1.5,1c-0.7,0.5-1.3,0.9-1.8,1.4l-2.7,2.2
	c-0.6,0.5-1.1,1-1.7,1.5c-1.4,1.4-3,2.9-4.2,4.2c-1.4,1.4-2.3,2.5-2.9,3.2l-1.2,1.3C112.6,175.5,111.1,176.2,109.5,176.2z
	 M163,123.9l-0.5,5.4l-4.9,0.4c-1.3,0.2-2.5,0.3-3.7,0.5l-3.6,0.8c-2,0.5-4.2,1.2-6.2,2.1l-3.3,1.4c-0.5,0.2-1.1,0.6-1.6,0.9
	l-1.1,0.6c-1.7,0.9-3.2,2-4.7,3l-2.9,2.3c-0.8,0.6-1.4,1.1-1.9,1.7c-2.7,2.4-4.8,5-7.2,8.4c-0.3,0.4-0.5,0.8-0.8,1.2
	c0.5-0.4,1.1-0.8,1.6-1.1l1.1-0.7c1-0.7,2-1.4,3.2-2.1c0.1,0,1.8-1.1,1.9-1.2l2.4-1.3c0.8-0.5,2-1,3.1-1.6l1.6-0.7
	c1.3-0.5,1.9-0.7,2.4-1c1.1-0.5,2.2-0.9,3.3-1.3l5.3-1.6c0.5-0.2,1.4-0.4,2.3-0.5l2.4,5l-1.3-5.2c0.9-0.2,1.8-0.4,2.7-0.5l11.4-1
	c4.9,0.1,8.6,0.4,12.1,1c3.8,0.7,7.8,1.6,11.5,2.9c0.8,0.2,1.9,0.6,3,1.1c0.6,0.2,1.1,0.5,1.7,0.7l2.4,1.1c1.1,0.5,2.2,1,3.2,1.6
	l2.1,1.1c0.1,0.1,0.8,0.5,0.9,0.6l1.1,0.7c1.2,0.7,2.2,1.3,3.1,2l1.2,0.8c0.5,0.3,1,0.7,1.5,1c-0.2-0.4-0.5-0.8-0.7-1.2
	c-1.3-1.8-2.1-2.9-3-4l-4-4.2c-1-1-2-1.7-2.9-2.5l-1.9-1.5c-0.6-0.4-1.4-1-2.3-1.5c-0.9-0.6-1.8-1.1-2.6-1.6l-1-0.5
	c-0.7-0.4-1.3-0.7-2-1.1l-3.1-1.3c-2.1-0.9-4.2-1.5-6.4-2.1c-4.2-1.1-8.8-1.7-13.8-1.8L163,123.9z M402.5,162c0,0-0.5,0.3-1.4,0.9
	c-0.9,0.6-2.2,1.5-3.8,2.6c-1.6,1.1-3.5,2.5-5.6,4.1s-4.5,3.5-7,5.5s-5.2,4.2-8,6.6c-2.7,2.4-5.7,4.9-8.6,7.6
	c-1.5,1.3-3,2.7-4.4,4.1c-1.5,1.4-3,2.7-4.5,4.2c-1.4,1.5-3,2.8-4.5,4.3c-1.4,1.5-2.9,3-4.5,4.4c-0.9,0.9-1.5,1.5-2.5,2.4
	c-0.9,0.9-1.8,1.7-2.7,2.4c-1.8,1.6-3.8,3-5.7,4.4c-3.9,2.7-7.9,5.1-12,7s-8.3,3.4-12.4,4.5c-4.1,1-8.1,1.6-11.8,1.7
	c-3.7,0.1-7.1-0.3-10.1-0.9c-2.9-0.7-5.4-1.6-7.3-2.5s-3.3-1.9-4.2-2.5c-0.9-0.7-1.3-1.1-1.3-1.1s0.6,0,1.7-0.1
	c1.1,0,2.7-0.2,4.6-0.4c1.9-0.3,4.1-0.6,6.5-1.3c2.5-0.6,5.1-1.5,7.8-2.7c5.5-2.3,11.6-5.7,17.8-10c1.6-1,3.1-2.2,4.6-3.3
	c1.6-1.1,3.1-2.3,4.7-3.6c1.6-1.2,3.1-2.5,4.6-3.8l2.2-1.9l2.3-2.1c3.4-3.1,6.8-6.1,10.5-8.9c3.6-2.8,7.2-5.3,11-7.6
	c3.7-2.3,7.4-4.3,11-6c1.8-0.8,3.6-1.7,5.3-2.3c1.8-0.7,3.4-1.4,5.1-1.9c1.6-0.6,3.2-1.1,4.8-1.5c1.5-0.4,3-0.8,4.4-1.1
	s2.7-0.6,3.9-0.7c1.2-0.2,2.3-0.3,3.4-0.4c2-0.2,3.7-0.2,4.7-0.2C402,161.9,402.5,162,402.5,162z M302.1,234.1
	c-3.5,0-6.9-0.4-10.2-1.1c-3-0.7-5.9-1.7-8.5-3c-2.2-1.1-3.9-2.2-4.9-3c-1.3-1-1.9-1.6-1.9-1.6c-1.5-1.5-2-3.8-1.2-5.7
	c0.7-2,2.5-3.3,4.6-3.5l1.9-0.1c0.9,0,2.3-0.2,4-0.4c1.6-0.2,3.6-0.5,5.8-1.1c2.3-0.6,4.7-1.4,7.2-2.5c5.2-2.2,11-5.4,16.8-9.5
	c1.6-1,3-2.1,4.5-3.2c1.6-1.1,3.1-2.3,4.5-3.4c1.6-1.2,3.1-2.5,4.5-3.7l4.3-3.9c3.5-3.2,7.1-6.3,10.8-9.2c4-3.1,7.8-5.7,11.4-7.9
	s7.5-4.4,11.4-6.2l1.2-0.6c1.5-0.7,3-1.4,4.5-1.9c2.2-0.9,3.8-1.5,5.4-2c2-0.7,3.5-1.2,5-1.6c1.8-0.5,3.3-0.9,4.7-1.1
	c1.3-0.3,2.7-0.6,4.1-0.8c1.2-0.2,2.5-0.4,3.7-0.5c1.8-0.2,3.5-0.1,4.7-0.2c2.3,0,3,0.1,3,0.1c2.2,0.4,4,2.2,4.4,4.4
	s-0.5,4.4-2.4,5.6l-1.2,0.7c-0.9,0.6-1.9,1.3-3.1,2.1c-2.2,1.5-4,2.9-6.1,4.4c-2.1,1.6-4.4,3.4-6.9,5.4c-2.4,2-5.1,4.2-7.8,6.5
	l-1.7,1.4c-2.2,1.9-4.5,3.9-6.8,6c-1.5,1.3-2.9,2.6-4.3,4l-1.1,1c-1.1,1-2.2,2-3.3,3.1c-0.8,0.8-1.7,1.6-2.5,2.4
	c-0.7,0.6-1.4,1.3-2,1.9c-1.4,1.5-3,3-4.6,4.6c-1.3,1.3-1.9,1.8-2.7,2.5c-0.9,0.9-1.8,1.7-2.8,2.5c-2,1.6-4,3.2-6,4.6
	c-4.3,3-8.6,5.5-12.9,7.5c-4.5,2.1-9,3.7-13.4,4.8s-8.8,1.7-13,1.8C303.3,234.1,302.1,234.1,302.1,234.1z M300,223.3
	c0.7,0,1.4,0.1,2.1,0.1v5.4l0.9-5.4c3.4-0.1,7-0.6,10.6-1.5c3.7-0.9,7.5-2.3,11.4-4.1c3.7-1.7,7.5-4,11.2-6.6
	c1.7-1.2,3.5-2.6,5.3-4.1c0.8-0.7,1.6-1.4,2.5-2.2c0.8-0.7,1.2-1.1,1.7-1.6l0.8-0.8c1.5-1.4,2.9-2.9,4.3-4.3
	c0.8-0.8,1.6-1.6,2.4-2.3c0.7-0.7,1.4-1.3,2.1-2c1.2-1.3,2.5-2.4,3.8-3.5l0.9-0.9c1.4-1.4,3-2.8,4.5-4.2c2.2-2.1,4.6-4.1,6.9-6.1
	l1.7-1.5c2.8-2.4,5.5-4.6,8-6.6c-1.6,0.5-2.8,1-4,1.5c-1.9,0.7-3.2,1.3-4.4,1.9l-1.2,0.5c-3.3,1.6-6.8,3.5-10.3,5.7
	c-3.4,2-6.8,4.4-10.5,7.3c-3.5,2.7-6.8,5.6-10.1,8.6l-4.5,4.1c-1.6,1.4-3.2,2.7-4.8,4c-1.5,1.3-3.2,2.5-4.9,3.7
	c-1.5,1.1-3.1,2.3-4.8,3.4c-6.3,4.4-12.8,8-18.6,10.4C302,222.5,301,222.9,300,223.3z M309.5,380.9H202.6c-5.3,0-9.7-4.3-9.7-9.6
	c0-5.3,4.3-9.6,9.7-9.6h106.9c5.3,0,9.6,4.3,9.6,9.6S314.8,380.9,309.5,380.9z M309.5,386.3H202.6c-8.3,0-15-6.7-15-15s6.7-15,15-15
	h106.9c8.3,0,15,6.7,15,15C324.5,379.6,317.7,386.3,309.5,386.3z M202.6,367c-2.4,0-4.3,1.9-4.3,4.3c0,2.3,1.9,4.2,4.3,4.2h106.9
	c2.4,0,4.3-1.9,4.3-4.2c0-2.4-1.9-4.3-4.3-4.3H202.6z"/>
</svg>
