<svg id="Camada_1" data-name="Camada 1" xmlns="http://www.w3.org/2000/svg" viewBox="0 0 512.8 512.8">
  <path d="M256,512.4C114.6,512.4-.4,397.4-.4,256S114.6-.4,256-.4,512.4,114.6,512.4,256,397.4,512.4,256,512.4Zm0-491.3C126.5,21.1,21.1,126.5,21.1,256S126.5,490.9,256,490.9,490.9,385.5,490.9,256,385.5,21.1,256,21.1Zm94.5,284.4a76.8,76.8,0,1,1,76.8-76.8A76.9,76.9,0,0,1,350.5,305.5Zm0-142.8a66,66,0,1,0,66,66A66.1,66.1,0,0,0,350.5,162.7Zm-189,142.8a62.2,62.2,0,1,1,62.2-62.2A62.3,62.3,0,0,1,161.5,305.5Zm0-113.6a51.4,51.4,0,1,0,51.4,51.4A51.4,51.4,0,0,0,161.5,191.9ZM195.1,271a29,29,0,1,1-29-29A29.1,29.1,0,0,1,195.1,271Zm-29,34.5a34.4,34.4,0,1,1,34.4-34.4A34.4,34.4,0,0,1,166.1,305.5Zm0-58.1a23.7,23.7,0,1,0,23.7,23.7A23.7,23.7,0,0,0,166.1,247.4ZM373,199.6a29,29,0,1,1-29-29A29.1,29.1,0,0,1,373,199.6Zm-29.1,34.5a34.4,34.4,0,1,1,34.4-34.4A34.4,34.4,0,0,1,343.9,234.1Zm0-58.1a23.7,23.7,0,1,0,23.7,23.7A23.7,23.7,0,0,0,343.9,176Zm63.2-45.5-1.1-1.3c-.7-.8-1.7-2.2-3-3.5s-2.9-3-4.7-4.8l-3.1-2.7c-1.2-.9-2.2-1.8-3.5-2.7s-2.5-1.8-3.9-2.6l-2.1-1.3-2.2-1.2a49.1,49.1,0,0,0-4.6-2.2c-1.7-.6-3.2-1.4-4.9-1.9a70.2,70.2,0,0,0-10.5-2.7,81.7,81.7,0,0,0-11.1-.9h-5.8l-2.5.2-2.7.4-2.7.6a19.8,19.8,0,0,0-2.6.6l-2.6.7-2.5.8c-1.7.5-3.3,1.3-4.9,1.9s-3.2,1.4-4.6,2.2l-2.2,1.2-2.1,1.3c-1.4.8-2.7,1.8-3.9,2.6s-2.3,1.8-3.5,2.7l-3.1,2.6-4.8,4.8-3,3.4-1.1,1.3s0-.6.1-1.7a25.9,25.9,0,0,1,.6-4.7,39.8,39.8,0,0,1,4.1-11.6c.8-1.4,1.6-3,2.6-4.5a57.3,57.3,0,0,1,7.7-9.1,25,25,0,0,1,2.4-2.2l2.6-2.1a58.7,58.7,0,0,1,5.9-3.7l3.2-1.7,3.4-1.4a58.8,58.8,0,0,1,7.1-2.3l3.7-.8c1.3-.3,2.7-.4,4-.6l2-.3h5.3a62.3,62.3,0,0,1,15,2,58.8,58.8,0,0,1,7.1,2.3L378,89l3.2,1.7a18.3,18.3,0,0,1,3,1.8l2.9,1.9a54.3,54.3,0,0,1,5.1,4.2l2.3,2.2c.7.8,1.4,1.5,2,2.3s2.4,3.1,3.5,4.6,1.9,3.1,2.7,4.5,1.4,2.9,1.9,4.3a38.8,38.8,0,0,1,2,7.3,24.9,24.9,0,0,1,.5,4.7Zm.2,5.3h-.6a5.3,5.3,0,0,1-3.5-1.7l-1.4-1.6-2.7-3.2a63.8,63.8,0,0,0-4.5-4.6l-4-3.4-1.8-1.4-1.5-1.1-1.9-1.3L383,116l-1.8-.9-2.6-1.3-1.9-.9-1.8-.7-2.1-.8a75,75,0,0,0-10.1-2.6,69.2,69.2,0,0,0-10.2-.8l-10,.8-1.4.3-2,.4-1.3.3-5,1.5-2.4.9-2.4,1-1.2.6-2.5,1.2-4.3,2.5a15.3,15.3,0,0,0-2.1,1.4l-1.6,1.1-1.6,1.2-1.7,1.4-3.3,2.9-3.7,3.7c-1.3,1.4-2.2,2.4-2.8,3.2l-1.4,1.6a5.5,5.5,0,0,1-5.9,1.5,5.4,5.4,0,0,1-3.5-5s0-.8.1-2.1a33,33,0,0,1,.7-5.6,42.9,42.9,0,0,1,2.3-7.9c.7-1.6,1.4-3.2,2.2-4.8s1.9-3.5,3-5.1a58.4,58.4,0,0,1,8.6-10.1,20.1,20.1,0,0,1,2.9-2.5l2.3-1.9.9-.7a58.7,58.7,0,0,1,5.9-3.7,29.7,29.7,0,0,1,3.5-1.8l3.4-1.5a56.1,56.1,0,0,1,7.9-2.6l3.8-.9a29,29,0,0,1,4.1-.6l6.3-.5h2.6a71.1,71.1,0,0,1,16.2,2.1,78.3,78.3,0,0,1,7.8,2.5l3.4,1.4,3,1.5a41.1,41.1,0,0,1,4.1,2.4l3,2,1.5,1.2a38.1,38.1,0,0,1,4.3,3.7l1.6,1.5c.1.1.8.7.8.8l2.2,2.5a35.6,35.6,0,0,1,3.2,4.2c1.5,2.2,2.2,3.5,3,4.8l.7,1.2,2,4.5a48.3,48.3,0,0,1,2.4,8.6,17.5,17.5,0,0,1,.5,4.4,3.7,3.7,0,0,0,.1,1.1,4.7,4.7,0,0,1,.3,1.7A5.9,5.9,0,0,1,407.3,135.8Zm-56-52.3-.5,5.4-4.9.4-3.6.5-3.6.8a34.8,34.8,0,0,0-6.2,2.1l-2.6,1.1a26,26,0,0,0-2.4,1.2l-1,.6a34.1,34.1,0,0,0-4.9,3.1l-2.7,2.2a10.8,10.8,0,0,0-1.9,1.7,46.8,46.8,0,0,0-7.2,8.5l-.8,1.2,1.5-1.1,1.3-.9a32.8,32.8,0,0,1,3.1-2l1.9-1.2,2.3-1.3a25.3,25.3,0,0,1,3.3-1.6l1.6-.7,2.3-1,3.5-1.3,4.4-1.4,3.1-.8,2.6,4.9-1.3-5.2,2.6-.5,11.4-.9a79.6,79.6,0,0,1,12.1,1,84.1,84.1,0,0,1,11.5,2.9l3.1,1.1,1.7.7,2.3,1a33.6,33.6,0,0,1,3.3,1.6l2,1.1,2.2,1.3a31.3,31.3,0,0,1,3,2l1.2.8,1.4,1-.7-1.1c-1.3-1.8-2.1-3-3-4l-2-2.3-2-1.9a20.5,20.5,0,0,0-3.3-2.8l-1.5-1.2c-.6-.5-1.5-1-2.4-1.6l-2.6-1.5-3-1.6-3.1-1.3a47.9,47.9,0,0,0-6.4-2.1,59.8,59.8,0,0,0-13.8-1.8Zm-157.7,78-.9-.8-2.4-2.1-3.6-2.8-2.2-1.5-2.4-1.4-2.6-1.4-1.4-.7-1.4-.6-2.9-1.1a28,28,0,0,0-3.1-.9c-2.1-.6-4.2-.9-6.4-1.3s-4.4-.4-6.6-.5h-4.9l-1.6.2a44,44,0,0,0-6.3,1.3c-1.1.2-2,.7-3.1.9a25.2,25.2,0,0,0-2.9,1.2l-1.4.6-1.4.7a15.9,15.9,0,0,0-2.6,1.4,41.9,41.9,0,0,0-4.7,2.9l-3.7,2.8-2.4,2-.9.8a5.5,5.5,0,0,1-.1-1.2,18.7,18.7,0,0,1,0-3.4,29.9,29.9,0,0,1,.9-5.2c.3-1,.7-2,1.1-3.1s1-2.2,1.6-3.3a36.4,36.4,0,0,1,5-6.7,25,25,0,0,1,3.4-3.1,40.4,40.4,0,0,1,4-2.8,36.9,36.9,0,0,1,9.5-4.1l2.6-.6,2.9-.4,1.5-.2h3.7a41,41,0,0,1,10.5,1.5,39.7,39.7,0,0,1,9.4,4,31.5,31.5,0,0,1,7.4,5.9,38.3,38.3,0,0,1,5.1,6.7c.6,1.1,1.1,2.2,1.6,3.3s.8,2.1,1.1,3.1a29.9,29.9,0,0,1,.9,5.2,29.3,29.3,0,0,1-.1,3.3A11.3,11.3,0,0,1,193.6,161.5Zm-71.8,5.4a4.8,4.8,0,0,1-2-.4,5.3,5.3,0,0,1-3.3-4.2l-.2-1.5a21.5,21.5,0,0,1,0-4.4,39.8,39.8,0,0,1,1-5.9c.4-1.3.8-2.5,1.3-3.7a37.1,37.1,0,0,1,7.8-11.8,32.4,32.4,0,0,1,2.6-2.5l1-.9,1-.8a42.1,42.1,0,0,1,4.1-2.8,41.3,41.3,0,0,1,10.6-4.5l2.8-.7,2.9-.5,4.6-.4h1.1a51.7,51.7,0,0,1,12.7,1.6,41.3,41.3,0,0,1,10.8,4.6,44.7,44.7,0,0,1,8.5,6.7,39.5,39.5,0,0,1,5.8,7.7,34.4,34.4,0,0,1,1.9,3.9c.6,1.6,1,2.7,1.3,3.7a40,40,0,0,1,1.1,6.5,17.3,17.3,0,0,1-.1,3.3,11.4,11.4,0,0,1-.3,2.5,5.3,5.3,0,0,1-8.5,3.1l-1.2-1a14.5,14.5,0,0,0-2.1-1.8l-3.5-2.7-2-1.3h0l-.9-.6-.9-.5-1.3-.7a3.1,3.1,0,0,0-1-.5l-1.7-.8-4-1.5-1-.3-1.2-.4a44.5,44.5,0,0,0-5.5-1.1,39.2,39.2,0,0,0-6.5-.5h-3.9l-1.4-5.3-.6,5.5c-1.4.3-3.4.6-5.2,1.1l-1.5.4-1.9.6-.6.3-1.2.5-3.8-4.3,2.5,4.8-1.6.8-1.4.7-1.1.6-4.1,2.5a29.6,29.6,0,0,0-3.2,2.4l-2.3,1.9-1.2,1A4,4,0,0,1,121.8,166.9ZM135.5,146l2.8,4.7-1.3-5.2,1.8-.7,1.9-.7a24.8,24.8,0,0,1,3.2-.9,47.3,47.3,0,0,1,6.6-1.4h2.7a22.7,22.7,0,0,1,3.8-.2,48.6,48.6,0,0,1,8.2.5,68.6,68.6,0,0,1,7.1,1.4l1.8.5,2.7.9,2.1.8,1.8.7,3.2,1.6,2.3,1.3-.6-1.1a32.7,32.7,0,0,0-4.1-5.5,31.2,31.2,0,0,0-6.4-5.1,33.3,33.3,0,0,0-17.3-4.7l-1.4-5.3.3,5.4-3.2.3a18.5,18.5,0,0,0-2.5.4l-2.5.6a31.4,31.4,0,0,0-7.9,3.4l-3,2-1.5,1.2a12.9,12.9,0,0,0-1.7,1.6,25.9,25.9,0,0,0-4.4,5.9l-.6,1.1,1.5-.9,3.3-1.7ZM299.1,378.2c0,27.5-15.4,49.8-34.4,49.8s-34.4-22.3-34.4-49.8,15.4-49.8,34.4-49.8S299.1,350.7,299.1,378.2Zm-34.4,55.1c-21.9,0-39.7-24.7-39.7-55.2S242.8,323,264.7,323s39.7,24.7,39.7,55.1S286.6,433.3,264.7,433.3Zm0-99.5c-15.7,0-29,20.3-29,44.4s13.3,44.4,29,44.4,29-20.3,29-44.4S280.4,333.8,264.7,333.8ZM462.4,71.2a23.5,23.5,0,1,1,23.4-23.4A23.5,23.5,0,0,1,462.4,71.2Zm0-36.2a12.7,12.7,0,1,0,12.7,12.7A12.7,12.7,0,0,0,462.4,35Zm18.9,82.1a18.8,18.8,0,1,1,18.8-18.7A18.7,18.7,0,0,1,481.3,117.1Zm0-26.7a8,8,0,1,0,8,8A7.9,7.9,0,0,0,481.3,90.4Zm-55.1,26.7a14.7,14.7,0,1,1,14.6-14.6A14.6,14.6,0,0,1,426.2,117.1Zm0-18.5a4,4,0,0,0-3.9,3.9,3.8,3.8,0,0,0,3.9,3.9,3.9,3.9,0,0,0,3.9-3.9A3.8,3.8,0,0,0,426.2,98.6Z" transform="translate(0.4 0.4)" fill="currentColor"/>
</svg>
