<?xml version="1.0" encoding="utf-8"?>
<!-- Generator: Adobe Illustrator 24.0.1, SVG Export Plug-In . SVG Version: 6.00 Build 0)  -->
<svg version="1.1" id="Camada_1" focusable="false" xmlns="http://www.w3.org/2000/svg" xmlns:xlink="http://www.w3.org/1999/xlink"
	 x="0px" y="0px" viewBox="0 0 512 512" style="enable-background:new 0 0 512 512;" xml:space="preserve">
<g>
	<g>
		<g>
			<g>
				<path fill="currentColor" d="M256,512.4C114.6,512.4-0.4,397.4-0.4,256S114.6-0.4,256-0.4s256.4,115,256.4,256.4S397.4,512.4,256,512.4z M256,21.1
					C126.5,21.1,21.1,126.5,21.1,256S126.5,490.9,256,490.9S490.9,385.5,490.9,256S385.5,21.1,256,21.1z"/>
			</g>
		</g>
	</g>
	<g>
		<g>
			<g>
				<g>
					<path fill="currentColor" d="M350.5,305.5c-42.3,0-76.8-34.4-76.8-76.8c0-42.3,34.4-76.8,76.8-76.8c42.3,0,76.8,34.4,76.8,76.8
						C427.3,271,392.9,305.5,350.5,305.5z M350.5,162.7c-36.4,0-66,29.6-66,66s29.6,66,66,66s66-29.6,66-66
						C416.6,192.3,387,162.7,350.5,162.7z"/>
				</g>
			</g>
		</g>
		<g>
			<g>
				<g>
					<path fill="currentColor" d="M161.5,305.5c-34.3,0-62.2-27.9-62.2-62.2s27.9-62.2,62.2-62.2s62.2,27.9,62.2,62.2
						C223.6,277.6,195.7,305.5,161.5,305.5z M161.5,191.9c-28.4,0-51.4,23.1-51.4,51.4c0,28.4,23.1,51.4,51.4,51.4
						c28.4,0,51.4-23.1,51.4-51.4C212.9,214.9,189.8,191.9,161.5,191.9z"/>
				</g>
			</g>
		</g>
		<g>
			<g>
				<g>
					<path fill="currentColor" d="M195.1,271c0,16-13,29.1-29,29.1s-29-13-29-29.1c0-16,13-29,29-29S195.1,255,195.1,271z"/>
					<path fill="currentColor" d="M166.1,305.5c-19,0-34.4-15.4-34.4-34.4s15.4-34.4,34.4-34.4s34.4,15.4,34.4,34.4C200.5,290,185.1,305.5,166.1,305.5z
						 M166.1,247.4c-13.1,0-23.7,10.6-23.7,23.7s10.6,23.7,23.7,23.7c13.1,0,23.7-10.6,23.7-23.7C189.7,258,179.1,247.4,166.1,247.4
						z"/>
				</g>
			</g>
		</g>
		<g>
			<g>
				<g>
					<path fill="currentColor" d="M373,199.6c0,16-13,29.1-29,29.1c-16.1,0-29-13-29-29.1c0-16,13-29,29-29S373,183.6,373,199.6z"/>
					<path fill="currentColor" d="M343.9,234.1c-19,0-34.4-15.4-34.4-34.4s15.4-34.4,34.4-34.4s34.4,15.4,34.4,34.4C378.3,218.6,362.9,234.1,343.9,234.1
						z M343.9,176c-13.1,0-23.7,10.6-23.7,23.7c0,13.1,10.6,23.7,23.7,23.7c13,0,23.7-10.6,23.7-23.7S357,176,343.9,176z"/>
				</g>
			</g>
		</g>
	</g>
	<g>
		<g>
			<g>
				<path fill="currentColor" d="M407.1,130.5c0,0-0.4-0.5-1.1-1.3s-1.7-2.2-3-3.5c-1.2-1.4-2.9-3-4.7-4.8c-1-0.8-2-1.8-3.1-2.7
					c-1.2-0.9-2.2-1.8-3.5-2.7c-1.3-0.8-2.5-1.8-3.9-2.6c-0.7-0.4-1.4-0.8-2.1-1.3c-0.7-0.4-1.4-0.8-2.2-1.2c-1.4-0.8-3-1.5-4.6-2.2
					c-1.7-0.6-3.2-1.4-4.9-1.9c-3.3-1.2-6.9-2-10.5-2.7c-3.6-0.6-7.4-0.8-11.1-0.9l-2.9,0.1h-1.7l-1.2,0.1l-2.5,0.2
					c-0.9,0.1-1.8,0.3-2.7,0.4c-0.9,0.1-1.8,0.4-2.7,0.6c-0.9,0.2-1.8,0.3-2.6,0.6c-0.9,0.3-1.7,0.5-2.6,0.7
					c-0.9,0.3-1.7,0.6-2.5,0.8c-1.7,0.5-3.3,1.3-4.9,1.9c-1.6,0.8-3.2,1.4-4.6,2.2c-0.7,0.4-1.5,0.8-2.2,1.2
					c-0.7,0.4-1.4,0.9-2.1,1.3c-1.4,0.8-2.7,1.8-3.9,2.6c-1.3,0.8-2.3,1.8-3.5,2.7c-1.1,0.9-2.1,1.8-3.1,2.6
					c-1.8,1.8-3.5,3.4-4.8,4.8s-2.3,2.6-3,3.4s-1.1,1.3-1.1,1.3s0-0.6,0.1-1.7c0.1-1.1,0.1-2.7,0.6-4.7c0.3-2.1,1.1-4.5,2.1-7.3
					c0.5-1.3,1.2-2.8,2-4.3c0.8-1.4,1.6-3,2.6-4.5c2.1-3,4.6-6.2,7.7-9.1c0.7-0.8,1.6-1.5,2.4-2.2c0.9-0.7,1.7-1.4,2.6-2.1
					c1.9-1.3,3.8-2.6,5.9-3.7c1-0.6,2.1-1.2,3.2-1.7s2.2-1,3.4-1.4c2.3-0.9,4.7-1.7,7.1-2.3c1.2-0.3,2.5-0.6,3.7-0.8
					c1.3-0.3,2.7-0.4,4-0.6l2-0.3l1.7-0.1l1.6-0.1h0.8h0.4h0.6h0.2c5.1,0.1,10.2,0.7,15,2c2.4,0.6,4.8,1.4,7.1,2.3
					c1.1,0.5,2.2,0.9,3.4,1.4c1.1,0.5,2.1,1.1,3.2,1.7c1,0.5,2.1,1.1,3,1.8c1,0.6,2,1.3,2.9,1.9c1.8,1.4,3.6,2.7,5.1,4.2
					c0.8,0.7,1.6,1.5,2.3,2.2c0.7,0.8,1.4,1.5,2,2.3c1.3,1.5,2.4,3.1,3.5,4.6c1,1.5,1.9,3.1,2.7,4.5c0.7,1.5,1.4,2.9,1.9,4.3
					c1,2.8,1.7,5.2,2,7.3c0.5,2.1,0.4,3.6,0.5,4.7C407.1,129.8,407.1,130.5,407.1,130.5z"/>
				<path fill="currentColor" d="M407.3,135.8c-0.2,0-0.4,0-0.6,0c-1.3-0.1-2.6-0.7-3.5-1.7c0,0-0.5-0.6-1.4-1.6c-1-1.2-1.8-2.2-2.7-3.2
					c-1.3-1.5-2.8-3-4.5-4.6l-4-3.4c-0.6-0.5-1.2-0.9-1.8-1.4l-1.5-1.1c-0.6-0.4-1.2-0.9-1.9-1.3c-0.9-0.5-1.6-1-2.4-1.5l-1.8-0.9
					c-0.9-0.5-1.8-0.9-2.6-1.3l-1.9-0.9c-0.2,0-1-0.3-1.8-0.7c-0.7-0.3-1.4-0.6-2.1-0.8c-3.4-1.2-6.7-1.9-10.1-2.6
					c-2.8-0.5-6.1-0.7-10.2-0.8l-10,0.8c-0.7,0.1-1.1,0.2-1.4,0.3l-2,0.4c-0.1,0-1.2,0.3-1.3,0.3l-5,1.5c-0.9,0.3-1.7,0.6-2.4,0.9
					c-0.8,0.3-1.6,0.7-2.4,1l-1.2,0.6c-0.8,0.4-1.7,0.8-2.5,1.2l-4.3,2.5c-0.8,0.4-1.4,0.9-2.1,1.4l-1.6,1.1c-0.5,0.3-1,0.8-1.6,1.2
					c-0.6,0.5-1.2,0.9-1.7,1.4l-3.3,2.9c-1.4,1.3-2.7,2.6-3.7,3.7c-1.3,1.4-2.2,2.4-2.8,3.2l-1.4,1.6c-1.5,1.7-3.8,2.2-5.9,1.5
					c-2.1-0.8-3.5-2.8-3.5-5c0,0,0-0.8,0.1-2.1c0.1-2.1,0.3-3.7,0.7-5.6c0.3-1.9,1-4.4,2.3-7.9c0.7-1.6,1.4-3.2,2.2-4.8
					c1-1.8,1.9-3.5,3-5.1c2.7-4,5.6-7.3,8.6-10.1c0.6-0.7,1.7-1.6,2.9-2.5l2.3-1.9c0.1-0.1,0.8-0.6,0.9-0.7c1.9-1.3,3.8-2.6,5.9-3.7
					c1.6-0.9,2.5-1.4,3.5-1.8l3.4-1.5c2.6-1,5.2-2,7.9-2.6l3.8-0.9c1.4-0.3,2.7-0.5,4.1-0.6l6.3-0.5l1.3-0.1c0.2,0,1,0,1.3,0
					c5.6,0.1,11.1,0.8,16.2,2.1c2.6,0.7,5.2,1.5,7.8,2.5l3.4,1.4c1.1,0.5,2.1,1,3,1.5c1.8,0.9,3,1.7,4.1,2.4c0.9,0.6,2,1.3,3,2
					l1.5,1.2c1.5,1.2,3,2.3,4.3,3.7l1.6,1.5c0.1,0.1,0.8,0.7,0.8,0.8c0.7,0.8,1.5,1.7,2.2,2.5c1.1,1.2,2.2,2.7,3.2,4.2
					c1.5,2.2,2.2,3.5,3,4.8c0.1,0.1,0.6,1.1,0.7,1.2c0.7,1.6,1.4,3.1,2,4.5c1,2.9,2,5.8,2.4,8.6c0.4,1.5,0.5,3.1,0.5,4.4
					c0,0.4,0,0.8,0.1,1.1c0.2,0.5,0.3,1.1,0.3,1.7C412.7,133.4,410.3,135.8,407.3,135.8z M351.3,83.5l-0.5,5.4l-4.9,0.4
					c-1.5,0.2-2.6,0.3-3.6,0.5l-3.6,0.8c-2.1,0.5-4.2,1.2-6.2,2.1l-2.6,1.1c-1.2,0.5-1.8,0.9-2.4,1.2l-1,0.6c-1.8,0.9-3.4,2-4.9,3.1
					l-2.7,2.2c-0.8,0.6-1.4,1.1-1.9,1.7c-2.7,2.5-4.9,5.1-7.2,8.5c-0.3,0.4-0.5,0.8-0.8,1.2c0.5-0.4,1-0.7,1.5-1.1l1.3-0.9
					c1-0.7,2-1.4,3.1-2c0,0,1.8-1.2,1.9-1.2l2.3-1.3c1-0.6,2.1-1.1,3.3-1.6l1.6-0.7c1.2-0.5,1.8-0.7,2.3-1c1.1-0.5,2.3-0.9,3.5-1.3
					l4.4-1.4c1.4-0.4,2.2-0.6,3.1-0.8l2.6,4.9l-1.3-5.2c0.9-0.2,1.8-0.4,2.6-0.5l11.4-0.9c4.9,0.1,8.6,0.4,12.1,1
					c4,0.8,7.8,1.6,11.5,2.9c0.8,0.2,1.9,0.7,3.1,1.1c0.6,0.2,1.1,0.5,1.7,0.7l2.3,1c1.1,0.5,2.3,1,3.3,1.6l2,1.1
					c1,0.6,1.6,1,2.2,1.3c1.1,0.6,2,1.3,3,2l1.2,0.8c0.5,0.3,1,0.7,1.4,1c-0.2-0.4-0.5-0.7-0.7-1.1c-1.3-1.8-2.1-3-3-4
					c-0.7-0.9-1.4-1.6-2-2.3l-2-1.9c-1.1-1.2-2.2-2-3.3-2.8l-1.5-1.2c-0.6-0.5-1.5-1-2.4-1.6s-1.8-1.1-2.6-1.5
					c-1.5-0.8-2.3-1.2-3-1.6l-3.1-1.3c-2.1-0.9-4.2-1.5-6.4-2.1c-4.2-1.1-8.9-1.7-13.8-1.8L351.3,83.5z"/>
			</g>
		</g>
		<g>
			<g>
				<path fill="currentColor" d="M193.6,161.5c0,0-0.3-0.3-0.9-0.8c-0.5-0.5-1.4-1.3-2.4-2.1s-2.2-1.8-3.6-2.8c-0.7-0.5-1.4-0.9-2.2-1.5
					c-0.8-0.4-1.6-1-2.4-1.4c-0.9-0.5-1.7-1-2.6-1.4c-0.5-0.2-0.9-0.4-1.4-0.7c-0.5-0.2-0.9-0.4-1.4-0.6c-0.9-0.4-1.9-0.7-2.9-1.1
					c-1-0.3-2-0.7-3.1-0.9c-2.1-0.6-4.2-0.9-6.4-1.3c-2.2-0.3-4.4-0.4-6.6-0.5c-0.4,0-3,0-3.5,0.1c-0.4,0.1-0.9,0.1-1.4,0.1
					c-0.5,0.1-1.1,0.1-1.6,0.2c-2.1,0.3-4.3,0.7-6.3,1.3c-1.1,0.2-2,0.7-3.1,0.9c-1,0.4-2,0.7-2.9,1.2c-0.5,0.2-1,0.4-1.4,0.6
					c-0.5,0.2-0.9,0.5-1.4,0.7c-1,0.4-1.8,0.9-2.6,1.4c-1.7,0.9-3.3,1.9-4.7,2.9c-1.4,1-2.6,1.9-3.7,2.8c-1,0.8-1.8,1.5-2.4,2
					s-0.9,0.8-0.9,0.8s-0.1-0.4-0.1-1.2c0-0.7-0.2-1.9,0-3.4c0.1-1.5,0.4-3.2,0.9-5.2c0.3-1,0.7-2,1.1-3.1c0.5-1,1-2.2,1.6-3.3
					c1.3-2.2,2.9-4.5,5-6.7c1-1.2,2.2-2.1,3.4-3.1c1.3-0.9,2.5-2,4-2.8c2.8-1.8,6.1-3.1,9.5-4.1l2.6-0.6c0.9-0.2,1.9-0.3,2.9-0.4
					l1.5-0.2l1.1-0.1l1.1-0.1h0.5h0.3h0.5h0.2c3.6,0.1,7.1,0.5,10.5,1.5s6.6,2.3,9.4,4c2.9,1.7,5.4,3.7,7.4,5.9
					c2.1,2.1,3.7,4.5,5.1,6.7c0.6,1.1,1.1,2.2,1.6,3.3c0.4,1.1,0.8,2.1,1.1,3.1c0.5,2,0.8,3.7,0.9,5.2c0.1,1.5-0.1,2.5-0.1,3.3
					C193.7,161.1,193.6,161.5,193.6,161.5z"/>
				<path fill="currentColor" d="M121.8,166.9c-0.7,0-1.3-0.1-2-0.4c-1.8-0.7-3-2.3-3.3-4.2l-0.2-1.5c-0.1-1.7-0.2-2.9,0-4.4c0.1-1.4,0.4-3.3,1-5.9
					c0.4-1.3,0.8-2.5,1.3-3.7c0.8-1.9,1.4-3,2-4.1c1.8-3,3.7-5.6,5.8-7.7c0.6-0.7,1.6-1.6,2.6-2.5l1-0.9c0.1-0.1,0.8-0.7,1-0.8
					c1.3-1,2.6-1.9,4.1-2.8c2.9-1.8,6.6-3.4,10.6-4.5l2.8-0.7c1-0.2,2-0.3,2.9-0.5l4.6-0.4c0.1,0,1,0,1.1,0c5,0.1,9,0.6,12.7,1.6
					c4.2,1.2,7.8,2.7,10.8,4.6c3,1.8,5.9,4.1,8.5,6.7c2.7,2.7,4.6,5.7,5.8,7.7c0.8,1.4,1.4,2.7,1.9,3.9c0.6,1.6,1,2.7,1.3,3.7
					c0.6,2.6,1,4.7,1.1,6.5c0.1,1.2,0,2.4-0.1,3.3c-0.1,1.9-0.3,2.5-0.3,2.5c-0.4,1.8-1.7,3.3-3.4,3.9c-1.8,0.6-3.7,0.3-5.1-0.8
					c0,0-0.5-0.4-1.2-1c-0.9-0.8-1.4-1.4-2.1-1.8c-1.1-0.9-2.2-1.7-3.5-2.7l-2-1.3l0,0c0,0-0.5-0.3-0.9-0.6l-0.9-0.5l-1.3-0.7
					c-0.3-0.2-0.6-0.4-1-0.5c-0.6-0.2-1.1-0.5-1.7-0.8l-4-1.5c0.1,0.1-0.5-0.1-1-0.3c-0.4-0.1-0.8-0.3-1.2-0.4
					c-2-0.6-3.8-0.8-5.5-1.1c-2.5-0.4-4.5-0.5-6.5-0.5c-1.2,0-2.2,0-2.6,0.1c-0.4,0.1-0.9,0.1-1.3,0.1l-1.4-5.3l-0.6,5.5
					c-1.4,0.3-3.4,0.6-5.2,1.1c-0.8,0.2-1.1,0.3-1.5,0.4c-0.6,0.2-1.3,0.4-1.9,0.6l-0.6,0.3c-0.4,0.1-0.8,0.3-1.2,0.5l-3.8-4.3
					l2.5,4.8l-1.6,0.8c-0.7,0.3-1,0.5-1.4,0.7c-0.1,0-1,0.6-1.1,0.6c-1.4,0.8-2.8,1.7-4.1,2.5c-1.2,0.8-2.3,1.6-3.2,2.4
					c-1.1,0.9-1.8,1.5-2.3,1.9l-1.2,1C124.2,166.5,123,166.9,121.8,166.9z M135.5,146l2.8,4.7l-1.3-5.2c0.4-0.2,1.1-0.5,1.8-0.7
					c0.3-0.1,1.6-0.6,1.9-0.7c1.7-0.5,2.4-0.8,3.2-0.9c1.8-0.6,4.2-1,6.6-1.4c0.1,0,1.2-0.1,1.2-0.1c0.1,0,1.4-0.1,1.5-0.1
					c0.6-0.1,1.5-0.2,3.8-0.2c3.4,0,5.8,0.1,8.2,0.5c2.9,0.5,5,0.8,7.1,1.4c0.4,0.1,1.1,0.3,1.8,0.5l2.7,0.9
					c0.7,0.3,1.4,0.5,2.1,0.8c0.3,0.1,1.5,0.6,1.8,0.7c1.7,0.8,2.4,1.2,3.2,1.6c1.2,0.6,1.8,1,2.3,1.3c-0.2-0.3-0.4-0.7-0.6-1.1
					c-1.4-2.3-2.7-4-4.1-5.5c-1.9-2-4.1-3.7-6.4-5.1c-2.3-1.4-5-2.6-8.2-3.5c-2.8-0.8-5.8-1.2-9.1-1.2l-1.4-5.3l0.3,5.4l-3.2,0.3
					c-1.3,0.2-1.9,0.2-2.5,0.4l-2.5,0.6c-2.9,0.8-5.6,2-7.9,3.4c-1.2,0.7-2.1,1.4-3,2l-1.5,1.2c-0.6,0.5-1.2,1-1.7,1.6
					c-1.8,1.8-3.1,3.6-4.4,5.9c-0.2,0.4-0.4,0.7-0.6,1.1c0.5-0.3,1-0.6,1.5-0.9c1.6-0.9,2.4-1.3,3.3-1.7
					C134.3,146.6,135.3,146.1,135.5,146z"/>
			</g>
		</g>
	</g>
	<g>
		<g>
			<g>
				<path fill="currentColor" d="M299.1,378.2c0,27.5-15.4,49.8-34.4,49.8s-34.4-22.3-34.4-49.8s15.4-49.8,34.4-49.8
					C283.7,328.4,299.1,350.7,299.1,378.2z"/>
				<path fill="currentColor" d="M264.7,433.3c-21.9,0-39.7-24.7-39.7-55.2c0-30.4,17.8-55.1,39.7-55.1s39.7,24.7,39.7,55.1
					C304.5,408.6,286.6,433.3,264.7,433.3z M264.7,333.8c-15.7,0-29,20.3-29,44.4s13.3,44.4,29,44.4s29-20.3,29-44.4
					C293.7,354.1,280.4,333.8,264.7,333.8z"/>
			</g>
		</g>
	</g>
	<g>
		<g>
			<path fill="currentColor" d="M462.4,71.2c-12.9,0-23.5-10.5-23.5-23.4s10.5-23.5,23.5-23.5c12.9,0,23.4,10.5,23.4,23.5
				C485.8,60.7,475.3,71.2,462.4,71.2z M462.4,35c-7,0-12.7,5.7-12.7,12.7s5.7,12.7,12.7,12.7s12.7-5.7,12.7-12.7S469.4,35,462.4,35
				z"/>
		</g>
	</g>
	<g>
		<g>
			<path fill="currentColor" d="M481.3,117.1c-10.3,0-18.7-8.4-18.7-18.7s8.4-18.8,18.7-18.8c10.3,0,18.8,8.4,18.8,18.8
				C500.1,108.7,491.7,117.1,481.3,117.1z M481.3,90.4c-4.4,0-8,3.6-8,8s3.6,8,8,8s8-3.6,8-8C489.4,94,485.8,90.4,481.3,90.4z"/>
		</g>
	</g>
	<g>
		<g>
			<path fill="currentColor" d="M426.2,117.1c-8.1,0-14.6-6.6-14.6-14.6c0-8.1,6.6-14.7,14.6-14.7c8.1,0,14.6,6.6,14.6,14.7
				C440.9,110.6,434.3,117.1,426.2,117.1z M426.2,98.6c-2.1,0-3.9,1.8-3.9,3.9c0,2.2,1.7,3.9,3.9,3.9c2.2,0,3.9-1.8,3.9-3.9
				C430.1,100.3,428.4,98.6,426.2,98.6z"/>
		</g>
	</g>
</g>
</svg>
