<svg id="Camada_1" data-name="Camada 1" xmlns="http://www.w3.org/2000/svg" viewBox="0 0 512.8 512.8">
  <path d="M256,512.4C114.6,512.4-.4,397.4-.4,256S114.6-.4,256-.4,512.4,114.6,512.4,256,397.4,512.4,256,512.4Zm0-491.3C126.5,21.1,21.1,126.5,21.1,256S126.5,490.9,256,490.9,490.9,385.5,490.9,256,385.5,21.1,256,21.1Zm0,324.2a68.4,68.4,0,0,1,58.5,32.6,59.9,59.9,0,0,0-117,0A68.6,68.6,0,0,1,256,345.3Zm-58.5,38a4.8,4.8,0,0,1-2-.4,5.5,5.5,0,0,1-3.3-6.1c6.2-29.8,33-51.5,63.8-51.5s56.7,20.9,63.5,50a5.5,5.5,0,0,1,.6,2.6,5.4,5.4,0,0,1-5.4,5.4h-.2a5.3,5.3,0,0,1-4.6-2.6,63.4,63.4,0,0,0-107.8,0A5.5,5.5,0,0,1,197.5,383.3ZM256,336.1a54.6,54.6,0,0,0-34.5,12.3c20.9-10.9,48.2-10.9,69.1,0A54.5,54.5,0,0,0,256,336.1Zm36.8-145.2,4.7-3.1c1.4-1,3.2-2.1,5.2-3.6l6.5-4.5,3.7-2.6,3.9-2.7,8.2-6,4.3-3.1,4.3-3.3a45.8,45.8,0,0,0,4.3-3.4c1.4-1.2,2.9-2.3,4.4-3.4s5.7-4.8,8.6-7l4.1-3.5,4.1-3.4,7.7-6.7c1.3-1,2.5-2.1,3.6-3.1l3.4-2.9c2.2-1.9,4.4-3.5,6.2-5.2s3.5-2.9,4.9-4l3.4-2.5,1.3-.9-.3,1.5c-.3.9-.6,2.3-1.1,4.1s-1.2,3.8-2.1,6.2a79.7,79.7,0,0,1-3.4,7.7c-1.4,2.7-2.9,5.7-4.8,8.7s-4.1,6-6.4,9.1c-1.2,1.5-2.5,2.9-3.9,4.4s-2.7,3-4.1,4.4c-3,2.8-6,5.6-9.2,8.2l-5,3.7c-1.7,1.2-3.4,2.4-5.1,3.4-3.5,2.1-7,4.1-10.5,5.8a81.8,81.8,0,0,1-10.4,4.3c-3.4,1.1-6.7,2-9.7,2.7l-4.4.8-4,.5a54,54,0,0,1-6.6.3,39.1,39.1,0,0,1-4.3-.3Zm5.8,5.9h-.1a43.4,43.4,0,0,1-4.4-.3l-2.6-.4a5.4,5.4,0,0,1-3.8-4.3,5.5,5.5,0,0,1,2.2-5.3l4.8-3.2,2.2-1.5,2.8-1.9,6.6-4.6a31.5,31.5,0,0,0,2.7-1.9l2.5-1.8,1.8-1.3,3.2-2.3,5.2-3.8,2.2-1.6,2-1.5,4.5-3.5,3.1-2.4,1-.8,3.5-2.7,2.7-2.2c2.3-1.9,4.5-3.8,6.9-5.6l4-3.4,1.1-.9,3.2-2.6c2.3-2.1,5-4.4,7.6-6.6l2.4-2,7.4-6.3a30.2,30.2,0,0,0,3.2-2.7c2-1.8,3.8-3.2,5.2-4.3l2.7-2.1,2.2-1.6a5.3,5.3,0,0,1,5.9,0,5.5,5.5,0,0,1,2.4,5.4s-.1.6-.4,1.8l-.3,1.3a31.9,31.9,0,0,1-.9,3.1c-.5,1.8-1.2,3.9-2.1,6.4a75.3,75.3,0,0,1-3.3,7.5l-1.3,2.6a82.1,82.1,0,0,1-4.2,7.5c-2,3-4.2,6.2-6.6,9.3l-4.1,4.8c-1.3,1.5-2.7,3.1-4.2,4.6-3.2,3.1-6.4,6-9.7,8.7l-5.2,3.9c-1.7,1.3-3.6,2.5-5.5,3.7a85.6,85.6,0,0,1-11.1,6,87.6,87.6,0,0,1-10.8,4.4c-3.7,1.2-7.1,2.1-10.3,2.8l-4.9.8-4.4.5A60.4,60.4,0,0,1,298.6,196.8Zm79.9-65.3-5.5,4.7-3,2.6c-2.2,1.9-4.8,4-7.3,6.3l-3.1,2.6-1.1,1c-1.4,1.1-2.7,2.3-4,3.5s-4.6,3.7-6.8,5.5l-7.3,5.8a32.7,32.7,0,0,1-3.7,2.8c-1.3.9-2.6,2-4,3.1a24.8,24.8,0,0,1-2.6,1.9,10.9,10.9,0,0,0-1.7,1.3l-5.5,4.1-2.8,2a18,18,0,0,1-2.5,1.8l-1.3.9-3.9,2.8-1.1.7,1.5-.3a83.4,83.4,0,0,0,9-2.5,75.6,75.6,0,0,0,9.6-4,100.2,100.2,0,0,0,10.1-5.5c1.6-1,3.2-2,4.7-3.1l4.2-3.2c3.7-2.9,6.6-5.7,9.5-8.4,1.2-1.2,2.5-2.7,3.7-4.1l3.8-4.3c2.2-2.8,4.2-5.8,6.1-8.7a68.8,68.8,0,0,0,3.6-6.4l.9-1.8ZM219.2,190.9l-1.5.2a37.3,37.3,0,0,1-4.3.3,54,54,0,0,1-6.6-.3l-4-.5-4.4-.8a90.2,90.2,0,0,1-9.7-2.7,80.7,80.7,0,0,1-10.3-4.3,77.2,77.2,0,0,1-10.5-5.8,56.5,56.5,0,0,1-5.1-3.4l-5-3.7c-3.2-2.6-6.2-5.4-9.2-8.2l-4.1-4.4-3.9-4.4c-2.3-3.1-4.5-6.2-6.4-9.1a76.7,76.7,0,0,1-4.8-8.7,60.9,60.9,0,0,1-3.4-7.7c-.9-2.4-1.5-4.5-2.1-6.2s-.9-3.1-1.1-4.1l-.3-1.5,1.3.9,3.4,2.5c1.4,1.1,3.1,2.4,4.9,4l6.2,5.2,3.4,2.9c1.2,1,2.3,2.1,3.6,3.1s5.1,4.3,7.7,6.7l4.1,3.4,4.1,3.5c2.9,2.2,5.8,4.6,8.6,7l4.4,3.4a45.8,45.8,0,0,0,4.3,3.4l4.3,3.3c1.4,1.1,2.9,2,4.2,3.1l8.2,6,3.9,2.7,3.7,2.6,6.5,4.5c2,1.4,3.8,2.5,5.2,3.6Zm-5.8,5.9a64.6,64.6,0,0,1-7.2-.3L202,196l-4.6-.8a107.4,107.4,0,0,1-10.4-2.8,93.3,93.3,0,0,1-11.1-4.6,99.8,99.8,0,0,1-10.9-6c-1.8-1.1-3.7-2.4-5.5-3.7a45,45,0,0,1-3.7-2.8l-1.2-.9c-3.5-2.9-6.6-5.7-9.7-8.6l-4.4-4.8-1-1.1-3-3.5-6.8-9.5a83.8,83.8,0,0,1-4.3-7.5l-.9-1.7a67.4,67.4,0,0,1-3.8-8.5q-1.4-3.6-2.1-6.3c-.4-1.3-.7-2.5-.9-3.4l-.3-1.1-.3-1.5a5.4,5.4,0,0,1,2.2-5.5,5.3,5.3,0,0,1,5.9-.1l1.5,1,3.6,2.7c1.4,1.1,3.2,2.5,5.1,4.2l3.3,2.7,7.3,6.2,2.3,2c2.8,2.3,5.5,4.6,8.1,7l2.9,2.4,1.1.9,4.3,3.7c2.3,1.7,4.9,3.9,7.4,6l1.8,1.4,3.5,2.7,1.3,1,2.7,2.1,4.6,3.5,2.1,1.5,2.2,1.6,5.1,3.7,2.9,2.1a17.2,17.2,0,0,0,2.1,1.5l1.8,1.2.9.6,2.5,1.7,6.6,4.6,2.9,2,2.5,1.7,4.6,3a5.3,5.3,0,0,1,2.2,5.3,5.3,5.3,0,0,1-3.9,4.3l-2.3.4c-1.2.1-2.8.3-4.7.3C213.5,196.8,213.5,196.8,213.4,196.8Zm-79.9-65.3.3.5,1.2,2.4c1.1,2.1,2.2,4.3,3.6,6.5s4,5.8,6.3,8.8l2.6,3,1,1.1,3.9,4.3c2.7,2.5,5.6,5.3,8.7,7.8l4.7,3.5c1.6,1.2,3.2,2.2,4.7,3.2a90.7,90.7,0,0,0,9.9,5.5,72.9,72.9,0,0,0,10,4.1c3.1,1,6.2,1.8,9,2.5l1.3.2-1.2-.8-2.9-2-2.3-1.6a23.4,23.4,0,0,1-2.7-2l-2.6-1.9-5.4-4-1.8-1.3-2.6-1.9-4.1-3.1a25,25,0,0,1-3.3-2.6l-6.7-5.3c-2.4-2-4.9-4.1-7.4-6s-2.9-2.6-4.3-3.7l-1.2-1-2.8-2.3c-2.9-2.6-5.4-4.7-7.9-6.8l-2.9-2.5ZM296.1,204l1,1.4,2.6,4.1,1.9,2.8,2.3,3.1,2.6,3.4,1.4,1.8,1.6,1.8a81.5,81.5,0,0,0,7.2,7.2,69,69,0,0,0,8.7,6.3,41.3,41.3,0,0,0,9.9,4.3,37,37,0,0,0,10.5,1.5h2.8a13.1,13.1,0,0,0,2.5-.3h1.1l1.3-.3,2.6-.6a45.3,45.3,0,0,0,9.8-4.4l2.3-1.4,2.2-1.6c1.5-1,2.8-2.3,4.2-3.3a81.5,81.5,0,0,0,7.2-7.2l3.1-3.6,2.7-3.4,2.3-3.1c.7-1,1.4-1.9,1.9-2.8l2.7-4a7.9,7.9,0,0,1,1-1.4s0,.6.1,1.7a29.2,29.2,0,0,1-.1,5c-.1,1.1-.2,2.2-.4,3.5a36.8,36.8,0,0,1-.8,4.1c-.3,1.5-.7,3-1.2,4.7a39.1,39.1,0,0,1-1.8,5.1,64.5,64.5,0,0,1-5.8,10.9,52.4,52.4,0,0,1-9.6,10.6,35,35,0,0,1-3,2.4l-3.3,2.2-3.5,2-3.8,1.6a31,31,0,0,1-4,1.3,12.9,12.9,0,0,1-2.1.6l-2.3.4c-1.5.2-3.3.6-4.3.6h-4.1a49,49,0,0,1-16.6-3.2l-3.8-1.6-3.5-2a23.7,23.7,0,0,1-3.3-2.2,23.4,23.4,0,0,1-3.1-2.4,55.7,55.7,0,0,1-9.7-10.5,58.8,58.8,0,0,1-5.9-10.9c-.3-.9-.7-1.7-1-2.6s-.5-1.7-.8-2.5a46.4,46.4,0,0,1-1.2-4.7,52.5,52.5,0,0,1-1.1-7.7,39.1,39.1,0,0,1,0-4.9A7.7,7.7,0,0,0,296.1,204ZM346,266.3h-.3a52.5,52.5,0,0,1-18.5-3.6l-1.2-.5-2.9-1.3-3.9-2.2a28.5,28.5,0,0,1-2.6-1.7l-.9-.6a28,28,0,0,1-3.7-2.9,63.9,63.9,0,0,1-10.4-11.3,61.1,61.1,0,0,1-6.5-12.2l-1-2.5-1-3a45.2,45.2,0,0,1-1.3-5.4,43.2,43.2,0,0,1-1.1-8.2,19.6,19.6,0,0,1,0-4.2v-1.2c.1-1.4.1-2.1.1-2.1a5.2,5.2,0,0,1,4-4.6,5.1,5.1,0,0,1,5.7,2.2l1.8,2.8c.5.8,1,1.7,1.7,2.7l1.9,2.8,1.4,2,.7,1a36.5,36.5,0,0,0,2.4,3.1l2.9,3.4a55.4,55.4,0,0,0,6.9,6.8,51.9,51.9,0,0,0,7.8,5.6,42.6,42.6,0,0,0,8.7,3.8,50.6,50.6,0,0,0,9,1.4h2.7l2.2-.3,1.7-.3,1-.2,1.3-.4a39.9,39.9,0,0,0,8.6-3.8l2.2-1.4,2-1.5,2-1.5,2-1.6c2-1.9,4.4-4.1,6.4-6.4l2.9-3.3c1-1.2,1.9-2.2,2.6-3.2l2.3-3.1,1.8-2.6a31.1,31.1,0,0,0,1.8-2.7l1.9-2.9a5.5,5.5,0,0,1,5.8-2.2,5.5,5.5,0,0,1,4,4.8v2l-2.2.5.9.6H401a35.5,35.5,0,0,1-.1,4.5c-.1,1-.2,2.2-.4,3.6a28.6,28.6,0,0,1-.6,3.5l-.2,1.1c-.2,1.3-.7,2.9-1.1,4.5a52.2,52.2,0,0,1-1.9,5.6,68.8,68.8,0,0,1-6.6,12.6,61.8,61.8,0,0,1-10.7,11.8,34.7,34.7,0,0,1-3.3,2.6,23.6,23.6,0,0,1-3.9,2.5l-3.5,2-4.2,1.9-3.1,1.1-1.3.4-2.6.8-2.6.5a50.8,50.8,0,0,1-5.2.7h-1.4C348.3,266.2,346.1,266.3,346,266.3Zm-41.5-41.5.5,1.4a61.1,61.1,0,0,0,5.3,9.9,48.8,48.8,0,0,0,8.5,9.3,22.2,22.2,0,0,0,2.7,2.1l1.2.8,1.6,1,3.7,2,2.2.9,1,.4a43.6,43.6,0,0,0,14.6,2.8l.2,5.4v-5.4h.8l.5,5.3.6-5.4h1.6a14.5,14.5,0,0,0,2.9-.4l3.2-.5,1-.3,1.9-.6,1.9-.6,6-3,2.9-1.8a22.3,22.3,0,0,0,3.2-2.5,50,50,0,0,0,8.9-9.8,66.1,66.1,0,0,0,5.2-9.7l.6-1.5-1.2,1.3a77.3,77.3,0,0,1-7.6,7.5l-1.9,1.6a34,34,0,0,1-3,2.3,13.3,13.3,0,0,0-1.9,1.4l-2.7,1.7a49.8,49.8,0,0,1-11.2,5,9.3,9.3,0,0,1-2.1.6l-3.5.7a15.7,15.7,0,0,1-3.3.4h-3.9a42.7,42.7,0,0,1-10.7-1.7,50.5,50.5,0,0,1-11.1-4.8,57.6,57.6,0,0,1-9.5-6.8,73.7,73.7,0,0,1-7.9-7.9ZM116.4,204l1,1.4,2.6,4.1,1.8,2.8,2.3,3.1,2.7,3.4,1.4,1.8,1.6,1.8a81.5,81.5,0,0,0,7.2,7.2,63.5,63.5,0,0,0,8.8,6.3,40.6,40.6,0,0,0,9.8,4.3,37,37,0,0,0,10.5,1.5H169a13.2,13.2,0,0,0,2.6-.3h1.1l1.3-.3a22.7,22.7,0,0,0,2.5-.6,45.3,45.3,0,0,0,9.8-4.4l2.3-1.4,2.2-1.6c1.5-1,2.8-2.3,4.2-3.3a99.6,99.6,0,0,0,7.3-7.2l3.1-3.6,2.7-3.4,2.3-3.1,1.9-2.8c1.2-1.7,2-3.1,2.7-4l1-1.4s0,.6.1,1.7a45.3,45.3,0,0,1-.1,5c-.1,1.1-.2,2.2-.3,3.5a36.8,36.8,0,0,1-.8,4.1c-.3,1.5-.8,3-1.2,4.7a39.1,39.1,0,0,1-1.8,5.1,64.5,64.5,0,0,1-5.8,10.9,52.4,52.4,0,0,1-9.6,10.6,35,35,0,0,1-3,2.4l-3.3,2.2-3.5,2-3.8,1.6a31,31,0,0,1-4,1.3,12.9,12.9,0,0,1-2.1.6l-2.3.4c-1.5.2-3.3.6-4.3.6H166a47.9,47.9,0,0,1-16.5-3.2l-3.8-1.6-3.5-2a23.7,23.7,0,0,1-3.3-2.2,17.6,17.6,0,0,1-3-2.4,55.7,55.7,0,0,1-9.7-10.5,58.8,58.8,0,0,1-5.9-10.9,27.7,27.7,0,0,1-1-2.6c-.3-.8-.5-1.7-.8-2.5a46.4,46.4,0,0,1-1.2-4.7,50.9,50.9,0,0,1-1-7.7,39.1,39.1,0,0,1,0-4.9A11.5,11.5,0,0,1,116.4,204Zm49.9,62.3H166a52.5,52.5,0,0,1-18.5-3.6l-4.1-1.8-3.9-2.2a16.4,16.4,0,0,1-2.6-1.7l-.9-.6a28,28,0,0,1-3.7-2.9,60,60,0,0,1-10.4-11.3,61.1,61.1,0,0,1-6.5-12.2l-1.7-4.8-.5-1.6a26.8,26.8,0,0,1-1.1-4.5,69,69,0,0,1-1.1-8.2,29.3,29.3,0,0,1,0-4.2v-3.2a5.6,5.6,0,0,1,3.8-4.8,5.3,5.3,0,0,1,5.8,1.9,14.4,14.4,0,0,1,1.2,1.8l.7,1.2,1.8,2.7,4.1,5.9a31.5,31.5,0,0,0,2.4,3l3,3.5a72,72,0,0,0,6.8,6.7,55.2,55.2,0,0,0,7.8,5.6,38.3,38.3,0,0,0,8.7,3.8,32.5,32.5,0,0,0,9,1.4h2.7l2.2-.3,1.7-.3,1.1-.2,1.3-.4a36.3,36.3,0,0,0,8.6-3.9l2.3-1.4a12.1,12.1,0,0,1,2-1.4l2-1.6,2-1.6a77.3,77.3,0,0,0,6.4-6.4l2.9-3.3L204,212l4.2-5.8,1.8-2.7,1.8-2.7a5.4,5.4,0,0,1,9.8,2.6v2l-2.2.6,1.1.7h1.1a34,34,0,0,1-.1,4.4c0,.5-.1,1.4-.2,2.3v1.2a25,25,0,0,1-.5,2.9l-.3,1.6a34.8,34.8,0,0,1-1,4.1l-.3,1.1a47.4,47.4,0,0,1-2,5.6,66,66,0,0,1-6.3,11.9,60.8,60.8,0,0,1-10.7,11.8,27.1,27.1,0,0,1-3.4,2.6c-1.8,1.2-2.7,1.9-3.8,2.5l-3.5,2-4.2,1.8a17.3,17.3,0,0,1-3.2,1.1l-1.3.4-2.6.8-2.6.5a50.8,50.8,0,0,1-5.2.7h-1.3Zm-41.5-41.4.5,1.2a57.8,57.8,0,0,0,5.3,10,47.8,47.8,0,0,0,8.5,9.3,15.3,15.3,0,0,0,2.7,2.1l1.1.8a9.1,9.1,0,0,0,1.6,1.1l3.6,2,2.6,1.1a44.9,44.9,0,0,0,15.3,3.1l.2,5.4v-5.4h.8l.6,5.3.6-5.4h1.6a13.5,13.5,0,0,0,2.9-.4l3.2-.5.9-.3,2-.6,1.9-.7,6.8-3.4a17.4,17.4,0,0,0,2-1.3l.9-.6a22.3,22.3,0,0,0,2.4-1.9,50,50,0,0,0,8.9-9.8,54.6,54.6,0,0,0,5.2-9.7l.6-1.5a6.9,6.9,0,0,0-1.1,1.3c-2.2,2.5-4.8,5-7.6,7.6l-1.9,1.5a34,34,0,0,1-3,2.3,13.3,13.3,0,0,0-1.9,1.4l-2.6,1.6a51.1,51.1,0,0,1-11.4,5.1l-2.1.6-3.5.7a15.7,15.7,0,0,1-3.3.4h-3.9a42.7,42.7,0,0,1-10.8-1.7,51,51,0,0,1-11.1-4.8,60.3,60.3,0,0,1-9.5-6.8,97.6,97.6,0,0,1-7.9-7.8Zm149.3,44.8,70.5,161.7,43.7-32.7Zm70.5,167.1-1.4-.2a5,5,0,0,1-3.5-3L269.2,271.8a5.3,5.3,0,0,1,8.9-5.7l114.2,129a5.1,5.1,0,0,1,1.3,4.1,5.2,5.2,0,0,1-2.1,3.8l-43.7,32.7A5.4,5.4,0,0,1,344.6,436.8Zm-52-138.1,54.2,124.4,33.6-25.2Zm129.6,93.7a19.2,19.2,0,0,0-7.8-15.4,22.1,22.1,0,0,0,.4-3.7,19,19,0,0,0-34-11.6h-.6A30.5,30.5,0,0,0,355.7,374a19,19,0,0,0-30.8,14.9,18,18,0,0,0,1.2,6.6,30.7,30.7,0,1,0,30.3,53.2,19,19,0,0,0,34.9-2.2h.5a30.6,30.6,0,0,0,27.6-43.8A21.5,21.5,0,0,0,422.2,392.4Zm-51.1,72a24.1,24.1,0,0,1-18.7-8.8,36,36,0,0,1-34.7-62.8,26,26,0,0,1-.3-4,24.4,24.4,0,0,1,24.4-24.4,25.2,25.2,0,0,1,10.8,2.5,35.8,35.8,0,0,1,23.7-10.6,24.4,24.4,0,0,1,41.9,17,7.6,7.6,0,0,1-.1,1.5,24.7,24.7,0,0,1,7.5,17.6,23.8,23.8,0,0,1-2.4,10.5,35,35,0,0,1,2.4,12.8,36,36,0,0,1-33,35.9A24.6,24.6,0,0,1,371.1,464.4Zm-17-21.2,1.4.2a5.3,5.3,0,0,1,3.4,2.8,13.6,13.6,0,0,0,25-1.6A5.4,5.4,0,0,1,389,441h0a25.4,25.4,0,0,0,25.7-25.3,24.1,24.1,0,0,0-2.5-10.8,5.4,5.4,0,0,1,.3-5.2,13.7,13.7,0,0,0-3.5-18.3,5.3,5.3,0,0,1-2.1-5.4,10.9,10.9,0,0,0,.3-2.6,13.6,13.6,0,0,0-13.7-13.6,13.4,13.4,0,0,0-10.8,5.3,5.2,5.2,0,0,1-4.8,2.1h.1a25.1,25.1,0,0,0-20.2,10.1,5.4,5.4,0,0,1-3.6,2.1,5.2,5.2,0,0,1-4-1.1,13.8,13.8,0,0,0-8.5-3A13.5,13.5,0,0,0,329,393.7a5.4,5.4,0,0,1-2.7,6.7,25.2,25.2,0,0,0,11,48,24.5,24.5,0,0,0,13.9-4.2A4.3,4.3,0,0,1,354.1,443.2ZM237.9,269.7,167.4,431.4l-43.7-32.7ZM167.4,436.8a5.2,5.2,0,0,1-3.2-1.1L120.5,403a5.2,5.2,0,0,1-2.1-3.8,5.1,5.1,0,0,1,1.3-4.1l114.2-129a5.3,5.3,0,0,1,8.9,5.7L172.3,433.6a5.5,5.5,0,0,1-3.5,3Zm-35.8-38.9,33.6,25.2,54.2-124.4Zm-39.7-5.5A19.2,19.2,0,0,1,99.7,377a15,15,0,0,1-.4-3.7,19,19,0,0,1,34.1-11.6h.6A30.5,30.5,0,0,1,158.5,374a19,19,0,0,1,30.8,14.9,18,18,0,0,1-1.2,6.6,30.7,30.7,0,1,1-30.2,53.2,19,19,0,0,1-34.9-2.2h-.5a30.7,30.7,0,0,1-30.7-30.7,30.3,30.3,0,0,1,3-13.1A20.5,20.5,0,0,1,91.9,392.4Zm49.1,72a24.4,24.4,0,0,1-21.5-12.9,36.1,36.1,0,0,1-32.9-35.9A35,35,0,0,1,89,402.8a24.1,24.1,0,0,1-2.4-10.5,24.4,24.4,0,0,1,7.5-17.6c0-.5-.1-1-.1-1.5a24.4,24.4,0,0,1,41.9-17,35.8,35.8,0,0,1,23.7,10.6,24.8,24.8,0,0,1,10.8-2.5,24.4,24.4,0,0,1,24.4,24.4,28,28,0,0,1-.3,4A35.6,35.6,0,0,1,211,422.9a36,36,0,0,1-36,36,34.5,34.5,0,0,1-15.2-3.4A24.2,24.2,0,0,1,141,464.4ZM118.4,359.7a13.7,13.7,0,0,0-13.7,13.6,10.7,10.7,0,0,0,.3,2.5,5.6,5.6,0,0,1-2.1,5.5,13.6,13.6,0,0,0-3.4,18.4,5.4,5.4,0,0,1,.3,5.2A25.2,25.2,0,0,0,122.6,441c2.3,0,4.8,1.4,5.5,3.6a13.7,13.7,0,0,0,25.1,1.6,5.3,5.3,0,0,1,3.4-2.8,5.4,5.4,0,0,1,4.3.7A25.3,25.3,0,0,0,200.1,423a25.1,25.1,0,0,0-14.3-22.7,5.3,5.3,0,0,1-2.7-6.7,13.5,13.5,0,0,0-12.8-18.4,13.4,13.4,0,0,0-8.5,3,5.2,5.2,0,0,1-4,1.1,5.4,5.4,0,0,1-3.6-2.1A25.1,25.1,0,0,0,134,367.1a5.5,5.5,0,0,1-4.8-2A13.4,13.4,0,0,0,118.4,359.7Z" transform="translate(0.4 0.4)" fill="currentColor"/>
</svg>
