<?xml version="1.0" encoding="utf-8"?>
<!-- Generator: Adobe Illustrator 24.0.1, SVG Export Plug-In . SVG Version: 6.00 Build 0)  -->
<svg version="1.1" id="Camada_1" focusable="false" xmlns="http://www.w3.org/2000/svg" xmlns:xlink="http://www.w3.org/1999/xlink"
	 x="0px" y="0px" viewBox="0 0 512 512" style="enable-background:new 0 0 512 512;" xml:space="preserve">
<g>
	<g>
		<g>
			<g>
				<path fill="currentColor" d="M256,512.4C114.6,512.4-0.4,397.4-0.4,256S114.6-0.4,256-0.4s256.4,115,256.4,256.4S397.4,512.4,256,512.4z M256,21.1
					C126.5,21.1,21.1,126.5,21.1,256S126.5,490.9,256,490.9S490.9,385.5,490.9,256S385.5,21.1,256,21.1z"/>
			</g>
		</g>
	</g>
	<g>
		<g>
			<path fill="currentColor" d="M256,345.3c24.8,0,46.5,13,58.5,32.6c-5.6-26.9-29.6-47.2-58.5-47.2s-52.9,20.3-58.5,47.2
				C209.5,358.4,231.2,345.3,256,345.3z"/>
			<path fill="currentColor" d="M197.5,383.3c-0.7,0-1.3-0.1-2-0.4c-2.4-1-3.8-3.5-3.3-6.1c6.2-29.8,33-51.5,63.8-51.5c30.3,0,56.7,20.9,63.5,50
				c0.4,0.8,0.6,1.6,0.6,2.6c0,3-2.4,5.4-5.4,5.4c-0.1,0-0.1,0-0.2,0c-1.8,0-3.6-0.9-4.6-2.6c-11.6-18.8-31.7-30-53.9-30
				s-42.4,11.2-53.9,30C201.1,382.3,199.3,383.3,197.5,383.3z M256,336.1c-12.9,0-25.1,4.6-34.5,12.3c20.9-10.9,48.2-10.9,69.1,0
				C281.1,340.6,268.9,336.1,256,336.1z"/>
		</g>
	</g>
	<g>
		<g>
			<g>
				<g>
					<path fill="currentColor" d="M292.8,190.9c0,0,1.7-1.2,4.7-3.1c1.4-1,3.2-2.1,5.2-3.6c2-1.3,4.2-2.9,6.5-4.5c1.2-0.8,2.4-1.7,3.7-2.6
						c1.2-0.9,2.6-1.7,3.9-2.7c2.6-1.9,5.4-3.9,8.2-6c1.4-1.1,2.9-2,4.3-3.1s2.8-2.2,4.3-3.3c1.5-1,2.9-2.2,4.3-3.4s2.9-2.3,4.4-3.4
						c2.9-2.4,5.7-4.8,8.6-7c1.4-1.2,2.7-2.4,4.1-3.5c1.4-1.2,2.7-2.3,4.1-3.4c2.6-2.3,5.2-4.6,7.7-6.7c1.3-1,2.5-2.1,3.6-3.1
						c1.2-1,2.3-2,3.4-2.9c2.2-1.9,4.4-3.5,6.2-5.2c1.8-1.6,3.5-2.9,4.9-4s2.6-1.9,3.4-2.5s1.3-0.9,1.3-0.9s-0.1,0.5-0.3,1.5
						c-0.3,0.9-0.6,2.3-1.1,4.1c-0.5,1.7-1.2,3.8-2.1,6.2c-0.8,2.4-2.1,4.9-3.4,7.7c-1.4,2.7-2.9,5.7-4.8,8.7c-2,2.9-4.1,6-6.4,9.1
						c-1.2,1.5-2.5,2.9-3.9,4.4c-1.3,1.5-2.7,3-4.1,4.4c-3,2.8-6,5.6-9.2,8.2c-1.6,1.2-3.3,2.5-5,3.7s-3.4,2.4-5.1,3.4
						c-3.5,2.1-7,4.1-10.5,5.8c-3.5,1.8-7,3.1-10.4,4.3c-3.4,1.1-6.7,2-9.7,2.7c-1.5,0.3-3,0.6-4.4,0.8s-2.8,0.4-4,0.5
						c-2.5,0.3-4.8,0.3-6.6,0.3c-1.8,0-3.3-0.2-4.3-0.3C293.3,191,292.8,190.9,292.8,190.9z"/>
					<path fill="currentColor" d="M298.6,196.8h-0.1c-1.8,0-3.3-0.2-4.4-0.3c-1.8-0.2-2.6-0.4-2.6-0.4c-2-0.6-3.5-2.3-3.8-4.3s0.5-4.1,2.2-5.3l4.8-3.2
						c0.5-0.4,1.4-1,2.2-1.5c0.9-0.6,1.8-1.2,2.8-1.9l6.6-4.6c1-0.6,1.9-1.3,2.7-1.9c1.3-1,1.9-1.4,2.5-1.8c0.6-0.4,1.2-0.8,1.8-1.3
						l3.2-2.3c1.7-1.2,3.4-2.5,5.2-3.8c0.7-0.5,1.4-1.1,2.2-1.6c0.7-0.5,1.3-0.9,2-1.5c1.5-1.2,3-2.4,4.5-3.5
						c1.1-0.8,2.1-1.6,3.1-2.4l1-0.8c1.1-0.9,2.3-1.8,3.5-2.7l2.7-2.2c2.3-1.9,4.5-3.8,6.9-5.6c1.2-1,2.6-2.3,4-3.4l1.1-0.9
						c1.1-0.9,2.1-1.8,3.2-2.6c2.3-2.1,5-4.4,7.6-6.6c1-0.8,1.7-1.4,2.4-2l7.4-6.3c1.2-0.9,2.3-1.8,3.2-2.7c2-1.8,3.8-3.2,5.2-4.3
						c1-0.8,2-1.5,2.7-2.1l2.2-1.6c1.8-1.2,4.1-1.2,5.9,0s2.7,3.3,2.4,5.4c0,0-0.1,0.6-0.4,1.8l-0.3,1.3c-0.2,0.9-0.5,1.9-0.9,3.1
						c-0.5,1.8-1.2,3.9-2.1,6.4c-0.8,2.3-2,4.8-3.3,7.5l-1.3,2.6c-1.2,2.4-2.6,5-4.2,7.5c-2,3-4.2,6.2-6.6,9.3
						c-1.4,1.7-2.7,3.2-4.1,4.8c-1.3,1.5-2.7,3.1-4.2,4.6c-3.2,3.1-6.4,6-9.7,8.7c-2.3,1.7-3.7,2.8-5.2,3.9
						c-1.7,1.3-3.6,2.5-5.5,3.7c-2.9,1.8-6.9,4.2-11.1,6c-3.6,1.8-7.3,3.2-10.8,4.4c-3.7,1.2-7.1,2.1-10.3,2.8L310,196
						c-1.6,0.2-3,0.4-4.4,0.5C303,196.8,300.5,196.8,298.6,196.8z M378.5,131.5l-5.5,4.7c-1,0.9-1.9,1.7-3,2.6
						c-2.2,1.9-4.8,4-7.3,6.3c-1.3,1-2.2,1.8-3.1,2.6l-1.1,1c-1.4,1.1-2.7,2.3-4,3.5c-2.5,1.9-4.6,3.7-6.8,5.5l-7.3,5.8
						c-1.2,1-2.4,2-3.7,2.8c-1.3,0.9-2.6,2-4,3.1c-0.8,0.7-1.7,1.3-2.6,1.9c-0.6,0.4-1.2,0.8-1.7,1.3c-1.9,1.4-3.7,2.8-5.5,4.1
						l-2.8,2c-0.6,0.6-1.6,1.2-2.5,1.8l-1.3,0.9c-1.9,1.4-2.9,2.1-3.9,2.8l-1.1,0.7l1.5-0.3c2.7-0.6,5.8-1.4,9-2.5
						c3-1.1,6.4-2.3,9.6-4c3.8-1.7,7.4-3.9,10.1-5.5c1.6-1,3.2-2,4.7-3.1s2.8-2.1,4.2-3.2c3.7-2.9,6.6-5.7,9.5-8.4
						c1.2-1.2,2.5-2.7,3.7-4.1c1.3-1.5,2.6-2.9,3.8-4.3c2.2-2.8,4.2-5.8,6.1-8.7c1.4-2.1,2.5-4.3,3.6-6.4l0.9-1.8
						C378.1,132.3,378.3,131.9,378.5,131.5z"/>
				</g>
			</g>
		</g>
		<g>
			<g>
				<g>
					<path fill="currentColor" d="M219.2,190.9c0,0-0.5,0.1-1.5,0.2c-1,0.1-2.4,0.3-4.3,0.3c-1.8,0-4.1,0-6.6-0.3c-1.3-0.1-2.6-0.3-4-0.5
						s-2.9-0.5-4.4-0.8c-3-0.7-6.3-1.5-9.7-2.7c-3.3-1.2-6.9-2.5-10.3-4.3c-3.6-1.6-7.1-3.6-10.5-5.8c-1.7-1-3.5-2.2-5.1-3.4
						c-1.7-1.2-3.3-2.5-5-3.7c-3.2-2.6-6.2-5.4-9.2-8.2c-1.4-1.5-2.8-3-4.1-4.4c-1.3-1.5-2.6-3-3.9-4.4c-2.3-3.1-4.5-6.2-6.4-9.1
						c-2-2.9-3.4-6-4.8-8.7c-1.4-2.8-2.6-5.3-3.4-7.7c-0.9-2.4-1.5-4.5-2.1-6.2c-0.5-1.7-0.9-3.1-1.1-4.1s-0.3-1.5-0.3-1.5
						s0.5,0.3,1.3,0.9s2,1.4,3.4,2.5c1.4,1.1,3.1,2.4,4.9,4c1.8,1.6,4,3.3,6.2,5.2c1.1,0.9,2.2,1.9,3.4,2.9s2.3,2.1,3.6,3.1
						c2.5,2.1,5.1,4.3,7.7,6.7c1.4,1.1,2.7,2.3,4.1,3.4c1.4,1.1,2.8,2.3,4.1,3.5c2.9,2.2,5.8,4.6,8.6,7c1.5,1.1,2.9,2.2,4.4,3.4
						c1.4,1.2,2.8,2.4,4.3,3.4c1.5,1.1,2.9,2.2,4.3,3.3c1.4,1.1,2.9,2,4.2,3.1c2.8,2.1,5.6,4.1,8.2,6c1.3,1,2.6,1.8,3.9,2.7
						c1.2,0.9,2.5,1.8,3.7,2.6c2.4,1.6,4.6,3.2,6.5,4.5c2,1.4,3.8,2.5,5.2,3.6C217.5,189.7,219.2,190.9,219.2,190.9z"/>
					<path fill="currentColor" d="M213.4,196.8c-2,0-4.4,0-7.2-0.3c-1.2-0.1-2.7-0.3-4.2-0.5l-4.6-0.8c-3.4-0.7-6.9-1.7-10.4-2.8
						c-3.6-1.3-7.4-2.7-11.1-4.6c-3.1-1.4-6.5-3.3-10.9-6c-1.8-1.1-3.7-2.4-5.5-3.7c-1.2-0.8-2.5-1.8-3.7-2.8l-1.2-0.9
						c-3.5-2.9-6.6-5.7-9.7-8.6c-1.6-1.7-3-3.2-4.4-4.8l-1-1.1c-1-1.2-2-2.3-3-3.5c-2.5-3.4-4.7-6.5-6.8-9.5c-1.7-2.5-3-5.1-4.3-7.5
						l-0.9-1.7c-1.8-3.6-3-6.1-3.8-8.5c-0.9-2.4-1.6-4.5-2.1-6.3c-0.4-1.3-0.7-2.5-0.9-3.4c0-0.1-0.3-1.1-0.3-1.1l-0.3-1.5
						c-0.4-2.1,0.4-4.3,2.2-5.5c1.8-1.2,4.1-1.3,5.9-0.1c0,0,0.6,0.4,1.5,1c1.6,1.1,2.5,1.8,3.6,2.7c1.4,1.1,3.2,2.5,5.1,4.2
						c1,0.9,2.1,1.8,3.3,2.7l7.3,6.2c0.7,0.7,1.5,1.4,2.3,2c2.8,2.3,5.5,4.6,8.1,7c0.8,0.6,1.8,1.5,2.9,2.4l1.1,0.9
						c1.4,1.2,2.9,2.4,4.3,3.7c2.3,1.7,4.9,3.9,7.4,6l1.8,1.4c1.2,0.9,2.3,1.8,3.5,2.7l1.3,1c0.9,0.7,1.8,1.5,2.7,2.1
						c1.6,1.2,3.1,2.3,4.6,3.5c0.7,0.6,1.4,1.1,2.1,1.5c0.7,0.5,1.4,1,2.2,1.6c1.7,1.3,3.4,2.5,5.1,3.7l2.9,2.1
						c0.8,0.7,1.5,1.1,2.1,1.5s1.2,0.8,1.8,1.2l0.9,0.6c0.8,0.6,1.7,1.2,2.5,1.7l6.6,4.6c1.1,0.8,2,1.4,2.9,2s1.7,1.1,2.5,1.7l4.6,3
						c1.7,1.2,2.6,3.3,2.2,5.3c-0.3,2.1-1.9,3.8-3.9,4.3c0,0-0.8,0.2-2.3,0.4c-1.2,0.1-2.8,0.3-4.7,0.3
						C213.5,196.8,213.5,196.8,213.4,196.8z M133.5,131.5c0.1,0.2,0.2,0.4,0.3,0.5l1.2,2.4c1.1,2.1,2.2,4.3,3.6,6.5
						c1.9,2.8,4,5.8,6.3,8.8c0.7,0.9,1.7,1.9,2.6,3l1,1.1c1.3,1.4,2.6,2.9,3.9,4.3c2.7,2.5,5.6,5.3,8.7,7.8l4.7,3.5
						c1.6,1.2,3.2,2.2,4.7,3.2c4,2.5,7.1,4.2,9.9,5.5c3.5,1.8,6.8,3,10,4.1c3.1,1,6.2,1.8,9,2.5l1.3,0.2l-1.2-0.8
						c-0.8-0.5-1.8-1.3-2.9-2l-2.3-1.6c-0.9-0.6-1.8-1.2-2.7-2l-2.6-1.9c-1.8-1.3-3.6-2.6-5.4-4c-0.6-0.5-1.2-0.9-1.8-1.3
						c-0.9-0.6-1.7-1.2-2.6-1.9c-1.3-1-2.7-2.1-4.1-3.1c-1.1-0.7-2.2-1.6-3.3-2.6l-6.7-5.3c-2.4-2-4.9-4.1-7.4-6
						c-1.6-1.4-2.9-2.6-4.3-3.7l-1.2-1c-0.9-0.8-1.9-1.6-2.8-2.3c-2.9-2.6-5.4-4.7-7.9-6.8c-0.9-0.7-1.9-1.6-2.9-2.5L133.5,131.5z"
						/>
				</g>
			</g>
		</g>
	</g>
	<g>
		<g>
			<g>
				<path fill="currentColor" d="M296.1,204c0,0,0.3,0.5,1,1.4c0.6,0.9,1.5,2.4,2.6,4.1c0.5,0.8,1.2,1.8,1.9,2.8c0.7,1,1.5,2,2.3,3.1s1.7,2.2,2.6,3.4
					c0.4,0.6,0.9,1.2,1.4,1.8s1,1.2,1.6,1.8c2.1,2.5,4.6,4.8,7.2,7.2c2.7,2.2,5.6,4.5,8.7,6.3c3.2,1.8,6.4,3.4,9.9,4.3
					c3.4,0.9,6.9,1.6,10.5,1.5h0.1c-1,0-0.3,0-0.5,0h0.1h0.1h0.4h0.9l1.7-0.1c1.3,0,1.7-0.2,2.5-0.3l1.1-0.1l1.3-0.3
					c0.9-0.2,1.7-0.3,2.6-0.6c3.4-1,6.7-2.6,9.8-4.4c0.8-0.5,1.6-1,2.3-1.4c0.7-0.6,1.4-1.1,2.2-1.6c1.5-1,2.8-2.3,4.2-3.3
					c2.6-2.4,5.1-4.7,7.2-7.2c1.1-1.2,2.1-2.4,3.1-3.6c1-1.2,1.9-2.3,2.7-3.4c0.8-1.1,1.6-2.1,2.3-3.1c0.7-1,1.4-1.9,1.9-2.8
					c1.2-1.7,2.1-3.1,2.7-4c0.6-1,1-1.4,1-1.4s0,0.6,0.1,1.7c0,1.1,0.2,2.9-0.1,5c-0.1,1.1-0.2,2.2-0.4,3.5
					c-0.1,1.3-0.5,2.6-0.8,4.1s-0.7,3-1.2,4.7c-0.4,1.7-1.1,3.3-1.8,5.1c-1.4,3.5-3.4,7.2-5.8,10.9c-2.6,3.6-5.6,7.4-9.6,10.6
					c-0.9,0.9-2,1.6-3,2.4c-1.1,0.7-2.1,1.5-3.3,2.2c-1.1,0.7-2.3,1.4-3.5,2c-1.3,0.5-2.5,1.1-3.8,1.6c-1.3,0.6-2.7,0.9-4,1.3
					c-0.7,0.2-1.3,0.5-2.1,0.6l-2.3,0.4c-1.5,0.2-3.3,0.6-4.3,0.6l-1.7,0.1H347h-0.4h-0.8h-0.3c-5.7-0.1-11.4-1.2-16.6-3.2
					c-1.3-0.5-2.5-1-3.8-1.6c-1.2-0.7-2.4-1.3-3.5-2c-1.2-0.6-2.2-1.4-3.3-2.2c-1.1-0.7-2.1-1.5-3.1-2.4c-4-3.2-7-6.9-9.7-10.5
					c-2.5-3.7-4.5-7.4-5.9-10.9c-0.3-0.9-0.7-1.7-1-2.6c-0.3-0.8-0.5-1.7-0.8-2.5c-0.5-1.6-0.9-3.2-1.2-4.7
					c-0.7-2.9-0.9-5.6-1.1-7.7c-0.2-2.1,0-3.8,0-4.9C296,204.6,296.1,204,296.1,204z"/>
				<path fill="currentColor" d="M346,266.3h-0.3c-6.4-0.1-12.7-1.3-18.5-3.6l-1.2-0.5c-1-0.4-2-0.8-2.9-1.3l-3.9-2.2c-0.8-0.4-1.7-1.1-2.6-1.7l-0.9-0.6
					c-1.4-0.9-2.6-1.9-3.7-2.9c-4.2-3.4-7.6-7.6-10.4-11.3c-2.9-4.4-5.1-8.4-6.5-12.2l-1-2.5c-0.4-1.2-0.7-2.1-1-3
					c-0.6-2.3-1.1-3.8-1.3-5.4c-0.7-2.9-1-5.8-1.1-8.2c-0.2-1.6-0.1-3,0-4.2c0-0.1,0-1.1,0-1.2c0.1-1.4,0.1-2.1,0.1-2.1
					c0.2-2.2,1.8-4.1,4-4.6c2.2-0.6,4.5,0.3,5.7,2.2l1.8,2.8c0.5,0.8,1,1.7,1.7,2.7l1.9,2.8c0.5,0.7,0.9,1.3,1.4,2l0.7,1
					c0.8,1.1,1.5,2.1,2.4,3.1l2.9,3.4c2.1,2.5,4.4,4.7,6.9,6.8c2.3,1.9,4.9,4,7.8,5.6c3.5,1.9,6.2,3.1,8.7,3.8
					c3.4,0.9,5.9,1.1,9,1.4c0.3,0,1-0.1,1-0.1l1.7-0.1c0.2,0,2-0.3,2.2-0.3l1.7-0.3c0.1,0,1-0.2,1-0.2c0.2-0.1,1.1-0.3,1.3-0.4
					c2.5-0.7,5.2-1.9,8.6-3.8l2.2-1.4c0.4-0.3,1.2-0.9,2-1.5c0.7-0.5,1.3-1,2-1.5c0.7-0.6,1.3-1.1,2-1.6c2-1.9,4.4-4.1,6.4-6.4
					c1.1-1.2,2.1-2.3,2.9-3.3c1-1.2,1.9-2.2,2.6-3.2l2.3-3.1c0.7-1,1.3-1.8,1.8-2.6c0.8-1.1,1.4-2,1.8-2.7l1.9-2.9
					c1.3-1.9,3.7-2.7,5.8-2.2c2.2,0.6,3.8,2.5,4,4.8l0.1,2l-2.2,0.5l0.9,0.6h1.3c0,1.2,0.1,2.8-0.1,4.5c-0.1,1-0.2,2.2-0.4,3.6
					c-0.1,1-0.3,2.2-0.6,3.5l-0.2,1.1c-0.2,1.3-0.7,2.9-1.1,4.5c-0.6,2.2-1.2,3.8-1.9,5.6c-1.8,4.5-3.9,8.5-6.6,12.6
					c-3,4.1-6.3,8.2-10.7,11.8c-0.8,0.8-2.1,1.7-3.3,2.6c-1.8,1.3-2.8,2-3.9,2.5c-1.5,0.9-2.5,1.5-3.5,2l-4.2,1.9
					c-1,0.4-2.1,0.8-3.1,1.1l-1.3,0.4c-1.1,0.4-1.8,0.6-2.6,0.8l-2.6,0.5c-2.6,0.4-4.3,0.7-5.2,0.7l-1.4,0.1
					C348.3,266.2,346.1,266.3,346,266.3z M304.5,224.8l0.5,1.4c1.2,3,3,6.3,5.3,9.9c2.3,3.1,5,6.5,8.5,9.3c1,0.9,1.8,1.5,2.7,2.1
					l1.2,0.8c0.5,0.4,1,0.7,1.6,1l3.7,2c0.5,0.2,1.4,0.6,2.2,0.9l1,0.4c4.4,1.7,9.5,2.7,14.6,2.8l0.2,5.4l-0.1-5.4h0.8l0.5,5.3
					l0.6-5.4l1.6-0.1c1,0,1.9-0.2,2.9-0.4l3.2-0.5c0.2-0.1,0.6-0.2,1-0.3l1.9-0.6c0.6-0.2,1.3-0.4,1.9-0.6l6-3
					c1.6-0.9,2.2-1.4,2.9-1.8c1.6-1.1,2.5-1.8,3.2-2.5c3.8-3.1,6.5-6.5,8.9-9.8c2.1-3.3,3.9-6.6,5.2-9.7c0.2-0.5,0.4-1,0.6-1.5
					c-0.4,0.4-0.8,0.9-1.2,1.3c-2.1,2.5-4.8,5-7.6,7.5c-0.9,0.7-1.4,1.2-1.9,1.6c-1,0.8-1.9,1.6-3,2.3c-0.7,0.4-1.3,0.9-1.9,1.4
					l-2.7,1.7c-4.3,2.5-7.8,4-11.2,5c-0.3,0.2-1.2,0.4-2.1,0.6l-3.5,0.7c-1.1,0.2-1.9,0.4-3.3,0.4l-1.5,0.1V247
					c-0.4,0.1-0.8,0.1-1.2,0.1c-0.1,0-0.2,0-0.2,0l0,0c-0.1,0-0.1,0-0.2,0l0,0c-0.3,0-0.6,0-0.8-0.1c-3,0-6.6-0.6-10.7-1.7
					c-4.4-1.2-8.2-3.2-11.1-4.8c-3.6-2-6.7-4.4-9.5-6.8c-2.7-2.4-5.5-5-7.9-7.9L304.5,224.8z"/>
			</g>
		</g>
		<g>
			<g>
				<path fill="currentColor" d="M116.4,204c0,0,0.4,0.5,1,1.4s1.5,2.4,2.6,4.1c0.5,0.8,1.2,1.8,1.8,2.8c0.7,1,1.5,2,2.3,3.1s1.7,2.2,2.7,3.4
					c0.5,0.6,0.9,1.2,1.4,1.8c0.5,0.6,1.1,1.2,1.6,1.8c2.1,2.5,4.6,4.8,7.2,7.2c2.7,2.2,5.6,4.5,8.8,6.3c3.1,1.8,6.4,3.4,9.8,4.3
					c3.4,0.9,6.9,1.6,10.5,1.5h0.2c-1,0-0.3,0-0.5,0h0.1h0.1h0.4h0.9l1.7-0.1c1.4,0,1.8-0.2,2.6-0.3l1.1-0.1l1.3-0.3
					c0.8-0.2,1.7-0.3,2.5-0.6c3.4-1,6.7-2.6,9.8-4.4c0.8-0.5,1.5-1,2.3-1.4c0.7-0.6,1.4-1.1,2.2-1.6c1.5-1,2.8-2.3,4.2-3.3
					c2.6-2.4,5.1-4.7,7.3-7.2c1.1-1.2,2.1-2.4,3.1-3.6c1-1.2,1.9-2.3,2.7-3.4c0.8-1.1,1.6-2.1,2.3-3.1s1.3-1.9,1.9-2.8
					c1.2-1.7,2-3.1,2.7-4c0.7-1,1-1.4,1-1.4s0,0.6,0.1,1.7c0,1.1,0.1,2.9-0.1,5c-0.1,1.1-0.2,2.2-0.3,3.5s-0.5,2.6-0.8,4.1
					s-0.8,3-1.2,4.7s-1.1,3.3-1.8,5.1c-1.4,3.5-3.4,7.2-5.8,10.9c-2.6,3.6-5.6,7.4-9.6,10.6c-0.9,0.9-2,1.6-3,2.4
					c-1.1,0.7-2.1,1.5-3.3,2.2s-2.3,1.4-3.5,2c-1.3,0.5-2.5,1.1-3.8,1.6c-1.3,0.6-2.7,0.9-4,1.3c-0.7,0.2-1.3,0.5-2.1,0.6l-2.3,0.4
					c-1.5,0.2-3.3,0.6-4.3,0.6l-1.7,0.1h-0.9h-0.4h-0.8H166c-5.7-0.1-11.4-1.2-16.5-3.2c-1.3-0.5-2.6-1-3.8-1.6
					c-1.2-0.7-2.4-1.3-3.5-2c-1.2-0.6-2.2-1.4-3.3-2.2c-1.1-0.7-2.1-1.5-3-2.4c-4-3.2-7-6.9-9.7-10.5c-2.5-3.7-4.5-7.4-5.9-10.9
					c-0.4-0.9-0.7-1.7-1-2.6c-0.3-0.8-0.5-1.7-0.8-2.5c-0.5-1.6-0.9-3.2-1.2-4.7c-0.6-2.9-0.9-5.6-1-7.7c-0.2-2.1,0-3.8,0-4.9
					C116.3,204.6,116.4,204,116.4,204z"/>
				<path fill="currentColor" d="M166.3,266.3H166c-6.4-0.1-12.7-1.3-18.5-3.6c-2-0.8-3.1-1.3-4.1-1.8c-1.5-0.8-2.7-1.5-3.9-2.2c-0.8-0.4-1.7-1-2.6-1.7
					l-0.9-0.6c-1.4-0.9-2.6-1.9-3.7-2.9c-4.3-3.4-7.7-7.7-10.4-11.3c-2.9-4.4-5.1-8.4-6.5-12.2l-1.7-4.8l-0.5-1.6
					c-0.5-1.6-0.9-3-1.1-4.5c-0.6-2.9-0.9-5.8-1.1-8.2c-0.1-1.6-0.1-3,0-4.2c0-0.1,0-1.2,0-1.3l0.1-1.9c0.2-2.2,1.7-4.1,3.8-4.8
					c2.2-0.6,4.5,0.1,5.8,1.9c0,0,0.5,0.6,1.2,1.8l0.7,1.2c0.5,0.8,1.1,1.7,1.8,2.7l4.1,5.9c0.7,1,1.5,2,2.4,3l3,3.5
					c2,2.3,4.3,4.5,6.8,6.7c2.4,2,5,4,7.8,5.6c3.4,1.9,6.1,3.1,8.7,3.8c3.4,0.9,6.5,1.5,9,1.4c0.3,0,1-0.1,1-0.1l1.7-0.1
					c0.2,0,2-0.3,2.2-0.3l1.7-0.3c0.1,0,1-0.2,1.1-0.2c0.2-0.1,1.1-0.3,1.3-0.4c2.5-0.7,5.2-1.9,8.6-3.9c0.5-0.4,1.4-0.9,2.3-1.4
					c0.2-0.2,1.1-0.9,2-1.4c0.7-0.5,1.3-1,2-1.6c0.6-0.5,1.3-1.1,2-1.6c2.1-1.9,4.4-4.1,6.4-6.4c1.1-1.2,2-2.2,2.9-3.3
					c1-1.2,1.8-2.2,2.6-3.2l4.2-5.8c0.7-1,1.3-1.9,1.8-2.7l1.8-2.7c1.3-1.9,3.6-2.7,5.8-2.2c2.2,0.6,3.8,2.5,4,4.8l0.1,2l-2.2,0.6
					l1.1,0.7h1.1c0,1.2,0.1,2.7-0.1,4.4c0,0.5-0.1,1.4-0.2,2.3l-0.1,1.2c-0.1,1-0.3,2-0.5,2.9l-0.3,1.6c-0.2,1.3-0.6,2.7-1,4.1
					l-0.3,1.1c-0.5,1.8-1.2,3.7-2,5.6c-1.4,3.7-3.6,7.7-6.3,11.9c-2.8,3.9-6.2,8.1-10.7,11.8c-0.8,0.8-2.1,1.7-3.4,2.6
					c-1.8,1.2-2.7,1.9-3.8,2.5l-3.5,2l-4.2,1.8c-1,0.5-2.1,0.8-3.2,1.1l-1.3,0.4c-1.2,0.4-1.9,0.6-2.6,0.8l-2.6,0.5
					c-2.6,0.4-4.3,0.7-5.2,0.7l-1.3,0.1C168.6,266.2,166.4,266.3,166.3,266.3z M124.8,224.9l0.5,1.2c1.2,3.1,3,6.4,5.3,10
					c2.1,2.9,4.9,6.4,8.5,9.3c1,0.9,1.8,1.6,2.7,2.1l1.1,0.8c0.5,0.4,1,0.8,1.6,1.1c1.3,0.8,2.5,1.4,3.6,2c0.7,0.3,1.6,0.7,2.6,1.1
					c5.2,2,10.3,3,15.3,3.1l0.2,5.4l-0.1-5.4h0.8l0.6,5.3l0.6-5.4l1.6-0.1c1,0,2-0.2,2.9-0.4l3.2-0.5c0.2,0,0.5-0.2,0.9-0.3l2-0.6
					c0.7-0.2,1.3-0.4,1.9-0.7l6.8-3.4c0.8-0.4,1.4-0.9,2-1.3l0.9-0.6c0.8-0.6,1.7-1.2,2.4-1.9c3.8-3.1,6.5-6.5,8.9-9.8
					c2.2-3.3,4-6.7,5.2-9.7c0.2-0.5,0.4-1,0.6-1.5c-0.4,0.4-0.8,0.8-1.1,1.3c-2.2,2.5-4.8,5-7.6,7.6l-1.9,1.5c-1,0.8-1.9,1.6-3,2.3
					c-0.7,0.4-1.3,0.9-1.9,1.4c-1.3,0.8-2,1.2-2.6,1.6c-4.5,2.6-8,4.1-11.4,5.1c-0.4,0.2-1.4,0.4-2.1,0.6l-3.5,0.7
					c-1.1,0.2-1.9,0.4-3.3,0.4l-1.5,0.1v-0.1c-0.4,0.1-0.7,0.1-1.2,0.1c-0.1,0-0.2,0-0.2,0l0,0c-0.1,0-0.2,0-0.3,0l0,0
					c-0.3,0-0.5,0-0.7-0.1c-3.1,0-6.7-0.6-10.8-1.7c-3.5-1-7-2.5-11.1-4.8c-3.5-1.9-6.6-4.4-9.5-6.8c-3-2.7-5.6-5.2-7.9-7.8
					L124.8,224.9z"/>
			</g>
		</g>
	</g>
	<g>
		<g>
			<g>
				<g>
					<polygon points="274.1,269.7 344.6,431.4 388.3,398.7 					"/>
					<path fill="currentColor" d="M344.6,436.8c-0.5,0-0.9-0.1-1.4-0.2c-1.6-0.4-2.9-1.5-3.5-3l-70.5-161.8c-1.1-2.4-0.2-5.3,2-6.7c2.2-1.4,5.2-1,6.9,1
						l114.2,129c1,1.1,1.5,2.6,1.3,4.1c-0.1,1.5-0.9,2.9-2.1,3.8l-43.7,32.7C346.9,436.4,345.7,436.8,344.6,436.8z M292.6,298.7
						l54.2,124.4l33.6-25.2L292.6,298.7z"/>
				</g>
			</g>
			<g>
				<g>
					<path fill="currentColor" d="M422.2,392.4c0-6.3-3.1-11.9-7.8-15.4c0.2-1.2,0.4-2.4,0.4-3.7c0-10.5-8.5-19-19-19c-6.1,0-11.6,2.9-15,7.4
						c-0.2,0-0.4,0-0.6,0c-10,0-18.9,4.8-24.5,12.3c-3.3-2.6-7.4-4.1-11.8-4.1c-10.5,0-19,8.5-19,19c0,2.3,0.4,4.6,1.2,6.6
						c-10.2,5-17.3,15.4-17.3,27.6c0,16.9,13.7,30.7,30.7,30.7c6.3,0,12-1.9,16.9-5.1c3.1,6.2,9.5,10.5,17,10.5
						c8.3,0,15.3-5.3,17.9-12.7c0.2,0,0.3,0,0.5,0c16.9,0,30.6-13.7,30.6-30.7c0-4.7-1.1-9.1-3-13.1
						C421.1,399.6,422.2,396.1,422.2,392.4z"/>
					<path fill="currentColor" d="M371.1,464.4c-7.4,0-14.2-3.3-18.7-8.8c-4.7,2.2-9.9,3.4-15.2,3.4c-19.9,0-36-16.2-36-36c0-12.4,6.2-23.6,16.5-30.2
						c-0.2-1.3-0.3-2.6-0.3-4c0-13.4,10.9-24.4,24.4-24.4c3.7,0,7.5,0.9,10.8,2.5c6.3-6.4,14.7-10.1,23.7-10.6
						c4.6-4.7,10.8-7.4,17.5-7.4c13.5,0,24.4,10.9,24.4,24.4c0,0.5,0,1-0.1,1.5c4.7,4.6,7.5,10.9,7.5,17.6c0,3.7-0.8,7.2-2.4,10.5
						c1.6,4.1,2.4,8.4,2.4,12.8c0,18.8-14.5,34.4-33,35.9C388.3,459.4,380.1,464.4,371.1,464.4z M354.1,443.2c0.5,0,0.9,0.1,1.4,0.2
						c1.5,0.4,2.7,1.4,3.4,2.8c2.3,4.6,7,7.5,12.2,7.5c5.8,0,10.9-3.7,12.8-9.1c0.8-2.2,2.8-3.6,5.1-3.6l0,0
						c14.4,0,25.7-11.3,25.7-25.3c0-3.7-0.8-7.4-2.5-10.8c-0.8-1.7-0.7-3.6,0.3-5.2c1.4-2.2,2.1-4.7,2.1-7.3c0-4.4-2-8.4-5.6-11
						c-1.7-1.2-2.5-3.3-2.1-5.4c0.2-0.8,0.3-1.7,0.3-2.6c0-7.5-6.1-13.6-13.7-13.6c-4.3,0-8.2,1.9-10.8,5.3
						c-1.1,1.5-2.9,2.3-4.8,2.1h0.1c-8,0-15.4,3.7-20.2,10.1c-0.9,1.2-2.2,1.9-3.6,2.1s-2.9-0.2-4-1.1c-2.4-1.9-5.4-3-8.5-3
						c-7.5,0-13.6,6.1-13.6,13.6c0,1.6,0.3,3.2,0.9,4.8c0.9,2.6-0.2,5.5-2.7,6.7c-8.8,4.3-14.3,13-14.3,22.7
						c0,13.9,11.3,25.3,25.3,25.3c5,0,9.8-1.4,13.9-4.2C352,443.5,353,443.2,354.1,443.2z"/>
				</g>
			</g>
		</g>
		<g>
			<g>
				<g>
					<polygon points="237.9,269.7 167.4,431.4 123.7,398.7 					"/>
					<path fill="currentColor" d="M167.4,436.8c-1.2,0-2.3-0.4-3.2-1.1L120.5,403c-1.2-0.9-2-2.3-2.1-3.8c-0.2-1.5,0.3-3,1.3-4.1l114.2-129
						c1.7-2,4.7-2.4,6.9-1s3.1,4.3,2,6.7l-70.5,161.8c-0.7,1.5-2,2.6-3.5,3C168.3,436.7,167.9,436.8,167.4,436.8z M131.6,397.9
						l33.6,25.2l54.2-124.4L131.6,397.9z"/>
				</g>
			</g>
			<g>
				<g>
					<path fill="currentColor" d="M91.9,392.4c0-6.3,3.1-11.9,7.8-15.4c-0.3-1.2-0.4-2.4-0.4-3.7c0-10.5,8.5-19,19-19c6.1,0,11.6,2.9,15.1,7.4
						c0.2,0,0.4,0,0.6,0c10,0,18.9,4.8,24.5,12.3c3.3-2.6,7.4-4.1,11.8-4.1c10.5,0,19,8.5,19,19c0,2.3-0.4,4.6-1.2,6.6
						c10.3,5,17.3,15.4,17.3,27.6c0,16.9-13.7,30.7-30.6,30.7c-6.3,0-12.1-1.9-16.9-5.1c-3.1,6.2-9.5,10.5-17,10.5
						c-8.3,0-15.3-5.3-17.9-12.7c-0.2,0-0.3,0-0.5,0c-16.9,0-30.7-13.7-30.7-30.7c0-4.7,1.1-9.1,3-13.1
						C93,399.6,91.9,396.1,91.9,392.4z"/>
					<path fill="currentColor" d="M141,464.4c-9,0-17.3-5-21.5-12.9c-18.6-1.7-32.9-17.2-32.9-35.9c0-4.4,0.8-8.7,2.4-12.8c-1.6-3.3-2.4-6.9-2.4-10.5
						c0-6.6,2.7-13,7.5-17.6c0-0.5-0.1-1-0.1-1.5c0-13.4,10.9-24.4,24.4-24.4c6.7,0,12.9,2.7,17.5,7.4c9,0.5,17.4,4.2,23.7,10.6
						c3.3-1.6,7-2.5,10.8-2.5c13.5,0,24.4,10.9,24.4,24.4c0,1.3-0.1,2.6-0.3,4c10.3,6.6,16.5,17.8,16.5,30.2c0,19.9-16.2,36-36,36
						c-5.3,0-10.5-1.1-15.2-3.4C155.1,461.2,148.3,464.4,141,464.4z M118.4,359.7c-7.5,0-13.7,6.1-13.7,13.6c0,0.8,0.1,1.7,0.3,2.5
						c0.4,2.1-0.4,4.2-2.1,5.5c-3.6,2.6-5.6,6.6-5.6,11c0,2.6,0.7,5.1,2.2,7.4c1,1.6,1.1,3.5,0.3,5.2c-1.6,3.4-2.5,7.1-2.5,10.8
						c0,13.9,11.3,25.3,25.3,25.3c2.3,0,4.8,1.4,5.5,3.6c1.9,5.5,7.1,9.1,12.9,9.1c5.2,0,9.8-2.9,12.2-7.5c0.7-1.4,1.9-2.4,3.4-2.8
						s3.1-0.1,4.3,0.7c4.1,2.7,9,4.2,13.9,4.2c13.9,0,25.3-11.4,25.3-25.3c0-9.7-5.5-18.5-14.3-22.7c-2.5-1.2-3.7-4.1-2.7-6.7
						c0.6-1.6,0.9-3.2,0.9-4.8c0-7.5-6.1-13.6-13.7-13.6c-3.1,0-6,1-8.5,3c-1.1,0.9-2.6,1.3-4,1.1c-1.4-0.2-2.7-0.9-3.6-2.1
						c-4.8-6.4-12.2-10.1-20.2-10.1c-1.8,0.2-3.7-0.6-4.8-2C126.6,361.6,122.6,359.7,118.4,359.7z"/>
				</g>
			</g>
		</g>
	</g>
</g>
</svg>
