<?xml version="1.0" encoding="utf-8"?>
<!-- Generator: Adobe Illustrator 24.0.1, SVG Export Plug-In . SVG Version: 6.00 Build 0)  -->
<svg version="1.1" id="Camada_1" focusable="false" xmlns="http://www.w3.org/2000/svg" xmlns:xlink="http://www.w3.org/1999/xlink"
	 x="0px" y="0px" viewBox="0 0 512 512" style="enable-background:new 0 0 512 512;" xml:space="preserve">
<g>
	<g>
		<g>
			<path fill="currentColor" d="M107.8,509.7c-4.7,0-8.6-2.9-11.4-8.5c-0.4-0.8-0.6-1.6-0.6-2.4V226.4c0-3,2.4-5.4,5.4-5.4h104.2c3,0,5.4,2.4,5.4,5.4
				v243.4c-2.3,12.1-4.6,19.4-7.6,24.7c-3,5.4-6.9,6.5-9.6,6.5l0,0c-4.8,0-8.6-3.6-11.6-6.4c-0.7-0.7-1.4-1.3-2.1-1.9
				c-0.4-0.1-1.5,0.3-4.6,3.4c-5.6,5.6-12,12-20.2,12.9c-0.2,0-1.3,0.1-1.5,0.1c-6.1,0-11.1-4-15.5-7.5c-3.6-2.8-7.2-6-9.9-4.9
				c-1.5,0.7-3.9,2.8-6,4.7C118.1,505.3,113.4,509.7,107.8,509.7z M106.5,497.4c0.7,1.2,1.2,1.5,1.3,1.6c1.5-0.1,5.2-3.5,7.2-5.4
				c2.8-2.6,5.8-5.3,9-6.7c1.7-0.7,3.5-1.1,5.4-1.1c6,0,11,4,15.4,7.5c3.1,2.4,6.5,5.2,8.8,5.2c4.4-0.5,8.6-4.4,14-9.8
				c3.5-3.5,7.3-6.7,12.1-6.7c2.5,0,4.9,0.9,7,2.7c0.8,0.7,1.6,1.4,2.5,2.2c1.1,1,2.9,2.7,4,3.3c0.1-0.2,0.3-0.5,0.5-0.8
				c3.1-5.5,5.1-14.3,6.3-20.5V231.8h-93.5V497.4z"/>
		</g>
	</g>
	<g>
		<g>
			<path fill="currentColor" d="M168.9,343.6c-1.6,0-2.9-1.3-2.9-2.9v-90.3c0-1.6,1.3-2.9,2.9-2.9c1.6,0,2.9,1.3,2.9,2.9v90.3
				C171.8,342.3,170.5,343.6,168.9,343.6z"/>
		</g>
	</g>
	<g>
		<g>
			<path fill="currentColor" d="M137.6,464.4c-1.6,0-2.9-1.3-2.9-2.9v-39.9c0-1.6,1.3-2.9,2.9-2.9c1.6,0,2.9,1.3,2.9,2.9v39.9
				C140.5,463.1,139.2,464.4,137.6,464.4z"/>
		</g>
	</g>
	<g>
		<g>
			<path fill="currentColor" d="M168.9,485.1c-1.6,0-2.9-1.3-2.9-2.9V360c0-1.6,1.3-2.9,2.9-2.9c1.6,0,2.9,1.3,2.9,2.9v122.2
				C171.8,483.8,170.5,485.1,168.9,485.1z"/>
		</g>
	</g>
	<g>
		<g>
			<path fill="currentColor" d="M137.6,389.4c-1.6,0-2.9-1.3-2.9-2.9V256.6c0-1.6,1.3-2.9,2.9-2.9c1.6,0,2.9,1.3,2.9,2.9v129.9
				C140.5,388.1,139.2,389.4,137.6,389.4z"/>
		</g>
	</g>
	<g>
		<g>
			<path fill="currentColor" d="M409.5,509.7c-5.6,0-10.3-4.4-14.5-8.2c-2.1-1.9-4.4-4.1-6-4.8c-2.5-1.1-6.3,2.1-9.9,4.9c-4.4,3.5-9.4,7.5-15.5,7.5
				c-0.2,0-1.3-0.1-1.5-0.1c-8.2-0.9-14.5-7.3-20.2-12.9c-3.1-3.1-4.2-3.5-4.5-3.5c-0.7,0.7-1.4,1.4-2.1,2
				c-3.1,2.9-6.9,6.4-11.6,6.4c-2.7,0-6.5-1.1-9.6-6.5c-3-5.3-5.3-12.6-7.4-23.6l-0.1-244.4c0-3,2.4-5.4,5.4-5.4h104.2
				c3,0,5.4,2.4,5.4,5.4v272.3c0,0.8-0.2,1.7-0.6,2.4C418.1,506.8,414.2,509.7,409.5,509.7z M409.5,499v5.4V499L409.5,499L409.5,499
				z M387.9,485.8c1.8,0,3.6,0.4,5.4,1.1c3.2,1.4,6.2,4.1,9,6.7c2,1.8,5.7,5.3,7.2,5.4c0.1-0.1,0.6-0.4,1.3-1.6V231.8h-93.5v238
				c1.1,5.1,3,13.9,6.1,19.4c0.6,1,0.9,1.2,0.9,1.2c0.1-0.4,2.3-2.5,3.6-3.7c0.9-0.8,1.7-1.6,2.5-2.2c2.1-1.8,4.5-2.7,7-2.7
				c4.8,0,8.7,3.2,12.1,6.7c5.4,5.5,9.6,9.4,13.7,9.8l0,0c2.6,0,6.1-2.7,9.1-5.1C376.9,489.7,381.9,485.8,387.9,485.8z"/>
		</g>
	</g>
	<path fill="currentColor" d="M314.1,494.5c-2.1-3.8-3.9-8.5-5.5-14.8c-16.9,4-34.5,6.1-52.6,6.1c-16.3,0-32.3-1.7-47.7-5c-1.5,5.9-3.2,10.3-5.2,13.7
		c-1.8,3.3-3.9,5-5.9,5.8c18.9,4.5,38.5,6.9,58.8,6.9c21.5,0,42.4-2.7,62.4-7.8C316.9,498.4,315.5,496.8,314.1,494.5z"/>
	<path fill="currentColor" d="M256,2.3C116.8,2.3,3.6,115.5,3.6,254.7c0,78.4,35.9,148.6,92.2,194.9v-28.8c-43.6-42-70.7-101-70.7-166.2
		c0-127.3,103.6-230.9,231-230.9C383.4,23.7,487,127.3,487,254.6c0,62.5-24.9,119.2-65.4,160.8V445c53.2-46.3,86.9-114.5,86.9-190.4
		C508.4,115.5,395.2,2.3,256,2.3z"/>
	<g>
		<g>
			<path fill="currentColor" d="M348.5,429.1c-1.6,0-2.9-1.3-2.9-2.9V250.4c0-1.6,1.3-2.9,2.9-2.9s2.9,1.3,2.9,2.9v175.8
				C351.4,427.7,350.1,429.1,348.5,429.1z"/>
		</g>
	</g>
	<g>
		<g>
			<path fill="currentColor" d="M379.7,464.4c-1.6,0-2.9-1.3-2.9-2.9V356.4c0-1.6,1.3-2.9,2.9-2.9s2.9,1.3,2.9,2.9v105.1
				C382.6,463.1,381.3,464.4,379.7,464.4z"/>
		</g>
	</g>
	<g>
		<g>
			<path fill="currentColor" d="M379.7,312.1c-1.6,0-2.9-1.3-2.9-2.9v-52.6c0-1.6,1.3-2.9,2.9-2.9s2.9,1.3,2.9,2.9v52.6
				C382.6,310.7,381.3,312.1,379.7,312.1z"/>
		</g>
	</g>
	<g>
		<g>
			<g>
				<g>
					<path fill="currentColor" d="M306.2,131.1c0,0,1.7,1.1,4.7,3c1.5,0.9,3.2,2.1,5.2,3.3s4.2,2.6,6.7,4.1c2.4,1.5,5,3.1,7.7,4.8
						c2.8,1.6,5.6,3.4,8.6,5.1c1.5,0.8,2.9,1.8,4.5,2.7c1.6,0.8,3.1,1.7,4.7,2.6c1.5,0.9,3.1,1.7,4.7,2.6c1.6,0.9,3.2,1.8,4.8,2.6
						c3.2,1.7,6.5,3.3,9.6,5.1c1.6,0.8,3.2,1.6,4.8,2.4c1.6,0.8,3.1,1.6,4.7,2.5c3.1,1.5,6.1,3,9,4.4c1.4,0.8,2.9,1.4,4.2,2.1
						c1.4,0.7,2.7,1.3,4,2c2.6,1.3,4.9,2.7,7,3.7c2.1,1.1,4,2.1,5.5,2.9c1.5,0.8,2.7,1.6,3.6,2.1c0.8,0.5,1.3,0.8,1.3,0.8
						s-0.5,0.1-1.4,0.3c-0.9,0.1-2.3,0.4-4.1,0.6c-1.8,0.2-3.9,0.4-6.4,0.5c-2.5,0.2-5.3,0-8.3-0.1c-3-0.3-6.3-0.4-9.8-1
						c-3.4-0.6-7-1.4-10.7-2.3c-1.8-0.5-3.6-1.2-5.5-1.8s-3.7-1.3-5.6-2c-3.7-1.6-7.4-3.3-11-5.2c-1.8-1-3.5-2-5.2-3.1
						c-1.8-1-3.5-2.1-5.1-3.3c-3.3-2.4-6.4-4.7-9.3-7.3c-2.9-2.5-5.5-5.2-7.8-7.8s-4.4-5.3-6.1-7.8c-0.8-1.3-1.7-2.5-2.4-3.7
						c-0.7-1.2-1.4-2.4-2-3.5c-1.2-2.2-2-4.2-2.7-5.9s-1.1-3.1-1.3-4C306.3,131.6,306.2,131.1,306.2,131.1z"/>
					<path fill="currentColor" d="M396.8,196.7c-1.6,0-3.3-0.1-5.1-0.2l-3.1-0.2c-2.6-0.2-5.4-0.4-8.2-1c-3.5-0.7-7.2-1.4-11-2.4c-1.7-0.5-3.3-1-4.8-1.5
						l-1-0.3c-1.9-0.6-3.9-1.3-5.8-2c-4.2-1.9-8-3.5-11.6-5.4l-1.3-0.8c-1.4-0.8-2.8-1.6-4.2-2.5c-1.8-1.1-3.7-2.2-5.5-3.6
						c-3.7-2.7-6.8-5-9.7-7.7c-3-2.5-5.8-5.5-8.1-8.1c-2.5-2.9-4.7-5.7-6.6-8.3l-2.6-4c-0.8-1.3-1.5-2.6-2.2-3.8c-1.1-2-2-4-2.7-5.7
						c-1.1-2.7-1.6-4.3-1.8-5.3c-0.3-1.1-0.5-1.7-0.5-1.7c-0.4-2.1,0.5-4.3,2.2-5.5c1.8-1.2,4.1-1.3,5.9-0.1l27.7,17.2
						c1.6,1,3.2,2,4.9,2.9c0.7,0.4,1.5,0.9,2.3,1.4c0.7,0.4,1.3,0.8,2,1.2c1.6,0.9,3.3,1.8,4.9,2.7c1.1,0.7,2.2,1.2,3.3,1.8l8.9,4.8
						c2.3,1.2,4.6,2.4,6.9,3.7c1.3,0.6,3,1.4,4.6,2.3c1.9,1,3.4,1.7,4.8,2.5c2.8,1.3,5.9,2.8,8.9,4.4c1.1,0.7,2,1.1,2.9,1.5l8.3,4.2
						c1.3,0.7,2.6,1.4,3.7,1.9c2.4,1.2,4.4,2.2,6,3.2c1,0.5,1.9,1.1,2.7,1.6l1,0.6c1,0.6,1.5,1,1.5,1c1.7,1.2,2.5,3.2,2.2,5.3
						c-0.3,2-1.8,3.7-3.8,4.3c0,0-0.7,0.2-2.1,0.4l-1.2-3l-0.4,0.5l0.4,2.7c-0.9,0.1-2,0.3-3.3,0.5c-1.8,0.2-4.1,0.4-6.6,0.6
						C398.9,196.6,397.9,196.7,396.8,196.7z M318.7,145.3l0.8,1.3c1.5,2.2,3.5,4.6,5.6,7.1c2.2,2.4,4.5,4.9,7.3,7.2
						c2.6,2.4,5.5,4.6,8.9,7.1c1.5,1.1,3.1,2.1,4.6,3c1.4,0.9,2.8,1.7,4.1,2.4l1.1,0.7c3.2,1.7,6.8,3.3,10.3,4.8
						c1.7,0.6,3.5,1.3,5.3,1.9l1,0.3c1.4,0.5,2.9,1,4.3,1.4c3.4,0.9,6.9,1.6,10.2,2.2c2.4,0.5,4.8,0.6,7,0.8l2.2,0.2
						c0.5,0,0.9,0.1,1.3,0.1l-6.2-3.1c-1.2-0.6-2.4-1.1-3.7-1.8c-2.5-1.3-5.5-2.8-8.5-4.2c-1.7-0.9-3-1.6-4.3-2.3
						c-2-1.1-3.6-1.8-5.1-2.6c-2.5-1.4-4.7-2.5-6.9-3.7l-9-4.8c-1.3-0.7-2.6-1.4-3.8-2.1c-1.4-0.8-2.9-1.6-4.4-2.4
						c-0.9-0.5-1.8-1-2.6-1.6c-0.6-0.4-1.2-0.8-1.9-1.1c-1.9-1-3.6-2.1-5.3-3.1L318.7,145.3z"/>
				</g>
			</g>
		</g>
		<g>
			<g>
				<g>
					<path fill="currentColor" d="M205.8,131.1c0,0-0.1,0.5-0.3,1.4c-0.3,0.9-0.7,2.3-1.4,4c-0.7,1.6-1.5,3.7-2.7,5.9c-0.6,1.1-1.2,2.3-2,3.5
						c-0.7,1.2-1.5,2.4-2.4,3.7c-1.7,2.5-3.8,5.2-6.1,7.8c-2.4,2.6-4.9,5.3-7.8,7.8c-2.8,2.6-6,5-9.3,7.3c-1.6,1.2-3.3,2.3-5.1,3.3
						c-1.7,1.1-3.5,2.1-5.3,3.1c-3.6,1.9-7.3,3.5-11,5.2c-1.9,0.7-3.8,1.3-5.6,2c-1.8,0.6-3.7,1.2-5.5,1.8
						c-3.7,0.9-7.3,1.7-10.7,2.3c-3.4,0.7-6.7,0.8-9.7,1s-5.8,0.4-8.3,0.1c-2.5-0.1-4.6-0.3-6.4-0.5s-3.2-0.5-4.1-0.6
						s-1.4-0.3-1.4-0.3s0.5-0.3,1.3-0.8s2-1.3,3.6-2.1c1.6-0.9,3.4-1.9,5.5-2.9c2.2-1,4.5-2.3,7.1-3.7c1.3-0.6,2.6-1.3,4-2
						s2.8-1.3,4.2-2.1c2.9-1.5,5.9-3,9-4.4c1.5-0.8,3.1-1.6,4.7-2.5c1.6-0.8,3.2-1.6,4.8-2.4c3.1-1.8,6.4-3.4,9.6-5.1
						c1.6-0.9,3.2-1.8,4.8-2.6c1.6-0.9,3.2-1.7,4.8-2.6c1.5-0.9,3.1-1.8,4.6-2.6c1.6-0.8,3-1.8,4.5-2.7c3-1.7,5.8-3.5,8.6-5.1
						c2.8-1.7,5.4-3.3,7.7-4.8c2.4-1.5,4.7-2.9,6.6-4.1c2-1.2,3.7-2.4,5.2-3.3C204.1,132.2,205.8,131.1,205.8,131.1z"/>
					<path fill="currentColor" d="M115.2,196.7c-1.1,0-2.1,0-3.1-0.1c-2.4-0.1-4.7-0.3-6.5-0.6c-1.2-0.1-2.3-0.3-3.2-0.5l-1.1-0.2c-1.2-0.2-2-0.4-2-0.4
						c-2.1-0.5-3.6-2.3-3.9-4.4c-0.3-2.1,0.6-4.2,2.4-5.4l2.5-1.6c0.7-0.5,1.6-1,2.6-1.6c1.6-0.9,3.5-1.9,5.7-3
						c1.4-0.6,2.6-1.3,3.9-2l8.4-4.2c0.9-0.4,1.8-0.8,2.6-1.3c3.2-1.7,6.3-3.2,9.5-4.7c0.7-0.4,1.8-1,2.9-1.6l1.5-0.8
						c1.7-0.9,3.3-1.7,5-2.5c1.9-1.1,4.2-2.3,6.6-3.5l8.6-4.7c1.2-0.6,2.3-1.2,3.4-1.9c1.6-1,3.3-1.9,4.9-2.7
						c0.6-0.3,1.3-0.7,1.9-1.1c0.8-0.5,1.7-1,2.6-1.5c1.7-0.9,3.4-2,5-3l27.4-17.1c1.8-1.1,4.1-1.1,5.8,0c1.8,1.2,2.7,3.3,2.4,5.3
						c0,0-0.1,0.7-0.5,2c-0.5,1.5-0.9,2.9-1.6,4.6c-0.8,1.9-1.7,4.1-3.1,6.5c-0.6,1.1-1.3,2.4-2.1,3.7c-0.6,1-1.3,2.1-2.1,3.2
						c-2.3,3.4-4.5,6.2-7,9c-2.6,2.8-5.3,5.7-8.4,8.3c-2.7,2.5-5.9,4.9-9.6,7.6c-1.7,1.2-3.5,2.4-5.5,3.6c-1.5,0.9-3.1,1.8-4.7,2.7
						c-4.5,2.4-8.4,4.1-12.1,5.8c-2.2,0.8-4.2,1.5-6.1,2.2c-2.2,0.7-4,1.3-5.7,1.8c-4,1-7.7,1.8-11.2,2.4c-2.8,0.5-5.6,0.8-8.2,1
						l-2.1,0.2C118.5,196.6,116.9,196.7,115.2,196.7z M193.4,145.3l-12.3,7.5c-1.7,1.1-3.5,2.1-5.4,3.2c-0.8,0.4-1.4,0.8-2.1,1.2
						c-0.8,0.5-1.6,1-2.5,1.5c-1.5,0.8-3,1.6-4.5,2.5c-1.3,0.8-2.6,1.5-3.9,2.2l-8.7,4.7c-2.2,1.2-4.4,2.3-6.6,3.5
						c-1.9,0.9-3.4,1.7-4.9,2.5l-1.6,0.8c-1,0.5-2,1-2.9,1.5c-3.4,1.6-6.4,3.1-9.2,4.5c-0.9,0.6-2.2,1.1-3.4,1.7l-6.3,3.1
						c0.2,0,0.4,0,0.6,0l2.9-0.2c2.2-0.2,4.6-0.3,7-0.8c3.4-0.6,6.8-1.3,10.4-2.2c1.4-0.4,3.1-1,4.7-1.5c2.2-0.8,4.1-1.4,5.9-2.1
						c3.3-1.5,6.9-3.1,10.4-4.9c2-1.1,3.5-2,5-2.9c1.6-1,3.2-1.9,4.6-3c3.5-2.5,6.4-4.7,8.9-7c2.9-2.5,5.3-5,7.5-7.5
						c2.1-2.4,4-4.8,5.6-7.2C192.9,146,193.1,145.7,193.4,145.3z"/>
				</g>
			</g>
		</g>
	</g>
	<g>
		<g>
			<g>
				<path fill="currentColor" d="M259,422.8c-24.7,0-44.8-28-44.8-62.4s20.1-62.5,44.8-62.5s44.8,28,44.8,62.5C303.8,394.7,283.7,422.8,259,422.8z
					 M259,308.6c-18.8,0-34,23.2-34,51.7s15.3,51.7,34,51.7c18.8,0,34-23.2,34-51.7S277.8,308.6,259,308.6z"/>
			</g>
		</g>
		<g>
			<g>
				<path fill="currentColor" d="M292.1,334.7h-66.2c-1.8,0-3.5-0.9-4.5-2.4s-1.1-3.5-0.4-5.1c8.2-18.3,22.4-29.3,38-29.3s29.8,10.9,38,29.3
					c0.7,1.7,0.6,3.6-0.4,5.1C295.6,333.8,293.9,334.7,292.1,334.7z M234.9,324h48.2c-6.4-9.7-15-15.4-24.1-15.4
					S241.3,314.2,234.9,324z"/>
			</g>
		</g>
		<g>
			<g>
				<path fill="currentColor" d="M259,422.8c-18,0-34.2-14.9-41.2-37.9c-0.7-2.2,0.1-4.5,1.9-5.9c23.9-17.9,54.6-17.9,78.6,0c1.8,1.4,2.6,3.7,1.9,5.9
					C293.2,407.9,277,422.8,259,422.8z M229.3,385.4c6,16.3,17.4,26.6,29.7,26.6c12.3,0,23.7-10.3,29.7-26.6
					C270,373.1,248,373.1,229.3,385.4z"/>
			</g>
		</g>
	</g>
	<g>
		<g>
			<path fill="currentColor" d="M411.3,236.1H306.2c-5.3,0-9.6-4.3-9.6-9.6s4.3-9.6,9.6-9.6h105.2c5.3,0,9.7,4.3,9.7,9.6
				C421,231.8,416.7,236.1,411.3,236.1z"/>
			<path fill="currentColor" d="M411.3,241.4H306.2c-8.3,0-15-6.7-15-15s6.7-15,15-15h105.2c8.3,0,15,6.7,15,15C426.4,234.7,419.6,241.4,411.3,241.4z
				 M306.2,222.2c-2.3,0-4.2,1.9-4.2,4.3c0,2.3,1.9,4.2,4.2,4.2h105.2c2.4,0,4.3-1.9,4.3-4.2c0-2.4-1.9-4.3-4.3-4.3H306.2z"/>
		</g>
	</g>
	<g>
		<g>
			<path fill="currentColor" d="M205.8,236.1H100.7c-5.3,0-9.6-4.3-9.6-9.6s4.3-9.6,9.6-9.6h105.2c5.3,0,9.6,4.3,9.6,9.6S211.2,236.1,205.8,236.1z"/>
			<path fill="currentColor" d="M205.8,241.4H100.7c-8.3,0-15-6.7-15-15s6.7-15,15-15h105.2c8.3,0,15,6.7,15,15C220.8,234.7,214.1,241.4,205.8,241.4z
				 M100.7,222.2c-2.4,0-4.3,1.9-4.3,4.3c0,2.3,1.9,4.2,4.3,4.2h105.2c2.4,0,4.3-1.9,4.3-4.2c0-2.4-1.9-4.3-4.3-4.3H100.7z"/>
		</g>
	</g>
	<polygon points="231.5,327 288.7,327 283.1,317.2 274.6,308.6 262.2,305.3 248.6,306.9 236.2,316.2 	"/>
</g>
</svg>
