<svg id="Camada_1" data-name="Camada 1" xmlns="http://www.w3.org/2000/svg" viewBox="0 0 512.8 512.8">
  <path d="M107.8,509.7c-4.7,0-8.6-2.9-11.4-8.5a5.3,5.3,0,0,1-.6-2.4V226.4a5.4,5.4,0,0,1,5.4-5.4H205.4a5.4,5.4,0,0,1,5.4,5.4V469.8c-2.3,12.1-4.6,19.4-7.6,24.7s-6.9,6.5-9.6,6.5h0c-4.8,0-8.6-3.6-11.6-6.4l-2.1-1.9c-.4-.1-1.5.3-4.6,3.4-5.6,5.6-12,12-20.2,12.9h-1.5c-6.1,0-11.1-4-15.5-7.5s-7.2-6-9.9-4.9-3.9,2.8-6,4.7C118.1,505.3,113.4,509.7,107.8,509.7Zm-1.3-12.3a5,5,0,0,0,1.3,1.6c1.5-.1,5.2-3.5,7.2-5.4s5.8-5.3,9-6.7a14.1,14.1,0,0,1,5.4-1.1c6,0,11,4,15.4,7.5s6.5,5.2,8.8,5.2c4.4-.5,8.6-4.4,14-9.8,3.5-3.5,7.3-6.7,12.1-6.7a10.6,10.6,0,0,1,7,2.7l2.5,2.2a29.1,29.1,0,0,0,4,3.3l.5-.8c3.1-5.5,5.1-14.3,6.3-20.5V231.8H106.5Zm62.4-153.8a2.9,2.9,0,0,1-2.9-2.9V250.4a2.9,2.9,0,0,1,5.8,0v90.3A2.9,2.9,0,0,1,168.9,343.6ZM137.6,464.4a2.9,2.9,0,0,1-2.9-2.9V421.6a2.9,2.9,0,0,1,5.8,0v39.9A2.9,2.9,0,0,1,137.6,464.4Zm31.3,20.7a2.9,2.9,0,0,1-2.9-2.9V360a2.9,2.9,0,0,1,5.8,0V482.2A2.9,2.9,0,0,1,168.9,485.1Zm-31.3-95.7a2.9,2.9,0,0,1-2.9-2.9V256.6a2.9,2.9,0,1,1,5.8,0V386.5A2.9,2.9,0,0,1,137.6,389.4ZM409.5,509.7c-5.6,0-10.3-4.4-14.5-8.2-2.1-1.9-4.4-4.1-6-4.8s-6.3,2.1-9.9,4.9-9.4,7.5-15.5,7.5h-1.5c-8.2-.9-14.5-7.3-20.2-12.9-3.1-3.1-4.2-3.5-4.5-3.5l-2.1,2c-3.1,2.9-6.9,6.4-11.6,6.4-2.7,0-6.5-1.1-9.6-6.5s-5.3-12.6-7.4-23.6V226.5a5.4,5.4,0,0,1,5.4-5.4H416.2a5.4,5.4,0,0,1,5.4,5.4V498.8a5,5,0,0,1-.6,2.4C418.1,506.8,414.2,509.7,409.5,509.7Zm0-10.7v0Zm-21.6-13.2a14.9,14.9,0,0,1,5.4,1.1c3.2,1.4,6.2,4.1,9,6.7s5.7,5.3,7.2,5.4a5,5,0,0,0,1.3-1.6V231.8H317.3v238c1.1,5.1,3,13.9,6.1,19.4a4.2,4.2,0,0,0,.9,1.2,28.2,28.2,0,0,1,3.6-3.7c.9-.8,1.7-1.6,2.5-2.2a10.6,10.6,0,0,1,7-2.7c4.8,0,8.7,3.2,12.1,6.7,5.4,5.5,9.6,9.4,13.7,9.8h0c2.6,0,6.1-2.7,9.1-5.1C376.9,489.7,381.9,485.8,387.9,485.8Zm-73.8,8.7a61.6,61.6,0,0,1-5.5-14.8,229.9,229.9,0,0,1-100.3,1.1,52.5,52.5,0,0,1-5.2,13.7c-1.8,3.3-3.9,5-5.9,5.8a253.7,253.7,0,0,0,121.2-.9A15.2,15.2,0,0,1,314.1,494.5ZM256,2.3C116.8,2.3,3.6,115.5,3.6,254.7A251.8,251.8,0,0,0,95.8,449.6V420.8A230.2,230.2,0,0,1,25.1,254.6c0-127.3,103.6-230.9,231-230.9S487,127.3,487,254.6a229.7,229.7,0,0,1-65.4,160.8V445a251.9,251.9,0,0,0,86.9-190.4C508.4,115.5,395.2,2.3,256,2.3Zm92.5,426.8a2.9,2.9,0,0,1-2.9-2.9V250.4a2.9,2.9,0,1,1,5.8,0V426.2A3,3,0,0,1,348.5,429.1Zm31.2,35.3a2.9,2.9,0,0,1-2.9-2.9V356.4a2.9,2.9,0,0,1,5.8,0V461.5A2.9,2.9,0,0,1,379.7,464.4Zm0-152.3a2.9,2.9,0,0,1-2.9-2.9V256.6a2.9,2.9,0,0,1,5.8,0v52.6A3,3,0,0,1,379.7,312.1Zm-73.5-181,4.7,3,5.2,3.3,6.7,4.1,7.7,4.8,8.6,5.1c1.5.8,2.9,1.8,4.5,2.7l4.7,2.6,4.7,2.6,4.8,2.6c3.2,1.7,6.5,3.3,9.6,5.1l4.8,2.4,4.7,2.5,9,4.4,4.2,2.1,4,2c2.6,1.3,4.9,2.7,7,3.7l5.5,2.9,3.6,2.1,1.3.8-1.4.3-4.1.6-6.4.5a78,78,0,0,1-8.3-.1c-3-.3-6.3-.4-9.8-1s-7-1.4-10.7-2.3l-5.5-1.8-5.6-2c-3.7-1.6-7.4-3.3-11-5.2l-5.2-3.1a44.5,44.5,0,0,1-5.1-3.3,115.3,115.3,0,0,1-9.3-7.3,82,82,0,0,1-7.8-7.8,79.5,79.5,0,0,1-6.1-7.8c-.8-1.3-1.7-2.5-2.4-3.7l-2-3.5a56.6,56.6,0,0,1-2.7-5.9,25.2,25.2,0,0,1-1.3-4A5.5,5.5,0,0,1,306.2,131.1Zm90.6,65.6-5.1-.2-3.1-.2a61,61,0,0,1-8.2-1c-3.5-.7-7.2-1.4-11-2.4l-4.8-1.5-1-.3-5.8-2c-4.2-1.9-8-3.5-11.6-5.4l-1.3-.8-4.2-2.5a57.4,57.4,0,0,1-5.5-3.6,102.7,102.7,0,0,1-9.7-7.7,77.4,77.4,0,0,1-8.1-8.1c-2.5-2.9-4.7-5.7-6.6-8.3l-2.6-4-2.2-3.8a56.8,56.8,0,0,1-2.7-5.7,32,32,0,0,1-1.8-5.3l-.5-1.7a5.5,5.5,0,0,1,2.2-5.5,5.3,5.3,0,0,1,5.9-.1l27.7,17.2c1.6,1,3.2,2,4.9,2.9l2.3,1.4,2,1.2,4.9,2.7,3.3,1.8,8.9,4.8,6.9,3.7,4.6,2.3,4.8,2.5c2.8,1.3,5.9,2.8,8.9,4.4a20.3,20.3,0,0,0,2.9,1.5l8.3,4.2,3.7,1.9c2.4,1.2,4.4,2.2,6,3.2l2.7,1.6,1,.6,1.5,1a5.4,5.4,0,0,1-1.6,9.6l-2.1.4-1.2-3-.4.5.4,2.7-3.3.5-6.6.6A12.1,12.1,0,0,0,396.8,196.7Zm-78.1-51.4.8,1.3c1.5,2.2,3.5,4.6,5.6,7.1a71.2,71.2,0,0,0,7.3,7.2,102.6,102.6,0,0,0,8.9,7.1c1.5,1.1,3.1,2.1,4.6,3l4.1,2.4,1.1.7c3.2,1.7,6.8,3.3,10.3,4.8l5.3,1.9,1,.3,4.3,1.4c3.4.9,6.9,1.6,10.2,2.2a60.1,60.1,0,0,0,7,.8l2.2.2h1.3l-6.2-3.1-3.7-1.8-8.5-4.2-4.3-2.3-5.1-2.6-6.9-3.7-9-4.8-3.8-2.1-4.4-2.4a22.6,22.6,0,0,1-2.6-1.6,11.8,11.8,0,0,0-1.9-1.1c-1.9-1-3.6-2.1-5.3-3.1ZM205.8,131.1l-.3,1.4c-.3.9-.7,2.3-1.4,4s-1.5,3.7-2.7,5.9-1.2,2.3-2,3.5-1.5,2.4-2.4,3.7a79.5,79.5,0,0,1-6.1,7.8,95.6,95.6,0,0,1-7.8,7.8,85.6,85.6,0,0,1-9.3,7.3,44.5,44.5,0,0,1-5.1,3.3c-1.7,1.1-3.5,2.1-5.3,3.1-3.6,1.9-7.3,3.5-11,5.2l-5.6,2-5.5,1.8c-3.7.9-7.3,1.7-10.7,2.3a69.5,69.5,0,0,1-9.7,1,46.5,46.5,0,0,1-8.3.1l-6.4-.5-4.1-.6-1.4-.3,1.3-.8a39.3,39.3,0,0,1,3.6-2.1c1.6-.9,3.4-1.9,5.5-2.9s4.5-2.3,7.1-3.7l4-2,4.2-2.1c2.9-1.5,5.9-3,9-4.4l4.7-2.5,4.8-2.4c3.1-1.8,6.4-3.4,9.6-5.1l4.8-2.6,4.8-2.6,4.6-2.6c1.6-.8,3-1.8,4.5-2.7l8.6-5.1,7.7-4.8,6.6-4.1,5.2-3.3Zm-90.6,65.6h-3.1a55.7,55.7,0,0,1-6.5-.6l-3.2-.5-1.1-.2-2-.4a5.2,5.2,0,0,1-3.9-4.4,5.5,5.5,0,0,1,2.4-5.4l2.5-1.6,2.6-1.6,5.7-3c1.4-.6,2.6-1.3,3.9-2l8.4-4.2,2.6-1.3c3.2-1.7,6.3-3.2,9.5-4.7l2.9-1.6,1.5-.8,5-2.5,6.6-3.5,8.6-4.7,3.4-1.9c1.6-1,3.3-1.9,4.9-2.7l1.9-1.1,2.6-1.5c1.7-.9,3.4-2,5-3l27.4-17.1a5.5,5.5,0,0,1,5.8,0,5.4,5.4,0,0,1,2.4,5.3,14.7,14.7,0,0,1-.5,2c-.5,1.5-.9,2.9-1.6,4.6a52.7,52.7,0,0,1-3.1,6.5c-.6,1.1-1.3,2.4-2.1,3.7s-1.3,2.1-2.1,3.2a82.4,82.4,0,0,1-7,9,94.2,94.2,0,0,1-8.4,8.3,107.5,107.5,0,0,1-9.6,7.6c-1.7,1.2-3.5,2.4-5.5,3.6l-4.7,2.7c-4.5,2.4-8.4,4.1-12.1,5.8l-6.1,2.2-5.7,1.8c-4,1-7.7,1.8-11.2,2.4s-5.6.8-8.2,1l-2.1.2A33.9,33.9,0,0,1,115.2,196.7Zm78.2-51.4-12.3,7.5-5.4,3.2-2.1,1.2-2.5,1.5-4.5,2.5-3.9,2.2-8.7,4.7-6.6,3.5-4.9,2.5-1.6.8-2.9,1.5-9.2,4.5a35.8,35.8,0,0,1-3.4,1.7l-6.3,3.1h.6l2.9-.2a60.1,60.1,0,0,0,7-.8c3.4-.6,6.8-1.3,10.4-2.2l4.7-1.5,5.9-2.1c3.3-1.5,6.9-3.1,10.4-4.9l5-2.9a52.1,52.1,0,0,0,4.6-3,92.5,92.5,0,0,0,8.9-7,75.8,75.8,0,0,0,7.5-7.5,70.3,70.3,0,0,0,5.6-7.2ZM259,422.8c-24.7,0-44.8-28-44.8-62.4s20.1-62.5,44.8-62.5,44.8,28,44.8,62.5S283.7,422.8,259,422.8Zm0-114.2c-18.8,0-34,23.2-34,51.7S240.3,412,259,412s34-23.2,34-51.7S277.8,308.6,259,308.6Zm33.1,26.1H225.9a5.3,5.3,0,0,1-4.9-7.5c8.2-18.3,22.4-29.3,38-29.3s29.8,10.9,38,29.3a5.3,5.3,0,0,1-4.9,7.5ZM234.9,324h48.2c-6.4-9.7-15-15.4-24.1-15.4S241.3,314.2,234.9,324ZM259,422.8c-18,0-34.2-14.9-41.2-37.9a5.4,5.4,0,0,1,1.9-5.9c23.9-17.9,54.6-17.9,78.6,0a5.4,5.4,0,0,1,1.9,5.9C293.2,407.9,277,422.8,259,422.8Zm-29.7-37.4c6,16.3,17.4,26.6,29.7,26.6s23.7-10.3,29.7-26.6C270,373.1,248,373.1,229.3,385.4Zm182-149.3H306.2a9.6,9.6,0,1,1,0-19.2H411.4a9.6,9.6,0,1,1-.1,19.2Zm0,5.3H306.2a15,15,0,0,1,0-30H411.4a15,15,0,1,1-.1,30ZM306.2,222.2a4.3,4.3,0,0,0,0,8.5H411.4a4.3,4.3,0,1,0,0-8.5ZM205.8,236.1H100.7a9.6,9.6,0,0,1,0-19.2H205.9a9.6,9.6,0,1,1-.1,19.2Zm0,5.3H100.7a15,15,0,0,1,0-30H205.9a15,15,0,1,1-.1,30ZM100.7,222.2a4.3,4.3,0,1,0,0,8.5H205.9a4.3,4.3,0,1,0,0-8.5ZM231.5,327h57.2l-5.6-9.8-8.5-8.6-12.4-3.3-13.6,1.6-12.4,9.3Z" transform="translate(-3.6 -2.3)" fill="currentColor" ></path>
</svg>
