<?xml version="1.0" encoding="utf-8"?>
<!-- Generator: Adobe Illustrator 24.0.1, SVG Export Plug-In . SVG Version: 6.00 Build 0)  -->
<svg version="1.1" id="Camada_1" focusable="false" xmlns="http://www.w3.org/2000/svg" xmlns:xlink="http://www.w3.org/1999/xlink"
	 x="0px" y="0px" viewBox="0 0 512 512" style="enable-background:new 0 0 512 512;" xml:space="preserve">
<g>
	<g>
		<g>
			<path fill="currentColor" d="M460.5,305.6c0,34.2-28.1,62.1-62.6,62.1s-62.6-27.8-62.6-62.1c0-34.2,28.1-62.1,62.6-62.1S460.5,271.4,460.5,305.6z"/>
		</g>
	</g>
	<g>
		<g>
			<path fill="currentColor" d="M377.5,201.1c0,30.5-13,55.2-29.1,55.2c-16,0-29-24.7-29-55.2s13-55.1,29-55.1C364.5,145.9,377.5,170.6,377.5,201.1z"/>
			<path fill="currentColor" d="M348.4,261.6c-19.3,0-34.4-26.6-34.4-60.5s15.1-60.5,34.4-60.5s34.4,26.6,34.4,60.5S367.7,261.6,348.4,261.6z
				 M348.4,151.3c-11.2,0-23.7,20.4-23.7,49.8c0,29.3,12.5,49.8,23.7,49.8s23.7-20.4,23.7-49.8S359.6,151.3,348.4,151.3z"/>
		</g>
	</g>
	<g>
		<g>
			<path fill="currentColor" d="M211.5,201.1c0,30.5-13,55.2-29.1,55.2c-16,0-29.1-24.7-29.1-55.2s13-55.1,29.1-55.1
				C198.6,145.9,211.5,170.6,211.5,201.1z"/>
			<path fill="currentColor" d="M182.5,261.6c-19.3,0-34.4-26.6-34.4-60.5s15.1-60.5,34.4-60.5s34.4,26.6,34.4,60.5S201.8,261.6,182.5,261.6z
				 M182.5,151.3c-11.2,0-23.7,20.4-23.7,49.8c0,29.3,12.5,49.8,23.7,49.8s23.7-20.4,23.7-49.8S193.7,151.3,182.5,151.3z"/>
		</g>
	</g>
	<g>
		<g>
			<g>
				<path fill="currentColor" d="M415.5,151.5c0,0-1.7-1-4.6-2.9c-2.8-1.7-6.8-4.2-11.5-7.1c-2.3-1.4-4.8-2.9-7.5-4.5s-5.4-3.2-8.3-4.9
					c-1.5-0.8-2.8-1.7-4.3-2.5s-3-1.6-4.5-2.5c-1.5-0.9-3-1.7-4.6-2.5s-3.1-1.7-4.6-2.5c-3.1-1.6-6.3-3.2-9.3-4.9
					c-1.6-0.8-3.1-1.5-4.6-2.3s-3-1.5-4.5-2.4c-3-1.4-5.9-2.9-8.6-4.3c-1.4-0.8-2.8-1.4-4.1-2.1c-1.3-0.7-2.6-1.3-3.8-1.9
					c-2.5-1.3-4.7-2.6-6.8-3.6c-2-1-3.8-2-5.3-2.9c-1.5-0.8-2.6-1.6-3.4-2.1s-1.2-0.8-1.2-0.8s0.5-0.1,1.4-0.3
					c0.9-0.2,2.3-0.4,4-0.6s3.8-0.4,6.2-0.6c2.4-0.2,5.1-0.1,8,0.1s6.1,0.3,9.4,1c3.3,0.6,6.8,1.3,10.4,2.2c1.8,0.5,3.5,1.1,5.3,1.7
					s3.7,1.2,5.5,1.9c3.5,1.6,7.2,3.2,10.7,5c1.7,1,3.4,2,5.1,3s3.4,2,4.9,3.2c3.2,2.3,6.2,4.6,9,7.1c2.8,2.4,5.2,5,7.5,7.6
					c2.2,2.6,4.2,5.1,5.9,7.6c0.8,1.3,1.6,2.4,2.3,3.6c0.7,1.2,1.3,2.3,1.9,3.4c1.1,2.1,2,4.1,2.6,5.7c0.6,1.6,1,3,1.3,3.9
					C415.5,151,415.5,151.5,415.5,151.5z"/>
				<path fill="currentColor" d="M415.7,156.9c-0.2,0-0.5,0-0.7,0c-0.8-0.1-1.7-0.3-2.4-0.8L386.3,140c-1.7-1-3.5-2.1-5.3-3.1c-0.7-0.4-1.5-0.9-2.4-1.4
					c-0.6-0.4-1.2-0.7-1.8-1.1c-1.6-0.8-3.1-1.7-4.7-2.6c-1.3-0.8-2.5-1.4-3.7-2c-2-1.1-3.3-1.8-4.6-2.6l-2.5-1.3
					c-2.5-1.3-5.1-2.6-7.5-4c-1.3-0.6-2.9-1.4-4.5-2.2l-1.5-0.8c-1.1-0.5-2.1-1.1-3.2-1.7c-2.7-1.3-5.7-2.8-8.5-4.3
					c-1-0.6-1.8-1-2.6-1.3l-8.2-4.2c-1.3-0.7-2.5-1.4-3.7-1.9c-2.3-1.2-4.2-2.2-5.7-3.1c-1.1-0.6-2.2-1.3-2.9-1.8l-2.1-1.4
					c-1.7-1.2-2.6-3.4-2.2-5.5s2-3.7,4.1-4.2l1.6-0.3c1.5-0.3,2.8-0.5,4.3-0.7c1.8-0.2,4-0.4,6.5-0.6c2-0.2,4.8-0.1,7.5,0
					c0.1,0,1.2,0.1,1.3,0.1l2,0.1c2.5,0.2,5.2,0.4,8,0.9c3.4,0.6,7,1.3,10.6,2.2c1.7,0.5,3.2,1,4.6,1.5l1.1,0.4
					c1.8,0.6,3.8,1.2,5.7,2c3.9,1.7,7.6,3.4,11.2,5.2l5.4,3.2c1.8,1,3.6,2.2,5.4,3.5c3,2.2,6.3,4.6,9.4,7.4c2.9,2.5,5.5,5.3,7.8,7.9
					c2.4,2.8,4.5,5.5,6.3,8.1l2.5,3.9c0.8,1.4,1.5,2.6,2.1,3.7c1.2,2.2,2.1,4.4,2.8,6.2c0.7,1.7,1.1,3.1,1.4,4.1
					c0.1,0.2,0.1,0.5,0.2,0.7c0.4,0.8,0.7,1.6,0.7,2.6C421.1,154.5,418.7,156.9,415.7,156.9z M331.8,98.6l6.3,3.2
					c1.1,0.5,2.2,1,3.2,1.7c2.4,1.3,5.3,2.7,8.2,4.1c1.3,0.7,2.2,1.2,3.2,1.7l1.5,0.8c1.4,0.7,2.9,1.5,4.4,2.2c2.6,1.5,5,2.7,7.5,4
					l2,1c0.1,0,0.9,0.5,1,0.6c1.2,0.7,2.4,1.4,3.6,2c2.2,1.1,3.6,1.9,5,2.7c1.2,0.7,2.7,1.5,4.1,2.3c0.9,0.5,1.6,0.9,2.4,1.4
					c0.6,0.4,1.2,0.8,1.9,1.1c2.1,1.2,3.9,2.3,5.7,3.3l11.6,7l-0.8-1.2c-1.5-2.1-3.3-4.5-5.4-6.9c-2.1-2.3-4.4-4.8-7-7
					c-2.7-2.5-5.7-4.8-8.6-6.8c-1.5-1.1-3-2.1-4.5-2.9l-5.1-3c-3.2-1.6-6.7-3.2-10.1-4.7c-1.5-0.6-3.2-1.1-4.9-1.7l-1.2-0.4
					c-1.3-0.5-2.6-0.9-4-1.3c-3.2-0.8-6.6-1.5-9.8-2.1c-2.4-0.4-4.6-0.6-6.8-0.7l-3.1-0.2C332.1,98.7,331.9,98.7,331.8,98.6z"/>
			</g>
		</g>
	</g>
	<g>
		<g>
			<g>
				<path fill="currentColor" d="M115.4,151.5c0,0,0.1-0.5,0.3-1.4c0.3-0.9,0.6-2.2,1.3-3.9c0.6-1.6,1.5-3.6,2.6-5.7c0.6-1.1,1.2-2.2,1.9-3.4
					c0.7-1.2,1.5-2.3,2.3-3.6c1.7-2.4,3.7-5,5.9-7.6c2.3-2.5,4.7-5.2,7.6-7.6c2.7-2.5,5.8-4.8,8.9-7.1c1.6-1.2,3.2-2.2,4.9-3.2
					s3.4-2,5.1-3c3.5-1.8,7.1-3.4,10.6-5c1.8-0.7,3.6-1.3,5.4-1.9c1.8-0.6,3.5-1.2,5.3-1.7c3.6-0.9,7.1-1.6,10.4-2.2
					c3.3-0.6,6.5-0.7,9.4-1c2.9-0.1,5.6-0.3,8-0.1c2.4,0.2,4.5,0.4,6.2,0.6s3.1,0.5,4,0.6c0.9,0.2,1.4,0.3,1.4,0.3s-0.4,0.3-1.2,0.8
					s-2,1.3-3.4,2.1c-1.5,0.8-3.3,1.8-5.3,2.9c-2.1,1-4.3,2.3-6.8,3.6c-1.2,0.6-2.5,1.3-3.8,1.9c-1.3,0.7-2.7,1.2-4.1,2.1
					c-2.7,1.4-5.6,2.9-8.7,4.3c-1.4,0.8-3,1.6-4.5,2.4s-3,1.6-4.6,2.3c-3,1.7-6.1,3.3-9.3,4.9c-1.5,0.9-3.1,1.7-4.6,2.5
					s-3.1,1.6-4.6,2.5c-1.5,0.8-3,1.7-4.5,2.5s-2.9,1.8-4.3,2.5c-2.9,1.6-5.6,3.3-8.3,4.9c-2.6,1.6-5.2,3.1-7.5,4.5
					c-4.8,2.9-8.8,5.4-11.5,7.1C117.1,150.5,115.4,151.5,115.4,151.5z"/>
				<path fill="currentColor" d="M115.4,156.9c-1,0-2.1-0.3-3-0.9c-1.8-1.2-2.7-3.3-2.4-5.3c0,0,0.1-0.7,0.5-2c0.3-1,0.7-2.5,1.4-4.4
					c0.7-1.8,1.6-4,2.9-6.3c0.6-1.1,1.3-2.4,2.1-3.7l2.1-3.3c2.2-3.2,4.2-5.9,6.6-8.6c2.5-2.8,5.1-5.6,8.1-8.1
					c2.8-2.6,6.1-5.1,9.3-7.4c1.6-1.2,3.4-2.4,5.3-3.5c1.6-1,3.4-2,5.1-3c3.8-2,7.5-3.7,11.2-5.3c2.2-0.8,4.1-1.5,5.9-2.1l1.3-0.4
					c1.4-0.5,2.8-0.9,4.2-1.3c3.9-1,7.5-1.7,10.9-2.3c2.7-0.5,5.4-0.7,7.9-0.9l2.1-0.1c0.1,0,1.2-0.1,1.2-0.1c2.9-0.1,5.4-0.2,7.8,0
					c2.4,0.2,4.5,0.4,6.3,0.6c1.5,0.2,2.7,0.4,3.7,0.6l2.2,0.4c2.1,0.5,3.7,2.1,4.1,4.2c0.4,2.1-0.4,4.2-2.2,5.5l-1.4,0.9
					c-1.5,1-2.5,1.6-3.7,2.3c-1.5,0.8-3.3,1.9-5.5,3c-1.4,0.7-2.7,1.4-4,2.1l-8.1,4.2c-0.7,0.4-1.5,0.7-2.3,1.2
					c-3.1,1.6-6,3.1-9.2,4.6c-0.7,0.4-1.9,1-3.1,1.7l-1.2,0.6c-1.6,0.8-3.1,1.6-4.8,2.4c-2,1.1-4.4,2.4-6.8,3.6l-2.3,1.2
					c-1.4,0.8-3,1.7-4.6,2.5c-1.9,1-3.1,1.6-4.2,2.3c-1.8,1-3.3,1.9-4.8,2.7c-0.7,0.4-1.4,0.8-2,1.2c-0.8,0.5-1.5,0.9-2.3,1.4
					c-1.8,1-3.6,2.1-5.4,3.1l-26.2,16.1C117.4,156.6,116.4,156.9,115.4,156.9z M199.1,98.6c-0.1,0-0.3,0-0.4,0l-1.1,0.1l-2,0.1
					c-2.1,0.1-4.4,0.3-6.7,0.7c-3.2,0.6-6.6,1.3-10.1,2.1c-1,0.3-2.2,0.7-3.5,1.1l-1.4,0.5c-1.8,0.6-3.5,1.2-5.2,1.8
					c-3.2,1.4-6.7,2.9-10.1,4.7c-1.5,0.9-3.2,1.8-4.8,2.8c-1.6,0.9-3.1,1.8-4.4,2.9c-3,2.2-6,4.4-8.5,6.7c-2.8,2.4-5.1,4.9-7.3,7.3
					c-2,2.3-3.9,4.7-5.4,7l-0.7,1.1l11.4-6.9c1.9-1.1,3.7-2.2,5.7-3.4c0.7-0.4,1.3-0.7,1.9-1.1c0.8-0.5,1.7-1,2.6-1.5l4.3-2.4
					c1.1-0.7,2.6-1.5,4-2.3c2.1-1.1,3.6-2,5.1-2.8l2.5-1.3c2.3-1.2,4.5-2.3,6.7-3.6c1.9-0.9,3.3-1.6,4.8-2.4l1.2-0.6
					c1-0.5,2.1-1.1,3.1-1.6c3.3-1.6,6.1-3,8.8-4.4c0.8-0.5,1.9-1,2.9-1.5L199.1,98.6z"/>
			</g>
		</g>
	</g>
	<g>
		<g>
			<path fill="currentColor" d="M243.3,374.5L243.3,374.5c-2.5,0-4.8-0.8-6.8-2.3l-10.1-7.6c-8.5,4-19.1,3-26.8-2.8l-186.8-140
				c-11.5-8.7-13.9-25.1-5.3-36.7c8.4-11.2,25.4-13.7,36.7-5.3l186.8,140c8.5,6.4,12.2,17,9.7,27.1l9.4,7c5,3.8,6,10.9,2.3,15.9
				C250.2,372.8,246.9,374.5,243.3,374.5z M226.7,352.8c1.1,0,2.3,0.4,3.2,1.1l13.3,9.8c0.1,0,0.3,0,0.5-0.2l-12.6-10.2
				c-2-1.5-2.7-4.1-1.7-6.4c2.8-6.6,0.7-14.1-5-18.4l-186.8-140c-6.6-5-16.7-3.5-21.6,3.1c-5.1,6.8-3.7,16.5,3.1,21.7l186.8,140
				c5.2,3.9,12.5,4,17.8,0.5C224.7,353.1,225.7,352.8,226.7,352.8z"/>
		</g>
	</g>
	<g>
		<path fill="currentColor" d="M265.5,11.7C159,11.7,68.2,80.3,34.9,175.6c3.3,0.8,6.5,2.2,9.3,4.3l9.5,7.1c29.1-89.2,113-153.8,211.8-153.8
			c122.8,0,222.8,99.9,222.8,222.8c0,122.8-99.9,222.8-222.8,222.8c-122.8,0-222.7-99.9-222.7-222.8c0-3.8,0.1-7.7,0.3-11.5
			l-20.3-15.2c-1,8.8-1.5,17.7-1.5,26.7c0,134.7,109.6,244.3,244.2,244.3c134.7,0,244.3-109.6,244.3-244.3
			C509.7,121.3,400.2,11.7,265.5,11.7z"/>
	</g>
	<g>
		<path fill="currentColor" d="M196.3,293.9c-4.9-29.4-30.7-52-61.7-52c-2.4,0-4.8,0.1-7.1,0.4L196.3,293.9z"/>
		<path fill="currentColor" d="M80.6,272.7c-5.5,9.2-8.6,19.9-8.6,31.4c0,34.2,28.1,62.1,62.6,62.1c17.7,0,33.8-7.4,45.1-19.2L80.6,272.7z"/>
	</g>
	<g>
		<g>
			<path fill="currentColor" d="M50.6,230.6l153.2,114.8c4.6,3.5,11.2,2.5,14.7-2.1c3.5-4.7,2.6-11.2-2.1-14.7L63.2,213.7L50.6,230.6z"/>
		</g>
	</g>
	<g>
		<path fill="currentColor" d="M312.4,377.1c0,0-0.4-0.2-1.1-0.6s-1.9-0.8-3.1-1.3c-0.6-0.2-1.4-0.5-2.1-0.7c-0.8-0.2-1.6-0.4-2.5-0.7
			c-1.8-0.4-3.8-0.8-6-1.1c-1.1-0.2-2.2-0.4-3.4-0.5c-1.2-0.2-2.4-0.3-3.7-0.4c-1.3-0.1-2.5-0.2-3.9-0.3c-1.3-0.1-2.6-0.2-4-0.3
			c-2.8-0.1-5.6-0.3-8.4-0.3c-2.9-0.1-5.8-0.1-8.7-0.1c-1.5,0-3,0-4.5,0c-1.4,0.1-2.7,0-4.1,0.1c-2.9,0.1-5.6,0.2-8.4,0.4
			c-2.7,0.2-5.4,0.3-7.9,0.6c-1.3,0.1-2.5,0.3-3.7,0.4s-2.3,0.3-3.4,0.5c-2.2,0.3-4.2,0.7-6.1,1.2c-0.9,0.2-1.8,0.5-2.5,0.7
			c-0.8,0.3-1.5,0.5-2.2,0.7c-1.3,0.5-2.4,0.9-3.1,1.3c-0.7,0.3-1.2,0.5-1.2,0.5s0.1-0.4,0.3-1.2c0.2-0.8,0.6-2,1.4-3.4
			c0.4-0.7,0.9-1.4,1.4-2.3c0.5-0.8,1.2-1.6,1.9-2.5c0.7-0.8,1.6-1.7,2.5-2.5s1.9-1.7,3-2.5c2.2-1.6,4.6-3.2,7.4-4.6
			c2.7-1.4,5.7-2.6,8.9-3.6s6.5-1.8,9.9-2.2c1.7-0.3,3.5-0.4,5.4-0.6c0.9-0.1,1.6-0.1,2.5-0.1l2.6-0.1c3.5,0,7,0.3,10.4,0.8
			s6.7,1.3,9.9,2.2c6.3,1.9,12,4.8,16.3,8.1c1.1,0.8,2.1,1.7,3,2.5c0.9,0.9,1.7,1.7,2.5,2.5c0.7,0.9,1.4,1.7,1.9,2.5s1,1.6,1.4,2.3
			c0.8,1.5,1.1,2.7,1.3,3.5C312.4,376.7,312.4,377.1,312.4,377.1z"/>
		<path fill="currentColor" d="M312.7,382.5c-0.2,0-0.5,0-0.7,0c-0.5-0.1-1.1-0.2-1.6-0.4c0,0-0.6-0.3-1.7-0.9c-0.5-0.3-1-0.5-1.6-0.7l-5-1.5
			c-1.4-0.3-3.3-0.7-5.4-1c-1.7-0.3-2.4-0.4-3.1-0.4c-1.3-0.2-2.5-0.3-3.6-0.4l-9.9-0.7c-2-0.1-4-0.2-6-0.2
			c-2.1-0.1-4.1-0.1-6.2-0.1h-2.5H261c-0.9,0.1-2.4,0-3.8,0.1c-3.1,0.1-5.8,0.2-8.4,0.4c-2.6,0.2-5.2,0.3-7.6,0.6
			c-1.2,0.1-2.4,0.3-3.5,0.4c-0.8,0.1-1.4,0.2-2,0.3l-1.5,0.2c-2,0.3-3.9,0.7-5.6,1.1l-5.2,1.6c-0.4,0.2-0.8,0.3-1.1,0.5l-1.5,0.7
			c-1.8,0.8-3.9,0.6-5.4-0.5c-1.6-1.2-2.4-3.1-2.2-5.1c0,0,0.1-0.7,0.4-1.9c0.3-1.2,0.9-2.7,1.7-4.4c0.3-0.6,0.7-1.3,1.1-2
			c1.1-1.6,1.6-2.4,2.3-3.1c1.4-1.7,2.4-2.7,3.4-3.7c1.5-1.3,2.5-2.2,3.5-3c2.4-1.8,5.2-3.6,8.2-5.1c3.1-1.6,6.4-2.9,9.7-3.9
			c3.8-1.2,7.3-2,10.8-2.4c1.3-0.2,2.9-0.4,4.4-0.5l1.1-0.1c1.2-0.1,1.9-0.1,2.8-0.1l2.6-0.1c4.3,0.1,8,0.3,11.3,0.8
			c3.4,0.5,7,1.3,10.7,2.4c6.7,2.1,13,5.2,18,9c1.1,0.8,2.3,1.8,3.3,2.8c1.2,1.1,2,2,2.8,2.9c0.1,0.1,0.8,1,0.9,1.1
			c0.6,0.7,1.1,1.4,1.5,2.1c0.9,1.5,1.4,2.2,1.7,2.9c0.8,1.6,1.4,3.1,1.7,4.7c0.4,0.7,0.6,1.6,0.6,2.5
			C318,380.1,315.6,382.5,312.7,382.5z M265.4,356.8l-5.7,0.3c-1.3,0.1-2.6,0.2-3.8,0.4c-3,0.4-6,1.1-9.3,2.1
			c-2.8,0.8-5.5,1.9-8,3.3c-2.4,1.2-4.6,2.6-6.6,4.1c-0.4,0.3-0.7,0.5-1,0.8c0.5-0.1,1.1-0.2,1.7-0.3l1.2-0.2
			c0.8-0.1,1.7-0.3,2.5-0.3c1-0.1,2.3-0.3,3.6-0.4c2.5-0.3,5.3-0.5,8.1-0.6c2.8-0.2,5.7-0.3,8.6-0.4c0.6-0.1,1.5-0.1,2.3-0.1
			l6.4-0.1h2.6c2.1,0,4.2,0,6.3,0.1c2,0,4.2,0.1,6.3,0.2l10.3,0.7c1.4,0.1,2.7,0.3,3.9,0.4c0.7,0.1,1.7,0.2,2.6,0.3
			c0.9,0.1,1.7,0.3,2.5,0.4c-0.3-0.2-0.6-0.5-0.9-0.7c-4.1-3.1-9.3-5.7-14.8-7.3c-3.1-1-6.1-1.6-9.1-2
			C271.9,357,268.7,356.9,265.4,356.8z"/>
	</g>
</g>
</svg>
