<svg id="Camada_1" data-name="Camada 1" xmlns="http://www.w3.org/2000/svg" viewBox="0 0 507.5 488.6">
  <path d="M460.5,305.6c0,34.2-28.1,62.1-62.6,62.1s-62.6-27.8-62.6-62.1,28.1-62.1,62.6-62.1S460.5,271.4,460.5,305.6Zm-83-104.5c0,30.5-13,55.2-29.1,55.2s-29-24.7-29-55.2,13-55.1,29-55.1S377.5,170.6,377.5,201.1Zm-29.1,60.5c-19.3,0-34.4-26.6-34.4-60.5s15.1-60.5,34.4-60.5,34.4,26.6,34.4,60.5S367.7,261.6,348.4,261.6Zm0-110.3c-11.2,0-23.7,20.4-23.7,49.8s12.5,49.8,23.7,49.8,23.7-20.4,23.7-49.8S359.6,151.3,348.4,151.3ZM211.5,201.1c0,30.5-13,55.2-29.1,55.2s-29.1-24.7-29.1-55.2,13-55.1,29.1-55.1S211.5,170.6,211.5,201.1Zm-29,60.5c-19.3,0-34.4-26.6-34.4-60.5s15.1-60.5,34.4-60.5,34.4,26.6,34.4,60.5S201.8,261.6,182.5,261.6Zm0-110.3c-11.2,0-23.7,20.4-23.7,49.8s12.5,49.8,23.7,49.8,23.7-20.4,23.7-49.8S193.7,151.3,182.5,151.3Zm233,.2-4.6-2.9-11.5-7.1-7.5-4.5-8.3-4.9-4.3-2.5-4.5-2.5-4.6-2.5-4.6-2.5c-3.1-1.6-6.3-3.2-9.3-4.9l-4.6-2.3c-1.5-.8-3-1.5-4.5-2.4l-8.6-4.3-4.1-2.1-3.8-1.9c-2.5-1.3-4.7-2.6-6.8-3.6l-5.3-2.9c-1.5-.8-2.6-1.6-3.4-2.1l-1.2-.8,1.4-.3,4-.6,6.2-.6a54.1,54.1,0,0,1,8,.1,65.5,65.5,0,0,1,9.4,1c3.3.6,6.8,1.3,10.4,2.2l5.3,1.7,5.5,1.9c3.5,1.6,7.2,3.2,10.7,5l5.1,3a41.3,41.3,0,0,1,4.9,3.2,108.3,108.3,0,0,1,9,7.1,76.6,76.6,0,0,1,7.5,7.6,92.5,92.5,0,0,1,5.9,7.6c.8,1.3,1.6,2.4,2.3,3.6l1.9,3.4a52.6,52.6,0,0,1,2.6,5.7c.6,1.6,1,3,1.3,3.9A9.4,9.4,0,0,1,415.5,151.5Zm.2,5.4H415a5.3,5.3,0,0,1-2.4-.8L386.3,140l-5.3-3.1-2.4-1.4-1.8-1.1-4.7-2.6-3.7-2-4.6-2.6-2.5-1.3c-2.5-1.3-5.1-2.6-7.5-4l-4.5-2.2-1.5-.8-3.2-1.7-8.5-4.3a15.7,15.7,0,0,0-2.6-1.3l-8.2-4.2c-1.3-.7-2.5-1.4-3.7-1.9l-5.7-3.1-2.9-1.8-2.1-1.4a5.5,5.5,0,0,1-2.2-5.5,5.4,5.4,0,0,1,4.1-4.2l1.6-.3,4.3-.7,6.5-.6a62.3,62.3,0,0,1,7.5,0H336c2.5.2,5.2.4,8,.9s7,1.3,10.6,2.2l4.6,1.5,1.1.4c1.8.6,3.8,1.2,5.7,2,3.9,1.7,7.6,3.4,11.2,5.2l5.4,3.2A54.9,54.9,0,0,1,388,107a116.5,116.5,0,0,1,9.4,7.4,82.7,82.7,0,0,1,7.8,7.9,100,100,0,0,1,6.3,8.1l2.5,3.9,2.1,3.7a52.8,52.8,0,0,1,2.8,6.2,40.3,40.3,0,0,1,1.4,4.1c.1.2.1.5.2.7a5.6,5.6,0,0,1,.7,2.6A5.5,5.5,0,0,1,415.7,156.9ZM331.8,98.6l6.3,3.2a19.6,19.6,0,0,1,3.2,1.7c2.4,1.3,5.3,2.7,8.2,4.1l3.2,1.7,1.5.8,4.4,2.2c2.6,1.5,5,2.7,7.5,4l2,1,1,.6,3.6,2,5,2.7,4.1,2.3,2.4,1.4a11.8,11.8,0,0,0,1.9,1.1l5.7,3.3,11.6,7-.8-1.2c-1.5-2.1-3.3-4.5-5.4-6.9a89.7,89.7,0,0,0-15.6-13.8,37.9,37.9,0,0,0-4.5-2.9l-5.1-3c-3.2-1.6-6.7-3.2-10.1-4.7l-4.9-1.7-1.2-.4-4-1.3c-3.2-.8-6.6-1.5-9.8-2.1a56.1,56.1,0,0,0-6.8-.7l-3.1-.2ZM115.4,151.5l.3-1.4c.3-.9.6-2.2,1.3-3.9a52.6,52.6,0,0,1,2.6-5.7l1.9-3.4c.7-1.2,1.5-2.3,2.3-3.6s3.7-5,5.9-7.6a77.8,77.8,0,0,1,7.6-7.6,106.5,106.5,0,0,1,8.9-7.1,51.4,51.4,0,0,1,4.9-3.2l5.1-3c3.5-1.8,7.1-3.4,10.6-5l5.4-1.9,5.3-1.7c3.6-.9,7.1-1.6,10.4-2.2s6.5-.7,9.4-1a72.5,72.5,0,0,1,8-.1l6.2.6,4,.6,1.4.3-1.2.8-3.4,2.1-5.3,2.9c-2.1,1-4.3,2.3-6.8,3.6l-3.8,1.9c-1.3.7-2.7,1.2-4.1,2.1s-5.6,2.9-8.7,4.3l-4.5,2.4-4.6,2.3c-3,1.7-6.1,3.3-9.3,4.9l-4.6,2.5-4.6,2.5-4.5,2.5c-1.5.8-2.9,1.8-4.3,2.5s-5.6,3.3-8.3,4.9l-7.5,4.5-11.5,7.1A54.4,54.4,0,0,1,115.4,151.5Zm0,5.4a5.5,5.5,0,0,1-3-.9,5.4,5.4,0,0,1-2.4-5.3,14.7,14.7,0,0,1,.5-2c.3-1,.7-2.5,1.4-4.4a47.5,47.5,0,0,1,2.9-6.3c.6-1.1,1.3-2.4,2.1-3.7L119,131a84.7,84.7,0,0,1,6.6-8.6,77.4,77.4,0,0,1,8.1-8.1,97.4,97.4,0,0,1,9.3-7.4,54.1,54.1,0,0,1,5.3-3.5l5.1-3c3.8-2,7.5-3.7,11.2-5.3l5.9-2.1,1.3-.4,4.2-1.3c3.9-1,7.5-1.7,10.9-2.3a76.5,76.5,0,0,1,7.9-.9h3.3a67.5,67.5,0,0,1,7.8,0l6.3.6,3.7.6,2.2.4a5.4,5.4,0,0,1,4.1,4.2,5.4,5.4,0,0,1-2.2,5.5l-1.4.9-3.7,2.3-5.5,3-4,2.1-8.1,4.2-2.3,1.2-9.2,4.6-3.1,1.7-1.2.6-4.8,2.4-6.8,3.6-2.3,1.2-4.6,2.5-4.2,2.3-4.8,2.7-2,1.2-2.3,1.4-5.4,3.1-26.2,16.1A7.2,7.2,0,0,1,115.4,156.9Zm83.7-58.3h-3.5a54.5,54.5,0,0,0-6.7.7l-10.1,2.1-3.5,1.1-1.4.5-5.2,1.8c-3.2,1.4-6.7,2.9-10.1,4.7l-4.8,2.8a27.9,27.9,0,0,0-4.4,2.9,100.6,100.6,0,0,0-8.5,6.7,83.7,83.7,0,0,0-7.3,7.3,65.8,65.8,0,0,0-5.4,7l-.7,1.1,11.4-6.9,5.7-3.4,1.9-1.1,2.6-1.5,4.3-2.4,4-2.3,5.1-2.8,2.5-1.3c2.3-1.2,4.5-2.3,6.7-3.6l4.8-2.4,1.2-.6,3.1-1.6,8.8-4.4,2.9-1.5Zm44.2,275.9h0a11.2,11.2,0,0,1-6.8-2.3l-10.1-7.6a26.5,26.5,0,0,1-26.8-2.8L12.8,221.8a26.4,26.4,0,0,1-5.3-36.7c8.4-11.2,25.4-13.7,36.7-5.3L231,319.8a26,26,0,0,1,9.7,27.1l9.4,7a11.4,11.4,0,0,1,2.3,15.9A11.2,11.2,0,0,1,243.3,374.5Zm-16.6-21.7a5.4,5.4,0,0,1,3.2,1.1l13.3,9.8a.6.6,0,0,0,.5-.2l-12.6-10.2a5.3,5.3,0,0,1-1.7-6.4,15.4,15.4,0,0,0-5-18.4L37.6,188.5a15.5,15.5,0,0,0-18.5,24.8l186.8,140a15.7,15.7,0,0,0,17.8.5A5.1,5.1,0,0,1,226.7,352.8ZM265.5,11.7C159,11.7,68.2,80.3,34.9,175.6a25.4,25.4,0,0,1,9.3,4.3l9.5,7.1C82.8,97.8,166.7,33.2,265.5,33.2c122.8,0,222.8,99.9,222.8,222.8S388.4,478.8,265.5,478.8,42.8,378.9,42.8,256c0-3.8.1-7.7.3-11.5L22.8,229.3A236.3,236.3,0,0,0,21.3,256c0,134.7,109.6,244.3,244.2,244.3S509.8,390.7,509.8,256,400.2,11.7,265.5,11.7ZM196.3,293.9a62.6,62.6,0,0,0-61.7-52,55.3,55.3,0,0,0-7.1.4ZM80.6,272.7A60.8,60.8,0,0,0,72,304.1c0,34.2,28.1,62.1,62.6,62.1A62.4,62.4,0,0,0,179.7,347Zm-30-42.1L203.8,345.4a10.5,10.5,0,0,0,12.6-16.8L63.2,213.7ZM312.4,377.1l-1.1-.6c-.7-.4-1.9-.8-3.1-1.3l-2.1-.7-2.5-.7c-1.8-.4-3.8-.8-6-1.1l-3.4-.5-3.7-.4-3.9-.3-4-.3c-2.8-.1-5.6-.3-8.4-.3H256.9l-8.4.4c-2.7.2-5.4.3-7.9.6l-3.7.4-3.4.5a50.7,50.7,0,0,0-6.1,1.2l-2.5.7-2.2.7a26.5,26.5,0,0,0-3.1,1.3l-1.2.5.3-1.2a13.5,13.5,0,0,1,1.4-3.4l1.4-2.3c.5-.8,1.2-1.6,1.9-2.5a29.5,29.5,0,0,1,2.5-2.5c.9-.8,1.9-1.7,3-2.5a52,52,0,0,1,7.4-4.6,59.6,59.6,0,0,1,18.8-5.8c1.7-.3,3.5-.4,5.4-.6h5.1a71.7,71.7,0,0,1,10.4.8,79.1,79.1,0,0,1,9.9,2.2,51.8,51.8,0,0,1,16.3,8.1c1.1.8,2.1,1.7,3,2.5l2.5,2.5c.7.9,1.4,1.7,1.9,2.5l1.4,2.3a14.2,14.2,0,0,1,1.3,3.5A8.7,8.7,0,0,1,312.4,377.1Zm.3,5.4H312l-1.6-.4-1.7-.9-1.6-.7-5-1.5-5.4-1-3.1-.4-3.6-.4-9.9-.7-6-.2H257.2l-8.4.4c-2.6.2-5.2.3-7.6.6l-3.5.4-2,.3-1.5.2-5.6,1.1-5.2,1.6-1.1.5-1.5.7a5.5,5.5,0,0,1-5.4-.5,5.6,5.6,0,0,1-2.2-5.1s.1-.7.4-1.9a25.7,25.7,0,0,1,1.7-4.4l1.1-2a22.3,22.3,0,0,1,2.3-3.1,46.4,46.4,0,0,1,3.4-3.7l3.5-3a54.4,54.4,0,0,1,8.2-5.1,57.8,57.8,0,0,1,9.7-3.9,57.1,57.1,0,0,1,10.8-2.4l4.4-.5h6.5a90.8,90.8,0,0,1,11.3.8,77.1,77.1,0,0,1,10.7,2.4,59.6,59.6,0,0,1,18,9,28.8,28.8,0,0,1,3.3,2.8,36.2,36.2,0,0,1,2.8,2.9l.9,1.1a13.7,13.7,0,0,1,1.5,2.1,31.7,31.7,0,0,1,1.7,2.9,17.8,17.8,0,0,1,1.7,4.7,5.1,5.1,0,0,1,.6,2.5A4.9,4.9,0,0,1,312.7,382.5Zm-47.3-25.7-5.7.3-3.8.4a58.4,58.4,0,0,0-9.3,2.1,37.4,37.4,0,0,0-8,3.3A43.3,43.3,0,0,0,232,367l-1,.8,1.7-.3,1.2-.2,2.5-.3,3.6-.4c2.5-.3,5.3-.5,8.1-.6l8.6-.4h17.6l6.3.2,10.3.7,3.9.4,2.6.3,2.5.4-.9-.7a46.5,46.5,0,0,0-14.8-7.3,51.3,51.3,0,0,0-9.1-2A77.7,77.7,0,0,0,265.4,356.8Z" transform="translate(-2.3 -11.7)" fill="currentColor"/>
</svg>
