<svg id="Camada_1" data-name="Camada 1" xmlns="http://www.w3.org/2000/svg" viewBox="0 0 512.8 512.8">
    <path d="M256,512.4C114.6,512.4-.4,397.4-.4,256S114.6-.4,256-.4,512.4,114.6,512.4,256,397.4,512.4,256,512.4Zm0-491.3C126.5,21.1,21.1,126.5,21.1,256S126.5,490.9,256,490.9,490.9,385.5,490.9,256,385.5,21.1,256,21.1ZM373.9,207.8c0,32-13.7,58-30.6,58s-30.6-26-30.6-58,13.7-58,30.6-58S373.9,175.8,373.9,207.8Zm-30.6,63.4c-20.1,0-35.9-27.8-35.9-63.4s15.8-63.4,35.9-63.4,35.9,27.8,35.9,63.4S363.4,271.2,343.3,271.2Zm0-116c-11.9,0-25.2,21.6-25.2,52.7s13.3,52.6,25.2,52.6,25.2-21.6,25.2-52.6S355.2,155.2,343.3,155.2Zm-144,52.6c0,32-13.7,58-30.6,58s-30.6-26-30.6-58,13.7-58,30.6-58S199.3,175.8,199.3,207.8Zm-30.6,63.4c-20.2,0-35.9-27.8-35.9-63.4s15.8-63.4,35.9-63.4,35.9,27.8,35.9,63.4S188.9,271.2,168.7,271.2Zm0-116c-11.9,0-25.2,21.6-25.2,52.7s13.3,52.6,25.2,52.6,25.2-21.6,25.2-52.6S180.6,155.2,168.7,155.2Zm238.4-23.3-1.1-1.3c-.7-.8-1.7-2.2-3-3.5s-2.9-3-4.7-4.8l-3.1-2.7c-1.2-.8-2.2-1.8-3.5-2.7s-2.5-1.8-3.9-2.6l-2.1-1.3-2.2-1.2a49.1,49.1,0,0,0-4.6-2.2c-1.7-.5-3.2-1.4-4.9-1.9a70.2,70.2,0,0,0-10.5-2.7,80.4,80.4,0,0,0-11.1-.9h-5.8l-2.5.2-2.7.4-2.7.6a19.8,19.8,0,0,0-2.6.6l-2.6.7-2.5.8c-1.7.5-3.3,1.3-4.9,1.9a49.3,49.3,0,0,0-4.6,2.3l-2.2,1.2-2.1,1.3c-1.4.8-2.6,1.8-3.9,2.6s-2.3,1.8-3.5,2.7l-3.1,2.7-4.8,4.8-3,3.4-1.1,1.3s0-.6.1-1.7a25.9,25.9,0,0,1,.6-4.7,39.9,39.9,0,0,1,2.1-7.3c.5-1.3,1.2-2.8,1.9-4.3a44.6,44.6,0,0,1,2.7-4.5,57.3,57.3,0,0,1,7.7-9.1l2.4-2.2,2.6-2.1a58.7,58.7,0,0,1,5.9-3.7l3.2-1.7,3.4-1.4a53.6,53.6,0,0,1,7.1-2.3l3.7-.9c1.3-.3,2.7-.4,4-.6l2-.3h5.4a62.3,62.3,0,0,1,15,2,58.8,58.8,0,0,1,7.1,2.3l3.4,1.4,3.2,1.7a21.6,21.6,0,0,1,3,1.8l2.9,1.9c1.8,1.5,3.6,2.7,5.1,4.2l2.3,2.2c.7.8,1.4,1.5,2,2.3s2.4,3.1,3.5,4.6,1.8,3.1,2.7,4.5l1.9,4.3a49.9,49.9,0,0,1,2.1,7.3,24.1,24.1,0,0,1,.5,4.7A12.3,12.3,0,0,0,407.1,131.9Zm.2,5.4H407a5.3,5.3,0,0,1-3.9-1.8l-1.2-1.4a34.2,34.2,0,0,0-2.7-3.2c-1.4-1.6-2.9-3.1-4.6-4.8l-2.8-2.5-1.4-1.1-1.6-1.2-1.5-1-1.9-1.3-4.2-2.4-2.8-1.4-1.7-.8-1.9-.7a13.1,13.1,0,0,0-2.1-.8,63.4,63.4,0,0,0-10.2-2.6,68.9,68.9,0,0,0-10.1-.8l-10.2.8-1.3.3-2,.4-1.3.3-4.8,1.5a12.3,12.3,0,0,0-2.4.9l-2.6,1-1.1.6-2.4,1.2L320,119a16.7,16.7,0,0,0-2.4,1.5l-1.4,1-1.6,1.2-1.8,1.4-1.3,1.1-1.5,1.3-4.2,4.2c-1.4,1.4-2.2,2.5-2.9,3.3l-1.2,1.4a5.2,5.2,0,0,1-5.9,1.4,5.4,5.4,0,0,1-3.5-5s0-.8.1-2.2a30.6,30.6,0,0,1,.7-5.4,42.9,42.9,0,0,1,2.3-7.9c.7-1.6,1.4-3.1,2.1-4.8l.5-1a46.4,46.4,0,0,1,2.5-4.2,59.6,59.6,0,0,1,8.6-10.1l2.8-2.5,2.4-1.9,1.1-.8c1.8-1.2,3.7-2.5,5.7-3.6a29.7,29.7,0,0,1,3.5-1.8l3.5-1.5a66.4,66.4,0,0,1,7.9-2.6l3.7-.9,3.7-.6,6.7-.6h1.4a66.2,66.2,0,0,1,17.3,2.2,78.3,78.3,0,0,1,7.8,2.5l3.3,1.4,2.7,1.4,1,.5a25,25,0,0,1,3.5,2.1l2.9,2,2,1.6a44.7,44.7,0,0,1,4,3.4l4.6,4.8c1.2,1.4,2.3,2.9,3.4,4.4s2,3.2,2.7,4.4l.6,1.1c1,2,1.6,3.5,2.2,4.9a51.8,51.8,0,0,1,2.4,8.5,23.7,23.7,0,0,1,.5,4.3c0,.5.1.9.1,1.2a4.7,4.7,0,0,1,.3,1.7A5.6,5.6,0,0,1,407.3,137.3Zm-56-52.4-.5,5.4-5,.4-3.7.5-3.4.8a33.3,33.3,0,0,0-6.3,2.1l-3.3,1.4-1.7.9-1,.6a54,54,0,0,0-4.7,3l-3,2.3a10.8,10.8,0,0,0-1.9,1.7,50.9,50.9,0,0,0-7.2,8.4,7.5,7.5,0,0,0-.7,1.2,9.1,9.1,0,0,1,1.6-1.1l1.1-.8a24.9,24.9,0,0,1,3.2-2l4.4-2.5,3.1-1.6,1.5-.7,2.4-1,3.5-1.3,2.3-.8,1.2-.3,1.7-.5a9,9,0,0,1,2.2-.5l2.8,4.9-1.2-5.2,2.4-.5,11.5-.9a80.8,80.8,0,0,1,12.1,1,74.3,74.3,0,0,1,11.5,2.9l3,1.1,1.7.7,2.2,1,3.4,1.7,2,1,1.1.7,1.2.7a18.1,18.1,0,0,1,2.9,1.9l1.2.8,1.5,1.1-.7-1.2a37.7,37.7,0,0,0-3-4l-4.1-4.2a22.6,22.6,0,0,0-2.9-2.5l-1.8-1.4-2.4-1.5a17.4,17.4,0,0,0-2.6-1.5l-1.1-.6-1.9-1-3.1-1.3c-2-.8-4.2-1.5-6.3-2.1a59.1,59.1,0,0,0-13.8-1.8Zm-137,47-1.1-1.3c-.7-.8-1.7-2.2-3-3.5s-2.9-3-4.7-4.8a36.5,36.5,0,0,1-3-2.7c-1.2-.8-2.2-1.8-3.5-2.7s-2.5-1.8-3.9-2.6L193,113l-2.2-1.2c-1.4-.8-3.1-1.5-4.6-2.2s-3.2-1.4-4.9-1.9a70.2,70.2,0,0,0-10.5-2.7,80.4,80.4,0,0,0-11.1-.9h-5.8l-2.5.2-2.7.4-2.7.6a19.8,19.8,0,0,0-2.6.6l-2.6.7-2.5.8c-1.7.5-3.3,1.3-4.9,1.9s-3.1,1.4-4.6,2.3l-2.2,1.2-2.1,1.3c-1.4.8-2.6,1.8-3.9,2.6a32.4,32.4,0,0,0-3.5,2.7l-3.1,2.7q-2.9,2.7-4.8,4.8l-3,3.4-1.1,1.3s0-.6.1-1.7a25.9,25.9,0,0,1,.6-4.7,39.9,39.9,0,0,1,2.1-7.3c.6-1.3,1.2-2.8,2-4.3a44.6,44.6,0,0,1,2.7-4.5,57.3,57.3,0,0,1,7.7-9.1l2.5-2.2,2.6-2.1a49.2,49.2,0,0,1,5.9-3.7l3.2-1.7,3.4-1.4a53.6,53.6,0,0,1,7.1-2.3l3.7-.9c1.3-.3,2.7-.4,4-.6l2-.3H160a62.3,62.3,0,0,1,15,2,58.8,58.8,0,0,1,7.1,2.3l3.4,1.4,3.2,1.7,3,1.8,2.8,1.9c1.8,1.5,3.6,2.7,5.1,4.2l2.3,2.2c.7.8,1.4,1.5,2,2.3s2.4,3.1,3.5,4.6,1.8,3.1,2.7,4.5l1.9,4.3a38.8,38.8,0,0,1,2,7.3,24.1,24.1,0,0,1,.5,4.7A12.3,12.3,0,0,0,214.3,131.9Zm.2,5.4h-.3a5.3,5.3,0,0,1-3.9-1.8L209,134a31.5,31.5,0,0,0-2.7-3.1c-1.4-1.6-2.9-3.1-4.6-4.8l-2.9-2.5-1.3-1-1.6-1.2-1.5-1-1.9-1.3-4.3-2.4-2.6-1.3-1.8-.9h0l-1.8-.7-2.2-.8a63.4,63.4,0,0,0-10.2-2.6,67.7,67.7,0,0,0-10.1-.8l-10.2.8-1.3.3-2,.4-1.3.3-4.8,1.5-2.4.9-2.6,1-1.1.6c-.8.4-1.6.7-2.4,1.2l-4.4,2.5-2.2,1.4-1.5,1-1.7,1.3-1.7,1.3-1.3,1.2-1.5,1.3c-1.5,1.4-3,2.9-4.2,4.2s-2.2,2.5-2.9,3.3l-1.1,1.3A5.5,5.5,0,0,1,103,137a5.4,5.4,0,0,1-3.5-5s0-.7.1-2.1a31.8,31.8,0,0,1,.7-5.5,46.8,46.8,0,0,1,2.3-7.9c.7-1.7,1.4-3.2,2.2-4.8s.6-1,.6-1.1a30,30,0,0,1,2.5-4.1,53.7,53.7,0,0,1,8.5-10,18.7,18.7,0,0,1,2.9-2.5l2.5-2a67.5,67.5,0,0,1,6.7-4.3,29.7,29.7,0,0,1,3.5-1.8l3.5-1.5a66.4,66.4,0,0,1,7.9-2.6l3.7-.9,3.6-.6,6.7-.6h1.5a66,66,0,0,1,17.2,2.2,70.8,70.8,0,0,1,7.8,2.5l3.3,1.4,2.6,1.3,1,.6a25,25,0,0,1,3.5,2.1l3,2,1.9,1.5a44.7,44.7,0,0,1,4,3.4l4.6,4.8a31.5,31.5,0,0,1,3.1,4.1l.7,1a37.2,37.2,0,0,1,2.2,3.8l.6,1.1c1,2,1.6,3.5,2.2,4.9a44.1,44.1,0,0,1,2.4,8.6,35.6,35.6,0,0,1,.5,4.3v1.2a4.7,4.7,0,0,1,.3,1.7A5.3,5.3,0,0,1,214.5,137.3Zm-56-52.4-.5,5.4-4.9.4-3.7.5-3.5.8a33.3,33.3,0,0,0-6.3,2.1l-3.4,1.4-1.6.9-1.1.6a47.9,47.9,0,0,0-5.3,3.4l-2.4,1.9a10.8,10.8,0,0,0-1.9,1.7,45.6,45.6,0,0,0-7.1,8.4l-.8,1.2,1.5-1.1,1.2-.8a32.8,32.8,0,0,1,3.1-2l.9-.6,1-.6,2.5-1.4,3-1.5,1.6-.7,2.5-1,3.5-1.3L142,101a9,9,0,0,1,2.2-.5l2.8,4.9-1.2-5.2,2.4-.5,11.5-.9a80.8,80.8,0,0,1,12.1,1,74.3,74.3,0,0,1,11.5,2.9l3,1.1,1.7.7,2.3,1a20.6,20.6,0,0,1,3.3,1.7l2,1,1.2.7,1.1.7,2.9,1.9,1.2.8,1.5,1.1-.7-1.1-.5-.8a25.1,25.1,0,0,0-2.5-3.2l-4.1-4.3a22.6,22.6,0,0,0-2.9-2.5l-1.8-1.4-2.3-1.5L186,97l-1.2-.7-1.8-.9-3.1-1.3c-2-.8-4.2-1.5-6.3-2.1a59.1,59.1,0,0,0-13.8-1.8Zm132,318.9a9.6,9.6,0,0,1-6.9-2.9L214.5,329a9.6,9.6,0,1,1,13.9-13.3l69,71.9a9.5,9.5,0,0,1-.3,13.6A9.6,9.6,0,0,1,290.5,403.8Zm0,5.4a14.7,14.7,0,0,1-10.8-4.6l-69.1-71.9a14.8,14.8,0,0,1-4.2-10.7,15,15,0,0,1,4.6-10.5c5.7-5.5,15.6-5.3,21.2.5l69,71.9a15.1,15.1,0,0,1-.4,21.2A14.9,14.9,0,0,1,290.5,409.2Zm-69-91.2a4,4,0,0,0-2.9,1.2,4.2,4.2,0,0,0-1.3,3,4.2,4.2,0,0,0,1.2,3l69.1,71.9a4.4,4.4,0,0,0,6,.1,4.2,4.2,0,0,0,.1-6l-69-71.9A5.2,5.2,0,0,0,221.5,318Zm0,85.8a9.7,9.7,0,0,1-6.7-2.7,9.5,9.5,0,0,1-.3-13.6l69.1-71.9a9.6,9.6,0,0,1,13.9,13.3l-69,71.9A9.9,9.9,0,0,1,221.5,403.8Zm0,5.4a14.9,14.9,0,0,1-10.4-4.2,15.1,15.1,0,0,1-.4-21.2l69.1-71.9c5.5-5.7,15.5-5.9,21.2-.4a15,15,0,0,1,4.6,10.5,14.8,14.8,0,0,1-4.2,10.7l-69,71.9A15.6,15.6,0,0,1,221.5,409.2Zm69-91.2a4.2,4.2,0,0,0-3,1.3l-69.1,71.9a4.3,4.3,0,0,0,.1,6,4.4,4.4,0,0,0,6-.1l69-71.9a4.2,4.2,0,0,0,1.2-3,4.3,4.3,0,0,0-1.3-3A3.8,3.8,0,0,0,290.5,318Z" transform="translate(0.4 0.4)" fill="currentColor"/>
</svg>
