<?xml version="1.0" encoding="utf-8"?>
<!-- Generator: Adobe Illustrator 24.0.1, SVG Export Plug-In . SVG Version: 6.00 Build 0)  -->
<svg version="1.1" id="Camada_1" focusable="false" xmlns="http://www.w3.org/2000/svg" xmlns:xlink="http://www.w3.org/1999/xlink"
	 x="0px" y="0px" viewBox="0 0 512 512" style="enable-background:new 0 0 512 512;" xml:space="preserve">
<g>
	<g>
		<g>
			<g>
				<path fill="currentColor" d="M256,512.4C114.6,512.4-0.4,397.4-0.4,256S114.6-0.4,256-0.4s256.4,115,256.4,256.4S397.4,512.4,256,512.4z M256,21.1
					C126.5,21.1,21.1,126.5,21.1,256S126.5,490.9,256,490.9S490.9,385.5,490.9,256S385.5,21.1,256,21.1z"/>
			</g>
		</g>
	</g>
	<g>
		<g>
			<g>
				<path fill="currentColor" d="M373.9,207.8c0,32-13.7,58-30.6,58s-30.6-26-30.6-58s13.7-58,30.6-58C360.2,149.8,373.9,175.8,373.9,207.8z"/>
				<path fill="currentColor" d="M343.3,271.2c-20.1,0-35.9-27.8-35.9-63.4s15.8-63.4,35.9-63.4c20.2,0,35.9,27.8,35.9,63.4
					C379.2,243.3,363.4,271.2,343.3,271.2z M343.3,155.2c-11.9,0-25.2,21.6-25.2,52.7c0,31,13.3,52.6,25.2,52.6
					c11.9,0,25.2-21.6,25.2-52.6C368.5,176.8,355.2,155.2,343.3,155.2z"/>
			</g>
		</g>
		<g>
			<g>
				<path fill="currentColor" d="M199.3,207.8c0,32-13.7,58-30.6,58s-30.6-26-30.6-58s13.7-58,30.6-58C185.6,149.8,199.3,175.8,199.3,207.8z"/>
				<path fill="currentColor" d="M168.7,271.2c-20.2,0-35.9-27.8-35.9-63.4s15.8-63.4,35.9-63.4c20.2,0,35.9,27.8,35.9,63.4
					C204.7,243.3,188.9,271.2,168.7,271.2z M168.7,155.2c-11.9,0-25.2,21.6-25.2,52.7c0,31,13.3,52.6,25.2,52.6s25.2-21.6,25.2-52.6
					C193.9,176.8,180.6,155.2,168.7,155.2z"/>
			</g>
		</g>
	</g>
	<g>
		<g>
			<g>
				<path fill="currentColor" d="M407.1,131.9c0,0-0.4-0.5-1.1-1.3s-1.7-2.2-3-3.5c-1.2-1.4-2.9-3-4.7-4.8c-1-0.8-2-1.7-3.1-2.7
					c-1.2-0.8-2.2-1.8-3.5-2.7c-1.3-0.8-2.5-1.8-3.9-2.6c-0.7-0.4-1.4-0.9-2.1-1.3s-1.4-0.8-2.2-1.2c-1.4-0.8-3-1.5-4.6-2.2
					c-1.7-0.5-3.2-1.4-4.9-1.9c-3.3-1.2-6.9-2-10.5-2.7c-3.6-0.6-7.3-0.8-11.1-0.9l-2.9,0.1l-1.7,0.1l-1.2,0.1l-2.5,0.2
					c-0.9,0.1-1.8,0.3-2.7,0.4c-0.9,0.1-1.8,0.4-2.7,0.6c-0.9,0.2-1.8,0.3-2.6,0.6c-0.9,0.2-1.7,0.5-2.6,0.7
					c-0.9,0.3-1.7,0.6-2.5,0.8c-1.7,0.5-3.3,1.3-4.9,1.9c-1.6,0.8-3.2,1.4-4.6,2.3c-0.8,0.4-1.5,0.8-2.2,1.2
					c-0.7,0.4-1.4,0.9-2.1,1.3c-1.4,0.8-2.6,1.8-3.9,2.6c-1.3,0.8-2.3,1.8-3.5,2.7c-1.1,0.9-2.1,1.8-3.1,2.7
					c-1.8,1.8-3.5,3.4-4.8,4.8s-2.3,2.6-3,3.4s-1.1,1.3-1.1,1.3s0-0.6,0.1-1.7c0.1-1.1,0.1-2.7,0.6-4.7c0.3-2.1,1.1-4.5,2.1-7.3
					c0.5-1.3,1.2-2.8,1.9-4.3c0.8-1.4,1.6-3,2.7-4.5c2.1-3,4.6-6.2,7.7-9.1c0.8-0.8,1.6-1.5,2.4-2.2c0.9-0.7,1.7-1.4,2.6-2.1
					c1.9-1.3,3.8-2.6,5.9-3.7c1-0.6,2.1-1.2,3.2-1.7s2.2-1,3.4-1.4c2.3-0.9,4.6-1.7,7.1-2.3c1.2-0.3,2.5-0.6,3.7-0.9
					c1.3-0.3,2.7-0.4,4-0.6l2-0.3l1.7-0.1l1.7-0.1h0.8h0.4h0.6h0.2c5.1,0.1,10.2,0.7,15,2c2.4,0.6,4.8,1.4,7.1,2.3
					c1.1,0.5,2.2,0.9,3.4,1.4c1.1,0.5,2.1,1.1,3.2,1.7c1.1,0.5,2.1,1.2,3,1.8c1,0.6,1.9,1.3,2.9,1.9c1.8,1.5,3.6,2.7,5.1,4.2
					c0.8,0.7,1.5,1.5,2.3,2.2c0.7,0.8,1.4,1.5,2,2.3c1.3,1.5,2.4,3.1,3.5,4.6c1,1.5,1.8,3.1,2.7,4.5c0.7,1.5,1.3,2.9,1.9,4.3
					c1,2.8,1.7,5.2,2.1,7.3c0.5,2,0.4,3.6,0.5,4.7C407.1,131.3,407.1,131.9,407.1,131.9z"/>
				<path fill="currentColor" d="M407.3,137.3c-0.1,0-0.2,0-0.3,0c-1.5,0-2.9-0.7-3.9-1.8l-1.2-1.4c-1.1-1.4-1.8-2.3-2.7-3.2c-1.4-1.6-2.9-3.1-4.6-4.8
					l-2.8-2.5c-0.2-0.1-0.8-0.6-1.4-1.1c-0.5-0.4-1-0.8-1.6-1.2l-1.5-1c-0.6-0.4-1.2-0.9-1.9-1.3l-4.2-2.4c-1-0.6-1.9-1-2.8-1.4
					l-1.7-0.8c-0.2,0-1.1-0.4-1.9-0.7c-0.7-0.3-1.3-0.6-2.1-0.8c-3.3-1.2-6.5-1.9-10.2-2.6c-2.8-0.5-6.1-0.7-10.1-0.8l-10.2,0.8
					c-0.5,0.1-0.9,0.2-1.3,0.3l-2,0.4c-0.1,0-1.2,0.3-1.3,0.3l-4.8,1.5c-1.1,0.3-1.8,0.6-2.4,0.9c-0.8,0.4-1.7,0.7-2.6,1l-1.1,0.6
					c-0.8,0.4-1.7,0.8-2.4,1.2L320,119c-1,0.5-1.7,1-2.4,1.5l-1.4,1c-0.6,0.4-1.1,0.8-1.6,1.2c-0.6,0.5-1.2,0.9-1.8,1.4
					c-0.3,0.3-0.8,0.7-1.3,1.1l-1.5,1.3c-1.4,1.4-3,2.9-4.2,4.2c-1.4,1.4-2.2,2.5-2.9,3.3l-1.2,1.4c-1.5,1.7-3.8,2.2-5.9,1.4
					s-3.5-2.8-3.5-5c0,0,0-0.8,0.1-2.2c0.1-2,0.3-3.6,0.7-5.4c0.3-1.9,1-4.4,2.3-7.9c0.7-1.6,1.4-3.1,2.1-4.8c0-0.1,0.5-0.9,0.5-1
					c0.7-1.4,1.6-2.8,2.5-4.2c2.9-4.2,5.6-7.3,8.6-10.1c0.7-0.7,1.7-1.6,2.8-2.5l2.4-1.9c0.1-0.1,0.9-0.7,1.1-0.8
					c1.8-1.2,3.7-2.5,5.7-3.6c1.7-1,2.6-1.4,3.5-1.8l3.5-1.5c2.5-1,5.2-1.9,7.9-2.6l3.7-0.9c1.3-0.3,2.5-0.4,3.7-0.6l6.7-0.6
					c0.1,0,1.4-0.1,1.4-0.1c6.9,0.1,12.3,0.8,17.3,2.2c2.6,0.7,5.2,1.5,7.8,2.5l3.3,1.4c1.1,0.5,1.9,1,2.7,1.4l1,0.5
					c1.2,0.6,2.4,1.3,3.5,2.1c1,0.6,2,1.3,2.9,2l2,1.6c1.4,1.1,2.8,2.2,4,3.4l4.6,4.8c1.2,1.4,2.3,2.9,3.4,4.4
					c1.3,1.9,2,3.2,2.7,4.4l0.6,1.1c1,2,1.6,3.5,2.2,4.9c1.2,3.4,2,6.1,2.4,8.5c0.4,1.5,0.4,3.1,0.5,4.3c0,0.5,0.1,0.9,0.1,1.2
					c0.2,0.5,0.3,1.1,0.3,1.7C412.7,134.9,410.3,137.3,407.3,137.3z M351.3,84.9l-0.5,5.4l-5,0.4c-1.9,0.2-2.8,0.3-3.7,0.5l-3.4,0.8
					c-2.2,0.5-4.3,1.2-6.3,2.1l-3.3,1.4c-0.5,0.2-1.1,0.6-1.7,0.9l-1,0.6c-1.7,0.9-3.2,2-4.7,3l-3,2.3c-0.8,0.6-1.4,1.1-1.9,1.7
					c-2.6,2.4-4.8,5-7.2,8.4c-0.3,0.4-0.5,0.8-0.7,1.2c0.5-0.4,1-0.8,1.6-1.1l1.1-0.8c1-0.7,2-1.4,3.2-2l4.4-2.5
					c0.8-0.5,1.9-1,3.1-1.6l1.5-0.7c1.3-0.5,1.9-0.7,2.4-1c1.1-0.5,2.3-0.9,3.5-1.3l2.3-0.8c0.1,0,1.1-0.3,1.2-0.3l1.7-0.5
					c0.5-0.2,1.3-0.4,2.2-0.5l2.8,4.9l-1.2-5.2c0.8-0.2,1.6-0.4,2.4-0.5l11.5-0.9c4.8,0.1,8.6,0.4,12.1,1c4.2,0.8,7.9,1.6,11.5,2.9
					c0.8,0.2,1.9,0.6,3,1.1c0.6,0.2,1.1,0.5,1.7,0.7l2.2,1c1.2,0.5,2.3,1.1,3.4,1.7l2,1c0.1,0.1,1,0.6,1.1,0.7l1.2,0.7
					c1,0.5,2,1.2,2.9,1.9l1.2,0.8c0.6,0.4,1,0.7,1.5,1.1c-0.2-0.4-0.5-0.8-0.7-1.2c-1.1-1.6-2-2.9-3-4l-4.1-4.2
					c-0.9-1-1.9-1.7-2.9-2.5l-1.8-1.4c-0.5-0.3-1.4-0.9-2.4-1.5c-0.9-0.6-1.7-1.1-2.6-1.5l-1.1-0.6c-0.6-0.3-1.3-0.7-1.9-1l-3.1-1.3
					c-2-0.8-4.2-1.5-6.3-2.1c-4.2-1.1-8.8-1.7-13.8-1.8L351.3,84.9z"/>
			</g>
		</g>
		<g>
			<g>
				<path fill="currentColor" d="M214.3,131.9c0,0-0.4-0.5-1.1-1.3c-0.7-0.8-1.7-2.2-3-3.5c-1.2-1.4-2.9-3-4.7-4.8c-1-0.8-2-1.7-3-2.7
					c-1.2-0.8-2.2-1.8-3.5-2.7c-1.3-0.8-2.5-1.8-3.9-2.6c-0.7-0.4-1.4-0.9-2.1-1.3c-0.7-0.4-1.5-0.8-2.2-1.2
					c-1.4-0.8-3.1-1.5-4.6-2.2c-1.7-0.5-3.2-1.4-4.9-1.9c-3.3-1.2-6.9-2-10.5-2.7c-3.6-0.6-7.3-0.8-11.1-0.9l-2.9,0.1l-1.7,0.1
					l-1.2,0.1l-2.5,0.2c-0.9,0.1-1.8,0.3-2.7,0.4s-1.8,0.4-2.7,0.6s-1.8,0.3-2.6,0.6c-0.9,0.2-1.8,0.5-2.6,0.7
					c-0.8,0.3-1.7,0.6-2.5,0.8c-1.7,0.5-3.3,1.3-4.9,1.9c-1.5,0.8-3.1,1.4-4.6,2.3c-0.8,0.4-1.5,0.8-2.2,1.2
					c-0.7,0.4-1.4,0.9-2.1,1.3c-1.4,0.8-2.6,1.8-3.9,2.6c-1.3,0.8-2.4,1.8-3.5,2.7c-1.1,0.9-2.1,1.8-3.1,2.7
					c-1.9,1.8-3.5,3.4-4.8,4.8s-2.3,2.6-3,3.4s-1.1,1.3-1.1,1.3s0-0.6,0.1-1.7c0.1-1.1,0.1-2.7,0.6-4.7c0.3-2.1,1.1-4.5,2.1-7.3
					c0.6-1.3,1.2-2.8,2-4.3c0.8-1.4,1.6-3,2.7-4.5c2.1-3,4.6-6.2,7.7-9.1c0.8-0.8,1.6-1.5,2.5-2.2s1.7-1.4,2.6-2.1
					c1.8-1.3,3.8-2.6,5.9-3.7c1-0.6,2.1-1.2,3.2-1.7c1.1-0.5,2.2-1,3.4-1.4c2.3-0.9,4.6-1.7,7.1-2.3c1.2-0.3,2.5-0.6,3.7-0.9
					c1.3-0.3,2.7-0.4,4-0.6l2-0.3l1.6-0.1l1.7-0.1h0.8h0.4h0.6h0.2c5.1,0.1,10.2,0.7,15,2c2.4,0.6,4.8,1.4,7.1,2.3
					c1.1,0.5,2.2,0.9,3.4,1.4c1.1,0.5,2.1,1.1,3.2,1.7c1,0.5,2.1,1.2,3,1.8c1,0.6,1.9,1.3,2.8,1.9c1.8,1.5,3.6,2.7,5.1,4.2
					c0.8,0.7,1.5,1.5,2.3,2.2c0.7,0.8,1.4,1.5,2,2.3c1.3,1.5,2.4,3.1,3.5,4.6c1,1.5,1.8,3.1,2.7,4.5c0.7,1.5,1.3,2.9,1.9,4.3
					c1,2.8,1.7,5.2,2,7.3c0.5,2,0.4,3.6,0.5,4.7C214.3,131.3,214.3,131.9,214.3,131.9z"/>
				<path fill="currentColor" d="M214.5,137.3c0,0-0.2,0-0.3,0c-1.5,0-2.9-0.7-3.9-1.8L209,134c-1.1-1.4-1.8-2.2-2.7-3.1c-1.4-1.6-2.9-3.1-4.6-4.8
					l-2.9-2.5c-0.1-0.1-0.7-0.5-1.3-1c-0.5-0.4-1-0.8-1.6-1.2l-1.5-1c-0.6-0.4-1.2-0.9-1.9-1.3l-4.3-2.4c-0.9-0.5-1.8-0.9-2.6-1.3
					l-1.8-0.9l0,0c-0.2,0-1-0.3-1.8-0.7c-0.7-0.3-1.4-0.6-2.2-0.8c-3.3-1.2-6.5-1.9-10.2-2.6c-2.8-0.5-6-0.7-10.1-0.8l-10.2,0.8
					c-0.5,0.1-0.9,0.2-1.3,0.3l-2,0.4c-0.1,0-1.2,0.3-1.3,0.3l-4.8,1.5c-1,0.3-1.7,0.6-2.4,0.9c-0.8,0.4-1.7,0.7-2.6,1l-1.1,0.6
					c-0.8,0.4-1.6,0.7-2.4,1.2l-4.4,2.5c-0.8,0.5-1.5,0.9-2.2,1.4l-1.5,1c-0.6,0.4-1.1,0.8-1.7,1.3s-1.1,0.9-1.7,1.3
					c-0.3,0.3-0.8,0.7-1.3,1.2l-1.5,1.3c-1.5,1.4-3,2.9-4.2,4.2c-1.4,1.4-2.2,2.5-2.9,3.3l-1.1,1.3c-1.5,1.7-3.8,2.3-5.9,1.6
					c-2.1-0.8-3.5-2.8-3.5-5c0,0,0-0.7,0.1-2.1c0.1-2,0.3-3.7,0.7-5.5c0.3-1.9,1.1-4.6,2.3-7.9c0.7-1.7,1.4-3.2,2.2-4.8
					c0-0.1,0.6-1,0.6-1.1c0.7-1.3,1.5-2.8,2.5-4.1c2.7-4,5.5-7.3,8.5-10c0.7-0.8,1.8-1.7,2.9-2.5l2.5-2c2.4-1.7,4.5-3.1,6.7-4.3
					c1.7-1,2.6-1.4,3.5-1.8l3.5-1.5c2.5-1,5.2-1.9,7.9-2.6l3.7-0.9c1.3-0.3,2.5-0.4,3.6-0.6l6.7-0.6c0.1,0,1.4-0.1,1.5-0.1
					c6.8,0.1,12.2,0.8,17.2,2.2c2.6,0.7,5.3,1.5,7.8,2.5l3.3,1.4c1,0.5,1.8,0.9,2.6,1.3l1,0.6c1.2,0.6,2.4,1.3,3.5,2.1
					c1,0.6,2,1.3,3,2l1.9,1.5c1.4,1.1,2.8,2.2,4,3.4l4.6,4.8c1.1,1.2,2.2,2.7,3.1,4.1c0,0,0.7,0.9,0.7,1c0.8,1.3,1.6,2.5,2.2,3.8
					l0.6,1.1c1,2,1.6,3.5,2.2,4.9c1.3,3.4,2,6.2,2.4,8.6c0.3,1.5,0.4,3,0.5,4.3l0.1,1.2c0.2,0.5,0.3,1.1,0.3,1.7
					C219.9,134.9,217.5,137.3,214.5,137.3z M158.5,84.9l-0.5,5.4l-4.9,0.4c-1.9,0.2-2.8,0.3-3.7,0.5l-3.5,0.8
					c-2.2,0.5-4.3,1.2-6.3,2.1l-3.4,1.4c-0.5,0.2-1,0.5-1.6,0.9l-1.1,0.6c-1.9,1-3.6,2.2-5.3,3.4l-2.4,1.9c-0.8,0.6-1.4,1.1-1.9,1.7
					c-2.6,2.4-4.9,5.1-7.1,8.4c-0.3,0.4-0.5,0.8-0.8,1.2c0.5-0.4,1-0.8,1.5-1.1l1.2-0.8c1-0.7,2-1.4,3.1-2l0.9-0.6
					c0,0,0.9-0.6,1-0.6l2.5-1.4c0.8-0.5,1.9-1,3-1.5l1.6-0.7c1.3-0.5,1.9-0.7,2.5-1c1.1-0.5,2.3-0.9,3.5-1.3l5.2-1.6
					c0.5-0.2,1.3-0.4,2.2-0.5l2.8,4.9l-1.2-5.2c0.8-0.2,1.6-0.4,2.4-0.5l11.5-0.9c4.8,0.1,8.6,0.4,12.1,1c4.2,0.8,7.9,1.6,11.5,2.9
					c0.8,0.2,1.9,0.6,3,1.1c0.6,0.2,1.2,0.5,1.7,0.7l2.3,1c1.1,0.5,2.3,1,3.3,1.7l2,1c0.2,0.1,1.1,0.7,1.2,0.7l1.1,0.7
					c0.9,0.5,1.9,1.2,2.9,1.9l1.2,0.8c0.5,0.4,1,0.7,1.5,1.1c-0.2-0.4-0.5-0.8-0.7-1.1l-0.5-0.8c-0.8-1.1-1.5-2.2-2.5-3.2l-4.1-4.3
					c-0.9-1-1.9-1.7-2.9-2.5l-1.8-1.4c-0.5-0.4-1.4-0.9-2.3-1.5c-0.9-0.6-1.8-1.1-2.7-1.6l-1.2-0.7c-0.6-0.3-1.2-0.6-1.8-0.9
					l-3.1-1.3c-2-0.8-4.2-1.5-6.3-2.1c-4.2-1.1-8.8-1.7-13.8-1.8L158.5,84.9z"/>
			</g>
		</g>
	</g>
	<g>
		<g>
			<g>
				<path fill="currentColor" d="M290.5,403.8c-2.5,0-5.1-1-6.9-2.9L214.5,329c-3.7-3.8-3.6-9.9,0.3-13.6c3.8-3.7,9.9-3.6,13.6,0.3l69,71.9
					c3.7,3.9,3.6,9.9-0.3,13.6C295.3,402.9,292.9,403.8,290.5,403.8z"/>
				<path fill="currentColor" d="M290.5,409.2c-4.1,0-8-1.6-10.8-4.6l-69.1-71.9c-2.8-2.9-4.3-6.7-4.2-10.7s1.7-7.7,4.6-10.5c5.7-5.5,15.6-5.3,21.2,0.5
					l69,71.9c5.7,6,5.5,15.5-0.4,21.2C298.1,407.7,294.4,409.2,290.5,409.2z M221.5,318c-1.1,0-2.1,0.4-2.9,1.2
					c-0.8,0.8-1.3,1.8-1.3,3c0,1.1,0.4,2.2,1.2,3l69.1,71.9c1.6,1.6,4.4,1.7,6,0.1c1.7-1.6,1.8-4.3,0.1-6l-69-71.9
					C223.7,318.5,222.6,318,221.5,318z"/>
			</g>
		</g>
		<g>
			<g>
				<path fill="currentColor" d="M221.5,403.8c-2.4,0-4.8-0.9-6.7-2.7c-3.9-3.7-4-9.8-0.3-13.6l69.1-71.9c3.7-3.9,9.8-4,13.6-0.3c3.8,3.7,4,9.8,0.3,13.6
					l-69,71.9C226.5,402.8,224,403.8,221.5,403.8z"/>
				<path fill="currentColor" d="M221.5,409.2c-3.9,0-7.6-1.5-10.4-4.2c-5.9-5.7-6.1-15.2-0.4-21.2l69.1-71.9c5.5-5.7,15.5-5.9,21.2-0.4
					c2.9,2.8,4.5,6.5,4.6,10.5s-1.4,7.8-4.2,10.7l-69,71.9C229.4,407.5,225.6,409.2,221.5,409.2z M290.5,318c-1.2,0-2.2,0.5-3,1.3
					l-69.1,71.9c-1.6,1.7-1.6,4.4,0.1,6c1.6,1.6,4.4,1.5,6-0.1l69-71.9c0.8-0.8,1.2-1.9,1.2-3s-0.5-2.2-1.3-3
					C292.7,318.4,291.6,318,290.5,318z"/>
			</g>
		</g>
	</g>
</g>
</svg>
